<?xml version="1.0" standalone="no"?>
<!DOCTYPE svg PUBLIC "-//W3C//DTD SVG 1.1//EN" "http://www.w3.org/Graphics/SVG/1.1/DTD/svg11.dtd" >
<svg xmlns="http://www.w3.org/2000/svg">
<metadata></metadata>
<defs>
<font id="db_sathorn_xregular" horiz-adv-x="0" >
<font-face units-per-em="2048" ascent="1638" descent="-410" />
<missing-glyph horiz-adv-x="512" />
<glyph unicode="&#x2b;&#x2d;" horiz-adv-x="1181" d="M164 0v111h856v-111h-856zM166 629v102h375v354h102v-354h375v-102h-375v-355h-102v355h-375z" />
<glyph unicode="&#x2e;&#x2e;&#x2e;" horiz-adv-x="1042" d="M104 0v139h146v-139h-146zM449 0v139h145v-139h-145zM793 0v139h145v-139h-145z" />
<glyph unicode="&#x3c;&#x3d;" horiz-adv-x="1060" d="M137 371v131l807 -316v-120zM137 616v140l807 305v-123l-670 -248l670 -258v-121z" />
<glyph unicode="&#x3e;&#x3d;" horiz-adv-x="1060" d="M131 66v120l807 314v-129zM131 311v121l670 258l-670 248v123l807 -305v-140z" />
<glyph unicode="&#xe4f;&#x22;" horiz-adv-x="1024" d="M102 426q0 84 33 158.5t88.5 130t130 88.5t158.5 33q86 0 161 -33t130 -88.5t88 -130t33 -158.5q0 -86 -33 -161t-88 -130t-130 -88t-161 -33q-84 0 -158.5 33t-130 88t-88.5 130t-33 161zM180 426q0 -70 25.5 -130t71 -105.5t105.5 -72t130 -26.5t130 26.5t105.5 72 t72 105.5t26.5 130t-26.5 130t-72 105.5t-105.5 72t-130 26.5t-130 -26.5t-105.5 -72t-71 -105.5t-25.5 -130zM279 426q0 49 18 91t50 74t74 50t91 18t91 -18t74 -50t50 -74t18 -91t-18 -91t-50 -74t-74 -50t-91 -18t-91 18t-74 50t-50 74t-18 91zM342 426q0 -72 49 -121 t121 -49t121 49t49 121t-49 121t-121 49t-121 -49t-49 -121zM348 1243h121l-29 -336h-69zM555 1243h121l-29 -336h-69z" />
<glyph unicode="&#xe0e;&#xe3a;" horiz-adv-x="907" d="M35 0v82h90v414q0 66 11 106.5t54 85.5l-20 8t-22.5 6.5t-26.5 2.5v55q23 18 62.5 36.5t91 35t106.5 26.5t108 10q61 0 115.5 -12t96.5 -40t67 -71t25 -104v-717q0 -35 -11.5 -70.5t-36 -63.5t-62.5 -45t-91 -17h-182l-86 86l-86 -86h-185v86h156l115 114l114 -114h107 q23 0 44 4t38.5 19.5t28 47t10.5 84.5v643q0 76 -46.5 125t-146.5 49q-47 0 -87 -14t-68.5 -37.5t-45 -55.5t-16.5 -69v-610h-221zM645 -457q0 35 21.5 56.5t56.5 21.5t56.5 -21.5t21.5 -56.5t-21.5 -56.5t-56.5 -21.5t-56.5 21.5t-21.5 56.5z" />
<glyph unicode="&#xe0f;&#xe3a;" horiz-adv-x="907" d="M35 0v82h90v414q0 66 11 106.5t54 85.5l-20 8t-22.5 6.5t-26.5 2.5v55q23 18 62.5 36.5t91 35t106.5 26.5t108 10q61 0 115.5 -12t96.5 -40t67 -71t25 -104v-717q0 -35 -12.5 -70.5t-37 -63.5t-62.5 -45t-91 -17h-53l-86 86l-86 -86h-58l-86 86l-86 -86h-82v86h53 l115 114l115 -114l115 114l114 -114q47 0 74 28.5t27 106.5v663q0 76 -46.5 125t-146.5 49q-47 0 -87 -14t-68.5 -37.5t-45 -55.5t-16.5 -69v-610h-221zM645 -457q0 35 21.5 56.5t56.5 21.5t56.5 -21.5t21.5 -56.5t-21.5 -56.5t-56.5 -21.5t-56.5 21.5t-21.5 56.5z" />
<glyph unicode="&#xe0e;&#xe38;" horiz-adv-x="907" d="M35 0v82h90v414q0 66 11 106.5t54 85.5l-20 8t-22.5 6.5t-26.5 2.5v55q23 18 62.5 36.5t91 35t106.5 26.5t108 10q61 0 115.5 -12t96.5 -40t67 -71t25 -104v-717q0 -35 -11.5 -70.5t-36 -63.5t-62.5 -45t-91 -17h-182l-86 86l-86 -86h-185v86h156l115 114l114 -114h107 q23 0 44 4t38.5 19.5t28 47t10.5 84.5v643q0 76 -46.5 125t-146.5 49q-47 0 -87 -14t-68.5 -37.5t-45 -55.5t-16.5 -69v-610h-221zM584 -461l26 84h109q35 0 54.5 -23.5t19.5 -62.5v-164h-113v123q0 43 -41 43h-55z" />
<glyph unicode="&#xe0f;&#xe38;" horiz-adv-x="907" d="M35 0v82h90v414q0 66 11 106.5t54 85.5l-20 8t-22.5 6.5t-26.5 2.5v55q23 18 62.5 36.5t91 35t106.5 26.5t108 10q61 0 115.5 -12t96.5 -40t67 -71t25 -104v-717q0 -35 -12.5 -70.5t-37 -63.5t-62.5 -45t-91 -17h-53l-86 86l-86 -86h-58l-86 86l-86 -86h-82v86h53 l115 114l115 -114l115 114l114 -114q47 0 74 28.5t27 106.5v663q0 76 -46.5 125t-146.5 49q-47 0 -87 -14t-68.5 -37.5t-45 -55.5t-16.5 -69v-610h-221zM584 -461l26 84h109q35 0 54.5 -23.5t19.5 -62.5v-164h-113v123q0 43 -41 43h-55z" />
<glyph unicode="&#xe0e;&#xe39;" horiz-adv-x="907" d="M35 0v82h90v414q0 66 11 106.5t54 85.5l-20 8t-22.5 6.5t-26.5 2.5v55q23 18 62.5 36.5t91 35t106.5 26.5t108 10q61 0 115.5 -12t96.5 -40t67 -71t25 -104v-717q0 -35 -11.5 -70.5t-36 -63.5t-62.5 -45t-91 -17h-182l-86 86l-86 -86h-185v86h156l115 114l114 -114h107 q23 0 44 4t38.5 19.5t28 47t10.5 84.5v643q0 76 -46.5 125t-146.5 49q-47 0 -87 -14t-68.5 -37.5t-45 -55.5t-16.5 -69v-610h-221zM317 -455l35 80h99q35 0 50 -23.5t15 -62.5v-57q0 -23 19.5 -38t56.5 -15q76 0 76 65v131h123v-133q0 -82 -49.5 -109.5t-151.5 -27.5 q-96 0 -137 32.5t-41 67.5v43q0 47 -41 47h-54z" />
<glyph unicode="&#xe0f;&#xe39;" horiz-adv-x="907" d="M35 0v82h90v414q0 66 11 106.5t54 85.5l-20 8t-22.5 6.5t-26.5 2.5v55q23 18 62.5 36.5t91 35t106.5 26.5t108 10q61 0 115.5 -12t96.5 -40t67 -71t25 -104v-717q0 -35 -12.5 -70.5t-37 -63.5t-62.5 -45t-91 -17h-53l-86 86l-86 -86h-58l-86 86l-86 -86h-82v86h53 l115 114l115 -114l115 114l114 -114q47 0 74 28.5t27 106.5v663q0 76 -46.5 125t-146.5 49q-47 0 -87 -14t-68.5 -37.5t-45 -55.5t-16.5 -69v-610h-221zM317 -455l35 80h99q35 0 50 -23.5t15 -62.5v-57q0 -23 19.5 -38t56.5 -15q76 0 76 65v131h123v-133q0 -82 -49.5 -109.5 t-151.5 -27.5q-96 0 -137 32.5t-41 67.5v43q0 47 -41 47h-54z" />
<glyph unicode="&#xd;" horiz-adv-x="579" />
<glyph unicode=" "  horiz-adv-x="512" />
<glyph unicode="&#x09;" horiz-adv-x="512" />
<glyph unicode="&#xa0;" horiz-adv-x="512" />
<glyph unicode="!" horiz-adv-x="491" d="M156 1081h186l-61 -809h-68zM166 0v168h164v-168h-164z" />
<glyph unicode="&#x22;" horiz-adv-x="667" d="M113 750l90 434h145l-151 -434h-84zM348 750l92 434h146l-152 -434h-86z" />
<glyph unicode="#" horiz-adv-x="1024" d="M90 326l19 100h163l47 250h-163l18 100h164l59 305h103l-60 -305h230l57 305h104l-57 -305h160l-21 -100h-159l-47 -250h159l-20 -100h-160l-61 -326h-101l60 326h-230l-61 -326h-103l64 326h-164zM375 426h229l47 250h-229z" />
<glyph unicode="$" horiz-adv-x="1107" d="M90 315l129 29q29 -111 103.5 -178.5t185.5 -83.5v467q-41 10 -101.5 26.5t-118 50t-97 92t-39.5 152.5q0 80 28.5 138.5t77.5 98.5t113.5 61.5t136.5 25.5v106h117v-108q123 -16 215 -84t131 -201l-131 -35q-16 80 -72.5 140.5t-142.5 81.5v-424q70 -12 139.5 -35 t122.5 -63t87 -97t34 -139q0 -68 -25 -128.5t-73 -108.5t-119.5 -78.5t-165.5 -36.5v-138h-117v138q-158 12 -264.5 89t-153.5 242zM289 891q0 -49 18.5 -82t49 -54.5t70.5 -33.5t81 -23v404q-104 -8 -161.5 -64.5t-57.5 -146.5zM625 80q123 14 179 80.5t56 154.5 t-66.5 134.5t-168.5 70.5v-440z" />
<glyph unicode="%" horiz-adv-x="1400" d="M104 897q0 57 14.5 113.5t43 100.5t75 70.5t111.5 26.5q66 0 113 -26.5t77.5 -70.5t45 -100.5t14.5 -113.5q0 -55 -14.5 -110.5t-45 -99.5t-77.5 -71.5t-111 -27.5q-63 0 -109 27.5t-77 71.5t-45.5 99.5t-14.5 110.5zM219 897q0 -31 4 -72t18.5 -76.5t40 -61t68.5 -25.5 t69.5 25.5t40 61t18.5 76.5t5 72q0 37 -6 78t-20.5 75.5t-40 58.5t-68.5 24q-41 0 -66.5 -24t-40 -58.5t-18.5 -75.5t-4 -78zM270 0l729 1182h134l-723 -1182h-140zM819 291q0 57 14.5 113.5t43 100.5t74.5 70.5t112 26.5t113 -26.5t77.5 -70.5t45 -100.5t14.5 -113.5 q0 -55 -14.5 -110.5t-45 -99.5t-78 -71.5t-110.5 -27.5t-109.5 27.5t-77 71.5t-45 99.5t-14.5 110.5zM934 291q0 -31 4 -72t18.5 -77t40 -61.5t68.5 -25.5t69.5 25.5t40 61.5t18.5 77t5 72q0 37 -6 78t-20.5 75.5t-40 58t-68.5 23.5q-41 0 -66.5 -23.5t-40 -58t-18.5 -75.5 t-4 -78z" />
<glyph unicode="&#x26;" horiz-adv-x="1380" d="M209 238q-25 109 42.5 222t209.5 193l-107 142q-57 76 -53 157q0 47 19.5 90t53.5 76t82 52.5t109 19.5q59 0 110.5 -15.5t89.5 -46t59.5 -76.5t21.5 -110q0 -104 -58.5 -173t-169.5 -132l297 -381q43 49 72 112.5t45 129.5l119 -29q-29 -84 -73 -164t-97 -133 q23 -29 48.5 -49.5t41.5 -22.5q29 -4 60.5 -5t85.5 14l-5 -105q-23 -4 -45 -6q-20 -2 -41.5 -3t-44.5 -1q-39 0 -87 20.5t-95 79.5q-63 -51 -140 -79.5t-169 -28.5q-176 0 -266.5 72.5t-114.5 179.5zM344 240q8 -33 31.5 -64t57.5 -54.5t75 -37.5t82 -14q78 0 139.5 28.5 t110.5 71.5l-324 412q-121 -76 -157.5 -160t-14.5 -182zM424 977q-10 -63 29 -115l110 -149q86 53 129 104t43 125q0 25 -6 53.5t-24.5 53t-51 40t-86.5 15.5q-66 0 -101.5 -39t-41.5 -88z" />
<glyph unicode="'" horiz-adv-x="407" d="M100 748l90 436h136l-142 -436h-84z" />
<glyph unicode="(" horiz-adv-x="614" d="M121 551q0 106 25.5 209.5t68.5 197t100.5 171t120.5 137.5h82q-55 -68 -103 -154t-83 -180t-54.5 -190.5t-19.5 -184.5q0 -92 19.5 -191.5t53.5 -195.5t82 -183t107 -155h-82q-66 59 -124 134t-101 166t-67.5 195.5t-24.5 223.5z" />
<glyph unicode=")" horiz-adv-x="614" d="M98 -168q57 68 106.5 155t83.5 183t53 195.5t19 191.5q0 88 -19 184.5t-54 190.5t-83 180t-104 154h82q63 -59 120.5 -137t100.5 -171.5t69 -197t26 -209.5q0 -119 -24.5 -223.5t-68 -195.5t-101.5 -166t-124 -134h-82z" />
<glyph unicode="*" horiz-adv-x="786" d="M104 928l39 116l224 -98l-27 238h123l-25 -238l217 98l39 -116l-233 -49l160 -177l-99 -71l-121 205l-120 -209l-99 71l162 181z" />
<glyph unicode="+" horiz-adv-x="1181" d="M166 424v102h375v355h102v-355h375v-102h-375v-354h-102v354h-375z" />
<glyph unicode="," horiz-adv-x="462" d="M117 -258l108 258h-80v178h181v-170l-146 -266h-63z" />
<glyph unicode="-" horiz-adv-x="790" d="M29 420v110h733v-110h-733z" />
<glyph unicode="." horiz-adv-x="462" d="M147 0v178h177v-178h-177z" />
<glyph unicode="/" horiz-adv-x="659" d="M131 -43l281 1225h116l-280 -1225h-117z" />
<glyph unicode="0" horiz-adv-x="962" d="M76 543q0 92 20.5 190t68.5 178t125 132.5t187 52.5q117 0 197 -52.5t129 -132.5t70.5 -178t21.5 -190q0 -98 -22.5 -197.5t-71.5 -179.5t-126 -130t-186 -50q-111 0 -189.5 52t-128.5 133t-72.5 180.5t-22.5 191.5zM221 543q0 -68 10.5 -149t39 -151.5t80.5 -118.5 t138 -48q80 0 130.5 46t80 116.5t40 151.5t10.5 153q0 61 -9.5 141t-38 151.5t-82 122t-141.5 50.5q-82 0 -132 -49.5t-77.5 -121t-38 -151.5t-10.5 -143z" />
<glyph unicode="1" horiz-adv-x="962" d="M209 741v121q90 39 157.5 87t133.5 132h98v-981h213v-100h-563v100h215v777q-63 -53 -119.5 -81t-134.5 -55z" />
<glyph unicode="2" horiz-adv-x="962" d="M119 780q39 147 133 232.5t242 85.5q82 0 150.5 -29t116.5 -77t74.5 -111t26.5 -133q0 -133 -60.5 -222.5t-152.5 -165.5l-311 -258h516v-102h-707v84l398 332q78 63 125 141t47 191q0 51 -15.5 99t-44 84t-70.5 57.5t-93 21.5q-55 0 -96.5 -21.5t-71 -57.5t-49 -84 t-27.5 -102z" />
<glyph unicode="3" horiz-adv-x="962" d="M98 246l125 41q20 -100 93 -157.5t169 -57.5q123 0 184.5 62.5t61.5 154.5q0 53 -20.5 94t-54 68.5t-76.5 42t-88 16.5h-144v104h150q98 4 147 57.5t49 145.5q0 86 -55 138.5t-145 52.5q-82 0 -147.5 -48.5t-88.5 -142.5l-129 35q37 127 137.5 186.5t227.5 59.5 q72 0 133 -20.5t107 -57.5t71.5 -90t25.5 -119q0 -98 -55 -164.5t-147 -81.5v-4q45 -4 89 -25.5t77.5 -57.5t55 -85t21.5 -110q0 -53 -21.5 -105.5t-68.5 -94.5t-120.5 -68.5t-180.5 -26.5q-68 0 -129 15t-111.5 48t-87 81t-55.5 114z" />
<glyph unicode="4" horiz-adv-x="962" d="M59 252v90l496 739h168v-725h182v-104h-182v-252h-131v252h-533zM201 356h391v613z" />
<glyph unicode="5" horiz-adv-x="962" d="M100 244l123 47q29 -102 97.5 -160.5t158.5 -58.5q139 0 204 83t65 210q0 135 -71 209.5t-183 74.5q-174 0 -246 -176l-121 27l41 581h639l-14 -96h-517l-24 -367q31 61 99.5 92t146.5 31q86 0 155.5 -28.5t118.5 -79.5t75.5 -119.5t26.5 -148.5q0 -84 -29.5 -153 t-81.5 -119t-125 -77.5t-159 -27.5q-123 0 -225 59t-154 197z" />
<glyph unicode="6" horiz-adv-x="962" d="M82 516q0 109 23.5 213.5t74.5 185t133 131t201 50.5q135 0 224 -61.5t130 -178.5l-116 -33q-55 186 -238 187q-96 0 -155.5 -49.5t-93.5 -124t-47 -160.5t-13 -160q29 98 108.5 160.5t208.5 62.5q82 0 149.5 -28.5t115 -79.5t73 -122t25.5 -153q0 -80 -30 -147.5 t-82 -116.5t-121.5 -76.5t-149.5 -27.5q-113 0 -193 46t-130 120.5t-73.5 169t-23.5 192.5zM242 342q0 -47 16 -94t49 -87t82 -64.5t113 -24.5q59 0 107 23.5t82 61.5t51.5 88t17.5 105q0 76 -20.5 132.5t-54.5 93t-77 55t-86 18.5q-72 0 -124 -26.5t-87 -69.5t-52 -98.5 t-17 -112.5z" />
<glyph unicode="7" horiz-adv-x="962" d="M125 985l14 96h717v-82q-86 -96 -157.5 -214.5t-124 -250t-80 -267.5t-23.5 -267h-141q0 143 30.5 278.5t86 260.5t130 237.5t160.5 208.5h-612z" />
<glyph unicode="8" horiz-adv-x="962" d="M63 285q0 57 23 101t60.5 78t86 58.5t101.5 40.5q-43 16 -82 41t-68.5 56.5t-48 71.5t-18.5 87q0 74 34.5 126t88 85t120 48.5t132.5 15.5q78 0 144 -18.5t114.5 -52.5t76 -83t27.5 -111q0 -100 -52 -163.5t-163 -102.5q53 -16 100 -38.5t83 -55.5t56.5 -75t20.5 -99 q0 -84 -37 -142.5t-96 -95.5t-135 -53t-154 -16q-76 0 -149.5 19.5t-132 56t-95.5 92t-37 129.5zM197 283q0 -57 27.5 -97.5t68.5 -66t91 -37.5t97 -12q43 0 93.5 12t92.5 37.5t70.5 63.5t28.5 91t-28.5 93.5t-72.5 68t-95.5 46t-94.5 30.5q-43 -8 -92 -25.5t-91 -46 t-68.5 -67.5t-26.5 -90zM254 831q0 -49 21.5 -84.5t54 -61.5t72.5 -43t77 -30q37 14 81 32t83 42.5t64.5 57t25.5 79.5q0 100 -70.5 145.5t-168.5 45.5q-47 0 -91.5 -11.5t-77 -34t-52 -57t-19.5 -80.5z" />
<glyph unicode="9" horiz-adv-x="962" d="M84 731q0 80 29.5 147.5t82 116.5t122 77t149.5 28q113 0 192.5 -46t130 -121t74 -169.5t23.5 -192.5q0 -109 -23.5 -213t-75 -186t-133.5 -131t-200 -49q-135 0 -224.5 61.5t-130.5 177.5l117 33q29 -92 87 -139t157 -47q94 0 152.5 51t93.5 129q33 74 45 158t12 155 q-29 -98 -109 -160.5t-209 -62.5q-84 0 -150.5 29t-113.5 80t-72.5 121.5t-25.5 152.5zM209 737q0 -76 20.5 -132t54 -93t79 -55.5t92.5 -18.5q68 0 118 25.5t84.5 68.5t52 98.5t17.5 114.5q0 45 -16.5 93.5t-49 88.5t-82 64.5t-112.5 24.5q-59 0 -107.5 -23.5t-82 -61.5 t-51 -88t-17.5 -106z" />
<glyph unicode=":" horiz-adv-x="462" d="M143 0v178h176v-178h-176zM143 672v178h176v-178h-176z" />
<glyph unicode=";" horiz-adv-x="462" d="M115 -258l108 258h-80v180h181v-172l-146 -266h-63zM143 674v176h176v-176h-176z" />
<glyph unicode="&#x3c;" horiz-adv-x="1060" d="M137 453v139l807 305v-123l-670 -248l670 -258v-121z" />
<glyph unicode="=" horiz-adv-x="1165" d="M156 250v110h878v-110h-878zM156 590v110h878v-110h-878z" />
<glyph unicode="&#x3e;" horiz-adv-x="1060" d="M131 147v121l670 258l-670 248v123l807 -305v-139z" />
<glyph unicode="?" horiz-adv-x="1107" d="M195 778q23 154 119 237t247 83q70 0 134.5 -19.5t113.5 -58.5t79 -96t30 -131q0 -104 -62.5 -177t-183.5 -133q-53 -27 -69.5 -59.5t-16.5 -83.5v-84h-113v80q0 68 28.5 131t114.5 98q72 29 117 92.5t45 135.5q0 96 -55 158.5t-164 62.5q-57 0 -101 -20.5t-75 -56.5 t-49.5 -83t-22.5 -100zM461 0v137h135v-137h-135z" />
<glyph unicode="@" horiz-adv-x="1331" d="M70 535q0 127 41 246.5t121.5 211.5t201.5 148.5t279 56.5q127 0 231.5 -42t180 -114.5t116.5 -172t41 -216.5q0 -94 -31.5 -177t-83 -145.5t-115 -98t-126.5 -35.5q-76 0 -108 35.5t-40 78.5q-29 -51 -76 -82.5t-122 -31.5q-61 0 -107.5 29.5t-73 82.5t-30.5 128t18 167 q41 166 132 246t216 80q102 0 148 -82l20 72h135l-147 -517q-18 -66 -1 -94t46 -28q39 0 83 29.5t81 79.5t60.5 117.5t23.5 143.5q0 104 -36 187.5t-99.5 141.5t-150.5 89t-189 31q-115 0 -210.5 -42t-163 -117t-105 -177t-37.5 -221q0 -102 28.5 -188.5t88 -149t148.5 -97 t212 -34.5q92 0 164.5 13t127 34.5t93.5 45t65 46.5l62 -51q-201 -184 -514 -185q-123 0 -232.5 36t-190.5 106.5t-128 175t-47 240.5zM502 477.5q-2 -53.5 7 -97.5t31.5 -72.5t59.5 -28.5q63 0 105.5 38.5t58.5 104.5q4 16 15.5 55t23.5 83t24.5 85t18.5 66q8 29 2 56.5 t-21.5 49t-39 33.5t-50.5 12q-43 0 -78.5 -23.5t-63.5 -62.5t-47.5 -89t-31.5 -105q-12 -51 -14 -104.5z" />
<glyph unicode="A" horiz-adv-x="1062" d="M35 0l420 1180h168l409 -1180h-147l-123 344h-477l-119 -344h-131zM328 457h395l-197 565z" />
<glyph unicode="B" horiz-adv-x="1028" d="M113 0v1180h479q88 0 150.5 -25t103.5 -65.5t60.5 -92t19.5 -104.5q0 -102 -55.5 -172t-153.5 -92v-4q111 -23 177.5 -103.5t66.5 -195.5q0 -162 -103.5 -244t-279.5 -82h-465zM260 125h309q111 0 177.5 54.5t66.5 152.5q0 39 -12.5 80t-42 73.5t-76.5 54t-117 21.5h-305 v-436zM260 674h301q115 4 166 63.5t51 139.5q0 92 -61.5 137t-155.5 45h-301v-385z" />
<glyph unicode="C" horiz-adv-x="1046" d="M43 592q0 119 30.5 229.5t93 193.5t159 133t227.5 50q98 0 178 -31.5t139 -87.5q109 -100 131 -258l-145 -26q-8 57 -32.5 111.5t-64.5 95t-93.5 66.5t-118.5 26q-102 0 -168 -50.5t-104.5 -125t-54 -163.5t-15.5 -165q0 -88 18.5 -178t58.5 -162t103.5 -118t155.5 -46 q68 0 123 25.5t96 68.5t66.5 99.5t33.5 117.5l141 -28q-12 -86 -49 -157t-96 -122t-139 -78.5t-180 -27.5q-129 0 -223.5 54t-154 141t-88 195.5t-28.5 217.5z" />
<glyph unicode="D" horiz-adv-x="1048" d="M92 0v1180h414q119 0 214 -46.5t160.5 -126t100.5 -186t35 -227.5q0 -117 -32 -223.5t-93.5 -189.5t-150.5 -132t-203 -49h-445zM240 121h282q84 4 147.5 45t105.5 105.5t62.5 148.5t20.5 174q0 92 -21.5 175t-64.5 146.5t-108.5 102.5t-151.5 43h-272v-940z" />
<glyph unicode="E" horiz-adv-x="862" d="M94 0v1180h748v-127h-598v-375h469v-119h-469v-432h606v-127h-756z" />
<glyph unicode="F" horiz-adv-x="849" d="M100 0v1180h738v-127h-590v-375h473v-119h-473v-559h-148z" />
<glyph unicode="G" horiz-adv-x="1079" d="M39 578q0 119 29.5 231.5t92 198.5t159 138t231.5 52q176 0 288.5 -86t149.5 -254l-151 -35q-10 55 -36 104.5t-63 86.5t-86 58.5t-106 21.5q-100 0 -167 -49.5t-107 -124t-57 -164.5t-17 -170q0 -98 22.5 -188.5t65.5 -161t103.5 -112.5t135.5 -42q76 0 133.5 24.5 t97.5 67.5t60.5 101.5t20.5 123.5v72h-295v125h446v-596h-92l-39 137q-55 -82 -140 -117.5t-183 -35.5q-123 0 -216.5 49t-156 131t-93 189.5t-30.5 224.5z" />
<glyph unicode="H" horiz-adv-x="1007" d="M100 0v1180h148v-490h518v490h147v-1180h-147v561h-518v-561h-148z" />
<glyph unicode="I" horiz-adv-x="360" d="M104 0v1180h148v-1180h-148z" />
<glyph unicode="J" horiz-adv-x="608" d="M-23 6v121q39 -8 76 -14.5t76 -6.5q104 0 165.5 46.5t61.5 150.5v877h148v-842q0 -80 -20.5 -145.5t-65.5 -112.5t-115 -71.5t-168 -24.5q-41 0 -80 6t-78 16z" />
<glyph unicode="K" horiz-adv-x="1030" d="M100 0v1180h148v-678l532 678h160l-317 -412l370 -768h-164l-311 651l-270 -336v-315h-148z" />
<glyph unicode="L" horiz-adv-x="831" d="M100 0v1180h148v-1049h567v-131h-715z" />
<glyph unicode="M" horiz-adv-x="1335" d="M100 0v1180h246l334 -955l307 955h240v-1180h-148v1032h-6l-350 -1032h-96l-373 1036h-6v-1036h-148z" />
<glyph unicode="N" horiz-adv-x="1044" d="M100 0v1180h168l516 -910v910h148v-1180h-150l-534 948v-948h-148z" />
<glyph unicode="O" horiz-adv-x="1110" d="M47 582q0 119 31 229.5t94.5 196.5t158.5 138t222 52q129 0 225 -52t158.5 -139t93.5 -197q29 -104 29 -214v-14q-2 -115 -35 -222.5t-96.5 -191.5t-156.5 -134t-216 -50q-127 0 -222 49t-158.5 131t-95.5 190.5t-32 227.5zM203 580q0 -76 19.5 -163t62.5 -162 t109.5 -124t160.5 -49q92 0 157.5 49t107.5 124t62.5 163t20.5 164q0 92 -20.5 184t-63.5 165t-109.5 119t-156.5 46q-98 0 -164.5 -51.5t-108.5 -128t-59.5 -167t-17.5 -169.5z" />
<glyph unicode="P" horiz-adv-x="997" d="M100 0v1180h480q117 -2 191.5 -40t116.5 -95.5t58.5 -122t16.5 -117.5q0 -74 -25 -139.5t-72 -114.5t-114.5 -80t-151.5 -33h-352v-438h-148zM248 559h336q51 2 92 22.5t69.5 53.5t45 77t16.5 93t-14.5 93t-43 80t-70.5 57.5t-97 23.5h-334v-500z" />
<glyph unicode="Q" horiz-adv-x="1110" d="M47 582q0 119 31 229.5t94.5 196.5t158.5 138t222 52q125 0 219 -50t157.5 -133t96.5 -190.5t33 -220.5q0 -102 -24.5 -200.5t-72 -180.5t-120 -141t-166.5 -84q-2 -25 2 -52.5t18 -43.5q23 -27 59 -35t76 -8q45 0 87 6q23 4 47 8v-111q-66 -16 -127 -16 q-139 0 -209 53.5t-74 184.5q-127 0 -222 49t-158.5 131t-95.5 190.5t-32 227.5zM203 580q0 -76 19.5 -163t62.5 -162t109.5 -124t160.5 -49t160.5 52t107.5 129t60.5 167t19.5 166q0 90 -21.5 180t-65.5 161t-109.5 115t-153.5 44q-98 0 -164.5 -51.5t-108.5 -128 t-59.5 -167t-17.5 -169.5z" />
<glyph unicode="R" horiz-adv-x="995" d="M100 0v1180h494q98 -2 167.5 -33t113 -79t62.5 -105.5t19 -112.5q0 -104 -56 -189.5t-161 -119.5l230 -541h-154l-219 510h-348v-510h-148zM248 629h348q43 2 81 17.5t67.5 44t47 69.5t17.5 92q0 94 -59.5 146.5t-139.5 56.5h-362v-426z" />
<glyph unicode="S" horiz-adv-x="995" d="M31 315l133 31q35 -123 124 -193.5t224 -70.5q76 0 129 19.5t88 51t51.5 73.5t16.5 89q0 45 -17.5 77t-45 54.5t-63.5 37t-75 24.5l-268 67q-43 10 -87 35t-78 64q-35 39 -55 90q-19 46 -18 105v12q2 82 36 141t89 98t127 57.5t150 18.5q147 0 260.5 -67.5t158.5 -221.5 l-135 -37q-20 98 -96 164t-193 66q-121 0 -187.5 -55.5t-66.5 -153.5q0 -45 15.5 -76t40 -50.5t58.5 -32.5t71 -21q4 -2 45 -12.5t88 -20.5q55 -14 127 -31q121 -29 196.5 -109.5t75.5 -201.5q0 -72 -28.5 -136.5t-84 -112.5t-137.5 -76.5t-190 -28.5q-182 0 -304 76.5 t-175 256.5z" />
<glyph unicode="T" horiz-adv-x="882" d="M29 1061v119h823v-119h-338v-1061h-147v1061h-338z" />
<glyph unicode="U" horiz-adv-x="995" d="M88 371v809h148v-803q0 -84 23.5 -140.5t62 -91t88 -50t100.5 -15.5q57 0 106.5 20.5t85 58.5t56 90t20.5 116v815h123v-824q-4 -84 -32.5 -152.5t-80 -117.5t-124 -75.5t-160.5 -26.5q-197 0 -303.5 94t-112.5 293z" />
<glyph unicode="V" horiz-adv-x="1013" d="M14 1180h150l348 -983l348 983h135l-420 -1180h-141z" />
<glyph unicode="W" horiz-adv-x="1548" d="M20 1180h150l274 -969l293 969h131l279 -953l258 953h133l-326 -1180h-137l-282 924l-285 -924h-148z" />
<glyph unicode="X" horiz-adv-x="1089" d="M10 0l453 612l-406 568h172l324 -451l326 451h155l-403 -557l442 -623h-174l-356 504l-375 -504h-158z" />
<glyph unicode="Y" horiz-adv-x="1044" d="M16 1180h168l355 -584l354 584h141l-434 -723v-461h-147v461z" />
<glyph unicode="Z" horiz-adv-x="993" d="M47 0v123l703 930h-670v127h852v-95l-723 -958h743v-127h-905z" />
<glyph unicode="[" horiz-adv-x="442" d="M86 -121v1424h295v-89h-180v-1243h180v-92h-295z" />
<glyph unicode="\" horiz-adv-x="659" d="M90 1182h125l346 -1225h-125z" />
<glyph unicode="]" horiz-adv-x="442" d="M63 -29h181v1243h-181v89h295v-1424h-295v92z" />
<glyph unicode="^" horiz-adv-x="622" d="M14 743l246 418h125l223 -418h-104l-178 318l-209 -318h-103z" />
<glyph unicode="_" horiz-adv-x="1015" d="M0 -195h1016v-71h-1016v71z" />
<glyph unicode="`" horiz-adv-x="407" d="M59 1178h119l125 -480h-63z" />
<glyph unicode="a" horiz-adv-x="849" d="M31 240q0 78 43 141t114 96q55 27 119 34t129 7h191v45q0 111 -49.5 167t-159.5 58h-8q-80 0 -146 -38q-70 -40 -88 -132l-121 21q12 66 49 111t88.5 72.5t110.5 38.5t119 11q176 0 253 -71.5t81 -231.5v-391q0 -47 2 -93t16 -87h-131q-8 23 -10 49.5t-4 50.5 q-2 29 -2 60q-45 -92 -120 -135t-179 -43q-59 0 -113.5 16t-95.5 49t-64.5 82t-23.5 113zM172 233q0 -41 15.5 -71.5t41 -53t59.5 -34t68 -11.5q59 0 107.5 26t84.5 68t56.5 95t22.5 108v80h-129q-51 -2 -108.5 -10t-105.5 -31.5t-80 -62.5t-32 -103z" />
<glyph unicode="b" horiz-adv-x="901" d="M104 0v1143h132v-410h6q31 49 92 94t147 47q86 0 152.5 -30.5t112 -89t68 -138.5t22.5 -178q0 -86 -20.5 -168t-63.5 -145.5t-111 -102t-162 -38.5q-86 0 -154.5 45t-107.5 116l-49 -145h-64zM236 358q0 -59 18 -109t49 -89t74 -60.5t92 -21.5q68 0 112 31.5t69.5 83 t34.5 115.5t9 130q0 74 -11 136.5t-36.5 108.5t-68.5 71.5t-109 25.5q-51 0 -94 -24.5t-74 -64.5t-48 -88t-17 -95v-150z" />
<glyph unicode="c" horiz-adv-x="839" d="M51 426q0 84 24.5 165t72 143.5t119 101t167.5 38.5q158 0 246 -80.5t111 -213.5l-121 -17q-4 43 -22.5 82t-49.5 69.5t-74 49t-96 18.5q-68 0 -113 -34.5t-73.5 -88t-40 -115t-11.5 -116.5q0 -51 12.5 -114.5t40 -119t72.5 -92t111 -36.5q57 0 99 20t72 54t47.5 77 t25.5 86l125 -12q-12 -66 -43 -122t-79 -97t-110.5 -64.5t-138.5 -23.5q-96 0 -166 37.5t-116 99t-68.5 141.5t-22.5 164z" />
<glyph unicode="d" horiz-adv-x="901" d="M55 438q0 92 22.5 172t65.5 138.5t108.5 92t151.5 33.5q92 0 155 -40.5t91 -100.5h6v410h131v-1143h-112v145q-39 -72 -105.5 -116.5t-152.5 -44.5q-94 0 -163 37.5t-113 101t-64.5 145.5t-20.5 170zM197 438v-23q0 -53 7 -105q9 -64 34.5 -115.5t70.5 -84t113 -32.5 q49 0 92 21.5t73.5 58.5t48 86t19.5 106v158q0 47 -18.5 95t-50 88t-74.5 64.5t-94 24.5q-66 0 -108 -25.5t-66.5 -71.5t-34.5 -108.5t-12 -136.5z" />
<glyph unicode="e" horiz-adv-x="870" d="M49 424q0 88 23.5 170t73 144.5t124 99t174.5 36.5q94 0 164 -31.5t116 -87t69.5 -129t27.5 -157.5v-47h-624v-26q-1 -148 63 -238q70 -98 193 -97q47 0 86 16.5t68.5 44.5t49 61.5t25.5 70.5l137 -21q-10 -55 -44 -102t-83 -81t-110.5 -53.5t-128.5 -19.5 q-104 0 -180 35t-125.5 96.5t-74 142.5t-24.5 173zM203 500h473v14q0 46 -12 91q-14 52 -43 93t-74 65.5t-103 24.5q-53 0 -98 -25.5t-77.5 -66.5t-50.5 -93q-16 -47 -15 -93v-10z" />
<glyph unicode="f" horiz-adv-x="577" d="M37 745v105h151v19q0 56 10 106q11 59 39.5 103t78 70t122.5 26q2 0 21.5 -1.5t44.5 -1.5q27 -2 63 -2v-106q-47 6 -104 6q-55 0 -84 -19.5t-42 -50t-14 -69.5t-1 -80h198v-105h-198v-745h-134v745h-151z" />
<glyph unicode="g" horiz-adv-x="911" d="M47 -61q0 70 42 128t106 78q-51 14 -77 52.5t-26 76.5q0 100 123 142q-47 23 -80 68.5t-33 115.5t28 121t73 85t104.5 50t124.5 16q94 0 174 -36q16 90 63.5 118.5t135.5 28.5h43l4 -109h-41q-53 -2 -90 -18t-47 -78q39 -25 64 -74q21 -42 21 -95q0 -8 -1 -17 q-4 -63 -33 -107.5t-72 -73t-93 -43t-97 -20.5q-14 -1 -27 -1l-55 5q-41 8 -68 8q-31 0 -61.5 -20.5t-30.5 -58.5q0 -39 21.5 -57.5t50.5 -26.5q49 -12 100 -13.5t115 -1.5h64.5t70.5 -3t67.5 -10t55.5 -22q37 -23 71.5 -68.5t34.5 -123.5q0 -82 -40.5 -131t-104 -76 t-137.5 -36t-141 -9q-76 0 -149 13.5t-129 42t-90 72.5t-34 108zM178 -49q0 -41 23.5 -73t61.5 -53.5t87 -33.5t99 -12q55 0 109 12t95 34.5t66.5 54.5t25.5 71q0 63 -47 101t-106 42q-28 -1 -57 -1t-58 1q-49 2 -104.5 4t-100.5 11q-53 -29 -73.5 -72t-20.5 -86zM240 602 q0 -88 53 -131t139 -43q39 0 73 9t60.5 30.5t42 55.5t15.5 81q0 100 -56.5 143.5t-134.5 43.5q-84 0 -138 -43t-54 -146z" />
<glyph unicode="h" horiz-adv-x="860" d="M106 0v1143h132v-432h6q38 73 108 117q67 43 165 42h9q59 0 106.5 -23.5t79 -63.5t49 -93t17.5 -115v-575h-131v575q0 84 -43 136.5t-121 52.5q-59 0 -104 -25.5t-76 -66.5t-47 -95.5t-18 -109.5v-467h-132z" />
<glyph unicode="i" horiz-adv-x="348" d="M106 993v150h136v-150h-136zM109 0v850h131v-850h-131z" />
<glyph unicode="j" horiz-adv-x="348" d="M-115 -184q54 -13 95 -13q45 0 74 15q55 30 55 133v899h131v-897q0 -74 -19.5 -124t-53.5 -81t-78 -43t-93 -12q-31 0 -56.5 5t-54.5 13v105zM106 993v150h136v-150h-136z" />
<glyph unicode="k" horiz-adv-x="843" d="M102 0v1143h131v-737l435 444h147l-287 -303l316 -547h-135l-263 465l-213 -219v-246h-131z" />
<glyph unicode="l" horiz-adv-x="348" d="M109 0v1143h131v-1143h-131z" />
<glyph unicode="m" horiz-adv-x="1406" d="M104 0v850h119v-176h4q14 39 43 73.5t66 61.5t79 42t87 15q117 0 176 -51t70 -137q12 43 42.5 78t70.5 59.5t86 37.5t89 13q123 0 190.5 -57t71.5 -186v-623h-131v610q0 178 -159 178q-41 0 -83 -20t-77 -58t-58.5 -93.5t-25.5 -122.5v-494h-131v623q0 86 -37 125.5 t-111 39.5q-49 0 -94 -26.5t-78.5 -69.5t-54 -100t-22.5 -119v-473h-132z" />
<glyph unicode="n" horiz-adv-x="866" d="M98 0v850h123v-176h4q37 86 115 139t174 53q131 0 192.5 -64.5t65.5 -176.5v-625h-131v618q0 74 -36 122t-116 48q-55 0 -101 -28.5t-81 -75.5t-55.5 -106.5t-22.5 -120.5v-457h-131z" />
<glyph unicode="o" horiz-adv-x="864" d="M47 434q0 88 24.5 168t74 140.5t122 96t168.5 35.5q94 0 165 -37.5t118 -99t70.5 -141.5t23.5 -164q0 -90 -25.5 -171t-74.5 -142.5t-121 -98t-166 -36.5q-96 0 -167 35.5t-118 97t-70.5 143.5t-23.5 174zM193 434q0 -174 59 -271t176 -97q63 0 109.5 27.5t74 76.5 t41 116.5t13.5 147.5q0 164 -59.5 260.5t-176.5 96.5t-177 -97.5t-60 -259.5z" />
<glyph unicode="p" horiz-adv-x="901" d="M100 -283v1133h119v-160h4q33 86 100.5 133t165.5 47q88 0 155 -37.5t112 -99t66.5 -141.5t21.5 -162q0 -92 -25.5 -174t-72 -143.5t-112 -97t-147.5 -35.5q-90 0 -150.5 38.5t-105.5 112.5v-414h-131zM231 330q0 -43 18.5 -89t49.5 -84t72 -62.5t86 -24.5q57 0 102 29.5 t76 79.5t46 115.5t15 137.5q0 59 -13 120.5t-41 111t-73 81t-110 31.5q-43 0 -81 -20.5t-67.5 -54t-50 -74.5t-29.5 -80v-217z" />
<glyph unicode="q" horiz-adv-x="901" d="M51 430q0 90 23.5 171t69.5 141.5t115 95.5q65 32 149 32h10q186 -4 256 -165h4l61 145h58v-1133h-131v414q-43 -72 -102.5 -111.5t-145.5 -39.5q-84 0 -152.5 31.5t-116 91t-73 142.5t-25.5 185zM201 424q0 -160 63.5 -259t175.5 -99q45 0 86 24.5t72 63.5t49.5 86 t18.5 90v217q-8 39 -29 81t-50.5 76.5t-67.5 56t-81 21.5q-66 0 -111.5 -30.5t-73.5 -82t-40 -114.5t-12 -131z" />
<glyph unicode="r" horiz-adv-x="573" d="M109 0v850h116v-186h4q12 37 34 73.5t52.5 66.5t71.5 47t92 17h21q10 0 21 -2l22 -4v-123q-16 0 -29 2q-10 0 -20.5 1t-14.5 1q-59 0 -104 -27.5t-75 -72.5t-45 -101.5t-15 -113.5v-428h-131z" />
<glyph unicode="s" horiz-adv-x="798" d="M49 184l137 29q8 -41 30 -69.5t51.5 -47t65.5 -28t75 -9.5q31 0 65.5 8.5t63 26t47 44t18.5 63.5q0 35 -19.5 72.5t-74.5 54.5l-207 55q-49 12 -92 32.5t-75 50.5t-51.5 71t-19.5 98q0 59 27 104t71 75t101 44t117 14q129 0 212 -49t114 -133l-125 -22q-10 20 -24.5 42.5 t-36 39t-53.5 27.5t-81 11q-86 0 -137 -37.5t-51 -95.5q0 -33 12 -55t32.5 -37.5t46 -27t52.5 -19.5q68 -16 127 -35q51 -16 100 -33.5t72 -31.5q53 -37 77.5 -84t24.5 -123q0 -61 -28.5 -105.5t-74.5 -73t-107.5 -42t-124.5 -13.5t-122 10.5t-106 35t-81 64.5t-48 99z" />
<glyph unicode="t" horiz-adv-x="579" d="M6 745v105h156l20 221h105v-221h211v-105h-211v-516q0 -141 125 -141h18t39 2q23 0 55 2v-94l-127 -6q-11 -1 -21 -1q-98 0 -154 52q-62 57 -66 186v516h-150z" />
<glyph unicode="u" horiz-adv-x="868" d="M100 260v590h131v-598q0 -78 43 -129t123 -51q55 0 99.5 24.5t75 65.5t48 94t19.5 111v483h131v-850h-119v156h-4q-33 -80 -103.5 -126t-158.5 -46q-70 0 -122 21.5t-88 59t-54.5 88t-20.5 107.5z" />
<glyph unicode="v" horiz-adv-x="788" d="M8 850h144l249 -694l258 694h121l-319 -850h-129z" />
<glyph unicode="w" horiz-adv-x="1183" d="M12 850h125l205 -645l221 645h96l205 -645l199 645h106l-249 -850h-109l-201 637l-221 -637h-108z" />
<glyph unicode="x" horiz-adv-x="788" d="M12 0l305 442l-278 408h154l202 -297l207 297h131l-272 -391l313 -459h-156l-235 346l-242 -346h-129z" />
<glyph unicode="y" horiz-adv-x="788" d="M16 850h138l260 -662l231 662h125l-336 -930q-41 -117 -104.5 -168t-163.5 -55q-57 0 -107 14v107q43 -12 86 -13q49 0 83 18.5t57.5 48.5t39 67.5t27.5 74.5z" />
<glyph unicode="z" horiz-adv-x="774" d="M47 0v102l490 643h-469v105h643v-74l-514 -674h524v-102h-674z" />
<glyph unicode="{" horiz-adv-x="489" d="M76 582v20q43 8 77.5 64.5t34.5 154.5l-2 299q0 106 43 147.5t97 41.5h100v-86l-70 -2q-41 -2 -54 -27t-13 -72v-170q0 -66 1 -119t1 -55q0 -57 -11.5 -92t-24.5 -54.5t-25.5 -28.5t-18.5 -13q6 -4 18.5 -12.5t26.5 -28t24.5 -53t10.5 -88.5q-2 -96 -2 -170v-172 q2 -49 14 -76t53 -29l70 -2v-86h-100q-27 0 -51.5 9t-44 30.5t-32 58.5t-12.5 90l2 299q0 98 -34.5 154.5t-77.5 67.5z" />
<glyph unicode="|" horiz-adv-x="358" d="M113 -244v1667h133v-1667h-133z" />
<glyph unicode="}" horiz-adv-x="489" d="M63 -41l70 2q41 2 53.5 28.5t14.5 76.5q0 2 -1 54t-1 118v170q0 55 10 88.5t24.5 53t26.5 28t19 12.5q-6 4 -18.5 13t-26 28.5t-24.5 54.5t-11 92v174q0 76 2 170q0 47 -13.5 72t-54.5 27l-70 2v86h101q27 0 51.5 -9.5t44 -31t31.5 -58t12 -90.5l-2 -299q0 -98 35 -154.5 t78 -64.5v-20q-43 -10 -78 -66.5t-35 -155.5l2 -299q0 -53 -12 -90t-31.5 -58.5t-44.5 -30.5t-51 -9h-101v86z" />
<glyph unicode="~" horiz-adv-x="1155" d="M135 465v102l283 109l305 -162l297 111v-103l-297 -108l-305 164z" />
<glyph unicode="&#xa2;" horiz-adv-x="839" d="M119 588q0 63 16.5 124.5t50 111.5t83.5 84t116 44v140h82v-138q113 -10 177.5 -74.5t80.5 -164.5l-100 -15q-6 61 -46 112.5t-112 64.5v-580q72 14 108.5 71.5t49.5 118.5l102 -10q-16 -98 -85 -166.5t-175 -83.5v-137h-82v137q-68 8 -118 41t-82.5 83t-49 111.5 t-16.5 125.5zM231 590q0 -37 8.5 -83t27 -88t47 -75t71.5 -45v575q-43 -10 -72.5 -40.5t-47 -71.5t-26 -87t-8.5 -85z" />
<glyph unicode="&#xa3;" horiz-adv-x="1011" d="M98 0v127h68q45 39 73.5 81t44 81t20.5 70.5t5 52.5q0 33 -12 68.5t-23 58.5h-176v94h119q-27 55 -51.5 112.5t-24.5 122.5q0 51 18.5 109.5t65.5 109t126 84t200 33.5q92 0 159.5 -30.5t110.5 -81t63.5 -114t20.5 -126.5v-18h-135v8q0 109 -65.5 180.5t-172.5 71.5 q-72 0 -118.5 -25t-75.5 -58.5t-41 -70.5t-12 -63q0 -51 23.5 -108.5t66.5 -135.5h278v-94h-233q8 -29 12 -55.5t4 -61.5q0 -66 -39 -146.5t-125 -148.5h594v-127h-768z" />
<glyph unicode="&#xa5;" horiz-adv-x="1044" d="M16 1180h168l355 -584l354 584h141l-286 -478h251v-112h-319l-80 -133h399v-113h-399v-348h-147v348h-408v113h408l-80 133h-328v112h260z" />
<glyph unicode="&#xa9;" horiz-adv-x="1333" d="M53 592q0 125 48.5 236.5t131 195.5t193.5 132t238 48t238.5 -48t194.5 -131t131 -194.5t48 -236.5q0 -127 -48 -239.5t-131 -195.5t-194.5 -131t-238.5 -48t-238 48t-193.5 131t-131 194.5t-48.5 238.5zM154 594q0 -106 39.5 -200.5t108.5 -164t162 -109.5t200 -40 q106 0 199 40t163 109.5t110 163.5t40 201v-2q0 106 -40 200.5t-110 164t-163 109.5t-199 40t-199.5 -40t-162.5 -109.5t-108.5 -163t-39.5 -199.5zM383 590q0 63 18.5 123.5t54.5 107.5t90 77t126 30q117 0 183.5 -61.5t82.5 -159.5l-90 -13q-8 63 -54 113.5t-128 50.5 q-49 0 -84 -26.5t-55.5 -66.5t-30 -86t-9.5 -87q0 -39 9.5 -86t31 -89t55 -70t83.5 -28q43 0 74.5 15.5t53 41t35 57.5t19.5 65l94 -9q-18 -98 -92 -164.5t-186 -66.5q-72 0 -124.5 28.5t-87 75t-52 106.5t-17.5 122z" />
<glyph unicode="&#xab;" horiz-adv-x="913" d="M84 502v121l375 243v-80l-283 -223l283 -239v-86zM432 502v121l375 243v-80l-283 -223l283 -239v-86z" />
<glyph unicode="&#xad;" horiz-adv-x="790" d="M29 420v110h733v-110h-733z" />
<glyph unicode="&#xae;" horiz-adv-x="1017" d="M111 659q0 82 31.5 156t85 127t126 85t156.5 32q82 0 154.5 -32t126 -85t85 -127t31.5 -156t-31.5 -154.5t-85 -125.5t-126 -85t-154.5 -32q-84 0 -156.5 32t-126 85t-85 126t-31.5 154zM170 657q0 -70 26.5 -131t72.5 -107t107.5 -73t131.5 -27t132 27t108.5 73t73 107 t26.5 131t-26.5 131.5t-73 107.5t-108.5 72.5t-132 26.5t-131.5 -26.5t-107.5 -72.5t-72.5 -107.5t-26.5 -131.5zM360 465v412h152q72 -4 120 -34t42 -106q-6 -68 -74 -96l74 -176h-84l-66 162h-86v-162h-78zM438 690h84q29 0 51.5 12.5t22.5 45.5q0 35 -22.5 48t-55.5 13 h-80v-119z" />
<glyph unicode="&#xbb;" horiz-adv-x="913" d="M106 238v86l285 239l-285 223v80l375 -243v-121zM453 238v86l284 239l-284 223v80l374 -243v-121z" />
<glyph unicode="&#xbc;" horiz-adv-x="1259" d="M45 946v103q59 25 100 53t82 80h84v-572h127v-90h-370v90h129v404q-31 -23 -65 -37t-87 -31zM289 0l604 1180h133l-604 -1180h-133zM709 147v74l305 443h127v-422h108v-95h-108v-145h-113v145h-319zM840 242h188v282z" />
<glyph unicode="&#xbd;" horiz-adv-x="1259" d="M55 946v103q59 25 100.5 53t82.5 80h84v-572h127v-90h-371v90h129v404q-31 -23 -64.5 -37t-87.5 -31zM262 0l604 1180h133l-604 -1180h-133zM762 461q29 100 89 155.5t157 55.5q53 0 97 -17.5t74.5 -48.5t48 -70.5t17.5 -82.5q0 -84 -39 -138.5t-96 -99.5l-152 -123h281 v-92h-457v74l244 196q45 37 71.5 79t26.5 104q0 57 -31.5 97t-84.5 40q-57 0 -89 -43t-45 -115z" />
<glyph unicode="&#xbe;" horiz-adv-x="1259" d="M18 690l109 35q14 -66 53 -98.5t92 -32.5q66 0 98.5 32.5t32.5 78.5q0 53 -39.5 82.5t-89.5 29.5h-102v94h107q53 0 77.5 28t24.5 75q0 43 -28.5 68.5t-76.5 25.5q-43 0 -78.5 -26.5t-50.5 -88.5l-110 29q29 94 94.5 132t144.5 38q92 0 156 -48t64 -134q0 -49 -22.5 -86 t-61.5 -58q45 -18 76.5 -61.5t31.5 -102.5q0 -35 -14 -68.5t-45 -60t-78 -43t-115 -16.5q-84 0 -152.5 41t-97.5 135zM317 0l605 1180h133l-604 -1180h-134zM707 147v74l305 443h127v-422h108v-95h-108v-145h-113v145h-319zM838 242h188v282z" />
<glyph unicode="&#xd7;" horiz-adv-x="1058" d="M170 164l295 289l-289 288l92 93l289 -287l289 289q14 -16 37.5 -38t36.5 -38l-293 -289l276 -281l-88 -88l-274 277l-295 -293q-23 18 -40.5 37.5t-35.5 40.5z" />
<glyph unicode="&#xf7;" horiz-adv-x="1216" d="M154 414v125h909v-125h-909zM500 246q0 45 31.5 76.5t76.5 31.5t77 -31.5t32 -76.5q0 -43 -32 -75t-77 -32t-76.5 32t-31.5 75zM500 707q0 43 31.5 74.5t76.5 31.5t77 -31.5t32 -74.5q0 -45 -32 -77t-77 -32t-76.5 32t-31.5 77z" />
<glyph unicode="&#xe01;" horiz-adv-x="888" d="M102 705v55q23 18 63 36.5t91 35t106.5 26.5t108.5 10q61 0 115.5 -12t96.5 -40t66.5 -71t24.5 -104v-641h-127v612q0 76 -46 125t-146 49q-47 0 -87 -14t-69 -37.5t-45 -55.5t-16 -69v-610h-132v496q0 66 11.5 106.5t54.5 85.5l-20 8t-22.5 6.5t-27.5 2.5z" />
<glyph unicode="&#xe02;" horiz-adv-x="778" d="M72 221q0 74 34.5 138.5t75.5 122t76 110.5t35 108q0 59 -47 81t-125 -23l-23 73q35 18 88.5 29.5t103.5 2.5t86 -43t36 -103q0 -74 -32 -130.5t-69 -109.5t-68.5 -110.5t-31.5 -130.5q0 -55 15.5 -91t40 -55.5t52 -28t52.5 -8.5q29 0 58.5 8.5t53 30t39 57t15.5 89.5 v612h127v-600q0 -61 -15.5 -111.5t-49.5 -86.5t-88 -55.5t-134 -19.5q-66 0 -122 14.5t-97 43t-63.5 75t-22.5 111.5z" />
<glyph unicode="&#xe03;" horiz-adv-x="778" d="M63 782l15 82q20 -8 47 -17t55 -42q29 37 71 51t81 7t66.5 -37.5t27.5 -84.5q0 -74 -34 -135t-73.5 -119.5t-73.5 -118t-34 -132.5q0 -57 15.5 -93.5t40 -55.5t52 -26.5t52.5 -7.5q29 0 58.5 8.5t53 30t39 57t15.5 89.5v612h127v-600q0 -61 -15.5 -111.5t-49.5 -86.5 t-88 -55.5t-134 -19.5q-66 0 -122 13.5t-97 43t-63.5 75t-22.5 110.5q0 76 37.5 143.5t82 129t82 118t37.5 111.5q0 49 -43 50t-90 -48q-16 16 -48 34.5t-67 24.5z" />
<glyph unicode="&#xe04;" horiz-adv-x="874" d="M102 0v590q0 55 20.5 106.5t63.5 90t107.5 62t150.5 23.5t148.5 -23.5t102.5 -62t59.5 -90t19.5 -106.5v-590h-127v600q0 96 -59.5 143.5t-145.5 47.5q-88 0 -150.5 -47.5t-62.5 -143.5v-201q20 45 51 74t65 44t67.5 19.5t58.5 2.5v-115q-47 6 -90 -12.5t-77 -49 t-54.5 -67.5t-20.5 -68v-227h-127z" />
<glyph unicode="&#xe05;" horiz-adv-x="882" d="M96 0v584q0 100 55.5 180t165.5 102l115 -86l123 86q104 -23 158.5 -100.5t54.5 -181.5v-584h-127v598q0 66 -31.5 114t-64.5 62l-113 -74l-110 74q-35 -14 -67 -62t-32 -114v-199q20 45 51 74t65 44t67.5 19.5t58.5 2.5v-115q-47 6 -90 -12.5t-77 -49t-54.5 -67.5 t-20.5 -68v-227h-127z" />
<glyph unicode="&#xe06;" horiz-adv-x="874" d="M47 782l14 82q20 -8 47 -17t56 -42q35 45 79 54t76 3q43 -10 68 -44t23 -77q-4 -61 -31 -105t-82 -106q-29 -31 -42 -67.5t-13 -67.5v-61q0 -41 15 -86t44 -83t70 -64.5t94 -28.5q45 -4 77.5 14t53 49t30 70t9.5 80v565h127v-608q0 -119 -69.5 -189.5t-190.5 -70.5 q-33 0 -72 9t-77 29.5t-70.5 52t-51.5 77.5v-150h-118v336q0 53 5 87t15 56.5t22.5 37.5t28.5 32q66 72 99.5 123t-0.5 84q-10 10 -26.5 11t-35 -4t-36 -15.5t-25.5 -22.5q-16 16 -47 33.5t-66 23.5z" />
<glyph unicode="&#xe07;" horiz-adv-x="870" d="M66 754h127l184 -670h26q37 0 77 22.5t73 65.5t55.5 105.5t26.5 142.5q2 68 -5 131t-31 112.5t-63.5 80t-103.5 30.5q-18 0 -36.5 -2t-35.5 -12l-14 80q25 10 58.5 16t66.5 6q92 0 150.5 -38t91 -99t44 -140t9.5 -159q-2 -84 -25.5 -161t-62.5 -136t-91 -94t-114 -35 h-199z" />
<glyph unicode="&#xe08;" horiz-adv-x="839" d="M14 692q25 49 64 83t88 55.5t104.5 31.5t108.5 10q106 0 182 -29.5t119 -81.5t53 -123t-10 -151l-125 -487h-199l-118 385q-10 29 -35 35t-41 0l43 121q66 6 97.5 -27t45.5 -80l107 -346l98 420q16 68 6 120t-40 89t-78 55.5t-107 18.5q-23 0 -55.5 -5.5t-65.5 -18.5 t-61.5 -36.5t-47.5 -62.5z" />
<glyph unicode="&#xe09;" horiz-adv-x="880" d="M74 692q20 49 57 83t83 55.5t99.5 31.5t108.5 10q104 0 172 -26.5t106.5 -68.5t54 -92t15.5 -97v-588h-119v150q-18 -45 -51 -77t-70.5 -52.5t-76.5 -29.5t-72 -9q-121 0 -191.5 70.5t-70.5 189.5v241h129v-198q0 -41 9 -80t29.5 -70t52.5 -49t79 -14q53 2 94 28.5 t69.5 64.5t43 83t14.5 86v246q0 29 -6 65.5t-28.5 68t-64.5 54.5t-116 23q-23 0 -53.5 -4.5t-61 -17.5t-57.5 -37.5t-45 -63.5z" />
<glyph unicode="&#xe0a;" horiz-adv-x="778" d="M74 221q0 74 34.5 138.5t75.5 122t76 110.5t35 108q0 59 -47 81t-125 -23l-23 73q35 18 88.5 29.5t103.5 2.5t86 -43t36 -103q0 -74 -32 -130.5t-69 -109.5t-68.5 -110.5t-31.5 -130.5q0 -55 15.5 -91t40 -55.5t52 -28t52.5 -8.5q29 0 58.5 8.5t53 30t39 57t15.5 89.5 v276q0 49 -23.5 80t-42.5 37v6q27 18 49.5 50t37.5 70t22.5 80t7.5 81h133q0 -41 -11.5 -82t-30.5 -78t-48 -65.5t-64 -47.5q25 -8 47 -27q18 -16 34 -42.5t16 -69.5v-256q0 -61 -15.5 -111.5t-49.5 -86.5t-88 -55.5t-134 -19.5q-66 0 -122 14.5t-97 43t-63.5 75 t-22.5 111.5z" />
<glyph unicode="&#xe0b;" horiz-adv-x="778" d="M66 782l14 82q20 -8 47 -17t55 -42q29 37 71 51t81 7t66.5 -37.5t27.5 -84.5q0 -74 -34 -135t-73.5 -119.5t-73.5 -118t-34 -132.5q0 -57 15.5 -93.5t40 -55.5t52 -26.5t52.5 -7.5q29 0 58.5 8.5t53 30t39 57t15.5 89.5v276q0 49 -23.5 80t-42.5 37v6q27 18 49.5 50 t37.5 70t22.5 80t7.5 81h133q0 -41 -11.5 -82t-30.5 -78t-48 -65.5t-64 -47.5q25 -8 47 -27q18 -16 34 -42.5t16 -69.5v-256q0 -61 -15.5 -111.5t-49.5 -86.5t-88 -55.5t-134 -19.5q-66 0 -122 13.5t-97 43t-63.5 75t-22.5 110.5q0 76 38 143.5t82 129t81.5 118t37.5 111.5 q0 49 -43 50t-90 -48q-16 16 -48 34.5t-66 24.5z" />
<glyph unicode="&#xe0c;" horiz-adv-x="1306" d="M102 705v55q23 18 59 36.5t81 35t96 26.5t104 10q61 0 112.5 -12t89.5 -40t59.5 -71t21.5 -104v-358q0 -31 15.5 -67t41 -66.5t61.5 -52t77 -21.5q74 0 109.5 37t35.5 116v621h131v-649q0 -102 -61.5 -161.5t-173.5 -59.5q-41 0 -79 11t-71 31.5t-56.5 46t-35.5 54.5 v-123h-121v612q0 76 -36 125t-136 49q-96 0 -142 -52t-46 -124v-532h98v-78h-230v496q0 66 11.5 106.5t54.5 85.5l-20 8t-22.5 6.5t-27.5 2.5z" />
<glyph unicode="&#xe0d;" horiz-adv-x="1306" d="M102 705v55q23 18 59 36.5t81 35t96 26.5t104 10q61 0 112.5 -12t89.5 -40t59.5 -71t21.5 -104v-412q0 -80 36 -116.5t109 -36.5q41 0 77 19.5t61.5 50t41 66.5t15.5 71v567h131v-795q0 -141 -92 -229t-268 -88q-66 0 -134.5 18.5t-107.5 46.5l37 78q35 -29 88 -49 t115 -20q92 0 142 30.5t72.5 78.5t26.5 104.5t4 105.5q-12 -29 -37.5 -55.5t-59.5 -48t-74 -34.5t-79 -13q-113 0 -172 59t-59 162v411q0 76 -36 125t-136 49q-96 0 -142 -52t-46 -124v-532h98v-78h-230v496q0 66 11.5 106.5t54.5 85.5l-20 8t-22.5 6.5t-27.5 2.5z" />
<glyph unicode="&#xe0e;" horiz-adv-x="907" d="M35 0v82h90v414q0 66 11 106.5t54 85.5l-20 8t-22.5 6.5t-26.5 2.5v55q23 18 62.5 36.5t91 35t106.5 26.5t108 10q61 0 115.5 -12t96.5 -40t67 -71t25 -104v-717q0 -35 -11.5 -70.5t-36 -63.5t-62.5 -45t-91 -17h-182l-86 86l-86 -86h-185v86h156l115 114l114 -114h107 q23 0 44 4t38.5 19.5t28 47t10.5 84.5v643q0 76 -46.5 125t-146.5 49q-47 0 -87 -14t-68.5 -37.5t-45 -55.5t-16.5 -69v-610h-221z" />
<glyph unicode="&#xe0f;" horiz-adv-x="907" d="M35 0v82h90v414q0 66 11 106.5t54 85.5l-20 8t-22.5 6.5t-26.5 2.5v55q23 18 62.5 36.5t91 35t106.5 26.5t108 10q61 0 115.5 -12t96.5 -40t67 -71t25 -104v-717q0 -35 -12.5 -70.5t-37 -63.5t-62.5 -45t-91 -17h-53l-86 86l-86 -86h-58l-86 86l-86 -86h-82v86h53 l115 114l115 -114l115 114l114 -114q47 0 74 28.5t27 106.5v663q0 76 -46.5 125t-146.5 49q-47 0 -87 -14t-68.5 -37.5t-45 -55.5t-16.5 -69v-610h-221z" />
<glyph unicode="&#xe10;" horiz-adv-x="870" d="M27 676q27 55 72.5 93t98 60.5t106.5 31.5t95 9t95.5 -9t107.5 -36q37 23 45 59t12 64h119q-6 -39 -31.5 -86t-82.5 -80q66 -51 101.5 -131.5t35.5 -230.5q0 -92 -31 -170t-76 -133.5t-95 -86t-89 -30.5h-158l-98 358q-10 37 -29.5 46.5t-48.5 11.5l35 110q41 0 69.5 -11 t47 -28.5t29 -38t14.5 -38.5l88 -324h8q14 0 48 18.5t66.5 57.5t58.5 101.5t26 152.5q0 113 -26 184.5t-64.5 113.5t-86 58t-90.5 16q-80 0 -140 -29.5t-103 -107.5zM98 -195h125l115 115l115 -115h55q47 0 74.5 16.5t27.5 82.5v53h125v-63q0 -51 -15 -85t-40 -53.5 t-57.5 -28t-67.5 -8.5h-131l-86 86l-86 -86h-154v86z" />
<glyph unicode="&#xe11;" horiz-adv-x="903" d="M0 748l39 104q14 -6 34.5 -20.5t39 -32t34 -37t23.5 -35.5h6l53 123h43v-137l4 -2q43 86 115 121.5t137 35.5q121 0 193 -60t72 -179v-629h-131v629q0 25 -6.5 53.5t-23 51t-44 37.5t-70.5 15q-49 0 -93 -23.5t-78 -62t-54.5 -88t-20.5 -98.5v-514h-131v594 q-16 70 -59 106.5t-82 47.5z" />
<glyph unicode="&#xe12;" horiz-adv-x="1372" d="M57 414q0 215 90.5 332.5t239.5 117.5q53 0 97 -25.5t77 -84.5l119 94h111v-565q0 -31 15 -67t40.5 -66.5t61.5 -52t77 -21.5q74 0 109.5 37t35.5 116v619h132v-647q0 -102 -61.5 -161.5t-174.5 -59.5q-41 0 -79 11t-70.5 31.5t-56 46t-36.5 54.5v-123h-122v748l-125 -93 q-29 66 -58.5 95.5t-93.5 29.5q-78 0 -131 -96t-49 -262q4 -154 51 -249t162 -105q18 -2 40.5 3t37.5 17l16 -74q-23 -14 -58.5 -22t-68.5 -8q-80 0 -140.5 35.5t-102.5 96t-63.5 137.5t-21.5 161z" />
<glyph unicode="&#xe13;" horiz-adv-x="1306" d="M102 705v55q23 18 59 36.5t81 35t96 26.5t104 10q61 0 112.5 -12t89.5 -40t59.5 -71t21.5 -104v-412q0 -80 36 -116.5t109 -36.5q41 0 77 21.5t61.5 52t41 66.5t15.5 67v567h129v-850h-123v123q-12 -29 -35.5 -54.5t-56.5 -46t-72 -31.5t-78 -11q-113 0 -172 59t-59 162 v411q0 76 -36 125t-136 49q-96 0 -142 -52t-46 -124v-532h98v-78h-230v496q0 66 11.5 106.5t54.5 85.5l-20 8t-22.5 6.5t-27.5 2.5z" />
<glyph unicode="&#xe14;" horiz-adv-x="911" d="M66 432q0 211 106.5 325.5t284.5 114.5q72 0 135 -16t109.5 -53t73 -94.5t26.5 -139.5v-569h-129v547q0 123 -57.5 183.5t-161.5 60.5q-45 0 -89.5 -18.5t-78 -59.5t-55 -107.5t-21.5 -165.5q0 -76 14.5 -143.5t44 -117.5t72.5 -78.5t100 -28.5q18 0 38 4t30 10l16 -72 q-45 -27 -112 -26q-86 0 -150.5 40t-108.5 103.5t-65.5 142t-21.5 158.5z" />
<glyph unicode="&#xe15;" horiz-adv-x="911" d="M45 418q0 127 34 212t85 136t109.5 72.5t105.5 21.5q66 0 113 -29.5t71 -72.5l115 92h121v-850h-129v752l-129 -90q-31 68 -73 89t-87 21q-33 0 -65.5 -20.5t-60.5 -62.5t-45 -107.5t-17 -157.5q0 -74 13 -137.5t39.5 -110.5t67.5 -75.5t99 -32.5q18 -2 40.5 3t36.5 15 l17 -72q-45 -27 -127 -26q-82 0 -144.5 36.5t-104.5 98t-63.5 138.5t-21.5 157z" />
<glyph unicode="&#xe16;" horiz-adv-x="888" d="M102 705v55q23 18 63 36.5t91 35t106.5 26.5t108.5 10q61 0 115.5 -12t96.5 -40t66.5 -71t24.5 -104v-641h-127v612q0 76 -46 125t-146 49q-47 0 -87 -14t-69 -37.5t-45 -55.5t-16 -69v-532h98v-78h-230v496q0 66 11.5 106.5t54.5 85.5l-20 8t-22.5 6.5t-27.5 2.5z" />
<glyph unicode="&#xe17;" horiz-adv-x="874" d="M113 0v850h120v-148l5 -2q20 43 52 75t67.5 52.5t72.5 30.5t70 10q121 0 192.5 -60t71.5 -179v-629h-131v629q0 25 -6 53.5t-22.5 51t-44.5 37.5t-71 15q-49 0 -93 -23.5t-77.5 -62t-54 -88t-20.5 -98.5v-514h-131z" />
<glyph unicode="&#xe18;" horiz-adv-x="845" d="M94 686q0 74 56.5 123t142.5 47l450 -6l-18 -90l-418 4q-37 0 -63.5 -21.5t-26.5 -50.5q0 -35 21.5 -52t58.5 -32l258 -98q100 -39 157.5 -100.5t57.5 -176.5q0 -61 -25.5 -108t-70.5 -81t-106.5 -51.5t-133.5 -17.5q-90 0 -151.5 22.5t-100.5 59.5t-56 85t-17 98v225 h124v-217q0 -35 12.5 -69t38 -60.5t63.5 -43t89 -16.5q39 0 75 12.5t62.5 34t43 52t16.5 67.5q0 53 -24.5 95t-102.5 73l-260 103q-74 29 -113 69.5t-39 120.5z" />
<glyph unicode="&#xe19;" horiz-adv-x="874" d="M113 242v608h129v-565q0 -41 9 -80t29.5 -70t52.5 -49t79 -14q53 2 94 28.5t69.5 64.5t43 83t14.5 86v516h131v-850h-113l-6 150q-18 -45 -51 -77t-71 -52.5t-76.5 -29.5t-71.5 -9q-121 0 -191.5 70.5t-70.5 189.5z" />
<glyph unicode="&#xe1a;" horiz-adv-x="874" d="M113 270v580h129v-592q0 -94 51 -146.5t145 -52.5q82 0 138.5 52.5t56.5 146.5v592h131v-580q0 -61 -16.5 -114.5t-54.5 -93t-100.5 -62.5t-154.5 -23q-96 0 -159.5 23t-100.5 62.5t-51 93t-14 114.5z" />
<glyph unicode="&#xe1b;" horiz-adv-x="890" d="M113 270v580h129v-592q0 -94 55 -146.5t149 -52.5q82 0 142.5 52.5t60.5 146.5v961h131v-949q0 -61 -17.5 -114.5t-57 -93t-104 -62.5t-157.5 -23q-98 0 -162.5 23t-102.5 62.5t-52 93t-14 114.5z" />
<glyph unicode="&#xe1c;" horiz-adv-x="1003" d="M72 416q0 78 12 157.5t42 144t79 104.5t125 40q80 0 121 -24l-15 -78q-37 25 -71 20q-49 -4 -81 -36.5t-49.5 -83t-24.5 -116t-7 -132.5q0 -170 30.5 -261.5t100.5 -91.5q33 0 53.5 15.5t32.5 38t16 49t4 49.5v352h121v-352q0 -23 5 -50.5t17.5 -50t33 -38t53.5 -15.5 t52 14.5t28.5 33t11.5 37t2 28.5v680h131v-641q0 -41 -8 -82t-30.5 -74t-62.5 -54.5t-104 -21.5q-20 0 -49 6.5t-56.5 23t-50 42t-32.5 66.5q-10 -41 -31.5 -66.5t-49.5 -42t-55.5 -23t-46.5 -6.5q-78 0 -126 31t-74.5 88.5t-36.5 138t-10 181.5z" />
<glyph unicode="&#xe1d;" horiz-adv-x="1003" d="M72 416q0 78 12 157.5t42 144t79 104.5t125 40q80 0 121 -24l-15 -78q-37 25 -71 20q-49 -4 -81 -36.5t-49.5 -83t-24.5 -116t-7 -132.5q0 -170 30.5 -261.5t100.5 -91.5q33 0 53.5 15.5t32.5 38t16 49t4 49.5v352h121v-352q0 -23 5 -50.5t17.5 -50t33 -38t53.5 -15.5 t52 14.5t28.5 33t11.5 37t2 28.5v1049h131v-1010q0 -41 -8 -82t-30.5 -74t-62.5 -54.5t-104 -21.5q-20 0 -49 6.5t-56.5 23t-50 42t-32.5 66.5q-10 -41 -31.5 -66.5t-49.5 -42t-55.5 -23t-46.5 -6.5q-78 0 -126 31t-74.5 88.5t-36.5 138t-10 181.5z" />
<glyph unicode="&#xe1e;" horiz-adv-x="1003" d="M113 209v641h129v-678q0 -41 22.5 -77t77.5 -36q27 0 46.5 14.5t30.5 34t16 42t5 38.5v662h121v-664q0 -16 6 -38.5t18.5 -42t33 -33t49.5 -13.5q51 0 73.5 32t22.5 79v680h131v-641q0 -102 -47 -167t-148 -65q-25 0 -55.5 7.5t-59 25t-52 44t-31.5 63.5 q-10 -37 -29.5 -63.5t-44.5 -44t-53.5 -25t-52.5 -7.5q-111 0 -160 63.5t-49 168.5z" />
<glyph unicode="&#xe1f;" horiz-adv-x="1003" d="M113 209v641h129v-678q0 -41 22.5 -77t77.5 -36q27 0 46.5 14.5t30.5 34t16 42t5 38.5v662h121v-664q0 -16 6 -38.5t18.5 -42t33 -33t49.5 -13.5q51 0 73.5 32t22.5 79v1049h131v-1010q0 -102 -47 -167t-148 -65q-25 0 -55.5 7.5t-59 25t-52 44t-31.5 63.5 q-10 -37 -29.5 -63.5t-44.5 -44t-53.5 -25t-52.5 -7.5q-111 0 -160 63.5t-49 168.5z" />
<glyph unicode="&#xe20;" horiz-adv-x="907" d="M31 0v78h94v418q0 66 11 106.5t54 85.5l-20 8t-22.5 6.5t-26.5 2.5v55q23 18 62.5 36.5t91 35t106.5 26.5t108 10q61 0 115.5 -12t96.5 -40t67 -71t25 -104v-641h-127v612q0 76 -46.5 125t-146.5 49q-47 0 -87 -14t-68.5 -37.5t-45 -55.5t-16.5 -69v-610h-225z" />
<glyph unicode="&#xe21;" horiz-adv-x="874" d="M113 0v850h131v-516q0 -41 14 -86t43 -83t70 -64.5t94 -28.5q45 -4 77.5 14t53 49t30 70t9.5 80v565h129v-608q0 -119 -70.5 -189.5t-191.5 -70.5q-33 0 -72 9t-77 29.5t-70.5 52t-51.5 77.5l-6 -150h-112z" />
<glyph unicode="&#xe22;" horiz-adv-x="870" d="M92 242q0 80 47 142t142 73q-92 10 -139.5 68.5t-43.5 129.5q2 76 39 123t88 66.5t109.5 14.5t107.5 -32l-24 -77q-76 29 -127 2t-62 -97q-4 -35 8.5 -63.5t37 -49t58.5 -31.5t70 -13v-74q-31 0 -62.5 -14.5t-57 -38t-41 -56t-15.5 -71.5q0 -29 10.5 -60.5t34 -60.5 t63.5 -47.5t99 -18.5q88 0 141.5 55.5t53.5 153.5v584h131v-582q0 -135 -78 -213t-250 -78q-74 0 -135 16.5t-107.5 50.5t-72 83t-25.5 115z" />
<glyph unicode="&#xe23;" horiz-adv-x="860" d="M63 221l125 23q16 -88 85 -136.5t161 -48.5q41 0 80 10.5t69.5 30t49 49t18.5 68.5q0 49 -31.5 83t-87.5 44l-186 35q-51 8 -96 25.5t-79 46t-53.5 70.5t-19.5 100q0 59 26 105t71 77t103 47t126 16q121 0 211 -53t115 -162l-115 -24q-16 72 -68.5 114.5t-144.5 42.5 q-78 0 -132 -37.5t-54 -101.5q0 -37 10 -61.5t28.5 -39t43 -21.5t53.5 -11l194 -33q117 -20 170 -87.5t53 -147.5q0 -74 -30.5 -124t-80.5 -82t-114.5 -46.5t-130.5 -14.5q-61 0 -121.5 14.5t-109.5 43t-86 75t-52 111.5z" />
<glyph unicode="&#xe24;" horiz-adv-x="888" d="M102 705v55q23 18 63 36.5t91 35t106.5 26.5t108.5 10q61 0 115.5 -12t96.5 -40t66.5 -71t24.5 -104v-907h-127v878q0 76 -46 125t-146 49q-47 0 -87 -14t-69 -37.5t-45 -55.5t-16 -69v-532h98v-78h-230v496q0 66 11.5 106.5t54.5 85.5l-20 8t-22.5 6.5t-27.5 2.5z" />
<glyph unicode="&#xe25;" horiz-adv-x="890" d="M76 223q0 70 28.5 121t75.5 86t108.5 55.5t125 28.5t125 6t110.5 -12v129q0 45 -19.5 75.5t-50 49t-68.5 26t-75 7.5q-88 0 -144 -42t-77 -104l-127 19q20 59 59 98t88.5 62.5t106.5 33.5t115 10q82 0 143.5 -20.5t101 -54t59 -79.5t19.5 -95v-625h-131v442 q-84 10 -161.5 5t-138 -29.5t-97.5 -70.5t-37 -118q0 -53 25.5 -89t65.5 -55.5t88 -20.5t95 16l19 -62q-68 -31 -143.5 -30.5t-140 27t-106.5 79.5t-42 131z" />
<glyph unicode="&#xe26;" horiz-adv-x="907" d="M31 0v78h94v418q0 66 11 106.5t54 85.5l-20 8t-22.5 6.5t-26.5 2.5v55q23 18 62.5 36.5t91 35t106.5 26.5t108 10q61 0 115.5 -12t96.5 -40t67 -71t25 -104v-907h-127v878q0 76 -46.5 125t-146.5 49q-47 0 -87 -14t-68.5 -37.5t-45 -55.5t-16.5 -69v-610h-225z" />
<glyph unicode="&#xe27;" horiz-adv-x="872" d="M41 283l125 12q8 -43 24.5 -86t45 -77t70.5 -54.5t104 -20.5q70 0 114.5 38t71.5 93.5t38 119t11 114.5t-11 113.5t-38 118t-72 92t-114 36.5q-63 0 -106.5 -20.5t-71 -54t-43 -75.5t-23.5 -85l-125 12q12 66 40 122t74 97t110.5 64.5t146.5 23.5q100 0 170.5 -37.5 t115.5 -100t65.5 -142.5t20.5 -164t-21.5 -164t-66.5 -142.5t-115.5 -100.5t-168.5 -38q-158 0 -253.5 87.5t-117.5 218.5z" />
<glyph unicode="&#xe28;" horiz-adv-x="874" d="M98 0v590q0 55 20.5 106.5t63.5 90t107.5 62t150.5 23.5q68 0 120 -14t93 -41q27 51 78 74.5t96 28.5l17 -105q-33 2 -71 -7t-60 -44q29 -37 43 -82t14 -92v-590h-127v600q0 96 -59.5 143.5t-145.5 47.5q-88 0 -150.5 -47.5t-62.5 -143.5v-201q20 45 51 74t65 44 t67.5 19.5t58.5 2.5v-115q-47 6 -90 -12.5t-77 -49t-54.5 -67.5t-20.5 -68v-227h-127z" />
<glyph unicode="&#xe29;" horiz-adv-x="878" d="M113 270v580h129v-592q0 -94 51 -146.5t145 -52.5q82 0 138.5 52.5t56.5 146.5v162l-94 -2q-57 -2 -102.5 15.5t-67.5 43.5l69 80q29 -41 71 -50t83 -7l41 2v348h131v-342l92 2v-82l-92 -2v-156q0 -61 -16.5 -114.5t-54.5 -93t-100.5 -62.5t-154.5 -23q-96 0 -159.5 23 t-100.5 62.5t-51 93t-14 114.5z" />
<glyph unicode="&#xe2a;" horiz-adv-x="890" d="M76 223q0 70 28.5 121t75.5 86t108.5 55.5t125 28.5t125 6t110.5 -12v129q0 45 -19.5 75.5t-50 49t-68.5 26t-75 7.5q-88 0 -144 -42t-77 -104l-127 19q20 59 59 98t88.5 62.5t106.5 33.5t115 10q66 0 117 -13t90 -36q27 47 79 76t99 29l16 -107q-31 2 -70.5 -7 t-62.5 -40q55 -66 55 -151v-625h-131v442q-84 10 -161.5 5t-138 -29.5t-97.5 -70.5t-37 -118q0 -53 25.5 -89t65.5 -55.5t88 -20.5t95 16l17 -55q-59 -43 -133 -46.5t-140.5 25.5t-111.5 86t-45 135z" />
<glyph unicode="&#xe2b;" horiz-adv-x="874" d="M113 0v850h129v-363q25 43 54.5 74t62 51.5t64.5 33.5t58 26q59 27 109.5 67.5t54.5 110.5h156q-4 -20 -16.5 -49t-36 -57.5t-59.5 -57.5t-83 -49q76 -16 117 -67.5t41 -118.5v-451h-131v420q0 53 -40 99t-118 46q-47 0 -89 -29.5t-74.5 -72.5t-51 -91t-18.5 -85v-287 h-129z" />
<glyph unicode="&#xe2c;" horiz-adv-x="1003" d="M113 209v641h129v-678q0 -41 22.5 -75t77.5 -34q27 0 46.5 13.5t30.5 33t16 41t5 37.5v476h121v-478q0 -16 6 -37.5t18.5 -40t33 -32t49.5 -13.5q51 0 73.5 30t22.5 77v438q0 35 -11.5 60.5t-26.5 42t-31.5 25.5t-28.5 14v14q12 2 29.5 11t32.5 24.5t25.5 38t10.5 53.5 v43h131v-45q0 -53 -40 -88t-83 -49q43 -10 83 -52.5t40 -101.5v-389q0 -102 -47 -167t-148 -65q-25 0 -55.5 7.5t-59 25t-52 44t-31.5 63.5q-10 -37 -29.5 -63.5t-44.5 -44t-53.5 -25t-52.5 -7.5q-111 0 -160 63.5t-49 168.5z" />
<glyph unicode="&#xe2d;" horiz-adv-x="921" d="M70 477h389v-90h-248q-4 -80 14.5 -141.5t52 -103.5t79.5 -64.5t98 -22.5q55 0 103 20.5t83 63.5t55.5 109.5t20.5 161.5q0 190 -75 284t-187 94q-88 0 -155 -51t-89 -141l-131 14q14 57 51 105.5t88 82t111.5 52t124.5 18.5q72 0 143.5 -24.5t127.5 -78.5t92 -141 t36 -210q0 -209 -106.5 -325t-292.5 -116q-104 0 -179 40t-123.5 110t-69 161t-13.5 193z" />
<glyph unicode="&#xe2e;" horiz-adv-x="921" d="M70 477h389v-90h-248q-4 -80 14.5 -141.5t52 -103.5t79.5 -64.5t98 -22.5q55 0 103 20.5t83 63.5t55.5 109.5t20.5 161.5q0 190 -75 284t-187 94q-88 0 -155 -51t-89 -141l-131 14q14 57 51 105.5t88 82t111.5 52t124.5 18.5q53 0 108 -14t103 -43q16 25 40.5 44t51 32.5 t53.5 22t49 10.5l12 -105q-29 2 -71.5 -9t-71.5 -44q55 -53 90 -139t35 -209q0 -209 -106.5 -325t-292.5 -116q-104 0 -179 40t-123.5 110t-69 161t-13.5 193z" />
<glyph unicode="&#xe2f;" horiz-adv-x="870" d="M78 614q-4 43 11 88.5t47 82t79 60t107 23.5q51 0 96 -13t74 -32l-29 -71q-43 18 -88 17t-82 -18.5t-60.5 -51t-23.5 -83.5q0 -35 17.5 -61.5t44 -47t59 -30.5t63.5 -10q51 0 95 17.5t75 46t48.5 67.5t17.5 80v172h131v-850h-131v500q-47 -55 -109.5 -92t-154.5 -37 q-51 0 -99.5 17.5t-88.5 49t-66.5 76.5t-32.5 100z" />
<glyph unicode="&#xe30;" horiz-adv-x="458" d="M39 197l104 71q14 -25 41 -51.5t78 -23.5l135 6v-95l-196 -6q-51 -2 -97.5 31t-64.5 68zM39 676l104 72q14 -25 41 -51.5t78 -24.5l135 6v-94l-196 -6q-51 -2 -97.5 30.5t-64.5 67.5z" />
<glyph unicode="&#xe31;" d="M-561 1137l104 71q18 -35 66.5 -54t114.5 -19l276 2v-86l-358 -7q-25 0 -55.5 5.5t-59.5 16.5t-52.5 28.5t-35.5 42.5z" />
<glyph unicode="&#xe32;" horiz-adv-x="583" d="M20 784q39 31 99.5 59.5t136.5 28.5q109 0 163 -52t54 -113v-707h-131v676q0 63 -31.5 89t-95.5 26q-47 0 -87 -21.5t-58 -34.5z" />
<glyph unicode="&#xe33;" horiz-adv-x="583" d="M-350 1137q0 33 14 59.5t39 46t55.5 29.5t63.5 10q66 0 118 -39.5t52 -105.5t-50.5 -108t-119.5 -42q-72 0 -122 42t-50 108zM-262 1137q0 -33 24.5 -52.5t59.5 -19.5t58.5 19.5t23.5 52.5q0 31 -22.5 50t-59.5 19q-35 0 -59.5 -19.5t-24.5 -49.5zM20 784 q39 31 99.5 59.5t136.5 28.5q109 0 163 -52t54 -113v-707h-131v676q0 63 -31.5 89t-95.5 26q-47 0 -87 -21.5t-58 -34.5z" />
<glyph unicode="&#xe34;" d="M-770 1047l39 90h618v-90h-657z" />
<glyph unicode="&#xe35;" d="M-768 1047l39 90h487v120h131v-210h-657z" />
<glyph unicode="&#xe36;" d="M-768 1047l39 90h356q-14 66 35 106.5t129 40.5q70 0 108 -38t38 -91q0 -109 -144 -108h-561zM-291 1157q0 -29 21.5 -42t50.5 -13q31 0 50 13t19 42q0 57 -69 57q-29 0 -50.5 -15t-21.5 -42z" />
<glyph unicode="&#xe37;" d="M-766 1047l39 90h383v131h45q16 0 22.5 -9.5t8.5 -21.5l6 -66q2 -16 9 -27t30 -11q20 0 26.5 11t8.5 27l6 66q2 12 8 21.5t22 9.5h41v-221h-655z" />
<glyph unicode="&#xe38;" d="M-319 -195l26 84h109q35 0 54 -23.5t19 -62.5v-163h-112v122q0 43 -41 43h-55z" />
<glyph unicode="&#xe39;" d="M-584 -188l35 79h98q35 0 50.5 -23.5t15.5 -62.5v-57q0 -23 19.5 -38t56.5 -15q76 0 76 65v131h122v-133q0 -82 -49 -109.5t-151 -27.5q-96 0 -137 33t-41 67v43q0 47 -41 48h-54z" />
<glyph unicode="&#xe3a;" d="M-254 -190q0 35 21.5 56t56.5 21t56.5 -21t21.5 -56t-21.5 -56.5t-56.5 -21.5t-56.5 21.5t-21.5 56.5z" />
<glyph unicode="&#xe3e;" />
<glyph unicode="&#xe3f;" horiz-adv-x="1107" d="M113 0v1182h313v110h82v-110h47q82 -4 148.5 -21.5t114.5 -53.5t75 -93.5t27 -139.5q0 -129 -77 -195.5t-200 -80.5q61 -6 119.5 -23.5t102.5 -51.5t72 -89t28 -137q0 -78 -32 -134.5t-83 -91t-115.5 -52t-130.5 -19.5h-96v-145h-82v145h-313zM254 100h172v443h-172v-443 zM254 649h172v428h-172v-428zM508 100q137 -4 218 46t81 171q0 129 -82 178.5t-217 45.5v-441zM508 649q139 -4 199.5 51t60.5 174q0 111 -69.5 161t-190.5 42v-428z" />
<glyph unicode="&#xe40;" horiz-adv-x="372" d="M121 0v850h129v-850h-129z" />
<glyph unicode="&#xe41;" horiz-adv-x="692" d="M121 0v850h129v-850h-129zM440 0v850h129v-850h-129z" />
<glyph unicode="&#xe42;" horiz-adv-x="372" d="M70 1119.5q6 25.5 24.5 46t47 31.5t63.5 11h211l22 -84h-172q-37 0 -59.5 -16t4.5 -70q16 -31 28.5 -56.5t12.5 -72.5v-909h-129v907q0 33 -5 52.5t-12.5 35t-15.5 30.5t-16 38q-10 31 -4 56.5z" />
<glyph unicode="&#xe43;" horiz-adv-x="372" d="M-127 1124q41 37 94 63.5t135 26.5t140.5 -33.5t58.5 -99.5q0 -23 -8 -38t-17.5 -32.5t-16.5 -41t-7 -64.5v-905h-129v918q0 35 16.5 64.5t22.5 49.5q16 55 -22 79t-99 24q-35 0 -68.5 -17.5t-56.5 -40.5z" />
<glyph unicode="&#xe44;" horiz-adv-x="372" d="M-63 1124l22 84h211q35 0 63.5 -11t47 -31.5t24.5 -46t-4 -56.5q-8 -23 -16.5 -38t-15.5 -30.5t-12 -35t-5 -52.5v-907h-129v909q0 47 12 73t29 56q27 53 4 69.5t-59 16.5h-172z" />
<glyph unicode="&#xe45;" horiz-adv-x="583" d="M20 784q39 31 99.5 59.5t136.5 28.5q109 0 163 -52t54 -113v-971h-131v940q0 63 -31.5 89t-95.5 26q-47 0 -91 -23t-69 -45z" />
<glyph unicode="&#xe46;" horiz-adv-x="970" d="M231 613.5q-4 56.5 18.5 105.5t67.5 83t107 38l117 -90l121 90q39 -4 75.5 -23.5t65 -48.5t45 -67.5t16.5 -84.5v-880h-127v878q0 61 -29.5 89t-52.5 28l-114 -80l-113 82q-25 2 -46.5 -10t-34.5 -35.5t-13 -55.5t20 -67l-84 -55q-35 47 -39 103.5z" />
<glyph unicode="&#xe47;" d="M-709 1182q0 63 40 113.5t106 50.5h446v-70h-379q-37 0 -64.5 -23.5t-27.5 -70.5q0 -27 5 -43.5t13.5 -25.5t17.5 -14t17 -7l129 71l89 -49q16 -10 34.5 -14t34.5 0q18 4 33.5 18.5t19.5 42.5l86 -35q2 -45 -30.5 -79.5t-85.5 -34.5q-18 0 -45 4t-49 18l-89 53l-88 -53 q-10 -6 -27.5 -13t-33.5 -7q-70 0 -111 51t-41 117z" />
<glyph unicode="&#xe48;" d="M-236 1370v225h125v-225h-125z" />
<glyph unicode="&#xe49;" d="M-414 1493l29 82q43 10 79 1t55.5 -32.5t20.5 -58.5t-24 -76q31 0 71 7t82 22.5t80.5 39t67.5 58.5l8 -109q-84 -55 -198.5 -75.5t-241.5 -8.5v19q16 12 25.5 32.5t7.5 40t-16.5 36t-45.5 22.5z" />
<glyph unicode="&#xe4a;" d="M-424 1456q0 41 26.5 68.5t69.5 31.5q29 2 46.5 -5t29.5 -17q12 -12 23 -29q6 14 20 27q10 10 30.5 18.5t49.5 5.5q20 0 40.5 -12t33 -32.5t13.5 -46t-13 -56.5q23 8 37 18.5t23 24.5t12 35.5t3 54.5l76 -31q-10 -92 -77.5 -133t-159.5 -24q27 31 26 65q0 18 -13 34.5 t-40 19.5q-23 0 -38 -9.5t-23 -23.5q-8 14 -23.5 25.5t-38.5 7.5q-29 -4 -36 -22.5t-7 -31.5q0 -20 5 -35.5t14 -25.5h-68q-8 6 -24.5 28.5t-16.5 69.5z" />
<glyph unicode="&#xe4b;" d="M-342 1448v76h111v104h116v-104h113v-76h-113v-102h-116v102h-111z" />
<glyph unicode="&#xe4c;" d="M-238 1229q0 43 6.5 80t32 65.5t74.5 45t133 16.5v-56q-43 0 -67.5 -14t-38 -35.5t-16.5 -48.5t-1 -53h-123z" />
<glyph unicode="&#xe4d;" d="M-350 1137q0 33 14 59.5t39 46t55.5 29.5t63.5 10q66 0 118 -39.5t52 -105.5t-50.5 -108t-119.5 -42q-72 0 -122 42t-50 108zM-262 1137q0 -33 24.5 -52.5t59.5 -19.5t58.5 19.5t23.5 52.5q0 31 -22.5 50t-59.5 19q-35 0 -59.5 -19.5t-24.5 -49.5z" />
<glyph unicode="&#xe4e;" d="M-336 1038q0 102 47 157.5t105 74.5q6 29 20 59.5t38 56t56.5 42t77.5 16.5v-105q-66 0 -85 -46t-19 -113q-66 0 -100.5 -38t-34.5 -104h-105z" />
<glyph unicode="&#xe4f;" horiz-adv-x="1024" d="M102 426q0 84 33 158.5t88.5 130t130 88.5t158.5 33q86 0 161 -33t130 -88.5t88 -130t33 -158.5q0 -86 -33 -161t-88 -130t-130 -88t-161 -33q-84 0 -158.5 33t-130 88t-88.5 130t-33 161zM180 426q0 -70 25.5 -130t71 -105.5t105.5 -72t130 -26.5t130 26.5t105.5 72 t72 105.5t26.5 130t-26.5 130t-72 105.5t-105.5 72t-130 26.5t-130 -26.5t-105.5 -72t-71 -105.5t-25.5 -130zM279 426q0 49 18 91t50 74t74 50t91 18t91 -18t74 -50t50 -74t18 -91t-18 -91t-50 -74t-74 -50t-91 -18t-91 18t-74 50t-50 74t-18 91zM342 426q0 -72 49 -121 t121 -49t121 49t49 121t-49 121t-121 49t-121 -49t-49 -121z" />
<glyph unicode="&#xe50;" horiz-adv-x="1187" d="M78 430q0 100 37 183t104.5 140.5t163.5 89t217 31.5q106 0 199.5 -30.5t162 -89t107.5 -142.5t39 -190q0 -100 -38 -180t-106.5 -136.5t-165 -87t-212.5 -30.5q-111 0 -204 29.5t-160.5 87t-105.5 139.5t-38 186zM231 430q0 -82 27 -147.5t75 -111.5t112.5 -71.5 t142.5 -25.5q82 0 150.5 23.5t116.5 68.5t74.5 107.5t26.5 142.5q0 180 -99 277.5t-261 97.5q-90 0 -158.5 -28t-115 -77t-69 -114.5t-22.5 -141.5z" />
<glyph unicode="&#xe51;" horiz-adv-x="1187" d="M100 541q0 74 35 135t98.5 105t150.5 68.5t189 24.5q123 0 218.5 -32.5t161 -93t100 -145.5t34.5 -187q0 -88 -36.5 -166t-105 -136.5t-166 -92t-218.5 -33.5q-86 0 -181 17.5t-167 66.5l31 98q39 -35 81 -54.5t83 -29.5t80.5 -13t72.5 -3q86 0 155.5 28.5t118 75.5 t74 110.5t25.5 131.5q0 186 -98.5 279t-264.5 93q-72 0 -129 -19t-99 -52t-64.5 -78t-22.5 -96q0 -92 46 -135t110 -43q33 0 62.5 9t48 27.5t23.5 47t-9 65.5h69q16 -33 12 -76t-29.5 -81t-72.5 -63.5t-119 -25.5q-49 0 -101 12.5t-95 43t-72 84t-29 133.5z" />
<glyph unicode="&#xe52;" horiz-adv-x="1214" d="M14 879l52 147q96 -39 130.5 -169t30.5 -347q-6 -217 60.5 -320.5t185.5 -103.5h295q111 0 165 87t54 257q0 158 -20.5 252t-92.5 98q-27 0 -51 -22.5t-43.5 -59t-32 -85t-14.5 -99.5h-78q-2 53 -14 103.5t-32.5 88t-49.5 58t-61 16.5q-35 -4 -60.5 -59t-23.5 -148 q0 -57 9 -107t25.5 -87t41 -58.5t57.5 -21.5q23 0 49.5 18.5t36.5 44.5l53 -49q-10 -35 -49 -67.5t-100 -32.5q-53 0 -97.5 30.5t-75 82t-47 118t-16.5 138.5q0 129 52.5 208.5t146.5 79.5q49 0 82.5 -16t56.5 -42t35 -56.5t18 -59.5h4q6 29 19.5 59.5t37 56.5t58.5 42 t88 16q51 0 94 -22.5t72 -72.5t45 -133t16 -206q0 -133 -27.5 -218t-75.5 -133t-112.5 -66.5t-138.5 -18.5h-305q-203 0 -293 129t-86 363q2 193 -15.5 280.5t-58.5 106.5z" />
<glyph unicode="&#xe53;" horiz-adv-x="1187" d="M84 459q0 111 25.5 188.5t65.5 127.5t90 72.5t102 22.5q49 0 87 -17t65.5 -44t44 -59.5t22.5 -63.5h4q4 31 19.5 63.5t43 59.5t66.5 44t92 17q45 0 97.5 -17t95.5 -64.5t71.5 -132.5t28.5 -222q0 -86 -19.5 -158.5t-51.5 -131t-71.5 -102.5t-80.5 -75l-86 47 q35 27 65.5 63t53 86t36 114.5t13.5 150.5q0 104 -13.5 173t-36 109t-55.5 56t-72 16q-35 0 -61.5 -25.5t-46 -64.5t-30.5 -87t-15 -93h-96q-2 45 -11.5 93t-28 87t-48 64.5t-72.5 25.5q-27 0 -53.5 -15t-48 -53t-36 -99.5t-14.5 -153.5q0 -80 13.5 -151.5t38 -126t58.5 -86 t75 -31.5q25 0 46 13t38 50l43 -47q-10 -39 -42 -68.5t-100 -29.5q-61 0 -117.5 34.5t-99.5 97t-68.5 149.5t-25.5 194z" />
<glyph unicode="&#xe54;" horiz-adv-x="1187" d="M104 420q0 209 128 327.5t376 118.5q98 0 171 4t128.5 21.5t94 52.5t69.5 94l82 -98q-29 -59 -85 -92t-128 -48.5t-149.5 -17.5t-147.5 -2q-190 0 -289.5 -88t-99.5 -272q0 -145 76 -238.5t213 -111.5q43 -6 100 -5t111 3v6q-104 20 -167 89.5t-63 166.5q0 49 18.5 88 t48.5 64.5t66.5 40t73.5 14.5q66 0 102.5 -22.5t59.5 -74.5l-53 -49q-14 39 -38 51.5t-52 12.5q-41 0 -75 -32t-34 -97q0 -43 20.5 -84t59.5 -74t94 -52.5t123 -17.5h41q16 0 36.5 1t37.5 3l26 -98q-109 0 -174 -1t-117.5 -4t-106.5 -5t-140 -2q-74 0 -152 24.5t-141.5 76.5 t-103.5 133t-40 194z" />
<glyph unicode="&#xe55;" horiz-adv-x="1187" d="M104 410q0 104 31 179t81 125t113.5 79.5t129.5 42.5q-25 23 -31 43t-6 45q0 53 52 92t126 39q72 0 120 -39t48 -92q0 -14 -1 -25.5t-11 -32.5q68 6 118 18.5t86.5 33t63.5 50t47 70.5l84 -102q-39 -61 -102.5 -97t-137 -52.5t-147.5 -20.5t-131 -4q-385 0 -385 -354 q0 -139 77 -231.5t212 -110.5q43 -6 101 -5.5t110 2.5l2 9q-104 18 -168 88.5t-64 167.5q0 49 18.5 88t48 64.5t66.5 40t74 14.5q66 0 102.5 -23t59.5 -74l-49 -47q-14 35 -39 49.5t-55 14.5q-41 0 -74 -34t-33 -99q0 -41 20.5 -83t59.5 -75t94 -52.5t123 -17.5h41 q16 0 36.5 1t37.5 3l26 -96q-109 0 -174 -1t-117.5 -4t-106.5 -5t-140 -2q-76 0 -154 25.5t-140.5 77.5t-102.5 131t-40 186zM502 903q0 -33 26.5 -52.5t73.5 -19.5q43 0 67.5 19.5t24.5 52.5q0 39 -23.5 61.5t-70.5 22.5t-72.5 -22.5t-25.5 -61.5z" />
<glyph unicode="&#xe56;" horiz-adv-x="1187" d="M12 897l74 117q59 -51 98 -121t45 -141l17 -4q6 14 31.5 35.5t69.5 42t108.5 34.5t148.5 14q98 0 187.5 -28.5t157 -83.5t107.5 -137.5t40 -186.5q0 -88 -32 -169t-94.5 -143.5t-154.5 -100t-213 -37.5q-111 0 -191.5 26.5t-133 68.5t-78 94t-25.5 106q0 45 16.5 85 t47 70.5t75.5 48t101 17.5q63 0 107 -26.5t54 -80.5l-47 -45q-27 68 -90 68q-61 0 -96 -42t-35 -99q0 -37 17.5 -75t52.5 -69t90 -50t131 -19q74 0 139.5 25.5t114.5 73.5t77.5 118.5t28.5 160.5q0 68 -23.5 130.5t-69.5 110.5t-112.5 78t-150.5 30q-59 0 -111.5 -13.5 t-93.5 -37t-69.5 -55.5t-38.5 -69h-109q-2 35 -14 77t-34.5 81t-52.5 72t-67 49z" />
<glyph unicode="&#xe57;" horiz-adv-x="1187" d="M66 461q0 111 25.5 189.5t65.5 128.5t90 72.5t101 22.5q49 0 87 -17t65.5 -44t44 -59.5t22.5 -63.5h4q4 31 19.5 63.5t43.5 59.5t65.5 44t88.5 17q53 0 93.5 -16t67 -45t42 -65.5t19.5 -75.5l12 2q-2 111 18.5 199t67.5 153l129 -25q-72 -82 -112 -230t-40 -333 q0 -86 -18 -158.5t-49 -131t-71 -102.5t-83 -75l-86 47q35 27 65.5 63t52.5 86t34 114.5t12 150.5q0 98 -14.5 166t-38 110t-55 60t-64.5 18q-35 0 -61.5 -25.5t-46 -64.5t-32 -87t-16.5 -93h-96q-2 45 -11 93t-27.5 87t-48.5 64.5t-73 25.5q-27 0 -53 -15t-47.5 -53 t-36 -99.5t-14.5 -153.5q0 -80 13 -152.5t38 -127t58.5 -87t74.5 -32.5q25 0 47.5 15t36.5 52l43 -47q-10 -39 -41 -68.5t-98 -29.5q-61 0 -118.5 34.5t-100.5 97t-68.5 149.5t-25.5 192z" />
<glyph unicode="&#xe58;" horiz-adv-x="1187" d="M76 420q0 131 39 218t99 137t135 70.5t147 20.5q10 0 48 -1t81 -1q51 -2 110 -2q121 -2 204 47t120 127l82 -94q-29 -76 -143.5 -125t-295.5 -47h-92q-35 0 -68.5 1t-41.5 1q-117 0 -195 -88t-78 -256q0 -74 13.5 -138.5t39 -112.5t60.5 -75.5t78 -27.5q72 0 114.5 61.5 t51.5 159.5h100q4 -43 18.5 -83t38 -70.5t56 -49t73.5 -18.5q59 0 101.5 40t42.5 105q0 68 -39 104.5t-103 32.5v62q53 14 99.5 5t81 -37t54 -71t19.5 -92q0 -106 -68.5 -170.5t-187.5 -64.5q-53 0 -94 15t-69.5 41t-45 57.5t-22.5 64.5h-4q-6 -33 -21.5 -64.5t-43 -57.5 t-69.5 -41t-100 -15q-49 0 -106 22.5t-105.5 73.5t-81 133t-32.5 203z" />
<glyph unicode="&#xe59;" horiz-adv-x="1187" d="M53 430q0 92 30 174t85 141.5t133 94t174 34.5q53 0 118.5 -22.5t117.5 -77.5q0 27 10 55.5t27.5 53t40 44t47.5 27.5q39 14 78.5 7t73.5 -8t58.5 14.5t34.5 74.5l105 -104q-47 -72 -87 -92.5t-75 -17.5t-66.5 16.5t-60.5 7.5t-48.5 -24.5t-30.5 -41t-12 -46t7 -42.5 l336 -643l-115 -67l-346 647q-14 27 -31.5 53.5t-42 46t-58.5 31.5t-83 12q-61 0 -110.5 -30.5t-85 -80t-55 -111.5t-19.5 -126q0 -63 21.5 -122.5t58 -105.5t87 -75t109.5 -29q57 0 107.5 10.5t109.5 63.5l76 -63q-57 -55 -131 -88t-160 -33q-94 0 -173 33.5t-135 94 t-88 141.5t-32 173z" />
<glyph unicode="&#xe5a;" horiz-adv-x="1179" d="M76 621q-4 43 11 88t48 81.5t80 60t107 23.5q51 0 96 -13t71 -32l-26 -71q-43 18 -89 17t-83 -18.5t-59.5 -51t-22.5 -82.5q0 -35 16.5 -61.5t43 -47t59 -31t63.5 -10.5q51 0 95 17.5t76 46t49.5 67.5t17.5 80v180h131v-864h-131v506q-47 -55 -110.5 -92t-156.5 -37 q-51 0 -99 17.5t-88 49t-66.5 76.5t-32.5 101zM938 0v864h131v-864h-131z" />
<glyph unicode="&#xe5b;" horiz-adv-x="1982" d="M63 389q0 82 31 153.5t85 124t130 82t166 29.5q68 0 126 -28.5t85 -81.5l-70 -70q0 51 -44 72.5t-97 21.5t-101 -22.5t-86 -62.5t-60.5 -95t-22.5 -123q0 -76 24.5 -133t66.5 -95t100.5 -57.5t125.5 -19.5q86 0 150.5 49t99.5 123t38 159t-30 156l103 70 q25 -20 61.5 -64.5t71.5 -93.5t65.5 -94t42.5 -70q4 6 16.5 33t27 59.5t25.5 62.5t15 40l92 57q8 -8 30 -37.5t45.5 -63.5t44 -63.5t26.5 -41.5q2 2 7 14t12.5 27.5t12.5 29t7 17.5h440l-24 -127h-351q-4 -10 -19 -37t-34.5 -57.5t-37 -57.5t-23.5 -33q-6 16 -25.5 54 t-43.5 79t-45.5 76t-31.5 43q-6 -16 -29.5 -61t-53 -95.5t-57.5 -93.5t-40 -55q-10 23 -34.5 68t-52.5 91t-52.5 86t-36.5 54q-10 -74 -33.5 -144.5t-71 -123.5t-121 -86t-184.5 -33q-106 0 -191 27.5t-145.5 79t-92.5 123t-32 159.5z" />
<glyph unicode="&#x2000;" horiz-adv-x="814" />
<glyph unicode="&#x2001;" horiz-adv-x="1628" />
<glyph unicode="&#x2002;" horiz-adv-x="814" />
<glyph unicode="&#x2003;" horiz-adv-x="1628" />
<glyph unicode="&#x2004;" horiz-adv-x="542" />
<glyph unicode="&#x2005;" horiz-adv-x="407" />
<glyph unicode="&#x2006;" horiz-adv-x="271" />
<glyph unicode="&#x2007;" horiz-adv-x="271" />
<glyph unicode="&#x2008;" horiz-adv-x="203" />
<glyph unicode="&#x2009;" horiz-adv-x="325" />
<glyph unicode="&#x200a;" horiz-adv-x="90" />
<glyph unicode="&#x200b;" />
<glyph unicode="&#x2010;" horiz-adv-x="790" d="M29 420v110h733v-110h-733z" />
<glyph unicode="&#x2011;" horiz-adv-x="790" d="M29 420v110h733v-110h-733z" />
<glyph unicode="&#x2012;" horiz-adv-x="790" d="M29 420v110h733v-110h-733z" />
<glyph unicode="&#x2013;" horiz-adv-x="1024" d="M27 377v86h968v-86h-968z" />
<glyph unicode="&#x2014;" horiz-adv-x="2048" d="M27 377v86h1992v-86h-1992z" />
<glyph unicode="&#x2018;" horiz-adv-x="409" d="M80 770v170l145 266h64l-109 -258h80v-178h-180z" />
<glyph unicode="&#x2019;" horiz-adv-x="409" d="M98 770l109 258h-80v178h180v-170l-145 -266h-64z" />
<glyph unicode="&#x201c;" horiz-adv-x="673" d="M80 770v170l145 266h64l-109 -258h80v-178h-180zM367 770v170l145 266h63l-108 -258h80v-178h-180z" />
<glyph unicode="&#x201d;" horiz-adv-x="673" d="M98 770l109 258h-80v178h180v-170l-145 -266h-64zM385 770l109 258h-80v178h180v-170l-145 -266h-64z" />
<glyph unicode="&#x2022;" horiz-adv-x="815" d="M74 414q0 70 26.5 130t71.5 105t105.5 72t130.5 27t130 -27t106 -72t72.5 -105t26.5 -130t-28.5 -130.5t-75.5 -105.5t-109.5 -71.5t-130.5 -26.5t-127 26.5t-103 71.5t-69.5 105.5t-25.5 130.5z" />
<glyph unicode="&#x202f;" horiz-adv-x="325" />
<glyph unicode="&#x205f;" horiz-adv-x="407" />
<glyph unicode="&#x20ac;" horiz-adv-x="1241" d="M45 412v112h162q-2 16 -2 33.5v34.5v32.5t2 32.5h-162v113h178q18 90 57 168t100.5 136.5t144.5 91t190 32.5q98 0 178 -31.5t139 -87.5q109 -100 131 -258l-145 -26q-8 57 -32.5 111.5t-64.5 95t-93.5 66.5t-118.5 26q-74 0 -129.5 -28t-94.5 -73t-63.5 -103.5 t-36.5 -119.5h385v-113h-401q-2 -16 -2 -33.5v-33.5v-32.5t2 -33.5h401v-112h-385q14 -66 40 -125.5t64.5 -103.5t92 -70.5t120.5 -26.5q68 0 123.5 25.5t96.5 68.5t66.5 99.5t33.5 117.5l141 -28q-12 -86 -49 -157t-96.5 -122t-139 -78.5t-180.5 -27.5q-102 0 -182 34.5 t-138.5 94t-97 136.5t-57.5 163h-178z" />
<glyph unicode="&#x2122;" horiz-adv-x="1406" d="M51 1104v76h498v-76h-203v-635h-92v635h-203zM629 469v711h151l199 -568l182 568h148v-711h-92v618l-211 -618h-62l-223 621v-621h-92z" />
<glyph unicode="&#x25cc;" horiz-adv-x="1372" d="M334 588l92 45q-4 -25 -4 -49q0 -23 4 -43zM432 336l35 96q26 -38 63 -65zM446 838l93 -33q-39 -25 -66 -62zM639 846l47 92l45 -90q-23 2 -43 2q-24 0 -49 -4zM643 319q23 -4 45 -4q21 0 39 4l-41 -86zM840 805l100 33l-35 -97q-26 37 -65 64zM842 362q34 25 59 58 l25 -84zM952 545q4 18 4 39q0 22 -4 45l86 -45z" />
<glyph unicode="&#x25fc;" horiz-adv-x="849" d="M0 0v850h850v-850h-850z" />
<glyph unicode="&#xf700;" horiz-adv-x="911" d="M27 676q27 55 72.5 93t98 60.5t106.5 31.5t95 9t95.5 -9t107.5 -36q37 23 45 59t12 64h119q-6 -39 -31.5 -86t-82.5 -80q66 -51 101.5 -131.5t35.5 -230.5q0 -92 -31 -170t-76 -133.5t-95 -86t-89 -30.5h-158l-98 358q-10 37 -29.5 46.5t-48.5 11.5l35 110q41 0 69.5 -11 t47 -28.5t29 -38t14.5 -38.5l88 -324h8q14 0 48 18.5t66.5 57.5t58.5 101.5t26 152.5q0 113 -26 184.5t-64.5 113.5t-86 58t-90.5 16q-80 0 -140 -29.5t-103 -107.5z" />
<glyph unicode="&#xf701;" d="M-850 1047l39 86h475v-86h-514z" />
<glyph unicode="&#xf702;" d="M-850 1047l39 86h344v124h131v-210h-514z" />
<glyph unicode="&#xf703;" d="M-850 1047l39 86h193q-14 68 34.5 109.5t128.5 41.5q70 0 108 -38t38 -91q0 -109 -144 -108h-397zM-537 1157q0 -29 21.5 -42t50.5 -13q31 0 50.5 13t19.5 42q0 57 -70 57q-29 0 -50.5 -15t-21.5 -42z" />
<glyph unicode="&#xf704;" d="M-850 1047l39 86h242v127h45q16 0 22 -9.5t8 -21.5l7 -58q2 -16 9 -27t29 -11q20 0 26.5 11t8.5 27l6 58q2 12 8.5 21.5t22.5 9.5h41v-213h-514z" />
<glyph unicode="&#xf705;" d="M-461 1022v268h123v-268h-123z" />
<glyph unicode="&#xf706;" d="M-764 1180l29 82q43 10 78.5 0.5t56 -33t21.5 -57t-23 -74.5q35 -2 76 5t79.5 23.5t73.5 39t60 51.5l16 -107q-35 -27 -84 -46.5t-106.5 -29.5t-121 -11t-126.5 7v19q16 12 25.5 32.5t7 40t-16.5 36t-45 22.5z" />
<glyph unicode="&#xf707;" d="M-809 1133q0 41 26.5 68.5t69.5 31.5q29 2 46.5 -5t29.5 -18q12 -12 23 -28q6 14 20 26q10 10 30.5 18.5t49.5 6.5q20 0 40.5 -12.5t33 -33t13.5 -46t-13 -56.5q23 8 37 18.5t23 25t12 36t3 54.5l76 -31q-10 -92 -77.5 -133t-159.5 -25q27 31 26 66q0 18 -13 34.5 t-40 18.5q-23 0 -38 -9.5t-23 -23.5q-8 14 -23.5 25.5t-38.5 7.5q-29 -4 -36 -22.5t-7 -30.5q0 -20 5 -36t14 -26h-68q-8 6 -24.5 28.5t-16.5 70.5z" />
<glyph unicode="&#xf708;" d="M-657 1128v76h112v121h109v-121h112v-76h-112v-120h-109v120h-112z" />
<glyph unicode="&#xf709;" d="M-553 1111q4 36 29.5 65.5t78 49t140.5 21.5v-55q-51 -8 -79 -25.5t-39 -40t-11 -45t6 -41.5h-123q-6 35 -2 71z" />
<glyph unicode="&#xf70a;" d="M-236 1022v268h123v-268h-123z" />
<glyph unicode="&#xf70b;" d="M-537 1190l29 82q43 10 79 1t56.5 -32.5t21.5 -57.5t-24 -75q111 6 186.5 45t129.5 92l10 -117q-92 -59 -212 -80.5t-247 -9.5v21q16 12 25.5 32.5t7.5 40t-16.5 36t-45.5 22.5z" />
<glyph unicode="&#xf70c;" d="M-596 1159q0 47 30.5 79t80.5 36q33 2 53 -8.5t35 -20.5q14 -14 24 -31q8 16 25 31q14 10 35.5 20.5t54.5 8.5q27 -2 50.5 -16.5t37.5 -37t15 -53t-17 -65.5q57 6 78.5 50t21.5 110l90 -31q-2 -59 -27.5 -100t-65.5 -64t-92 -29t-105 4q31 33 30 74q0 23 -15 41.5 t-46 20.5q-25 0 -42 -10.5t-28 -26.5q-10 16 -27.5 28.5t-43.5 8.5q-33 -4 -41.5 -26t-8.5 -36q0 -23 6.5 -40t16.5 -29h-78q-10 6 -28.5 31.5t-18.5 80.5z" />
<glyph unicode="&#xf70d;" d="M-342 1126v80h111v107h116v-107h113v-80h-113v-106h-116v106h-111z" />
<glyph unicode="&#xf70e;" d="M-240 1111q4 36 30 65.5t78 49t140 21.5v-55q-51 -8 -78.5 -25.5t-39 -40t-11.5 -45t6 -41.5h-123q-6 35 -2 71z" />
<glyph unicode="&#xf70f;" horiz-adv-x="1306" d="M102 705v55q23 18 59 36.5t81 35t96 26.5t104 10q61 0 112.5 -12t89.5 -40t59.5 -71t21.5 -104v-383q0 -88 43 -143.5t135 -55.5q80 0 121 56.5t41 142.5v592h131v-580q0 -57 -12.5 -110.5t-44 -93t-89 -64.5t-147.5 -25q-96 0 -156.5 24t-93 63.5t-44 93t-11.5 112.5 v342q0 76 -36 125t-136 49q-96 0 -142 -52t-46 -124v-532h98v-78h-230v496q0 66 11.5 106.5t54.5 85.5l-20 8t-22.5 6.5t-27.5 2.5z" />
<glyph unicode="&#xf710;" d="M-651 1137l104 71q18 -35 66.5 -54t113.5 -19l373 2v-86l-455 -7q-25 0 -55.5 5.5t-59 16.5t-52 28.5t-35.5 42.5z" />
<glyph unicode="&#xf711;" d="M-662 1137q0 33 14.5 59.5t39 46t55.5 29.5t64 10q66 0 118 -39.5t52 -105.5t-50.5 -108t-119.5 -42q-72 0 -122.5 42t-50.5 108zM-573 1137q0 -33 24.5 -52.5t59.5 -19.5t58 19.5t23 52.5q0 31 -22.5 50t-58.5 19q-35 0 -59.5 -19.5t-24.5 -49.5z" />
<glyph unicode="&#xf712;" d="M-856 1165q0 59 36 102.5t95 43.5h401v-64h-340q-35 0 -58 -20.5t-23 -61.5q0 -43 16 -61.5t31 -22.5l116 64l78 -45q16 -10 32.5 -13.5t31.5 0.5q16 4 29.5 16.5t17.5 39.5l78 -31q2 -41 -28 -72.5t-77 -31.5q-16 0 -42.5 5t-43.5 15l-78 49l-80 -49q-10 -4 -25.5 -11 t-29.5 -7q-63 0 -100 47t-37 108z" />
<glyph unicode="&#xf713;" d="M-467 1358v186h131v-186h-131z" />
<glyph unicode="&#xf714;" d="M-569 1507l28 82q43 10 79 1t56.5 -32.5t21.5 -57.5t-24 -75q31 0 76 9.5t92 26t89 38t69 47.5v-98q-82 -53 -207 -77.5t-252 -12.5v18q16 12 25.5 33t7.5 40t-16.5 35.5t-44.5 22.5z" />
<glyph unicode="&#xf715;" d="M-612 1458q0 41 26.5 68.5t69.5 32.5q29 2 46 -5.5t30 -17.5q12 -12 22 -29q6 14 21 27q10 10 30.5 18.5t49.5 6.5q20 0 40.5 -12.5t33 -33t13.5 -46t-14 -56.5q23 8 37 18.5t23.5 24.5t12.5 35.5t3 54.5l76 -31q-10 -92 -78 -133t-160 -24q27 31 27 65q0 18 -13.5 35 t-39.5 19q-23 0 -38.5 -9.5t-23.5 -23.5q-8 14 -23.5 25.5t-37.5 7.5q-29 -4 -36 -22.5t-7 -31.5q0 -20 5 -35.5t13 -25.5h-67q-8 6 -24.5 28.5t-16.5 69.5z" />
<glyph unicode="&#xf716;" d="M-573 1432v75h110v84h121v-84h113v-75h-113v-82h-121v82h-110z" />
<glyph unicode="&#xf717;" d="M-459 1231q0 43 6.5 80t32 65.5t74.5 45t133 16.5v-56q-43 0 -67.5 -14t-38 -35.5t-16.5 -48.5t-1 -53h-123z" />
<glyph unicode="&#xf718;" d="M-319 -461l26 84h109q35 0 54 -23.5t19 -62.5v-164h-112v123q0 43 -41 43h-55z" />
<glyph unicode="&#xf719;" d="M-584 -455l35 80h98q35 0 50.5 -23.5t15.5 -62.5v-57q0 -23 19.5 -38t56.5 -15q76 0 76 65v131h122v-133q0 -82 -49 -109.5t-151 -27.5q-96 0 -137 32.5t-41 67.5v43q0 47 -41 47h-54z" />
<glyph unicode="&#xf71a;" d="M-254 -457q0 35 21.5 56.5t56.5 21.5t56.5 -21.5t21.5 -56.5t-21.5 -56.5t-56.5 -21.5t-56.5 21.5t-21.5 56.5z" />
<glyph unicode="&#xf71d;" horiz-adv-x="1003" d="M113 209v641h129v-678q0 -41 22.5 -75t77.5 -34q27 0 46.5 13.5t30.5 33t16 41t5 37.5v476h121v-478q0 -16 6 -37.5t18.5 -40t33 -32t49.5 -13.5q51 0 73.5 30t22.5 77v438q0 35 -11.5 60.5t-26.5 42t-31.5 25.5t-28.5 14v14q12 2 29.5 11t32.5 24.5t25.5 38t10.5 53.5 v43h131v-45q0 -53 -40 -88t-83 -49q43 -10 83 -52.5t40 -101.5v-389q0 -102 -47 -167t-148 -65q-25 0 -55.5 7.5t-59 25t-52 44t-31.5 63.5q-10 -37 -29.5 -63.5t-44.5 -44t-53.5 -25t-52.5 -7.5q-111 0 -160 63.5t-49 168.5z" />
<glyph unicode="&#xf881;" horiz-adv-x="1288" d="M102 711v55q23 18 63 36.5t91 35t106.5 26.5t108.5 10q78 0 144.5 -19t107.5 -67q39 31 99.5 58.5t133.5 27.5q109 0 163.5 -52t54.5 -113v-973h-132v942q0 63 -31.5 89t-95.5 26q-47 0 -88 -20.5t-67 -43.5q14 -35 14 -82v-913h-127v884q0 76 -46 125.5t-146 49.5 q-47 0 -87 -14.5t-69 -38t-45 -55.5t-16 -69v-538h98v-78h-230v502q0 66 11.5 106.5t54.5 85.5l-20 8t-22.5 6.5t-27.5 2.5z" />
<glyph unicode="&#xf882;" horiz-adv-x="1306" d="M31 0v78h94v424q0 66 11 106.5t54 85.5l-20 8t-22.5 6.5t-26.5 2.5v55q23 18 62.5 36.5t91 35t106.5 26.5t108 10q78 0 144.5 -19t107.5 -67q39 31 99.5 58.5t134.5 27.5q109 0 163 -52t54 -113v-973h-131v942q0 63 -32 89t-95 26q-47 0 -88 -20.5t-68 -43.5 q14 -35 15 -82v-913h-127v884q0 76 -46.5 125.5t-146.5 49.5q-47 0 -87 -14.5t-68.5 -38t-45 -55.5t-16.5 -69v-616h-225z" />
<glyph horiz-adv-x="1179" d="M76 621q-4 43 11 88t48 81.5t80 60t107 23.5q51 0 96 -13t71 -32l-26 -71q-43 18 -89 17t-83 -18.5t-59.5 -51t-22.5 -82.5q0 -35 16.5 -61.5t43 -47t59 -31t63.5 -10.5q51 0 95 17.5t76 46t49.5 67.5t17.5 80v180h131v-864h-131v506q-47 -55 -110.5 -92t-156.5 -37 q-51 0 -99 17.5t-88 49t-66.5 76.5t-32.5 101zM938 0v864h131v-864h-131z" />
<glyph d="M-336 1038q0 102 47 157.5t105 74.5q6 29 20 59.5t38 56t56.5 42t77.5 16.5v-105q-66 0 -85 -46t-19 -113q-66 0 -100.5 -38t-34.5 -104h-105z" />
<glyph horiz-adv-x="583" d="M-637 1137q0 33 14.5 59.5t39 46t55 29.5t63.5 10q66 0 118 -39.5t52 -105.5t-50 -108t-120 -42q-72 0 -122 42t-50 108zM-549 1137q0 -33 24.5 -52.5t59.5 -19.5t58.5 19.5t23.5 52.5q0 31 -22.5 50t-59.5 19q-35 0 -59.5 -19.5t-24.5 -49.5zM20 784q39 31 99.5 59.5 t136.5 28.5q109 0 163 -52t54 -113v-707h-131v676q0 63 -31.5 89t-95.5 26q-47 0 -87 -21.5t-58 -34.5z" />
<glyph horiz-adv-x="583" d="M-637 1137q0 33 14.5 59.5t39 46t55 29.5t63.5 10q66 0 118 -39.5t52 -105.5t-50 -108t-120 -42q-72 0 -122 42t-50 108zM-549 1137q0 -33 24.5 -52.5t59.5 -19.5t58.5 19.5t23.5 52.5q0 31 -22.5 50t-59.5 19q-35 0 -59.5 -19.5t-24.5 -49.5zM20 784q39 31 99.5 59.5 t136.5 28.5q109 0 163 -52t54 -113v-707h-131v676q0 63 -31.5 89t-95.5 26q-47 0 -87 -21.5t-58 -34.5z" />
<glyph horiz-adv-x="870" d="M78 614q-4 43 11 88.5t47 82t79 60t107 23.5q51 0 96 -13t74 -32l-29 -71q-43 18 -88 17t-82 -18.5t-60.5 -51t-23.5 -83.5q0 -35 17.5 -61.5t44 -47t59 -30.5t63.5 -10q51 0 95 17.5t75 46t48.5 67.5t17.5 80v172h131v-850h-131v500q-47 -55 -109.5 -92t-154.5 -37 q-51 0 -99.5 17.5t-88.5 49t-66.5 76.5t-32.5 100z" />
</font>
</defs>
</svg>
