<?xml version="1.0" standalone="no"?>
<!DOCTYPE svg PUBLIC "-//W3C//DTD SVG 1.1//EN" "http://www.w3.org/Graphics/SVG/1.1/DTD/svg11.dtd" >
<svg xmlns="http://www.w3.org/2000/svg" xmlns:xlink="http://www.w3.org/1999/xlink" version="1.1">
<metadata>
Created by FontForge 20150824 at Thu Feb 11 20:18:01 2016
 By Everything Fonts
Copyright (c) 2007 by Prinya R. nont. All rights reserved.
</metadata>
<defs>
<font id="DBThaiTextXLiIt" horiz-adv-x="0" >
  <font-face 
    font-family="DBThaiTextXLiIt"
    font-weight="300"
    font-stretch="normal"
    units-per-em="1000"
    panose-1="2 0 5 6 6 0 0 2 0 4"
    ascent="800"
    descent="-200"
    x-height="306"
    cap-height="425"
    bbox="-312 -397 1020 757"
    underline-thickness="35"
    underline-position="-164"
    unicode-range="U+0020-F882"
  />
<missing-glyph horiz-adv-x="414" 
d="M422 400v-14h6q7 0 7 9q0 1 -1.5 3t-5.5 2h-6zM425 385h-3v-14h-5v34h11q12 0 12 -10q0 -7 -3 -8.5t-7 -1.5l10 -14h-5zM428 366q13 0 17.5 7t4.5 13q0 11 -5.5 17.5t-16.5 6.5t-17 -6.5t-6 -17.5q0 -8 5.5 -14t17.5 -6zM428 413q13 0 19 -8t6 -19q0 -8 -6 -15.5
t-19 -7.5q-12 0 -19 7.5t-7 15.5q0 11 7 19t19 8zM201 316q16 -1 37.5 -4t43 -7t39.5 -9.5t27 -12.5q-20 40 -62 61.5t-86 21.5q-34 0 -65 -13t-51 -40q18 2 36 3t36 1h22.5t22.5 -1zM375 395v-142q-48 15 -110 25.5t-130 10.5q-48 0 -94 -6q6 22 19 42.5t33 36t46.5 24.5
t58.5 9q31 0 56 -7t44 -17t31.5 -22t18.5 -21q0 -1 -0.5 6.5t-0.5 18.5v23v19h28zM153 127q0 8 -5.5 12t-11.5 4q-7 0 -12 -4t-5 -12t5 -11.5t12 -3.5q6 0 11.5 3.5t5.5 11.5zM32 139q0 23 9 41t24 30t34 18t39 6t38.5 -5.5t33 -16.5t23 -28t8.5 -41v-116h106v202h28v-228
h-189v26h29v119q0 30 -22 45t-54 15q-30 0 -54 -16.5t-24 -46.5v-107l58 58q-5 2 -13 10t-8 23q0 18 11 28.5t29 10.5q17 0 27.5 -11.5t10.5 -27.5q0 -14 -5.5 -21.5t-9.5 -11.5q-2 -2 -17 -16.5t-33 -31.5q-21 -20 -47 -45h-32v138z" />
    <glyph glyph-name="plusminus" unicode="&#x2b;&#x2d;" horiz-adv-x="341" 
d="M338 206h-119l-26 -119h-31l26 119h-119l6 31h119l25 119h31l-25 -119h119zM312.514 0.145508h-284.726l5.27246 37.999h284.727z" />
    <glyph glyph-name="ellipsis" unicode="&#x2e;&#x2e;&#x2e;" horiz-adv-x="583" 
d="M505 0h-38l8 39h38zM311 0h-39l8 39h39zM117 0h-39l8 39h39z" />
    <glyph glyph-name="lessequal" unicode="&#x3c;&#x3d;" horiz-adv-x="341" 
d="M312 9l-8 -38l-252 118l10 37zM372 275l-255 -97l214 -98l-8 -38l-252 118l8 35l302 118z" />
    <glyph glyph-name="greaterequal" unicode="&#x3e;&#x3d;" horiz-adv-x="341" 
d="M331 87l-302 -118l8 38l306 124zM347 163l-302 -118l8 38l255 98l-214 97l9 38l252 -118z" />
    <glyph glyph-name="fongmanfunnuthai" unicode="&#xe4f;&#x22;" horiz-adv-x="425" 
d="M338 386h-11l1 59l10 50h35l-11 -50zM263 386h-10v59l11 50h34l-10 -50zM417 164q-8 -35 -27.5 -65.5t-47.5 -53.5t-61.5 -36.5t-68.5 -13.5t-63 13.5t-46 36.5t-25 53.5t1 65.5q7 35 27 65.5t48 53.5t61.5 36.5t68.5 13.5t63 -13.5t46 -36.5t24.5 -53.5t-0.5 -65.5z
M389 164q6 29 0.5 55t-20.5 45.5t-38.5 30.5t-52.5 11t-57.5 -11t-52 -30.5t-40 -45.5t-22.5 -55t-0.5 -55t21 -45t39 -30t52.5 -11t57 11t51.5 30t40 45t22.5 55zM337 164q-4 -18 -14.5 -34.5t-25 -28.5t-32.5 -19t-36 -7q-37 0 -57.5 26t-12.5 63q4 18 14.5 34.5t25 28.5
t32.5 19t36 7q37 0 57.5 -26t12.5 -63zM315 164q6 28 -9.5 48t-43.5 20t-52 -20t-30 -48t10 -47.5t44 -19.5t51.5 19.5t29.5 47.5z" />
    <glyph glyph-name="dochadaphinthuthai" unicode="&#xe0e;&#xe3a;" horiz-adv-x="403" 
d="M282 -133q-12 23 -31.5 41.5t-42.5 32.5q-20 -40 -48.5 -57t-54.5 -17q-27 0 -45.5 15t-12.5 45q8 34 34.5 47.5t55.5 13.5q36 0 61 -11l7 14q7 14 13 32l24 -6q-3 -9 -6.5 -17.5t-6.5 -16.5q-4 -9 -8 -17q20 -10 40 -26.5t34 -39.5l74 347q4 19 -2.5 32t-19 21.5
t-29.5 12t-33 3.5q-24 0 -52.5 -6.5t-50.5 -19.5q18 -4 35 -17t26 -22q-26 -7 -45.5 -25t-27.5 -50l-20 -94q-5 -25 -25 -41t-46 -16t-39 16.5t-8 40.5t23.5 41.5t45.5 17.5q14 0 19.5 -2t10.5 -7l10 47q5 20 17.5 41t35.5 31q-8 7 -26 15.5t-40 12.5q30 29 74.5 46.5
t88.5 17.5q25 0 46.5 -6t36.5 -18t22 -30t2 -42l-81 -380h-35zM277 -239q-14 0 -18.5 8.5t-2.5 19t10.5 19t22.5 8.5t19 -8.5t2.5 -19t-11 -19t-22.5 -8.5zM127 84q3 13 -4 24t-24 11t-28.5 -10.5t-14.5 -24.5q-2 -14 4.5 -25t23.5 -11t28.5 11.5t14.5 24.5zM185 -48
q-4 2 -16.5 6t-35.5 4q-24 0 -39 -9t-19 -27t9 -26t27 -8q17 0 37 12t37 48z" />
    <glyph glyph-name="topatakphintuthai" unicode="&#xe0f;&#xe3a;" horiz-adv-x="403" 
d="M281 -133l-35 48l-59 -50q-3 7 -6 16t-7 14q-2 3 -4 6.5t-4 6.5q-3 4 -5 6q-19 -26 -40 -37.5t-42 -11.5q-20 0 -35 13t-10 39q5 25 26.5 38.5t41.5 13.5q35 0 55 -18q7 12 13 23q5 10 11.5 22t11.5 25l23 -6q-14 -38 -39 -76q8 -8 12 -15t9 -16l57 47l40 -55
q10 46 15 71.5t8.5 42t6.5 30t8 37t13.5 62t22.5 104.5q4 19 -2.5 32t-19 21.5t-29.5 12t-33 3.5q-24 0 -52.5 -6.5t-50.5 -19.5q18 -4 35 -17t26 -22q-26 -7 -45.5 -25t-27.5 -50l-20 -94q-5 -25 -25 -41t-46 -16t-39 16.5t-8 40.5t23.5 41.5t45.5 17.5q14 0 19.5 -2
t10.5 -7l10 47q5 20 17.5 41t35.5 31q-8 7 -26 15.5t-40 12.5q30 29 74.5 46.5t88.5 17.5q25 0 46.5 -6t36.5 -18t22 -30t2 -42l-81 -380h-36zM277 -239q-14 0 -18.5 8.5t-2.5 19t10.5 19t22.5 8.5t19 -8.5t2.5 -19t-11 -19t-22.5 -8.5zM127 84q3 13 -4 24t-24 11
t-28.5 -10.5t-14.5 -24.5q-2 -14 4.5 -25t23.5 -11t28.5 11.5t14.5 24.5zM143 -71q-6 5 -18 10.5t-26 5.5q-12 0 -23.5 -6.5t-15.5 -21.5q-2 -14 6 -20t22 -6q15 0 29.5 12.5t25.5 25.5z" />
    <glyph glyph-name="dochadasarauthai" unicode="&#xe0e;&#xe38;" horiz-adv-x="403" 
d="M282 -133q-12 23 -31.5 41.5t-42.5 32.5q-20 -40 -48.5 -57t-54.5 -17q-27 0 -45.5 15t-12.5 45q8 34 34.5 47.5t55.5 13.5q36 0 61 -11l7 14q7 14 13 32l24 -6q-3 -9 -6.5 -17.5t-6.5 -16.5q-4 -9 -8 -17q20 -10 40 -26.5t34 -39.5l74 347q4 19 -2.5 32t-19 21.5
t-29.5 12t-33 3.5q-24 0 -52.5 -6.5t-50.5 -19.5q18 -4 35 -17t26 -22q-26 -7 -45.5 -25t-27.5 -50l-20 -94q-5 -25 -25 -41t-46 -16t-39 16.5t-8 40.5t23.5 41.5t45.5 17.5q14 0 19.5 -2t10.5 -7l10 47q5 20 17.5 41t35.5 31q-8 7 -26 15.5t-40 12.5q30 29 74.5 46.5
t88.5 17.5q25 0 46.5 -6t36.5 -18t22 -30t2 -42l-81 -380h-35zM237 -371l18 85q-5 -2 -12.5 -3t-13.5 -1q-26 0 -35.5 16.5t-4.5 36.5q4 20 20.5 36.5t43.5 16.5q23 0 35 -13t7 -39l-29 -135h-29zM127 84q3 13 -4 24t-24 11t-28.5 -10.5t-14.5 -24.5q-2 -14 4.5 -25
t23.5 -11t28.5 11.5t14.5 24.5zM185 -48q-4 2 -16.5 6t-35.5 4q-24 0 -39 -9t-19 -27t9 -26t27 -8q17 0 37 12t37 48zM272 -238q3 12 -2.5 22t-21.5 10q-15 0 -25 -10t-12 -22q-3 -11 2.5 -21t21.5 -10q15 0 25 10t12 21z" />
    <glyph glyph-name="topataksarauthai" unicode="&#xe0f;&#xe38;" horiz-adv-x="403" 
d="M281 -133l-35 48l-59 -50q-3 7 -6 16t-7 14q-2 3 -4 6.5t-4 6.5q-3 4 -5 6q-19 -26 -40 -37.5t-42 -11.5q-20 0 -35 13t-10 39q5 25 26.5 38.5t41.5 13.5q35 0 55 -18q7 12 13 23q5 10 11.5 22t11.5 25l23 -6q-14 -38 -39 -76q8 -8 12 -15t9 -16l57 47l40 -55
q10 46 15 71.5t8.5 42t6.5 30t8 37t13.5 62t22.5 104.5q4 19 -2.5 32t-19 21.5t-29.5 12t-33 3.5q-24 0 -52.5 -6.5t-50.5 -19.5q18 -4 35 -17t26 -22q-26 -7 -45.5 -25t-27.5 -50l-20 -94q-5 -25 -25 -41t-46 -16t-39 16.5t-8 40.5t23.5 41.5t45.5 17.5q14 0 19.5 -2
t10.5 -7l10 47q5 20 17.5 41t35.5 31q-8 7 -26 15.5t-40 12.5q30 29 74.5 46.5t88.5 17.5q25 0 46.5 -6t36.5 -18t22 -30t2 -42l-81 -380h-36zM237 -371l18 85q-5 -2 -12.5 -3t-13.5 -1q-26 0 -35.5 16.5t-4.5 36.5q4 20 20.5 36.5t43.5 16.5q23 0 35 -13t7 -39l-29 -135
h-29zM127 84q3 13 -4 24t-24 11t-28.5 -10.5t-14.5 -24.5q-2 -14 4.5 -25t23.5 -11t28.5 11.5t14.5 24.5zM272 -238q3 12 -2.5 22t-21.5 10q-15 0 -25 -10t-12 -22q-3 -11 2.5 -21t21.5 -10q15 0 25 10t12 21zM143 -71q-6 5 -18 10.5t-26 5.5q-12 0 -23.5 -6.5t-15.5 -21.5
q-2 -14 6 -20t22 -6q15 0 29.5 12.5t25.5 25.5z" />
    <glyph glyph-name="dochadasarauuthai" unicode="&#xe0e;&#xe39;" horiz-adv-x="403" 
d="M282 -133q-12 23 -31.5 41.5t-42.5 32.5q-20 -40 -48.5 -57t-54.5 -17q-27 0 -45.5 15t-12.5 45q8 34 34.5 47.5t55.5 13.5q36 0 61 -11l7 14q7 14 13 32l24 -6q-3 -9 -6.5 -17.5t-6.5 -16.5q-4 -9 -8 -17q20 -10 40 -26.5t34 -39.5l74 347q4 19 -2.5 32t-19 21.5
t-29.5 12t-33 3.5q-24 0 -52.5 -6.5t-50.5 -19.5q18 -4 35 -17t26 -22q-26 -7 -45.5 -25t-27.5 -50l-20 -94q-5 -25 -25 -41t-46 -16t-39 16.5t-8 40.5t23.5 41.5t45.5 17.5q14 0 19.5 -2t10.5 -7l10 47q5 20 17.5 41t35.5 31q-8 7 -26 15.5t-40 12.5q30 29 74.5 46.5
t88.5 17.5q25 0 46.5 -6t36.5 -18t22 -30t2 -42l-81 -380h-35zM127 84q3 13 -4 24t-24 11t-28.5 -10.5t-14.5 -24.5q-2 -14 4.5 -25t23.5 -11t28.5 11.5t14.5 24.5zM185 -48q-4 2 -16.5 6t-35.5 4q-24 0 -39 -9t-19 -27t9 -26t27 -8q17 0 37 12t37 48zM277 -324
q-5 -26 -25 -38.5t-44 -12.5q-23 0 -38.5 13.5t-10.5 37.5l9 43q-13 -5 -26 -5q-26 0 -36 16.5t-5 36.5q4 20 21 36.5t44 16.5q23 0 35 -13t7 -39q0 -1 -2.5 -12.5t-5.5 -26.5t-6.5 -29t-4.5 -20q-3 -17 5.5 -23.5t19.5 -6.5t21.5 7t13.5 22l29 137h29zM185 -234
q3 12 -2.5 22t-21.5 10q-15 0 -25 -10t-12 -22q-2 -11 3 -21t21 -10t25.5 10t11.5 21z" />
    <glyph glyph-name="topataksarauuthai" unicode="&#xe0f;&#xe39;" horiz-adv-x="403" 
d="M281 -133l-35 48l-59 -50q-3 7 -6 16t-7 14q-2 3 -4 6.5t-4 6.5q-3 4 -5 6q-19 -26 -40 -37.5t-42 -11.5q-20 0 -35 13t-10 39q5 25 26.5 38.5t41.5 13.5q35 0 55 -18q7 12 13 23q5 10 11.5 22t11.5 25l23 -6q-14 -38 -39 -76q8 -8 12 -15t9 -16l57 47l40 -55
q10 46 15 71.5t8.5 42t6.5 30t8 37t13.5 62t22.5 104.5q4 19 -2.5 32t-19 21.5t-29.5 12t-33 3.5q-24 0 -52.5 -6.5t-50.5 -19.5q18 -4 35 -17t26 -22q-26 -7 -45.5 -25t-27.5 -50l-20 -94q-5 -25 -25 -41t-46 -16t-39 16.5t-8 40.5t23.5 41.5t45.5 17.5q14 0 19.5 -2
t10.5 -7l10 47q5 20 17.5 41t35.5 31q-8 7 -26 15.5t-40 12.5q30 29 74.5 46.5t88.5 17.5q25 0 46.5 -6t36.5 -18t22 -30t2 -42l-81 -380h-36zM127 84q3 13 -4 24t-24 11t-28.5 -10.5t-14.5 -24.5q-2 -14 4.5 -25t23.5 -11t28.5 11.5t14.5 24.5zM143 -71q-6 5 -18 10.5
t-26 5.5q-12 0 -23.5 -6.5t-15.5 -21.5q-2 -14 6 -20t22 -6q15 0 29.5 12.5t25.5 25.5zM277 -324q-5 -26 -25 -38.5t-44 -12.5q-23 0 -38.5 13.5t-10.5 37.5l9 43q-13 -5 -26 -5q-26 0 -36 16.5t-5 36.5q4 20 21 36.5t44 16.5q23 0 35 -13t7 -39q0 -1 -2.5 -12.5t-5.5 -26.5
t-6.5 -29t-4.5 -20q-3 -17 5.5 -23.5t19.5 -6.5t21.5 7t13.5 22l29 137h29zM185 -234q3 12 -2.5 22t-21.5 10q-15 0 -25 -10t-12 -22q-2 -11 3 -21t21 -10t25.5 10t11.5 21z" />
    <glyph glyph-name=".notdef" horiz-adv-x="414" 
d="M422 400v-14h6q7 0 7 9q0 1 -1.5 3t-5.5 2h-6zM425 385h-3v-14h-5v34h11q12 0 12 -10q0 -7 -3 -8.5t-7 -1.5l10 -14h-5zM428 366q13 0 17.5 7t4.5 13q0 11 -5.5 17.5t-16.5 6.5t-17 -6.5t-6 -17.5q0 -8 5.5 -14t17.5 -6zM428 413q13 0 19 -8t6 -19q0 -8 -6 -15.5
t-19 -7.5q-12 0 -19 7.5t-7 15.5q0 11 7 19t19 8zM201 316q16 -1 37.5 -4t43 -7t39.5 -9.5t27 -12.5q-20 40 -62 61.5t-86 21.5q-34 0 -65 -13t-51 -40q18 2 36 3t36 1h22.5t22.5 -1zM375 395v-142q-48 15 -110 25.5t-130 10.5q-48 0 -94 -6q6 22 19 42.5t33 36t46.5 24.5
t58.5 9q31 0 56 -7t44 -17t31.5 -22t18.5 -21q0 -1 -0.5 6.5t-0.5 18.5v23v19h28zM153 127q0 8 -5.5 12t-11.5 4q-7 0 -12 -4t-5 -12t5 -11.5t12 -3.5q6 0 11.5 3.5t5.5 11.5zM32 139q0 23 9 41t24 30t34 18t39 6t38.5 -5.5t33 -16.5t23 -28t8.5 -41v-116h106v202h28v-228
h-189v26h29v119q0 30 -22 45t-54 15q-30 0 -54 -16.5t-24 -46.5v-107l58 58q-5 2 -13 10t-8 23q0 18 11 28.5t29 10.5q17 0 27.5 -11.5t10.5 -27.5q0 -14 -5.5 -21.5t-9.5 -11.5q-2 -2 -17 -16.5t-33 -31.5q-21 -20 -47 -45h-32v138z" />
    <glyph glyph-name=".null" 
 />
    <glyph glyph-name="nonmarkingreturn" horiz-adv-x="283" 
 />
    <glyph glyph-name="space" unicode=" " horiz-adv-x="250" 
 />
    <glyph glyph-name="exclam" unicode="!" horiz-adv-x="162" 
d="M150 214l-39 -114h-13l9 114l45 211h43zM105 0h-43l13 63h43z" />
    <glyph glyph-name="quotedbl" unicode="&#x22;" horiz-adv-x="207" 
d="M245 345l-30 -74h-13v74l14 63h43zM152 345l-30 -74h-13v74l14 63h43z" />
    <glyph glyph-name="numbersign" unicode="#" horiz-adv-x="324" 
d="M370 256h-67l-42 -108h66l-6 -29h-72l-52 -131h-30l52 131h-89l-52 -131h-30l52 131h-64l6 29h70l42 108h-69l6 29h74l49 122h30l-49 -122h89l49 122h30l-49 -122h62zM184 256l-42 -108h89l42 108h-89z" />
    <glyph glyph-name="dollar" unicode="$" horiz-adv-x="324" 
d="M314 312q2 10 1 21.5t-8 22t-19.5 18t-32.5 9.5l-33 -156q52 -14 80 -43.5t18 -77.5q-4 -19 -14.5 -38.5t-28.5 -35.5t-44 -27t-61 -13l-10 -49h-28l10 49q-54 4 -81 35t-15 88h37q-17 -84 66 -90l37 171q-18 4 -37 11.5t-33 20t-20.5 33t-0.5 51.5q6 25 20 44t32.5 31.5
t40.5 19t44 8.5l8 36h28l-8 -36q27 -2 45.5 -11t29 -23t14 -32t-0.5 -37h-36zM227 383q-40 -3 -63.5 -24t-28.5 -45q-4 -20 -0.5 -33t12.5 -22t21.5 -15t27.5 -10zM281 104q8 35 -11 54.5t-56 30.5l-35 -164q46 4 71 27.5t31 51.5z" />
    <glyph glyph-name="percent" unicode="%" horiz-adv-x="519" 
d="M515 88q-4 -20 -15 -37t-27 -30t-35 -20.5t-38 -7.5q-39 0 -60.5 28t-13.5 67q4 19 15 36.5t27 30.5t34.5 20.5t37.5 7.5q39 0 61 -28t14 -67zM160 -12h-37l321 425h37zM276 300q-4 -20 -15 -37t-27 -30t-35 -20.5t-38 -7.5q-40 0 -61.5 28t-13.5 67q4 19 15 36.5
t27 30.5t34.5 20.5t38.5 7.5q39 0 61 -28t14 -67zM484 88q5 27 -9.5 45.5t-41.5 18.5q-13 0 -25.5 -5t-23 -13.5t-18 -20.5t-10.5 -25q-6 -26 9 -45t41 -19q27 0 49.5 19t28.5 45zM245 300q5 27 -10 45.5t-41 18.5t-49 -18.5t-28 -45.5q-6 -27 8.5 -45.5t41.5 -18.5
q26 0 49 18.5t29 45.5z" />
    <glyph glyph-name="ampersand" unicode="&#x26;" horiz-adv-x="389" 
d="M369 188q-10 -26 -23.5 -52.5t-32.5 -49.5l52 -86h-48l-32 54q-29 -27 -63 -44t-73 -17q-49 0 -75 29.5t-16 77.5q4 21 13 37.5t23.5 31.5t36 29t51.5 31l-14 23q-22 36 -14 71q8 37 38 61.5t71 24.5q40 0 60.5 -25t12.5 -62q-4 -19 -14.5 -34t-25 -26.5t-31.5 -21
t-33 -18.5q11 -19 28.5 -47.5t35.5 -58.5q11 17 21 35t17 37h35zM299 322q6 26 -7 41.5t-36 15.5q-19 0 -39.5 -12.5t-27.5 -44.5q-2 -12 1 -23.5t8 -21.5t10.5 -18t8.5 -12q33 17 55 33t27 42zM197 203h-1q-23 -14 -40 -24.5t-29 -21.5t-20 -24.5t-12 -32.5q-3 -16 1 -29.5
t14 -23t23 -15t28 -5.5q29 0 56.5 15.5t50.5 40.5z" />
    <glyph glyph-name="quotesingle" unicode="'" horiz-adv-x="112" 
d="M150 345l-30 -74h-13v74l14 63h43z" />
    <glyph glyph-name="parenleft" unicode="(" horiz-adv-x="194" 
d="M250 419q-59 -75 -90.5 -146.5t-41.5 -121.5q-5 -26 -8 -57t-2 -65.5t7 -72t20 -74.5h-21q-14 26 -24 58t-14.5 67t-4 72t8.5 72q7 35 22 71.5t34.5 71.5t43 67t48.5 58h22v0z" />
    <glyph glyph-name="parenright" unicode=")" horiz-adv-x="194" 
d="M176 151q-8 -35 -22.5 -72t-34 -72t-43 -67t-48.5 -58h-22q30 37 52.5 74.5t38.5 72t26 65.5t15 57q5 25 8.5 56t2.5 65.5t-7.5 71.5t-20.5 75h21q14 -26 24 -58t14.5 -67t3.5 -71.5t-8 -71.5z" />
    <glyph glyph-name="asterisk" unicode="*" horiz-adv-x="227" 
d="M204 339l31 -58l-27 -17l-27 60l-55 -60l-19 17l56 58l-65 20l16 29l62 -25l14 74h30l-19 -74l73 24l4 -31z" />
    <glyph glyph-name="plus" unicode="+" horiz-adv-x="341" 
d="M331 125h-119l-26 -119h-31l26 119h-119l6 31h119l25 119h31l-25 -119h119z" />
    <glyph glyph-name="comma" unicode="," horiz-adv-x="162" 
d="M105 -3q-5 -26 -14 -41t-20 -23q-8 -6 -16 -9.5t-18 -6.5l4 19q22 9 31 26.5t11 37.5h-27l12 57h50z" />
    <glyph glyph-name="hyphen" unicode="-" horiz-adv-x="194" 
d="M191 126h-127l6 30h127z" />
    <glyph glyph-name="period" unicode="." horiz-adv-x="162" 
d="M100 0h-39l8 39h39z" />
    <glyph glyph-name="slash" unicode="/" horiz-adv-x="162" 
d="M26 -12h-34l230 426h33z" />
    <glyph glyph-name="zero" unicode="0" horiz-adv-x="324" 
d="M335 350q5 -14 6.5 -32.5t1 -39t-3.5 -40.5t-6 -38q-4 -17 -10 -37.5t-13.5 -41t-17.5 -39t-21 -32.5q-23 -30 -53 -44.5t-59 -14t-53 15t-34 43.5q-5 14 -7 33t-1 39t3.5 40.5t6.5 37.5q3 18 9 38t14 40.5t18 39t21 32.5q23 29 53 43.5t58.5 15t52.5 -14t35 -44.5z
M301 326q-8 23 -25.5 34t-38 11t-42 -11.5t-36.5 -33.5q-5 -8 -11.5 -21t-13 -30t-12.5 -36.5t-10 -38.5q-8 -38 -9.5 -74.5t3.5 -50.5q7 -22 23.5 -33.5t37 -11.5t42 11t38.5 34q5 7 11.5 20.5t13.5 30t13 36t10 38.5q8 39 9.5 75t-3.5 51z" />
    <glyph glyph-name="one" unicode="1" horiz-adv-x="324" 
d="M202 0h-37l63 298h-94l6 25q26 4 44.5 10.5t32.5 17.5t25.5 27.5t24.5 41.5h24z" />
    <glyph glyph-name="two" unicode="2" horiz-adv-x="324" 
d="M356 296q-7 -34 -27 -58t-46 -41.5t-54 -31t-51 -26.5q-32 -17 -59 -40.5t-37 -49.5l-4 -13h219l-8 -36h-263q8 27 17.5 49.5t25.5 43t39.5 39.5t58.5 38q21 11 44.5 21.5t45 24t37.5 32.5t22 48q5 22 1 38t-14 26t-24.5 14.5t-31.5 4.5q-42 0 -72.5 -27.5t-41.5 -69.5
h-38q6 23 18.5 46.5t33 42.5t47.5 31t61 12q60 0 86 -32t15 -86z" />
    <glyph glyph-name="three" unicode="3" horiz-adv-x="324" 
d="M342 307q-8 -41 -31.5 -62.5t-54.5 -31.5q34 -6 49.5 -34t6.5 -70q-6 -27 -20 -48.5t-35 -37t-47 -23.5t-54 -8q-36 0 -58 11t-34 29t-14.5 39.5t0.5 42.5h37q-2 -15 -0.5 -30t10 -28t24.5 -21t43 -8q48 0 75.5 23t35.5 57q4 18 1 34t-14 28t-32 19t-54 7l7 32
q50 0 82.5 21.5t40.5 59.5q4 16 0 29.5t-13.5 22.5t-24 14t-31.5 5q-32 0 -63 -20.5t-41 -66.5h-38q6 27 20 49t34.5 38.5t44.5 25.5t50 9q53 0 80.5 -29.5t17.5 -77.5z" />
    <glyph glyph-name="four" unicode="4" horiz-adv-x="324" 
d="M321 103h-62l-22 -103h-37l22 103h-186l10 47l245 264h34l-58 -274h62zM78 140h152l45 215z" />
    <glyph glyph-name="five" unicode="5" horiz-adv-x="324" 
d="M349 377h-175l-42 -140q14 13 38.5 21.5t49.5 8.5q18 0 39 -5t38 -20t25 -42t-1 -70q-6 -29 -21 -54t-36.5 -43.5t-48.5 -29.5t-57 -11q-37 0 -59 12t-33.5 29t-14.5 36t-3 33h40q-2 -33 19 -54.5t59 -21.5q40 0 73 27t44 80q5 25 1.5 43.5t-13 30.5t-25 18t-34.5 6
q-51 0 -93 -37h-38l68 220h208z" />
    <glyph glyph-name="six" unicode="6" horiz-adv-x="324" 
d="M315 318q3 24 -14.5 42.5t-47.5 18.5q-34 0 -58.5 -19.5t-41.5 -47t-27 -56.5t-14 -47l-2 -11q19 26 47.5 40t68.5 14q24 0 44 -8.5t33 -24.5t18 -39.5t-1 -53.5q-6 -27 -19 -51.5t-33 -43t-46.5 -29t-59.5 -10.5q-42 0 -64.5 18t-31 46.5t-6 62.5t9.5 67q16 76 40 121
t50.5 69t52.5 31t47 7q19 0 37 -6t31.5 -18t20.5 -30t4 -42h-38zM283 126q5 25 0.5 42t-14.5 28t-24.5 16t-28.5 5q-15 0 -32.5 -4.5t-34 -15t-30 -28.5t-19.5 -45q-5 -24 -0.5 -42t15 -30.5t25 -18.5t30.5 -6q45 0 74 26.5t39 72.5z" />
    <glyph glyph-name="seven" unicode="7" horiz-adv-x="324" 
d="M378 373q-38 -44 -75 -88.5t-69.5 -91t-59 -94.5t-44.5 -99h-42q28 68 60 123t65 100.5t66 83t63 70.5h-231l8 37h268z" />
    <glyph glyph-name="eight" unicode="8" horiz-adv-x="324" 
d="M344 311q-7 -31 -26 -55.5t-53 -39.5q32 -8 46 -37.5t6 -69.5q-6 -28 -22 -50t-38 -37t-48 -22.5t-52 -7.5t-48 8.5t-37 23.5t-21 37t0 49q8 41 34 68t61 38q-50 28 -36 95q4 20 17 38.5t31.5 33t42 22.5t49.5 8q27 0 47 -8.5t31.5 -22.5t15.5 -32.5t0 -38.5zM308 310
q6 28 -11 48t-54 20q-36 0 -63.5 -20t-32.5 -48q-3 -15 -2 -29t8 -25t21 -17.5t35 -6.5t38 7t29.5 18t20.5 25t11 28zM280 109q8 36 -10.5 63t-67.5 27q-26 0 -46 -8t-34 -20.5t-23 -28.5t-12 -32t0.5 -31t14 -26t26.5 -18t37 -7q19 0 38 6.5t35 17.5t27.5 25.5t14.5 31.5z
" />
    <glyph glyph-name="nine" unicode="9" horiz-adv-x="324" 
d="M337 220q-16 -76 -40 -121t-51 -69t-53 -31t-47 -7q-20 0 -37.5 6t-31 18t-20 30t-3.5 42h38q-4 -24 14 -42.5t48 -18.5q33 0 57.5 19.5t41.5 47t27 56.5t14 47l2 11q-19 -26 -47.5 -40t-67.5 -14q-24 0 -44 8.5t-33.5 25t-18 39.5t1.5 53q6 27 18.5 51.5t32.5 43
t46.5 29t59.5 10.5q43 0 65.5 -18t30.5 -46.5t6 -62.5t-9 -67zM306 282q5 24 0.5 42t-14.5 30.5t-24.5 18.5t-30.5 6q-45 0 -74.5 -26.5t-38.5 -72.5q-6 -25 -1.5 -42t14.5 -28t24.5 -16t28.5 -5q15 0 32.5 4.5t34 15t30 28.5t19.5 45z" />
    <glyph glyph-name="colon" unicode=":" horiz-adv-x="162" 
d="M162 250h-50l12 56h50zM109 0h-50l12 56h50z" />
    <glyph glyph-name="semicolon" unicode=";" horiz-adv-x="162" 
d="M162 250h-50l12 56h50zM108 -3q-5 -26 -14 -41t-20 -23q-8 -6 -16 -9.5t-17 -6.5l5 20q21 8 29.5 26.5t10.5 36.5h-27l12 56h50z" />
    <glyph glyph-name="less" unicode="&#x3c;" horiz-adv-x="341" 
d="M356 233l-255 -97l214 -98l-8 -38l-252 118l8 35l302 118z" />
    <glyph glyph-name="equal" unicode="=" horiz-adv-x="341" 
d="M343 175h-273l7 32h273zM322 76h-273l7 32h273z" />
    <glyph glyph-name="greater" unicode="&#x3e;" horiz-adv-x="341" 
d="M335 118l-302 -118l8 38l255 98l-214 97l9 38l252 -118z" />
    <glyph glyph-name="question" unicode="?" horiz-adv-x="324" 
d="M361 322q-8 -36 -29.5 -59.5t-45.5 -42t-44.5 -36.5t-25.5 -42l-6 -28h-39l8 35q5 26 25.5 45t44.5 38t45.5 40t27.5 51q6 31 -10.5 51.5t-54.5 20.5q-48 0 -73.5 -28t-30.5 -67h-38q2 22 13 45.5t29.5 42.5t45.5 31t62 12q55 0 80.5 -31t15.5 -78zM188 0h-42l10 49h42z
" />
    <glyph glyph-name="at" unicode="@" horiz-adv-x="592" 
d="M596 218q-7 -33 -24 -65.5t-42 -58.5t-57 -42.5t-69 -16.5q-22 0 -36.5 12t-12.5 31q-15 -19 -41 -30t-50 -11q-47 0 -65.5 31t-9.5 75q6 29 22.5 57t40.5 50t53.5 35.5t61.5 13.5q26 0 44.5 -12t20.5 -39l23 43h38l-95 -179q-8 -16 -5.5 -31t22.5 -15q24 0 47.5 14.5
t43.5 36t33.5 47t18.5 47.5q9 41 -4 74.5t-39 57t-62 36t-73 12.5q-55 0 -102 -20.5t-84 -53.5t-61.5 -76t-34.5 -88q-10 -48 0.5 -85.5t36 -63t62 -39t78.5 -13.5q32 0 61.5 5.5t54.5 15.5l7 -30q-32 -11 -65.5 -17.5t-65.5 -5.5q-47 0 -90 15t-73.5 43.5t-44.5 71t-2 97.5
q12 58 41 109t71.5 88t99 58.5t124.5 21.5q49 0 90.5 -15.5t69.5 -43.5t40 -65.5t3 -81.5zM407 202q5 10 3.5 21.5t-8 21.5t-18 17t-26.5 7q-23 0 -43.5 -11.5t-37.5 -29.5t-29 -41t-17 -47q-3 -12 -1 -25.5t8 -24t16 -17.5t24 -7q25 0 47.5 13.5t34.5 35.5z" />
    <glyph glyph-name="A" unicode="A" horiz-adv-x="387" 
d="M329 0l-18 137h-176l-80 -137h-41l246 425h55l57 -425h-43zM282 390l-131 -223h156z" />
    <glyph glyph-name="B" unicode="B" horiz-adv-x="385" 
d="M403 322q-7 -35 -31 -63t-56 -37q15 -3 28.5 -11.5t22.5 -22t12 -32.5t-2 -43q-5 -22 -16 -42.5t-27.5 -36t-38 -25t-46.5 -9.5h-201l90 425h176q22 0 40.5 -7.5t31 -21t17.5 -32.5t0 -42zM364 318q2 10 2.5 22.5t-6 23.5t-22.5 19t-47 9h-121l-33 -158h120
q23 0 41.5 8.5t32 21.5t22 27.5t11.5 26.5zM340 115q5 24 -1 41t-19.5 27.5t-32 15t-37.5 4.5h-120l-36 -170h151q39 0 63 23.5t32 58.5z" />
    <glyph glyph-name="C" unicode="C" horiz-adv-x="418" 
d="M408 294q0 47 -27.5 74.5t-81.5 27.5q-37 0 -68.5 -14t-55.5 -39t-41 -58.5t-25 -73.5q-9 -40 -6 -74t17.5 -58.5t39.5 -38.5t61 -14q62 0 102.5 37t62.5 93h40q-13 -34 -32 -64t-45 -52t-60.5 -35t-77.5 -13q-41 0 -72.5 15.5t-50.5 44t-24.5 69t5.5 90.5
q7 34 23.5 72.5t45 71t70 54t98.5 21.5q40 0 67.5 -10.5t45 -29t25 -43.5t6.5 -53h-42z" />
    <glyph glyph-name="D" unicode="D" horiz-adv-x="417" 
d="M428 210q-9 -44 -28.5 -82t-47.5 -66.5t-65 -45t-80 -16.5h-153l90 425h151q40 0 69.5 -15.5t47 -44t22 -68t-5.5 -87.5zM388 211q7 33 4.5 65.5t-16 58t-38.5 41.5t-63 16h-99l-76 -359h104q39 0 70 17t54.5 43t38.5 57.5t21 60.5z" />
    <glyph glyph-name="E" unicode="E" horiz-adv-x="385" 
d="M421 392h-245l-33 -157h233l-7 -33h-233l-36 -169h255l-7 -33h-293l90 425h283z" />
    <glyph glyph-name="F" unicode="F" horiz-adv-x="352" 
d="M411 392h-235l-33 -157h204l-7 -33h-204l-43 -202h-38l90 425h273z" />
    <glyph glyph-name="G" unicode="G" horiz-adv-x="450" 
d="M425 303q1 15 -5.5 31.5t-20.5 30t-36 22.5t-52 9q-41 0 -74.5 -16t-58.5 -42.5t-42 -60t-24 -67.5q-8 -36 -4.5 -70t18 -59.5t41 -41t65.5 -15.5q36 0 66.5 13.5t54 36t38 51.5t17.5 61h-131l7 34h167l-47 -220h-24l1 58q-17 -19 -34 -31.5t-36 -20t-41.5 -11
t-50.5 -3.5q-44 -1 -75.5 16t-50.5 46.5t-24.5 69t3.5 84.5q7 31 24 69.5t47 72.5t73.5 57t102.5 23q46 0 75 -14t45 -33.5t21.5 -41.5t3.5 -38h-39z" />
    <glyph glyph-name="H" unicode="H" horiz-adv-x="417" 
d="M366 0h-39l43 202h-238l-43 -202h-38l90 425h38l-40 -190h238l40 190h39z" />
    <glyph glyph-name="I" unicode="I" horiz-adv-x="158" 
d="M102 0h-39l90 425h39z" />
    <glyph glyph-name="J" unicode="J" horiz-adv-x="292" 
d="M264 109q-12 -58 -49.5 -88t-89.5 -30q-30 0 -49.5 8.5t-30 23t-13.5 32.5t1 36l9 39h39l-8 -38q-7 -31 10 -49.5t50 -18.5q20 0 35.5 7.5t27 19.5t19 27.5t10.5 30.5l67 316h39z" />
    <glyph glyph-name="K" unicode="K" horiz-adv-x="385" 
d="M250 253l121 -253h-45l-104 229l-104 -85l-31 -144h-39l90 425h39l-49 -231l282 231h49z" />
    <glyph glyph-name="L" unicode="L" horiz-adv-x="320" 
d="M300 0h-251l90 425h39l-83 -391h212z" />
    <glyph glyph-name="M" unicode="M" horiz-adv-x="482" 
d="M434 0h-39l83 390l-216 -390h-44l-50 390l-83 -390h-39l90 425h64l48 -385l213 385h63z" />
    <glyph glyph-name="N" unicode="N" horiz-adv-x="417" 
d="M367 0h-50l-152 380l-81 -380h-37l90 425h51l150 -383l81 383h38z" />
    <glyph glyph-name="O" unicode="O" horiz-adv-x="450" 
d="M469 212q-9 -43 -30 -83t-52.5 -70.5t-73.5 -48.5t-93 -18q-41 0 -74 15.5t-53.5 44t-27.5 69t4 90.5q7 34 25 72.5t48.5 71t73 54t99.5 21.5q53 0 87 -19t51.5 -50t20.5 -70t-5 -79zM429 211q8 37 4.5 70.5t-18.5 59t-42 40.5t-65 15q-37 0 -69.5 -14t-58.5 -39
t-44.5 -58.5t-26.5 -73.5q-9 -40 -5 -74t19.5 -58.5t42 -38.5t64.5 -14t71 15t59 40.5t43.5 59t25.5 70.5z" />
    <glyph glyph-name="P" unicode="P" horiz-adv-x="385" 
d="M418 309q-5 -24 -18 -46t-32.5 -39t-46 -27t-58.5 -10h-128l-40 -187h-40l90 425h169q33 0 55 -9.5t34.5 -25.5t16 -37t-1.5 -44zM379 310q8 38 -15.5 60t-68.5 22h-117l-36 -173h129q20 0 38 7.5t32 20t24 29t14 34.5z" />
    <glyph glyph-name="Q" unicode="Q" horiz-adv-x="450" 
d="M469 212q-10 -46 -34 -89t-60 -74l-5 -5l45 -45l-25 -25l-49 49q-29 -17 -59 -24t-62 -7q-41 0 -74 15.5t-53.5 44t-27.5 69t4 90.5q7 34 25 72.5t48.5 71t73 54t99.5 21.5q53 0 87 -19t51.5 -50t20.5 -70t-5 -79zM429 211q8 37 4.5 70.5t-18.5 59t-42 40.5t-65 15
q-37 0 -69.5 -14t-58.5 -39t-44.5 -58.5t-26.5 -73.5q-9 -40 -5 -74t19.5 -58.5t42 -38.5t64.5 -14q24 0 44.5 5.5t41.5 16.5l-40 40l25 24l44 -44q33 28 54.5 66.5t29.5 76.5z" />
    <glyph glyph-name="R" unicode="R" horiz-adv-x="417" 
d="M437 315q-9 -41 -34.5 -67t-54.5 -34q26 -6 35.5 -32.5t0.5 -74.5q-8 -36 -9 -64.5t13 -37.5l-1 -5h-44q-7 9 -8 31.5t3 39.5q5 22 8 45t-1.5 41.5t-19.5 30t-48 11.5h-140l-42 -199h-39l90 425h176q37 0 61.5 -8.5t38 -23.5t17 -35t-1.5 -43zM398 316q8 38 -16 57
t-69 19h-135l-34 -162h147q40 0 69.5 25t37.5 61z" />
    <glyph glyph-name="S" unicode="S" horiz-adv-x="385" 
d="M366 307q8 38 -14.5 65t-79.5 27q-51 0 -83.5 -23t-37.5 -51q-5 -20 1.5 -34t19 -23t30.5 -15t36 -11q23 -6 49.5 -13t48 -20.5t33 -35.5t4.5 -58q-6 -27 -23 -49t-41.5 -37.5t-54.5 -24t-62 -8.5q-66 0 -104 32t-26 101h35q-8 -45 17 -72.5t86 -27.5q21 0 43 5.5t41 16
t33 26t18 35.5q5 25 -4 41t-25 26t-35 15t-34 9q-23 6 -48 13.5t-44 21t-29 34.5t-3 53q4 21 17 40t34 33.5t49 23t64 8.5q39 0 65.5 -10t42 -26.5t20 -39t-1.5 -47.5h-37z" />
    <glyph glyph-name="T" unicode="T" horiz-adv-x="353" 
d="M420 392h-141l-83 -392h-39l83 392h-141l7 33h321z" />
    <glyph glyph-name="U" unicode="U" horiz-adv-x="417" 
d="M392 123q-4 -18 -16 -40.5t-34 -43t-55.5 -34t-79.5 -13.5t-73.5 13.5t-41 33.5t-16 42.5t1.5 40.5l64 303h39l-64 -303q-3 -15 -1 -32t12.5 -32t31 -25t54.5 -10t59 10t41.5 25t26 32t12.5 32l64 303h39z" />
    <glyph glyph-name="V" unicode="V" horiz-adv-x="385" 
d="M217 0h-46l-60 425h42l50 -389l211 389h42z" />
    <glyph glyph-name="W" unicode="W" horiz-adv-x="549" 
d="M425 0h-47l-26 369l-180 -369h-47l-16 425h45l6 -372l184 371h42l24 -371l169 372h44z" />
    <glyph glyph-name="X" unicode="X" horiz-adv-x="385" 
d="M264 218l102 -218h-50l-82 188l-167 -188h-49l196 218l-94 207h47l81 -177l154 177h47z" />
    <glyph glyph-name="Y" unicode="Y" horiz-adv-x="387" 
d="M250 170l-36 -170h-37l36 170l-105 255h48l84 -218l175 218h48z" />
    <glyph glyph-name="Z" unicode="Z" horiz-adv-x="353" 
d="M419 387l-352 -353h271l-7 -34h-317l8 36l351 356h-254l7 33h301z" />
    <glyph glyph-name="bracketleft" unicode="[" horiz-adv-x="162" 
d="M224 394h-59l-102 -480h59l-7 -32h-96l115 543h96z" />
    <glyph glyph-name="backslash" unicode="\" horiz-adv-x="162" 
d="M135 -12l-46 437h30l45 -437h-29z" />
    <glyph glyph-name="bracketright" unicode="]" horiz-adv-x="162" 
d="M91 -119h-96l7 32h59l102 481h-59l6 31h96z" />
    <glyph glyph-name="asciicircum" unicode="^" horiz-adv-x="274" 
d="M252 198l-35 180l-112 -180h-31l132 214h37l41 -214h-32z" />
    <glyph glyph-name="underscore" unicode="_" horiz-adv-x="324" 
d="M301 -106h-324l6 28h324z" />
    <glyph glyph-name="grave" unicode="`" horiz-adv-x="194" 
d="M175 350l-61 78h55l34 -78h-28z" />
    <glyph glyph-name="a" unicode="a" horiz-adv-x="320" 
d="M279 52q-4 -19 3 -24.5t28 -0.5l-6 -24q-5 -2 -12.5 -4t-14.5 -2q-13 0 -20 4t-10 10t-3 13.5t1 15.5q-31 -23 -58 -34t-63 -11q-40 0 -63.5 20.5t-14.5 62.5q4 22 16.5 38t28 27t33.5 17t35 9q28 5 55.5 7.5t47.5 10.5q11 4 15 13t6 18q6 28 -7.5 48t-53.5 20
q-34 0 -61 -16.5t-43 -56.5h-29q17 51 55 76.5t84 25.5t71 -24.5t15 -73.5zM272 163q-29 -9 -50 -10.5t-46 -6.5q-37 -7 -63.5 -21.5t-33.5 -46.5q-7 -29 11.5 -42.5t41.5 -13.5q19 0 40 5t39 15.5t31 27t18 40.5z" />
    <glyph glyph-name="b" unicode="b" horiz-adv-x="320" 
d="M327 150q-6 -30 -19 -57.5t-33 -49.5t-47 -35t-62 -13q-42 0 -65 19t-23 43l-12 -57h-31l90 425h31l-37 -174q18 32 48.5 48.5t67.5 16.5q36 0 57.5 -14.5t31.5 -37.5t10 -53t-7 -61zM294 149q6 27 6 52t-7 43.5t-22.5 30t-42.5 11.5q-24 0 -45 -11.5t-37.5 -30
t-28.5 -42.5t-17 -48q-6 -26 -4.5 -49.5t10 -41.5t25 -29t42.5 -11q45 0 77 35t44 91z" />
    <glyph glyph-name="c" unicode="c" horiz-adv-x="299" 
d="M288 212q3 34 -17.5 53.5t-55.5 19.5q-30 0 -52.5 -12t-37.5 -31.5t-24.5 -43t-13.5 -45.5q-5 -23 -4 -46t9 -41.5t24.5 -30t42.5 -11.5q38 0 66 22.5t42 57.5h31q-17 -48 -54.5 -78.5t-90.5 -30.5q-32 0 -53.5 12.5t-34 33.5t-15 50t4.5 62t20 62.5t33.5 52t48.5 35.5
t64 13q48 0 75.5 -26t22.5 -78h-31z" />
    <glyph glyph-name="d" unicode="d" horiz-adv-x="320" 
d="M278 0h-31l12 57q-11 -24 -41.5 -43t-72.5 -19q-35 0 -56.5 13t-32 35t-11.5 49.5t5 57.5q7 31 19.5 61t32 53t47 37.5t63.5 14.5q37 0 60 -16.5t28 -48.5l37 174h31zM279 154q5 24 3.5 48t-10.5 42.5t-25 30t-40 11.5q-27 0 -47.5 -11.5t-35.5 -30t-25 -43.5t-16 -52
q-12 -56 5 -91t62 -35q25 0 46.5 11t38 29t27.5 41.5t17 49.5z" />
    <glyph glyph-name="e" unicode="e" horiz-adv-x="320" 
d="M329 152q0 -2 -0.5 -3t-0.5 -3h-238q-5 -23 -4 -45t10 -39.5t26 -28.5t45 -11q37 0 64.5 20.5t43.5 49.5h33q-21 -45 -61 -71.5t-86 -26.5q-28 0 -50.5 10.5t-37 30.5t-19 49t3.5 68q7 33 22 62.5t37 52t50.5 36t61.5 13.5q36 0 58.5 -13.5t34 -36t13 -52t-5.5 -62.5z
M301 172q3 22 1 43t-11 37t-25.5 25.5t-42.5 9.5q-25 0 -46 -9.5t-37 -25.5t-27 -37t-17 -43h205z" />
    <glyph glyph-name="f" unicode="f" horiz-adv-x="160" 
d="M228 399q-5 1 -9.5 1.5t-9.5 0.5q-14 0 -22 -5t-13 -13t-8 -18t-5 -20l-9 -46h55l-6 -26h-55l-58 -273h-31l58 273h-41l6 26h41l12 57q7 35 24.5 53t49.5 18q5 0 11.5 -0.5t14.5 -1.5z" />
    <glyph glyph-name="g" unicode="g" horiz-adv-x="320" 
d="M283 38q-6 -29 -17.5 -57.5t-30.5 -51t-47 -36.5t-67 -15q-29 -1 -48.5 6t-31.5 18.5t-16.5 25.5t-3.5 27h30q4 -32 26.5 -42t49.5 -9q31 1 53.5 16t37.5 37.5t24.5 49.5t14.5 53q-18 -32 -48.5 -48.5t-67.5 -16.5q-36 0 -57.5 14.5t-31.5 37.5t-10 53t7 61q6 30 19 57.5
t33 49.5t47 35t62 13q42 0 65 -19t23 -43l11 52h31zM276 157q6 26 4 49.5t-11 41.5t-25.5 29t-40.5 11q-45 0 -77 -37t-45 -96q-5 -25 -5.5 -48.5t7 -41.5t23 -29t42.5 -11q25 0 46 11.5t37.5 30t28 42.5t16.5 48z" />
    <glyph glyph-name="h" unicode="h" horiz-adv-x="312" 
d="M265 0h-31l48 228q7 32 -7 46t-43 14q-30 0 -58 -17.5t-43 -43.5q-8 -12 -11.5 -24t-5.5 -26l-38 -177h-31l90 425h31l-34 -160q20 23 48 36.5t60 13.5q38 0 60.5 -20t13.5 -65z" />
    <glyph glyph-name="i" unicode="i" horiz-adv-x="127" 
d="M154 366h-31l12 59h31zM76 0h-31l65 306h31z" />
    <glyph glyph-name="j" unicode="j" horiz-adv-x="127" 
d="M157 366h-31l12 59h31zM67 -57q-4 -19 -15 -32.5t-25 -21t-29.5 -10t-28.5 0.5l6 27q19 -2 37.5 5t23.5 32l77 362h31z" />
    <glyph glyph-name="k" unicode="k" horiz-adv-x="290" 
d="M190 195l87 -195h-34l-78 175l-71 -57l-25 -118h-31l90 425h31l-57 -271l186 152h40z" />
    <glyph glyph-name="l" unicode="l" horiz-adv-x="127" 
d="M79 0h-31l90 425h31z" />
    <glyph glyph-name="m" unicode="m" horiz-adv-x="492" 
d="M445 0h-31l46 217q7 31 -2.5 51t-47.5 20q-21 0 -39.5 -8.5t-33 -23.5t-24.5 -34t-14 -40l-39 -182h-31l46 217q7 31 -2.5 51t-47.5 20q-23 0 -41.5 -9.5t-33 -24.5t-23.5 -33t-13 -36l-39 -185h-31l65 306h31l-10 -49q14 25 43 41.5t64 16.5q40 0 55 -16t17 -43
q22 29 49.5 44t63.5 15q48 0 63.5 -26t6.5 -70z" />
    <glyph glyph-name="n" unicode="n" horiz-adv-x="320" 
d="M273 0h-31l48 228q7 32 -8.5 46t-44.5 14q-21 0 -42 -11t-38.5 -29t-30.5 -40t-17 -43l-35 -165h-31l65 306h31l-13 -60q8 14 21.5 26.5t29.5 22t33.5 15t33.5 5.5q38 0 62.5 -20t15.5 -65z" />
    <glyph glyph-name="o" unicode="o" horiz-adv-x="327" 
d="M326 152q-8 -35 -23.5 -64t-38 -49.5t-49.5 -32t-57 -11.5q-28 0 -50.5 10t-36.5 30t-18.5 49t3.5 68q17 81 62 122t108 41q66 0 91.5 -41t8.5 -122zM294 152q7 31 6.5 56.5t-9 43.5t-26 27.5t-45.5 9.5q-52 0 -85 -37t-47 -100q-6 -27 -4.5 -51t10.5 -41.5t26 -28
t43 -10.5q28 0 50 11.5t38.5 30.5t27 42.5t15.5 46.5z" />
    <glyph glyph-name="p" unicode="p" horiz-adv-x="320" 
d="M329 161q-7 -31 -19.5 -61t-32 -53t-47 -37.5t-63.5 -14.5q-37 0 -60 16.5t-28 48.5l-40 -188h-31l92 434h31l-11 -52q11 24 41.5 43t72.5 19q35 0 56.5 -13t32 -35t11.5 -49.5t-5 -57.5zM296 162q12 56 -5 91t-62 35q-26 0 -47 -11t-37.5 -29t-27.5 -41.5t-17 -49.5
q-5 -24 -3.5 -48t10.5 -42.5t25 -30t40 -11.5q27 0 47.5 11.5t35.5 30t25 43.5t16 52z" />
    <glyph glyph-name="q" unicode="q" horiz-adv-x="320" 
d="M251 -128h-31l40 187q-18 -32 -48.5 -48.5t-67.5 -16.5q-36 0 -57.5 14.5t-31.5 37.5t-10 53t7 61q6 30 19 57.5t33 49.5t47 35t62 13q42 0 65 -19t23 -43l11 53h31zM279 156q6 26 4.5 49.5t-10 41.5t-25.5 29t-42 11q-45 0 -77 -35t-44 -91q-6 -27 -6 -52t7 -43.5
t22.5 -30t42.5 -11.5q24 0 45 11.5t37.5 30t28.5 42.5t17 48z" />
    <glyph glyph-name="r" unicode="r" horiz-adv-x="190" 
d="M242 279q-24 4 -46.5 -6.5t-40.5 -29t-31 -42.5t-17 -45l-33 -156h-31l65 306h31l-12 -55h4q9 14 21.5 26.5t28 21.5t33 13.5t36.5 2.5z" />
    <glyph glyph-name="s" unicode="s" horiz-adv-x="290" 
d="M263 220q5 35 -13 51.5t-52 16.5q-26 0 -51.5 -12t-31.5 -40q-5 -25 6.5 -37.5t31 -19.5t43.5 -11.5t43.5 -13.5t30 -25t4.5 -46q-9 -42 -45 -65t-90 -23q-51 0 -75.5 27t-16.5 72h30q-6 -38 15 -55.5t52 -17.5q38 0 65.5 17t33.5 45q5 23 -6.5 35t-31.5 18.5t-44 11.5
t-43 14t-30 26t-4 48q8 35 42 56.5t78 21.5q47 0 71 -22t18 -72h-30z" />
    <glyph glyph-name="t" unicode="t" horiz-adv-x="171" 
d="M208 274h-52l-48 -228q-3 -13 2 -19t13 -7.5t17.5 0.5t15.5 5l-5 -26q-14 -4 -29 -5t-26.5 3t-17.5 15.5t-1 32.5l48 229h-46l6 26h46l19 89h31l-19 -89h52z" />
    <glyph glyph-name="u" unicode="u" horiz-adv-x="320" 
d="M271 0h-31l11 50q-3 -7 -12 -16.5t-23 -18t-33 -14.5t-42 -6q-19 0 -36 5.5t-29 16.5t-17 28t0 40l47 221h31l-47 -219q-7 -33 11 -49t47 -16q23 0 43 9t35.5 24t26 35t15.5 41l37 175h31z" />
    <glyph glyph-name="v" unicode="v" horiz-adv-x="290" 
d="M157 0h-29l-52 306h34l42 -264l156 264h34z" />
    <glyph glyph-name="w" unicode="w" horiz-adv-x="420" 
d="M311 0h-31l-16 263l-127 -263h-34l-28 306h34l20 -266l127 266h35l14 -264l132 264h33z" />
    <glyph glyph-name="x" unicode="x" horiz-adv-x="290" 
d="M195 158l81 -158h-35l-68 136l-129 -136h-35l150 158l-76 148h36l62 -127l119 127h37z" />
    <glyph glyph-name="y" unicode="y" horiz-adv-x="302" 
d="M170 9q-20 -33 -34 -55.5t-27 -37t-26 -20.5t-30 -6q-5 0 -13 0.5t-16 2.5l6 26q8 -2 13.5 -2.5t10.5 -0.5q14 0 25.5 9.5t21 23t17.5 28.5t15 26l-51 303h35l40 -266l154 266h35z" />
    <glyph glyph-name="z" unicode="z" horiz-adv-x="290" 
d="M315 281l-254 -256h207l-5 -25h-244l6 27l252 254h-185l5 25h223z" />
    <glyph glyph-name="braceleft" unicode="{" horiz-adv-x="195" 
d="M239 401q-23 -2 -35 -7.5t-19 -33.5q-1 -1 -4.5 -19t-8.5 -39q-5 -26 -12 -57q-7 -33 -23 -54t-43 -40q22 -12 27.5 -36.5t-1.5 -57.5l-23 -110q-3 -16 -2.5 -25t5 -13.5t13 -6t20.5 -2.5l-5 -25l-35 2q-4 0 -10 4.5t-11 12.5t-7.5 19.5t0.5 26.5q7 31 12 57q5 22 9 40
t4 20q6 31 1.5 51.5t-30.5 28.5l6 28q31 8 43.5 29t19.5 52q0 1 4 19.5t9 39.5l12 56q3 15 10.5 27t15.5 20t16 12.5t13 4.5l35 1z" />
    <glyph glyph-name="bar" unicode="|" horiz-adv-x="152" 
d="M65 -126h-31l117 551h31z" />
    <glyph glyph-name="braceright" unicode="}" horiz-adv-x="195" 
d="M175 137q-29 -8 -42 -28.5t-21 -51.5q-1 -2 -4.5 -20t-8.5 -40q-5 -26 -12 -57q-3 -15 -10.5 -26.5t-15.5 -19.5t-16 -12.5t-12 -4.5l-35 -2l5 25q12 1 21 2.5t16 6t11.5 13.5t7.5 25l23 110q14 68 66 94q-20 19 -26.5 40t0.5 54q7 31 12 57q5 21 8.5 39t4.5 19
q4 28 -6 33.5t-32 7.5l6 25l34 -1q4 0 10 -4.5t11 -12.5t7.5 -20t-0.5 -27l-12 -56q-5 -21 -9 -39.5t-4 -19.5q-5 -31 -1.5 -52t30.5 -29z" />
    <glyph glyph-name="asciitilde" unicode="~" horiz-adv-x="341" 
d="M357 240q-6 -30 -21.5 -48t-34 -25.5t-37.5 -5.5t-32 11l-58 40q-21 14 -44 3t-31 -45h-29q7 33 23.5 51t36 24.5t38.5 3.5t32 -12l54 -38q22 -15 44.5 -4.5t30.5 45.5h28v0z" />
    <glyph glyph-name="uni00A0" unicode="&#xa0;" horiz-adv-x="250" 
 />
    <glyph glyph-name="cent" unicode="&#xa2;" horiz-adv-x="324" 
d="M300 180q-16 -36 -43.5 -60t-62.5 -29l-10 -51h-21l10 51q-24 3 -38.5 15.5t-21.5 29.5t-7.5 37t3.5 39q3 15 11 34t22 37t34 31.5t48 16.5l11 52h21l-11 -52q59 -7 67 -71h-25q-3 20 -13.5 33t-32.5 18l-42 -199q49 9 76 68h25zM220 310q-35 -8 -56.5 -34.5t-29.5 -63.5
q-8 -38 2.5 -65t41.5 -35z" />
    <glyph glyph-name="sterling" unicode="&#xa3;" horiz-adv-x="322" 
d="M328 300q8 43 -10 68.5t-53 25.5q-31 0 -58.5 -22.5t-35.5 -57.5q-3 -12 -6.5 -28.5l-7 -33t-6.5 -30.5t-5 -22h109l-7 -33h-109l-28 -133h191l-7 -34h-277l7 34h49l28 133h-48l7 33h48l23 110q6 27 19.5 49t32 37.5t41.5 24.5t47 9q22 0 42 -8.5t33.5 -24.5t19 -37.5
t-0.5 -47.5l-3 -12h-35z" />
    <glyph glyph-name="yen" unicode="&#xa5;" horiz-adv-x="387" 
d="M325 259h91l-7 -33h-111l-53 -64h150l-7 -33h-146l-27 -129h-39l27 129h-152l7 33h156l-25 64h-117l7 33h97l-66 166h50l81 -215l170 215h49z" />
    <glyph glyph-name="copyright" unicode="&#xa9;" horiz-adv-x="471" 
d="M499 214q-9 -45 -34.5 -85t-61.5 -70t-79.5 -47.5t-88.5 -17.5q-46 0 -82.5 17.5t-60 47.5t-32 70t0.5 85q10 45 35.5 85t62 69.5t80 46.5t89.5 17q45 0 81 -17t59.5 -46.5t32 -69.5t-1.5 -85zM470 214q9 39 1.5 73.5t-28 60t-51.5 40.5t-70 15t-77 -15t-69.5 -40.5
t-53.5 -60t-31 -73.5q-8 -40 -0.5 -74.5t28 -60t52 -40.5t70.5 -15t77 15t69 40.5t53 60t30 74.5zM375 175q-17 -40 -45.5 -62.5t-71.5 -22.5q-28 0 -46 9.5t-27 26t-10.5 39.5t3.5 49q6 25 17.5 47.5t28.5 39.5t39 27t48 10q39 0 59.5 -18t19.5 -59h-25q-2 26 -16.5 40.5
t-42.5 14.5q-22 0 -39 -9t-29.5 -24t-20.5 -33t-12 -36t-3.5 -36.5t6.5 -33t19.5 -23.5t35.5 -9q30 0 51.5 17t34.5 46h26z" />
    <glyph glyph-name="guillemotleft" unicode="&#xab;" horiz-adv-x="324" 
d="M307 210l-78 -51l56 -51l-7 -35l-77 72l6 30l107 70zM188 210l-78 -51l56 -51l-7 -35l-77 72l6 30l107 70z" />
    <glyph glyph-name="registered" unicode="&#xae;" horiz-adv-x="430" 
d="M483 210q-10 -46 -36 -87t-63 -71.5t-81 -48t-90 -17.5q-47 0 -84 17.5t-61 48t-32.5 71.5t1.5 87t36 86.5t62.5 70.5t81 47.5t91.5 17.5q46 0 83 -17.5t60.5 -47.5t32.5 -70.5t-1 -86.5zM456 210q9 40 1 76t-29 62t-53.5 41.5t-72.5 15.5q-41 0 -79.5 -15.5t-71 -41.5
t-55 -62t-31.5 -76q-9 -41 -1.5 -76.5t28.5 -62t53.5 -42t73.5 -15.5q40 0 79 15.5t71 42t55 62t32 76.5zM387 268q-8 -37 -33.5 -52t-58.5 -16l50 -115h-36l-47 115h-56l-25 -115h-30l53 249h116q31 0 50 -12q13 -8 16.5 -23t0.5 -31zM356 269q3 14 -1 22.5t-12 13t-19 6
t-23 1.5h-72l-18 -88h75q22 0 43 8t27 37z" />
    <glyph glyph-name="guillemotright" unicode="&#xbb;" horiz-adv-x="324" 
d="M305 145l-107 -72l7 35l78 51l-56 51l7 35l77 -70zM186 145l-107 -72l7 35l78 51l-56 51l7 35l77 -70z" />
    <glyph glyph-name="onequarter" unicode="&#xbc;" horiz-adv-x="410" 
d="M362 49l-10 -49h-24l10 48h-89l6 28l121 131h19l-28 -134h31l-5 -24h-31zM66 0h-35l388 425h35zM113 219l31 146h-47l4 19q17 3 26 5.5t17 7.5q5 4 9.5 11t10.5 18h17l-44 -207h-24zM362 166l-85 -93h66z" />
    <glyph glyph-name="onehalf" unicode="&#xbd;" horiz-adv-x="410" 
d="M417 146q-4 -16 -14 -28.5t-23 -21.5t-27.5 -16t-27.5 -13l-9 -4.5t-14.5 -9.5t-14.5 -13t-8 -15h111l-5 -25h-138q4 14 8.5 26t12.5 22t20 19.5t31 19.5q9 5 20.5 10t22 11.5t18 15t10.5 21.5t-0.5 21t-9.5 12t-12.5 5t-9.5 1q-25 -2 -36.5 -15t-16.5 -34h-25q3 11 8 24
t14.5 23.5t25 17.5t38.5 7q30 0 43 -19t8 -42zM56 0h-35l388 425h35zM113 219l31 146h-47l4 19q17 3 26 5.5t17 7.5q5 4 9.5 11t10.5 18h17l-44 -207h-24z" />
    <glyph glyph-name="threequarters" unicode="&#xbe;" horiz-adv-x="410" 
d="M91 0h-35l388 425h35zM365 49l-10 -49h-24l10 48h-89l6 28l121 131h19l-28 -134h31l-5 -24h-31zM215 279q-6 -29 -30.5 -46t-53.5 -17q-20 0 -31.5 6.5t-17 16t-6 21.5t1.5 23h25q-4 -15 0.5 -30t30.5 -14q24 1 37.5 12t17.5 27q5 26 -6.5 32.5t-42.5 6.5l5 22
q24 0 38 5.5t19 29.5q2 10 0 16t-6.5 9.5t-10.5 5t-11 1.5q-41 0 -50 -43h-24q7 32 26 49.5t50 17.5q26 0 42.5 -14t9.5 -45q-4 -18 -14.5 -27t-18.5 -14q17 -9 20 -21.5t0 -29.5zM365 166l-85 -93h66z" />
    <glyph glyph-name="multiply" unicode="&#xd7;" horiz-adv-x="313" 
d="M207 141l66 -85l-27 -22l-66 84l-105 -86l-16 20l104 87l-69 88l27 22l69 -88l107 88l17 -21z" />
    <glyph glyph-name="divide" unicode="&#xf7;" horiz-adv-x="341" 
d="M239 219h-47l10 47h47zM331 128h-269l6 27h269zM196 17h-47l10 47h47z" />
    <glyph glyph-name="kokaithai" unicode="&#xe01;" horiz-adv-x="361" 
d="M303 0h-29l50 237q4 20 -1 35t-16.5 24.5t-28.5 14.5t-36 5q-30 0 -53 -8.5t-51 -26.5q18 -4 35 -17t26 -22q-24 -7 -44 -25t-28 -50l-35 -167h-30l36 170q5 20 17 41t35 31q-8 7 -26 15.5t-40 12.5q15 15 34.5 28t41 23t44 16t44.5 6q54 0 85 -27.5t20 -78.5z" />
    <glyph glyph-name="khokhaithai" unicode="&#xe02;" horiz-adv-x="368" 
d="M321 51q-5 -23 -20.5 -37t-47.5 -14h-139l6 26h39l28 135q3 16 11 26.5t17 20.5t17 21t11 27q4 19 -2 31.5t-17 19t-24.5 8t-24.5 -1.5q17 -5 24.5 -18t2.5 -37q-5 -20 -24.5 -38.5t-49.5 -18.5q-26 0 -40.5 17t-9.5 43q3 15 13.5 30t25.5 26t34.5 18t42.5 7q25 0 41 -8
t25 -20.5t11.5 -27.5t-0.5 -29q-4 -18 -12 -30.5t-16.5 -23t-16 -21t-10.5 -25.5l-27 -131h66q19 0 26.5 7.5t9.5 18.5l61 286h30zM175 261q3 12 -4 23.5t-24 11.5t-28.5 -10.5t-13.5 -24.5q-3 -14 3.5 -25t23.5 -11t28.5 11t14.5 25z" />
    <glyph glyph-name="khokhuatthai" unicode="&#xe03;" horiz-adv-x="390" 
d="M344 51q-5 -23 -20.5 -37t-47.5 -14h-139l6 26h39l40 189q6 34 36 52q13 9 7 24t-22 19l-46 -28l-41 30q-17 -5 -32.5 -18t-23.5 -35q5 4 12.5 7.5t22.5 3.5q23 0 37.5 -14.5t8.5 -43.5q-5 -26 -26 -41t-46 -15q-17 0 -30 8.5t-18.5 24t-2.5 38t17 49.5q15 29 42 46
t47 21l40 -30l46 28q24 -8 37.5 -24t9.5 -37q-2 -11 -8.5 -17t-13.5 -12.5t-13.5 -14.5t-9.5 -21l-40 -189h66q19 0 26.5 7.5t9.5 18.5l61 286h30zM157 213q3 13 -4 24t-24 11t-28 -10.5t-14 -24.5t4 -24.5t24 -10.5t28 10.5t14 24.5z" />
    <glyph glyph-name="khokhwaithai" unicode="&#xe04;" horiz-adv-x="373" 
d="M316 0h-30l47 225q10 44 -16.5 68.5t-71.5 24.5q-46 0 -83 -25q-40 -28 -50 -76q-12 -54 17 -85l8 42q19 87 90 87q27 0 39.5 -17t6.5 -42q-4 -23 -24 -41t-47 -18q-26 0 -39 19l-34 -162h-30l20 96q-53 47 -37 122q12 58 63 93q47 33 107 33q57 0 88 -29q36 -32 25 -84z
M249 201q8 35 -27 35q-36 0 -44 -35q-7 -35 29 -35q35 0 42 35z" />
    <glyph glyph-name="khokhonthai" unicode="&#xe05;" horiz-adv-x="373" 
d="M286 0l48 226q13 63 -26 83l-63 -37l-49 38q-29 -10 -51.5 -30.5t-30.5 -55.5q-7 -31 0.5 -51t16.5 -31l7 32q8 41 31 64t58 23q28 0 40 -17.5t7 -41.5q-5 -21 -24 -40t-48 -19q-17 0 -24.5 5t-13.5 14l-35 -162h-30l23 106q-25 20 -35.5 50.5t-2.5 68.5q9 42 43.5 73.5
t77.5 42.5l47 -37l60 37q35 -12 48 -41t5 -68l-49 -232h-30zM250 201q3 14 -4 24.5t-24 10.5t-28.5 -11t-14.5 -24q-3 -14 4 -24.5t24 -10.5t28.5 10.5t14.5 24.5z" />
    <glyph glyph-name="khorakhangthai" unicode="&#xe06;" horiz-adv-x="457" 
d="M399 0h-29q-6 25 -20.5 44.5t-33 33t-39.5 21.5t-40 10l-13 -63q-5 -23 -20.5 -37t-40.5 -14q-27 0 -38 19t-6 46q5 22 15.5 36.5t23.5 23.5t27.5 13t27.5 4l17 78q6 34 36 52q13 9 7 24t-22 19l-46 -28l-41 30q-17 -5 -32.5 -18t-23.5 -35q5 4 12.5 7.5t22.5 3.5
q23 0 37.5 -14.5t8.5 -43.5q-5 -26 -26.5 -40.5t-44.5 -14.5q-17 0 -30 8.5t-18.5 24t-3 37.5t16.5 49q15 29 42 46t47 21l40 -30l46 28q24 -8 37.5 -24t9.5 -37q-2 -11 -8.5 -17t-13.5 -12.5t-13.5 -14.5t-9.5 -21l-17 -78q44 -6 80 -26.5t57 -60.5l61 288h30zM165 213
q3 13 -4 24t-24 11t-28 -10.5t-14 -24.5t4 -24.5t24 -10.5t28 10.5t14 24.5zM208 111q-25 0 -40 -14t-20 -37q-5 -20 2.5 -29t18.5 -9q19 0 25 25z" />
    <glyph glyph-name="ngonguthai" unicode="&#xe07;" horiz-adv-x="287" 
d="M236 42q-4 -18 -17 -29t-29 -14t-30.5 3t-20.5 23l-69 182l27 15l70 -182q3 -8 8.5 -11.5t12 -3t12.5 5t8 14.5l40 189q-7 -5 -14 -7t-21 -2q-27 0 -38 17.5t-6 40.5q5 25 25 41.5t46 16.5t39 -16t8 -41zM263 282q3 13 -3.5 24.5t-24.5 11.5q-17 0 -28 -11t-14 -25
t4 -24.5t24 -10.5t28.5 11t13.5 24z" />
    <glyph glyph-name="chochanthai" unicode="&#xe08;" horiz-adv-x="331" 
d="M275 0h-34q-2 23 -6 47t-9 43q-5 22 -11 43q-17 -30 -58 -30q-22 0 -37.5 15t-9.5 42q5 25 24.5 42t47.5 17q19 0 33 -10.5t18 -28.5q5 -13 10 -30q4 -14 8.5 -35.5t8.5 -47.5l35 164q5 24 0 40.5t-17 26.5t-28.5 14.5t-32.5 4.5q-38 0 -68 -15t-52 -38l-15 17
q9 9 22.5 20t31 20t39.5 15t48 6q25 0 46.5 -7.5t35.5 -21t19.5 -33t0.5 -44.5zM205 160q3 13 -4 24t-24 11t-28.5 -10.5t-14.5 -24.5q-2 -14 4.5 -24.5t23.5 -10.5t28.5 10.5t14.5 24.5z" />
    <glyph glyph-name="chochingthai" unicode="&#xe09;" horiz-adv-x="390" 
d="M146 44q40 40 80 59.5t84 26.5l22 103q4 21 -1 37t-17.5 26.5t-30.5 15.5t-38 5q-44 0 -76 -15t-54 -38l-19 16q25 25 63 43.5t92 18.5q62 0 91 -30.5t19 -78.5l-22 -103q33 0 45.5 -18.5t5.5 -51.5q-7 -30 -25 -47t-44 -17q-14 0 -25.5 8.5t-6.5 26.5l16 75
q-21 -3 -44 -12t-45.5 -23t-43 -32t-36.5 -39h-28l27 125q-7 -5 -14 -7t-21 -2q-27 0 -38.5 17.5t-6.5 40.5q5 25 25.5 41.5t46.5 16.5t39 -16t8 -41zM364 60q5 26 -2.5 35t-27.5 12l-15 -71q-3 -13 10 -14t22 10t13 28zM150 173q3 13 -4 24.5t-24 11.5t-28.5 -11t-13.5 -25
q-3 -14 3.5 -24.5t23.5 -10.5t28.5 11t14.5 24z" />
    <glyph glyph-name="chochangthai" unicode="&#xe0a;" horiz-adv-x="368" 
d="M425 346q-6 -11 -19.5 -24t-29.5 -24.5t-31.5 -19.5t-25.5 -9q20 -5 29 -26t3 -48l-30 -144q-5 -23 -20.5 -37t-47.5 -14h-139l6 26h39l28 135q3 16 11 26.5t17 20.5t17 21t11 27q4 19 -2 31.5t-17 19t-24.5 8t-24.5 -1.5q17 -5 24.5 -18t2.5 -37q-5 -20 -24.5 -38.5
t-49.5 -18.5q-26 0 -40.5 17t-9.5 43q3 15 13.5 30t25.5 26t34.5 18t42.5 7q39 0 57 -18.5t21 -41.5q41 2 75 26.5t57 52.5zM175 261q3 12 -4 23.5t-24 11.5t-28.5 -10.5t-13.5 -24.5q-3 -14 3.5 -25t23.5 -11t28.5 11t14.5 25zM321 193q6 29 -7 45t-44 18q-4 -18 -11.5 -30
t-16 -22.5t-16 -21t-10.5 -25.5l-27 -131h66q19 0 26.5 7.5t9.5 18.5z" />
    <glyph glyph-name="sosothai" unicode="&#xe0b;" horiz-adv-x="390" 
d="M448 355q-6 -11 -19.5 -24t-29 -24.5t-31 -19.5t-25.5 -9q20 -5 29 -26t3 -48l-32 -153q-5 -23 -20.5 -37t-47.5 -14h-139l6 26h40l40 190q8 34 36 52q14 9 7.5 24t-21.5 19l-47 -28l-41 30q-17 -5 -32.5 -18t-23.5 -35q5 4 13 7.5t22 3.5q24 0 38 -14.5t8 -43.5
q-5 -26 -26 -40.5t-44 -14.5q-17 0 -30 8.5t-19 24t-3.5 37.5t16.5 49q16 29 42.5 46t46.5 21l40 -30l46 28q21 -8 34 -21t14 -30q20 1 38.5 8t35 18.5t31 25t25.5 27.5zM345 202q6 29 -8.5 46t-47.5 17q-4 -5 -9.5 -9.5t-11 -10t-10 -12.5t-6.5 -17l-40 -190h65
q19 0 26.5 7.5t9.5 18.5zM157 214q3 13 -3.5 24t-23.5 11t-28.5 -10.5t-14.5 -24.5t4 -24.5t24 -10.5t28.5 10.5t13.5 24.5z" />
    <glyph glyph-name="chochoethai" unicode="&#xe0c;" horiz-adv-x="493" 
d="M435 0h-31q-6 15 -17 29.5t-25 27t-30 22.5t-31 15l-13 -61q-7 -36 -42 -36q-25 0 -34.5 17t-4.5 44q6 26 25 43.5t46 19.5l27 126q4 19 -1 32t-15.5 21.5t-25.5 12t-31 3.5q-48 0 -92 -26q18 -4 35 -17t26 -22q-26 -7 -45.5 -25t-27.5 -50l-15 -74q6 5 13 7t21 2
q27 0 38 -17.5t6 -40.5q-5 -25 -25.5 -41.5t-46.5 -16.5t-39 16t-8 41l27 127q5 20 17.5 41t35.5 31q-8 7 -26 15.5t-40 12.5q30 29 69 46.5t83 17.5q50 0 78 -23.5t18 -72.5l-28 -128q33 -8 62 -31t46 -49l64 299h29zM272 96q-17 -2 -27 -13t-13 -26q-2 -12 1 -20t8 -11.5
t10.5 -2t7.5 9.5zM167 54q2 14 -4.5 24.5t-23.5 10.5t-28.5 -11t-14.5 -24q-2 -13 4.5 -24.5t23.5 -11.5t28.5 11t14.5 25z" />
    <glyph glyph-name="yoyingthai" unicode="&#xe0d;" horiz-adv-x="493" 
d="M447 51q-5 -23 -20.5 -37t-47.5 -14h-169l6 27h42l47 220q4 19 -1 32t-15.5 21.5t-25.5 12t-31 3.5q-48 0 -92 -26q18 -4 35 -17t26 -22q-26 -7 -45.5 -25t-27.5 -50l-15 -74q6 5 13 7t21 2q27 0 38 -17.5t6 -40.5q-5 -25 -25.5 -41.5t-46.5 -16.5t-39 16t-8 41l27 127
q5 20 17.5 41t35.5 31q-8 7 -26 15.5t-40 12.5q30 29 69 46.5t83 17.5q50 0 78 -23.5t18 -72.5l-47 -221h94q19 0 26.5 7.5t9.5 18.5l61 286h30zM424 -39q-14 -60 -51 -88.5t-85 -33.5q-31 -3 -52.5 2.5t-34 16t-17 25t-1.5 29.5q5 23 24 38.5t46 15.5t36.5 -17.5t5.5 -37.5
q-4 -17 -16.5 -31.5t-32.5 -16.5q19 -5 39 -3q42 3 71 28.5t39 73.5zM167 54q2 14 -4.5 24.5t-23.5 10.5t-28.5 -11t-14.5 -24q-2 -13 4.5 -24.5t23.5 -11.5t28.5 11t14.5 25zM271 -89q3 12 -3 22t-22 10q-15 0 -26 -10t-14 -22q-2 -12 4.5 -21.5t21.5 -9.5t26 9.5t13 21.5z
" />
    <glyph glyph-name="dochadathai" unicode="&#xe0e;" horiz-adv-x="403" 
d="M310 -163h-35q-11 23 -31 41.5t-43 32.5q-20 -40 -48 -57t-55 -17t-45 15t-12 45q8 34 34 47.5t55 13.5q37 0 61 -11l7 14q3 6 6.5 14.5t7.5 17.5l24 -6q-3 -9 -7 -17.5t-7 -16.5q-4 -9 -8 -17q21 -10 41 -26.5t33 -39.5l81 377q4 19 -2.5 32t-19 21.5t-29.5 12t-33 3.5
q-24 0 -52.5 -6.5t-50.5 -19.5q18 -4 35 -17t26 -22q-26 -7 -45.5 -25t-27.5 -50l-26 -124q-5 -25 -25 -41t-46 -16t-39.5 16.5t-8.5 40.5t24 41.5t46 17.5q14 0 19.5 -2t10.5 -7l16 77q5 20 17.5 41t35.5 31q-8 7 -26 15.5t-40 12.5q30 29 74.5 46.5t88.5 17.5
q25 0 46.5 -6t36.5 -18t22 -30t2 -42zM121 54q2 13 -4.5 24t-23.5 11t-28.5 -10.5t-14.5 -24.5t4 -25t24 -11t28.5 11.5t14.5 24.5zM179 -78q-4 2 -16.5 6t-35.5 4q-51 0 -58 -36q-4 -18 9 -26t27 -8q17 0 37 12t37 48z" />
    <glyph glyph-name="topatakthai" unicode="&#xe0f;" horiz-adv-x="403" 
d="M310 -163h-35l-36 48l-58 -50q-3 7 -6.5 16t-6.5 14q-2 3 -4.5 6.5t-4.5 6.5q-3 4 -5 6q-19 -26 -39.5 -37.5t-41.5 -11.5q-20 0 -35 13t-10 39q5 25 26.5 38.5t41.5 13.5q35 0 55 -18q7 12 13 23q5 10 11.5 22t11.5 25l23 -6q-8 -19 -17.5 -38.5t-21.5 -37.5
q8 -8 11.5 -15t8.5 -16l57 47l40 -55q10 46 15.5 73.5t10 47.5t8.5 37.5t9.5 44t14.5 67.5t23 107q4 19 -2.5 32t-19 21.5t-29.5 12t-33 3.5q-24 0 -52.5 -6.5t-50.5 -19.5q18 -4 35 -17t26 -22q-26 -7 -45.5 -25t-27.5 -50l-26 -124q-5 -25 -25 -41t-46 -16t-39.5 16.5
t-8.5 40.5t24 41.5t46 17.5q14 0 19.5 -2t10.5 -7l16 77q5 20 17.5 41t35.5 31q-8 7 -26 15.5t-40 12.5q30 29 74.5 46.5t88.5 17.5q25 0 46.5 -6t36.5 -18t22 -30t2 -42zM121 54q2 13 -4.5 24t-23.5 11t-28.5 -10.5t-14.5 -24.5t4 -25t24 -11t28.5 11.5t14.5 24.5z
M137 -101q-6 5 -18.5 10.5t-25.5 5.5t-24.5 -6.5t-14.5 -21.5q-3 -14 5 -20t22 -6q15 0 30 12.5t26 25.5z" />
    <glyph glyph-name="thothanthai" unicode="&#xe10;" horiz-adv-x="322" 
d="M374 295q-27 -10 -46 -8t-34.5 8t-31.5 13t-38 7q-16 0 -34 -8t-29 -22q16 -4 33 -8q14 -4 29.5 -7.5t26.5 -6.5q24 -6 36 -18t15.5 -26.5t1.5 -30.5t-5 -30q-5 -22 -7.5 -34.5t-4.5 -21t-3.5 -15t-3.5 -17t-5.5 -27t-9.5 -43.5h-38q-2 23 -6 45.5t-8 39.5q-4 20 -10 37
q-19 -30 -58 -30q-22 0 -37.5 15t-9.5 42q5 25 24 42t47 17q19 0 33 -10.5t19 -28.5q5 -13 10 -30q4 -14 8.5 -35.5t8.5 -47.5l23 108q4 21 3 34.5t-7.5 22t-18 13.5t-27.5 9q-31 8 -63.5 16t-47.5 10q21 27 52.5 49.5t66.5 22.5q23 0 40 -6.5t33 -13t33 -9t39 5.5v-12
t1 -11zM238 -139q-4 -20 -23 -30q-5 -3 -12 -6.5t-14 -7.5q-8 -4 -17 -8l-32 24l-38 -23l-20 38q-12 -17 -24.5 -25t-32.5 -8t-33.5 11.5t-8.5 33.5q5 24 23 35t38 11q10 0 19.5 -3t17.5 -10q9 15 15.5 33.5t8.5 35.5h28q-9 -45 -34 -88q4 -5 8.5 -15.5t5.5 -14.5l33 21
l32 -24q14 8 20.5 11t8.5 11l3 14q-3 -2 -7.5 -2.5t-8.5 -0.5q-23 0 -32.5 14t-6.5 31q4 18 20 33t39 15q20 0 31 -12.5t6 -35.5zM192 149q2 13 -4.5 24t-23.5 11t-28.5 -10.5t-14.5 -24.5t4 -24.5t24 -10.5t28.5 10.5t14.5 24.5zM231 -80q2 10 -3 18t-18 8q-14 0 -22.5 -8
t-10.5 -18t3 -18t18 -8q14 0 22.5 8t10.5 18zM69 -130q-3 6 -12.5 10t-17.5 4q-12 0 -20.5 -7t-10.5 -17q-2 -8 3.5 -15t19.5 -7q11 0 21 8t17 24z" />
    <glyph glyph-name="thonangmonthothai" unicode="&#xe11;" horiz-adv-x="469" 
d="M411 0h-29l58 275q4 15 0.5 27t-23.5 12q-19 0 -45 -27.5t-55 -72t-59 -100.5t-56 -114h-26l46 215q6 34 36 52q13 9 7 24t-22 19l-46 -28l-41 30q-17 -5 -32.5 -18t-23.5 -35q5 4 12.5 7.5t22.5 3.5q23 0 37.5 -14.5t8.5 -43.5q-5 -26 -26.5 -40.5t-44.5 -14.5
q-17 0 -30 8.5t-18.5 24t-3 37.5t16.5 49q15 29 42 46t47 21l40 -30l46 28q24 -8 37.5 -24t9.5 -37q-2 -11 -8.5 -17t-14 -12.5t-14 -14.5t-9.5 -21l-22 -101q18 33 40 73t47 74t52.5 57t56.5 23q32 0 41 -19.5t3 -46.5zM157 213q3 13 -4 24t-24 11t-28 -10.5t-14 -24.5
t4 -24.5t24 -10.5t28 10.5t14 24.5z" />
    <glyph glyph-name="thophuthaothai" unicode="&#xe12;" horiz-adv-x="527" 
d="M439 0q-6 15 -16.5 29.5t-24.5 27t-30 22.5t-31 15l-13 -63q-9 -36 -43 -36q-25 0 -36 17t-5 44q5 26 25.5 44.5t47.5 20.5q2 11 7 35.5t9.5 46t7 31.5t-1.5 -8q13 61 -29 83l-63 -37l-49 38q-29 -10 -52 -33.5t-32 -64.5q-5 -26 0.5 -46t13.5 -46q1 -5 4.5 -20.5
t4.5 -34.5q11 16 31 38.5t36 35.5q-24 1 -35.5 17t-6.5 41q5 24 25.5 41.5t47.5 17.5t40.5 -17t8.5 -42q-4 -16 -14 -28.5t-23 -22.5q-35 -29 -67 -66.5t-49 -79.5h-34q13 23 11 52.5t-8 49.5q-4 12 -8.5 24.5t-7.5 26t-3.5 28.5t3.5 32q11 48 45.5 82.5t77.5 45.5l47 -37
l60 37q35 -12 49.5 -41t6.5 -68l-24 -113q33 -8 61.5 -31t45.5 -49l64 299h29l-72 -338h-31zM254 196q3 13 -4 24t-24 11t-28.5 -10.5t-14.5 -24.5q-2 -14 4.5 -24.5t23.5 -10.5t28.5 10.5t14.5 24.5zM307 96q-17 -2 -27 -14t-13 -27q-3 -12 0 -20t8 -11.5t10.5 -2t8.5 9.5z
" />
    <glyph glyph-name="nonenthai" unicode="&#xe13;" horiz-adv-x="507" 
d="M507 63q-6 -31 -24.5 -47t-36.5 -19.5t-31 5.5t-8 29l17 81q-19 -3 -40 -13.5t-40.5 -25.5t-35.5 -34t-25 -39h-31l53 247q4 19 -1 32t-15.5 21.5t-25.5 12t-31 3.5q-48 0 -92 -26q18 -4 35 -17t26 -22q-26 -7 -45.5 -25t-27.5 -50l-15 -74q6 5 13 7t21 2q27 0 38 -17.5
t6 -40.5q-5 -25 -25.5 -41.5t-46.5 -16.5t-39 16t-8 41l27 127q5 20 17.5 41t35.5 31q-8 7 -26 15.5t-40 12.5q30 29 69 46.5t83 17.5q50 0 78 -23.5t18 -72.5l-40 -187q57 69 136 81l42 197h30l-42 -196q62 -9 47 -79zM480 63q6 26 -1 36t-25 14l-15 -71q-3 -12 2 -16
t12.5 -1t15.5 12.5t11 25.5zM167 54q2 14 -4.5 24.5t-23.5 10.5t-28.5 -11t-14.5 -24q-2 -13 4.5 -24.5t23.5 -11.5t28.5 11t14.5 25z" />
    <glyph glyph-name="dodekthai" unicode="&#xe14;" horiz-adv-x="373" 
d="M286 0l48 225q5 23 -0.5 40.5t-18 29t-30.5 17.5t-39 6t-42.5 -5.5t-40 -18.5t-33 -33t-20.5 -49q-4 -18 -1.5 -35.5t7 -36t8 -37.5t2.5 -38q5 8 14.5 18t20 20.5t21 20t18.5 15.5q-24 1 -35.5 17t-6.5 41q5 24 25.5 41.5t47.5 17.5t40.5 -17t8.5 -42q-4 -16 -14 -28.5
t-23 -22.5q-35 -29 -70.5 -66.5t-52.5 -79.5h-38q15 28 14 55t-6 53t-10.5 52t0.5 53q7 34 24.5 58.5t41 40.5t51.5 24t55 8t50 -7.5t39 -22t23 -35.5t1 -48l-49 -231h-30zM254 196q3 13 -4 24t-24 11t-28.5 -10.5t-14.5 -24.5q-2 -14 4.5 -24.5t23.5 -10.5t28.5 10.5
t14.5 24.5z" />
    <glyph glyph-name="totaothai" unicode="&#xe15;" horiz-adv-x="373" 
d="M286 0q17 76 28 131q5 23 9.5 44t7.5 35.5t4 19.5t-1 -4q13 61 -29 83l-63 -37l-49 38q-29 -10 -51.5 -33.5t-31.5 -64.5q-4 -18 -1.5 -35.5t6.5 -35.5t8 -36.5t3 -39.5q5 8 14.5 18t20 20.5t21 20t18.5 15.5q-24 1 -35.5 17t-6.5 41q5 24 25.5 41.5t47.5 17.5t40.5 -17
t8.5 -42q-4 -16 -14 -28.5t-23 -22.5q-35 -29 -70.5 -66.5t-52.5 -79.5h-38q15 28 14 55t-6 53t-10.5 52t0.5 53q11 48 45 82.5t77 45.5l47 -37l60 37q35 -12 49.5 -41t6.5 -68l-49 -232h-30zM254 196q3 13 -4 24t-24 11t-28.5 -10.5t-14.5 -24.5q-2 -14 4.5 -24.5
t23.5 -10.5t28.5 10.5t14.5 24.5z" />
    <glyph glyph-name="thothungthai" unicode="&#xe16;" horiz-adv-x="361" 
d="M303 0h-29l53 247q4 19 -2.5 32t-19 21.5t-29.5 12t-33 3.5q-24 0 -52.5 -6.5t-50.5 -19.5q18 -4 35 -17t26 -22q-26 -7 -45.5 -25t-27.5 -50l-15 -74q6 5 13 7t21 2q27 0 38 -17.5t6 -40.5q-5 -25 -25.5 -41.5t-46.5 -16.5t-39 16t-8 41l27 127q5 20 17.5 41t35.5 31
q-8 7 -26 15.5t-40 12.5q30 29 74.5 46.5t88.5 17.5q25 0 46.5 -6t36.5 -18t22 -30t2 -42zM167 54q2 14 -4.5 24.5t-23.5 10.5t-28.5 -11t-14.5 -24q-2 -13 4.5 -24.5t23.5 -11.5t28.5 11t14.5 25z" />
    <glyph glyph-name="thothahanthai" unicode="&#xe17;" horiz-adv-x="401" 
d="M343 0h-29l58 275q4 15 0.5 27t-23.5 12q-19 0 -45 -27.5t-55 -72t-59 -100.5t-56 -114h-26l50 234q-7 -5 -14 -7t-21 -2q-27 0 -38 17.5t-6 40.5q5 25 25 41.5t46 16.5t39 -16t8 -41l-36 -170q18 33 40 73t47 74t52.5 57t56.5 23q32 0 41 -19.5t3 -46.5zM173 282
q3 13 -3.5 24.5t-24.5 11.5q-17 0 -28 -11t-14 -25t4 -24.5t24 -10.5t28.5 11t13.5 24z" />
    <glyph glyph-name="thothongthai" unicode="&#xe18;" horiz-adv-x="320" 
d="M346 302q-22 -7 -38.5 -5.5t-32 6t-31.5 9.5t-35 5q-43 0 -71 -41q51 -5 91 -15.5t61 -22.5q11 -7 13 -17t-1 -24l-31 -146q-5 -23 -20.5 -37t-47.5 -14h-150l6 26h39l38 179h28l-38 -179h79q19 0 27.5 7.5t10.5 18.5l30 142q2 9 -1.5 17t-17.5 13q-18 6 -40 11.5t-44 10
t-42.5 7t-33.5 2.5q6 16 18 32t28 28.5t35 20t39 7.5q18 0 33.5 -5t31.5 -10t32 -7.5t34 3.5l1 -22v0z" />
    <glyph glyph-name="nonuthai" unicode="&#xe19;" horiz-adv-x="392" 
d="M146 46q41 45 83 69t87 29l41 194h29l-42 -196q33 0 45 -21.5t5 -54.5q-7 -30 -25.5 -50t-44.5 -20q-14 0 -25.5 8.5t-6.5 26.5l19 89q-43 -6 -84 -33t-91 -87h-29l50 234q-7 -5 -14 -7t-21 -2q-27 0 -38 17.5t-6 40.5q5 25 25 41.5t46 16.5t39 -16t8 -41zM172 282
q3 13 -3.5 24.5t-24.5 11.5q-17 0 -28 -11t-14 -25t4 -24.5t24 -10.5t28.5 11t13.5 24zM368 66q5 26 -2 38t-27 15l-17 -83q-3 -13 10 -14t22.5 13t13.5 31z" />
    <glyph glyph-name="bobaimaithai" unicode="&#xe1a;" horiz-adv-x="390" 
d="M342 49q-5 -26 -20.5 -37.5t-47.5 -11.5h-206l6 26h39l44 208q-7 -5 -14 -7t-21 -2q-27 0 -38 17.5t-6 40.5q5 25 25 41.5t46 16.5t39 -16t8 -41l-54 -258h136q19 0 26.5 7.5t9.5 18.5l61 286h29zM172 282q3 13 -3.5 24.5t-24.5 11.5q-17 0 -28 -11t-14 -25t4 -24.5
t24 -10.5t28.5 11t13.5 24z" />
    <glyph glyph-name="poplathai" unicode="&#xe1b;" horiz-adv-x="390" 
d="M342 49q-5 -26 -20.5 -37.5t-47.5 -11.5h-206l6 26h39l44 208q-7 -5 -14 -7t-21 -2q-27 0 -38 17.5t-6 40.5q5 25 25 41.5t46 16.5t39 -16t8 -41l-54 -258h136q19 0 26.5 7.5t9.5 18.5l87 409h29zM172 282q3 13 -3.5 24.5t-24.5 11.5q-17 0 -28 -11t-14 -25t4 -24.5
t24 -10.5t28.5 11t13.5 24z" />
    <glyph glyph-name="phophungthai" unicode="&#xe1c;" horiz-adv-x="374" 
d="M287 0q3 17 2.5 33t-9.5 30l-61 88l-98 -88q-15 -14 -21.5 -30t-11.5 -33h-30l60 282q5 25 25 41t46 16t39.5 -16.5t8.5 -40.5t-24 -41.5t-46 -17.5q-14 0 -20 2t-11 7l-32 -154l123 110l76 -108l55 258h29l-72 -338h-28zM212 280q3 14 -4 25t-24 11t-28.5 -11.5
t-14.5 -24.5q-2 -13 4.5 -24t23.5 -11t28.5 10.5t14.5 24.5z" />
    <glyph glyph-name="fofathai" unicode="&#xe1d;" horiz-adv-x="373" 
d="M287 0q3 17 2.5 33t-9.5 30l-61 88l-98 -88q-15 -14 -21.5 -30t-11.5 -33h-30l60 282q5 25 25 41t46 16t39.5 -16.5t8.5 -40.5t-24 -41.5t-46 -17.5q-14 0 -20 2t-11 7l-32 -154l123 110l76 -108l81 381h29l-98 -461h-28zM212 280q3 14 -4 25t-24 11t-28.5 -11.5
t-14.5 -24.5q-2 -13 4.5 -24t23.5 -11t28.5 10.5t14.5 24.5z" />
    <glyph glyph-name="phophanthai" unicode="&#xe1e;" horiz-adv-x="438" 
d="M352 0q2 11 2.5 19.5t-1.5 18.5l-52 230l-149 -230q-6 -9 -9.5 -18.5t-6.5 -19.5h-28l49 232q-6 -5 -13.5 -7t-21.5 -2q-27 0 -38 17.5t-6 40.5q5 25 25.5 41.5t46.5 16.5t39 -16t8 -41l-41 -194l159 245l55 -246l53 251h29l-72 -338h-28zM173 280q2 13 -4.5 24.5
t-23.5 11.5t-28.5 -11t-14.5 -25q-2 -14 4.5 -24.5t23.5 -10.5t28.5 11t14.5 24z" />
    <glyph glyph-name="fofanthai" unicode="&#xe1f;" horiz-adv-x="438" 
d="M352 0q2 11 2.5 19.5t-1.5 18.5l-52 230l-149 -230q-6 -9 -9.5 -18.5t-6.5 -19.5h-28l49 232q-6 -5 -13.5 -7t-21.5 -2q-27 0 -38 17.5t-6 40.5q5 25 25.5 41.5t46.5 16.5t39 -16t8 -41l-41 -194l159 245l55 -246l79 374h29l-98 -461h-28zM173 280q2 13 -4.5 24.5
t-23.5 11.5t-28.5 -11t-14.5 -25q-2 -14 4.5 -24.5t23.5 -10.5t28.5 11t14.5 24z" />
    <glyph glyph-name="phosamphaothai" unicode="&#xe20;" horiz-adv-x="403" 
d="M345 0h-29l53 247q4 19 -2.5 32t-19 21.5t-29.5 12t-33 3.5q-24 0 -52.5 -6.5t-50.5 -19.5q18 -4 35 -17t26 -22q-26 -7 -45.5 -25t-27.5 -50l-26 -124q-5 -25 -25 -41t-46 -16t-39.5 16.5t-8.5 40.5t24 41.5t46 17.5q14 0 19.5 -2t10.5 -7l16 77q5 20 17.5 41t35.5 31
q-8 7 -26 15.5t-40 12.5q30 29 74.5 46.5t88.5 17.5q25 0 46.5 -6t36.5 -18t22 -30t2 -42zM121 54q2 13 -4.5 24t-23.5 11t-28.5 -10.5t-14.5 -24.5t4 -25t24 -11t28.5 11.5t14.5 24.5z" />
    <glyph glyph-name="momathai" unicode="&#xe21;" horiz-adv-x="399" 
d="M382 338h29l-71 -338h-29q-4 42 -34.5 76t-95.5 43l-18 -85q-4 -18 -18.5 -28t-35.5 -10q-26 0 -40.5 20t-7.5 50q7 33 34.5 56.5t61.5 21.5l19 88q-6 -5 -13.5 -7t-21.5 -2q-27 0 -38.5 17.5t-6.5 40.5q5 25 26 41.5t47 16.5t38.5 -16t7.5 -41q-11 -54 -16.5 -79.5
t-8 -36t-3 -13t-1.5 -9.5q43 -5 82 -25t55 -62zM191 280q3 13 -3.5 24.5t-23.5 11.5t-28.5 -11t-14.5 -25t4 -24.5t24 -10.5t28 11t14 24zM152 121q-23 0 -41 -14.5t-23 -40.5q-5 -20 3 -32t23 -12q16 0 20 14z" />
    <glyph glyph-name="yoyakthai" unicode="&#xe22;" horiz-adv-x="347" 
d="M298 49q-5 -26 -20.5 -37.5t-47.5 -11.5h-122q-35 0 -44 11.5t-4 37.5l8 35q4 19 12.5 33t18.5 23t20.5 13.5t18.5 6.5q-11 2 -21.5 8.5t-17.5 17.5t-10 26.5t2 35.5q8 37 35 64t63 27q26 0 39.5 -16.5t8.5 -40.5t-23.5 -41t-46.5 -18q-24 0 -33.5 9t-11.5 17
q-5 -21 -0.5 -35t15 -23t23.5 -13t25 -5l-6 -26q-70 -4 -83 -65l-6 -30q-3 -13 2 -19.5t24 -6.5h118q19 0 26.5 7.5t9.5 18.5l61 286h29zM212 280q3 14 -4 25t-24 11t-28.5 -11.5t-14.5 -24.5q-2 -13 4.5 -24t23.5 -11t28.5 10.5t14.5 24.5z" />
    <glyph glyph-name="roruathai" unicode="&#xe23;" horiz-adv-x="290" 
d="M320 302q-22 -7 -38.5 -5.5t-32 6t-31.5 9.5t-35 5q-43 0 -71 -41q38 -3 68 -10t47 -13q26 -10 34 -20t3 -29l-32 -151q-5 -25 -25 -41t-46 -16t-39 16.5t-8 40.5t23.5 41.5t45.5 17.5q14 0 20 -2t11 -7l20 93q2 11 -0.5 17.5t-22.5 14.5q-15 6 -34 10.5t-39 8t-38.5 5.5
t-31.5 3q6 16 18 32t28 28.5t35 20t39 7.5q18 0 33.5 -5t31.5 -10t32 -7.5t34 3.5zM209 55q3 13 -4 24t-24 11t-28.5 -10.5t-14.5 -24.5t4 -25t24 -11t28.5 11.5t14.5 24.5z" />
    <glyph glyph-name="ruthai" unicode="&#xe24;" horiz-adv-x="361" 
d="M265 -177h-29l91 424q4 19 -2.5 32t-19 21.5t-29.5 12t-33 3.5q-24 0 -52.5 -6.5t-50.5 -19.5q18 -4 35 -17t26 -22q-26 -7 -45.5 -25t-27.5 -50l-15 -74q6 5 13 7t21 2q27 0 38 -17.5t6 -40.5q-5 -25 -25.5 -41.5t-46.5 -16.5t-39 16t-8 41l27 127q5 20 17.5 41t35.5 31
q-8 7 -26 15.5t-40 12.5q30 29 74.5 46.5t88.5 17.5q25 0 46.5 -6t36.5 -18t22 -30t2 -42zM167 54q2 14 -4.5 24.5t-23.5 10.5t-28.5 -11t-14.5 -24q-2 -13 4.5 -24.5t23.5 -11.5t28.5 11t14.5 25z" />
    <glyph glyph-name="lolingthai" unicode="&#xe25;" horiz-adv-x="349" 
d="M291 0h-31q1 12 0 33.5t-4.5 46.5t-10.5 50t-16.5 45t-23.5 32t-31 10q-19 -2 -32 -15.5t-21 -31.5t-12.5 -37t-5.5 -34q8 6 17 10t23 4q27 0 38 -17.5t6 -41.5t-25 -41t-46 -17t-39 18t-9 45q3 22 8 52.5t16 59t31 49.5t53 25q29 4 48 -11t31 -39t18 -52t9 -50l30 140
q9 43 -15.5 63.5t-65.5 20.5q-37 0 -67 -15t-52 -38l-19 16q23 23 59.5 42.5t84.5 19.5q62 0 88 -30.5t16 -78.5zM163 55q3 14 -4 24.5t-24 10.5t-28.5 -10.5t-13.5 -24.5q-3 -13 3.5 -24t23.5 -11q18 0 29 10.5t14 24.5z" />
    <glyph glyph-name="luthai" unicode="&#xe26;" horiz-adv-x="403" 
d="M307 -177h-29l91 424q4 19 -2.5 32t-19 21.5t-29.5 12t-33 3.5q-24 0 -52.5 -6.5t-50.5 -19.5q18 -4 35 -17t26 -22q-26 -7 -45.5 -25t-27.5 -50l-26 -124q-5 -25 -25 -41t-46 -16t-39.5 16.5t-8.5 40.5t24 41.5t46 17.5q14 0 19.5 -2t10.5 -7l16 77q5 20 17.5 41
t35.5 31q-8 7 -26 15.5t-40 12.5q30 29 74.5 46.5t88.5 17.5q25 0 46.5 -6t36.5 -18t22 -30t2 -42zM121 54q2 13 -4.5 24t-23.5 11t-28.5 -10.5t-14.5 -24.5t4 -25t24 -11t28.5 11.5t14.5 24.5z" />
    <glyph glyph-name="wowaenthai" unicode="&#xe27;" horiz-adv-x="313" 
d="M274 61q-5 -25 -24.5 -46t-54.5 -21q-26 0 -40 16.5t-9 40.5t24.5 42t45.5 18q17 0 24 -3.5t12 -11.5l29 135q5 24 1 40.5t-14.5 26.5t-25.5 14.5t-31 4.5q-38 0 -65 -15t-49 -38l-15 17q9 9 21.5 20t29 20t37.5 15t47 6q51 0 78 -28t16 -78zM242 53q3 13 -4 24t-24 11
t-28.5 -10.5t-14.5 -24.5t4 -25t24 -11t29 11.5t14 24.5z" />
    <glyph glyph-name="sosalathai" unicode="&#xe28;" horiz-adv-x="373" 
d="M417 338q-3 -6 -16.5 -23t-36.5 -37q3 -11 3.5 -22t-2.5 -25l-49 -231h-30l48 225q2 8 2.5 16t-1.5 15q-13 -8 -28 -16t-32 -14q2 -12 -1 -24q-5 -21 -24 -40t-48 -19q-17 0 -24.5 5t-13.5 14l-35 -162h-30l20 96q-24 20 -34.5 51t-1.5 73q6 28 22.5 51t39.5 39.5
t50.5 25t56.5 8.5q34 0 61.5 -11.5t41.5 -33.5q12 13 21 26t17 26zM330 275q-11 21 -33 32t-51 11q-21 0 -43 -6.5t-40 -19.5t-31.5 -31t-18.5 -42q-8 -33 -0.5 -54.5t16.5 -32.5l9 42q8 38 31 62.5t58 24.5q29 0 42 -20q19 8 34 16.5t27 17.5zM250 201q3 14 -4 24.5
t-24 10.5t-28.5 -11t-14.5 -24q-3 -14 4 -24.5t24 -10.5t28.5 10.5t14.5 24.5z" />
    <glyph glyph-name="sorusithai" unicode="&#xe29;" horiz-adv-x="401" 
d="M448 233q-2 -8 -8 -20.5t-16.5 -26t-26 -26t-36.5 -21.5l-19 -90q-5 -26 -20.5 -37.5t-47.5 -11.5h-206l6 26h39l44 208q-7 -5 -14 -7t-21 -2q-27 0 -38 17.5t-6 40.5q5 25 25 41.5t46 16.5t39 -16t8 -41l-54 -258h136q19 0 26.5 7.5t9.5 18.5l16 77q-22 -5 -45 -5
q-24 0 -40 6t-25 16t-12 21t-1 22q5 20 22 38t45 18q26 0 36.5 -17.5t6.5 -35.5q-8 -35 -34 -46q14 -1 27 0t25 5l40 187h29l-37 -175q20 11 35 28.5t23 41.5h23zM295 190q3 12 -3 22.5t-23 10.5t-27 -10.5t-13 -22.5q-2 -12 4 -22.5t23 -10.5t27 10.5t12 22.5zM172 282
q3 13 -3.5 24.5t-24.5 11.5q-17 0 -28 -11t-14 -25t4 -24.5t24 -10.5t28.5 11t13.5 24z" />
    <glyph glyph-name="sosuathai" unicode="&#xe2a;" horiz-adv-x="349" 
d="M390 350q-8 -17 -20.5 -34t-29.5 -33q6 -22 1 -50l-50 -233h-31q1 12 0 33.5t-4.5 46.5t-10.5 50t-16.5 45t-23.5 32t-31 10q-19 -2 -31.5 -15t-20.5 -31t-12.5 -37t-6.5 -34q8 6 17 9.5t23 3.5q27 0 38 -17.5t6 -41.5t-25 -41t-46 -17t-39 18t-9 45q3 22 8 52.5t16 59
t31 49.5t53 25q28 4 49 -12q49 20 82 50q-10 17 -30 25.5t-46 8.5q-37 0 -67 -15t-52 -38l-19 16q23 23 59.5 42.5t84.5 19.5q34 0 57 -9.5t35 -26.5q23 26 35 53zM313 260q-30 -22 -74 -40q20 -25 29 -61.5t14 -65.5l30 140q3 13 1 27zM163 55q3 14 -4 24.5t-24 10.5
t-28.5 -10.5t-13.5 -24.5q-3 -13 3.5 -24t23.5 -11q18 0 29 10.5t14 24.5z" />
    <glyph glyph-name="hohipthai" unicode="&#xe2b;" horiz-adv-x="401" 
d="M405 282q-4 -18 -16.5 -33.5t-32.5 -19.5q19 -10 21.5 -29.5t-0.5 -33.5l-35 -166h-29l34 160q7 30 -1.5 41.5t-19.5 16.5q-30 -12 -61 -36.5t-57.5 -53.5t-44.5 -59.5t-23 -53.5l-3 -15h-29l49 232q-6 -5 -13.5 -7t-21.5 -2q-27 0 -38 17.5t-6 40.5q5 25 25.5 41.5
t46.5 16.5t39 -16t8 -41l-37 -172q33 47 71.5 76.5t76.5 47.5q-13 5 -17.5 18.5t-1.5 29.5q5 25 25.5 41.5t45.5 16.5t37.5 -16.5t7.5 -41.5zM383 281q3 13 -4 24.5t-24 11.5t-28.5 -11t-13.5 -25q-3 -14 3.5 -24.5t23.5 -10.5t28.5 11t14.5 24zM173 280q2 13 -4.5 24.5
t-23.5 11.5t-28.5 -11t-14.5 -25q-2 -14 4.5 -24.5t23.5 -10.5t28.5 11t14.5 24z" />
    <glyph glyph-name="lochulathai" unicode="&#xe2c;" horiz-adv-x="432" 
d="M373 0h-36q2 11 2.5 19t-1.5 19l-42 209l-139 -208q-6 -9 -9.5 -19t-6.5 -20h-33l49 232q-6 -5 -13.5 -7t-21.5 -2q-27 0 -38 17.5t-6 40.5q5 25 25.5 41.5t46.5 16.5t39 -16t8 -41l-42 -196l155 230l52 -233l43 203q-29 -6 -45 8.5t-10 43.5q4 20 20.5 35t42.5 15
q25 0 35.5 -15t6.5 -35q-1 -6 -5 -12q-2 -3 -4 -5q18 11 31.5 22t25.5 30l19 -13q-14 -23 -36 -41.5t-51 -26.5zM433 337q2 12 -3 21.5t-22 9.5q-16 0 -25.5 -9.5t-11.5 -21.5t3 -21.5t21 -9.5t26 9.5t12 21.5zM173 280q2 13 -4.5 24.5t-23.5 11.5t-28.5 -11t-14.5 -25
q-2 -14 4.5 -24.5t23.5 -10.5t28.5 11t14.5 24z" />
    <glyph glyph-name="oangthai" unicode="&#xe2d;" horiz-adv-x="357" 
d="M309 49q-5 -26 -20.5 -37.5t-47.5 -11.5h-121q-35 0 -44 11.5t-4 37.5l28 132q5 25 25.5 41t46.5 16t39 -16.5t8 -40.5t-23.5 -41.5t-45.5 -17.5q-14 0 -20 2t-11 7l-17 -79q-3 -13 2 -19.5t24 -6.5h117q19 0 26.5 7.5t9.5 18.5l38 179q5 24 -0.5 40.5t-17.5 26.5
t-28.5 14.5t-32.5 4.5q-38 0 -69 -15t-53 -38l-15 17q9 9 22.5 20t31.5 20t40.5 15t48.5 6q25 0 46.5 -7.5t35.5 -21t20 -33t1 -44.5zM194 179q3 14 -3.5 25t-23.5 11t-29 -11.5t-14 -24.5q-3 -13 4 -24t24 -11t28.5 10.5t13.5 24.5z" />
    <glyph glyph-name="honokhukthai" unicode="&#xe2e;" horiz-adv-x="357" 
d="M408 326q-5 -5 -12 -11.5t-15.5 -13.5t-16 -13t-13.5 -9q3 -15 0 -34l-42 -196q-5 -26 -20.5 -37.5t-47.5 -11.5h-121q-35 0 -44 11.5t-4 37.5l22 101q5 25 25 41t46 16t39.5 -16.5t8.5 -40.5t-24 -41.5t-46 -17.5q-14 0 -20 2t-11 7l-10 -48q-3 -13 2 -19.5t24 -6.5h117
q19 0 26.5 7.5t9.5 18.5l41 193q1 4 1 11v5q-26 -14 -55 -21t-56 -7q-21 0 -41 3t-35 9.5t-23 17t-5 24.5q3 15 15 25.5t30 17t40 10t46 3.5q49 0 71 -13t33 -29q28 19 49 41zM318 286q-10 12 -30 22t-55 10t-61 -8t-29 -22q-2 -8 4.5 -13.5t17.5 -8.5t25 -4.5t28 -1.5
q23 0 50.5 6t49.5 20zM188 148q3 14 -4 25t-24 11t-28.5 -11.5t-14.5 -24.5q-2 -13 4.5 -24t23.5 -11t28.5 10.5t14.5 24.5z" />
    <glyph glyph-name="paiyannoithai" unicode="&#xe2f;" horiz-adv-x="342" 
d="M296 103q-10 -47 -37.5 -72.5t-81.5 -39.5l-2 27q24 6 39.5 13t26 17.5t16.5 24.5t11 34l27 126q-24 -38 -59.5 -56t-64.5 -18q-32 0 -55.5 17t-27.5 48q-2 14 2 33.5t14.5 37.5t27.5 31t42 13q29 0 39.5 -18t5.5 -38t-22.5 -36.5t-41.5 -16.5q-7 0 -19.5 3t-18.5 13
q-3 -15 1 -26t13 -18.5t21 -11.5t25 -4q23 0 45 12.5t41 33t33 46.5t20 54h29zM199 283q3 14 -4 24.5t-24 10.5t-28.5 -11t-13.5 -24q-3 -14 4.5 -24t24.5 -10t27.5 10t13.5 24z" />
    <glyph glyph-name="saraathai" unicode="&#xe30;" horiz-adv-x="276" 
d="M304 333q-11 -52 -49 -79.5t-95 -27.5q-24 0 -40 5.5t-24.5 14.5t-10.5 20t0 22q5 21 23.5 37.5t44.5 16.5q31 0 40 -18t5 -35q-6 -25 -26 -40q84 4 101 84q9 1 17 0.5t14 -0.5zM257 111q-12 -52 -50 -79.5t-94 -27.5q-24 0 -40 5.5t-24.5 14.5t-10.5 20t0 22
q5 21 23 37.5t44 16.5q16 0 25.5 -5t14.5 -13t6 -17t0 -18q-6 -25 -26 -40q84 4 101 84q9 1 17 0.5t14 -0.5zM175 289q2 13 -4 22.5t-23 9.5q-16 0 -26 -9.5t-13 -22.5t3.5 -22.5t22.5 -9.5q17 0 27 9.5t13 22.5zM127 67q3 13 -3 22.5t-23 9.5q-16 0 -26.5 -9.5t-12.5 -22.5
q-3 -13 3 -22.5t22 -9.5q17 0 27.5 9.5t12.5 22.5z" />
    <glyph glyph-name="maihanakatthai" unicode="&#xe31;" 
d="M169 524q-23 -44 -69 -79.5t-109 -40.5q-20 -2 -43 2.5t-42 14t-30 25.5t-6 38q5 20 21.5 38t45.5 18q26 0 36 -17.5t7 -35.5q-4 -17 -14 -30t-29 -19q27 -9 57 -7t58 14t52 34t41 54zM-42 485q3 14 -4.5 23.5t-21.5 9.5t-25.5 -9.5t-14.5 -23.5t4.5 -23.5t21.5 -9.5
t25.5 9.5t14.5 23.5z" />
    <glyph glyph-name="saraaathai" unicode="&#xe32;" horiz-adv-x="295" 
d="M237 0h-29l53 247q7 35 -12.5 52.5t-53.5 17.5q-31 0 -56 -16t-42 -41l-21 12q20 29 50 49.5t75 20.5q48 0 73 -26t15 -71z" />
    <glyph glyph-name="saraamthai" unicode="&#xe33;" horiz-adv-x="295" 
d="M83 462q-5 -22 -23 -40t-47 -18t-40.5 18t-6.5 40t23.5 39.5t47.5 17.5t40 -17.5t6 -39.5zM237 0h-29l52 247q8 35 -12 52.5t-53 17.5q-31 0 -56 -16t-42 -41l-21 12q20 29 49.5 49.5t74.5 20.5q48 0 73.5 -26t15.5 -71zM59 461q3 14 -3.5 24.5t-23.5 10.5t-28 -10.5
t-14 -23.5q-2 -14 4.5 -24.5t23.5 -10.5t28 10.5t13 24.5v-1z" />
    <glyph glyph-name="saraithai" unicode="&#xe34;" 
d="M38 399q-27 10 -56.5 18t-60.5 11q-35 4 -73 3t-76 -6q10 23 29.5 44t42.5 36t48.5 22t49.5 4q28 -4 46.5 -15.5t29.5 -28.5t15.5 -39.5t4.5 -48.5zM9 428q-5 35 -23 54.5t-57 24.5q-14 1 -29.5 -2.5t-30.5 -11t-28 -19t-21 -24.5q21 3 45 4t49.5 -1t49.5 -8t45 -17z" />
    <glyph glyph-name="saraiithai" unicode="&#xe35;" 
d="M35 441q2 -11 3 -22.5t1 -23.5q-27 10 -56.5 18t-60.5 11q-35 4 -73 3t-76 -6q10 23 29.5 44t42.5 36t48.5 22t49.5 4q27 -4 45 -14t29 -26l17 80h28zM10 424q-5 35 -23 54.5t-57 24.5q-14 1 -29.5 -2.5t-30.5 -11t-28 -19t-21 -24.5q21 3 45 4t49.5 -1t49.5 -8t45 -17z
" />
    <glyph glyph-name="sarauethai" unicode="&#xe36;" 
d="M70 521q-3 -16 -14.5 -30t-30.5 -19q8 -16 11 -35.5t3 -41.5q-27 10 -56.5 18t-60.5 11q-35 4 -73 3t-76 -6q10 23 29.5 44t42.5 36t48.5 22t49.5 4q11 -1 24 -5q5 19 21 34.5t42 15.5t35.5 -15.5t4.5 -35.5zM46 521q2 10 -3 18.5t-19 8.5t-22.5 -8.5t-10.5 -18.5
q-2 -11 3 -19.5t19 -8.5t22.5 8.5t10.5 19.5zM10 424q-5 35 -23 54.5t-57 24.5q-14 1 -29.5 -2.5t-30.5 -11t-28 -19t-21 -24.5q21 3 45 4t49.5 -1t49.5 -8t45 -17z" />
    <glyph glyph-name="saraueethai" unicode="&#xe37;" 
d="M35 441q2 -11 3 -22.5t1 -23.5q-27 10 -56.5 18t-60.5 11q-35 4 -73 3t-76 -6q10 23 29.5 44t42.5 36t48.5 22t49.5 4q2 0 4 -0.5t4 -0.5l9 41h27l-11 -49q26 -10 41 -31l17 80h28zM10 424q-5 35 -23 54.5t-57 24.5q-14 1 -29.5 -2.5t-30.5 -11t-28 -19t-21 -24.5
q21 3 45 4t49.5 -1t49.5 -8t45 -17z" />
    <glyph glyph-name="sarauthai" unicode="&#xe38;" 
d="M-108 -239h-29l18 85q-5 -2 -12 -3t-14 -1q-26 0 -35.5 16.5t-4.5 36.5q4 20 20.5 36.5t43.5 16.5q23 0 35 -13t7 -39zM-102 -106q3 12 -2.5 22t-21.5 10q-15 0 -25 -10t-12 -22q-2 -11 3 -21t21 -10t25.5 10t11.5 21z" />
    <glyph glyph-name="sarauuthai" unicode="&#xe39;" 
d="M-99 -196q-5 -26 -25 -38.5t-44 -12.5q-23 0 -38.5 13.5t-10.5 37.5l9 43q-13 -5 -26 -5q-26 0 -36 16.5t-5 36.5q4 20 21 36.5t44 16.5q23 0 35 -13t7 -39q0 -1 -2.5 -12.5t-5.5 -26.5t-6.5 -29t-4.5 -20q-3 -17 5.5 -23.5t19.5 -6.5t21.5 7t13.5 22l29 137h29z
M-191 -106q3 12 -2.5 22t-21.5 10q-15 0 -25 -10t-12 -22q-2 -11 3 -21t21 -10t25.5 10t11.5 21z" />
    <glyph glyph-name="phinthuthai" unicode="&#xe3a;" 
d="M-86 -62q16 0 21.5 -10t3 -21.5t-12.5 -21.5t-26 -10q-15 0 -20.5 10t-3 21.5t12.5 21.5t25 10z" />
    <glyph glyph-name="PUCR2005" unicode="&#xe3e;" 
 />
    <glyph glyph-name="bahtthai" unicode="&#xe3f;" horiz-adv-x="389" 
d="M406 316q-8 -35 -29.5 -57t-54.5 -36q16 -5 26 -11q24 -14 32 -39.5t2 -56.5q-7 -32 -23.5 -54t-36 -36t-38 -20t-28.5 -6h-67l-14 -67h-30l14 67h-107l89 419h107l11 53h30l-11 -53h43q13 0 30.5 -5t31.5 -17t21.5 -32t1.5 -49zM361 308q2 10 1.5 23t-9 24.5t-26.5 19.5
t-51 8h-6l-31 -146h29q24 0 40.5 7t27.5 17.5t17 23t8 23.5zM169 383l-31 -146h71l31 146h-71zM341 119q5 24 0 39.5t-17 24.5t-28.5 13t-33.5 4h-30l-35 -163h49q22 0 38.5 8t28.5 20t18.5 26.5t9.5 27.5zM131 200l-35 -163h71l35 163h-71z" />
    <glyph glyph-name="saraethai" unicode="&#xe40;" horiz-adv-x="191" 
d="M188 54q-5 -25 -25.5 -41.5t-46.5 -16.5t-39 16t-8 41l60 285h29l-50 -235q7 5 14 7t21 2q27 0 38.5 -17.5t6.5 -40.5zM164 55q3 14 -4 24.5t-24 10.5t-28.5 -11t-14.5 -24q-2 -13 4.5 -24.5t23.5 -11.5t28.5 11t14.5 25z" />
    <glyph glyph-name="saraaethai" unicode="&#xe41;" horiz-adv-x="351" 
d="M348 54q-5 -25 -25 -41.5t-47 -16.5q-26 0 -38.5 16t-7.5 41l60 285h29l-50 -235q6 5 13.5 7t21.5 2q27 0 38 -17.5t6 -40.5zM188 54q-5 -25 -25 -41.5t-47 -16.5q-26 0 -38.5 16t-7.5 41l60 285h29l-50 -235q6 5 13.5 7t21.5 2q27 0 38 -17.5t6 -40.5zM324 55
q3 14 -4 24.5t-24 10.5t-28.5 -11t-13.5 -24q-3 -13 3.5 -24.5t23.5 -11.5t28.5 11t14.5 25zM164 55q3 14 -4 24.5t-24 10.5t-28.5 -11t-13.5 -24q-3 -13 3.5 -24.5t23.5 -11.5t28.5 11t14.5 25z" />
    <glyph glyph-name="saraothai" unicode="&#xe42;" horiz-adv-x="214" 
d="M321 537q-24 -15 -40.5 -15.5t-30.5 5t-27.5 12.5t-32.5 7q-21 0 -43 -11q-1 -1 -5 -3q-2 -1 -4 -3q18 -10 33 -17.5t24.5 -18.5t13 -27t-2.5 -43l-3 -14t-8 -36.5t-11.5 -51t-12.5 -58.5l-34 -160q6 5 13.5 7t21.5 2q27 0 38 -17.5t6 -40.5q-5 -25 -25 -41.5t-47 -16.5
q-26 0 -38.5 16t-7.5 41l78 367q4 18 4 30.5t-10 24.5q-8 11 -28 21l-54 27q23 19 51.5 34.5t56.5 15.5q17 0 30.5 -6.5t27 -12t28 -6.5t33.5 9zM192 55q3 14 -4 24.5t-24 10.5t-28.5 -11t-13.5 -24q-3 -13 3.5 -24.5t23.5 -11.5t28.5 11t14.5 25z" />
    <glyph glyph-name="saraaimaimuanthai" unicode="&#xe43;" horiz-adv-x="214" 
d="M223 504l-4 -17.5t-10 -46t-13.5 -64.5t-15.5 -73q-19 -88 -43 -200q6 5 13.5 7t21.5 2q27 0 38 -17.5t6 -40.5q-5 -25 -25.5 -41.5t-46.5 -16.5t-39 16t-8 41q27 126 48 225q9 42 18 82.5t15.5 72.5t11 51.5t4.5 20.5q4 17 -3.5 32t-29.5 15q-13 0 -27 -7.5t-22 -20.5
q-2 -4 8 -1q28 4 38 -12t6 -35q-5 -23 -21.5 -34t-35.5 -11q-26 0 -34 18t-3 44q7 34 33.5 58.5t62.5 24.5q35 0 49.5 -20t7.5 -52zM140 476q2 9 -2 17t-17 8q-12 0 -19.5 -7t-9.5 -16t2 -17t17 -8q12 0 19.5 7t9.5 16zM192 55q3 14 -4 24.5t-24 10.5t-28.5 -11t-13.5 -24
q-3 -13 3.5 -24.5t23.5 -11.5t28.5 11t14.5 25z" />
    <glyph glyph-name="saraaimaimalaithai" unicode="&#xe44;" horiz-adv-x="252" 
d="M267 533l-4 -19t-10.5 -49t-14.5 -68.5t-17 -78.5q-20 -94 -46 -215q6 5 13.5 7t21.5 2q27 0 38 -17.5t6 -40.5q-5 -25 -25 -41.5t-47 -16.5q-26 0 -39 16t-7 41q28 134 51 239q9 45 18.5 87.5t16.5 76t11.5 54.5l4.5 21q1 5 -0.5 9t-6.5 4q-9 0 -13 -9l-63 -131
q-5 -12 -11.5 -16t-13.5 -4q-8 0 -11.5 4.5t-4.5 16.5l-8 128q-1 7 -2.5 12.5t-6.5 10.5l17 16q14 -5 14 -24l9 -133l61 128q9 18 19.5 23.5t23.5 5.5q14 0 22.5 -9.5t3.5 -29.5zM230 55q3 14 -4 24.5t-24 10.5t-28.5 -11t-13.5 -24q-3 -13 3.5 -24.5t23.5 -11.5t28.5 11
t14.5 25z" />
    <glyph glyph-name="lakkhangyaothai" unicode="&#xe45;" horiz-adv-x="295" 
d="M199 -177h-29l91 424q7 35 -12.5 52.5t-53.5 17.5q-31 0 -56 -16t-42 -41l-21 12q20 29 50 49.5t75 20.5q48 0 73 -26t15 -71z" />
    <glyph glyph-name="maiyamokthai" unicode="&#xe46;" horiz-adv-x="355" 
d="M283 -18q-10 -48 -38.5 -73.5t-80.5 -37.5l-2 26q46 11 65 30t27 59l57 268q6 29 -1.5 42.5t-24.5 18.5l-50 -29l-39 29q-28 -12 -41.5 -31t-18.5 -44q-1 -2 -0.5 -3.5t0.5 -3.5v-3q8 10 20.5 16.5t28.5 6.5q25 0 35 -15t6 -35q-5 -19 -22 -35t-41 -16q-35 0 -49.5 26
t-4.5 70q8 35 34.5 61t59.5 35l38 -30l49 30q67 -18 51 -88zM202 203q2 10 -3 18.5t-19 8.5t-23 -8t-11 -19q-2 -10 3 -18.5t19 -8.5t23 8t11 19z" />
    <glyph glyph-name="maitaikhuthai" unicode="&#xe47;" 
d="M80 588q-5 -31 -23 -48t-62 -20q-14 -1 -37 0.5t-43 2.5q-60 3 -69 -44q-2 -9 -2.5 -19t3.5 -24q12 16 26 25.5t31 9.5t28 -8.5t19 -19.5q5 17 19 29.5t34 12.5q21 0 30 -14t5 -31q-3 -17 -18 -30t-35 -13q-17 0 -28 7.5t-20 17t-18 17t-20 7.5q-8 0 -16 -5.5t-16 -13
t-15 -16t-11 -14.5q-7 3 -12.5 11t-9 19t-4 24.5t2.5 25.5q9 38 35.5 54t61.5 15q23 0 46.5 -2.5t43.5 0t33.5 12t17.5 32.5h23zM18 442q2 9 -2.5 16t-15.5 7q-12 0 -19.5 -7.5t-9.5 -16.5t3 -16t16 -7q12 0 19 7.5t9 16.5z" />
    <glyph glyph-name="maiekthai" unicode="&#xe48;" 
d="M70 612h-26l25 116h26z" />
    <glyph glyph-name="maithothai" unicode="&#xe49;" 
d="M178 746q-12 -42 -36.5 -71.5t-56.5 -46.5t-68 -21.5t-70 2.5q19 11 33.5 26.5t24.5 30.5q-4 -3 -9 -4l-10 -2q-20 -2 -32 11t-7 34q4 19 20.5 32.5t38.5 13.5q24 0 33.5 -15t5.5 -33t-11 -32t-15 -24q-9 -11 -19 -20q54 3 95 32.5t56 86.5h27zM20 704q2 9 -2.5 17
t-16.5 8t-19.5 -7.5t-9.5 -16.5t2.5 -16.5t16.5 -7.5q11 0 19 7t10 16z" />
    <glyph glyph-name="maitrithai" unicode="&#xe4a;" 
d="M149 724q-3 -24 -11 -45.5t-24.5 -38.5t-41.5 -26.5t-61 -9.5q11 8 25 25.5t19 35.5q5 16 1.5 30t-21.5 14q-9 0 -18 -6.5t-16 -12.5q-5 8 -11.5 13.5t-16.5 5.5q-21 0 -30 -15t-10 -27q5 7 14 10t16 3q15 0 25 -10t7 -27q-3 -14 -15.5 -26.5t-32.5 -12.5q-25 0 -34 20
t-4 43q4 23 21.5 42.5t42.5 19.5q12 0 21 -4.5t12 -13.5q8 9 16.5 13.5t22.5 4.5q25 0 32.5 -19t0.5 -43q-9 -30 -29 -44q39 11 56.5 38t20.5 62zM-24 642q2 8 -2.5 14.5t-14.5 6.5q-11 0 -17.5 -7t-8.5 -15t2.5 -14t14.5 -6t17 6.5t9 14.5z" />
    <glyph glyph-name="maichattawathai" unicode="&#xe4b;" 
d="M137 658h-67l-12 -55h-26l12 55h-67l5 23h67l11 55h26l-11 -55h67z" />
    <glyph glyph-name="thanthakhatthai" unicode="&#xe4c;" 
d="M197 691q-13 -33 -38.5 -40t-49.5 -4q-32 4 -55.5 0t-33.5 -28q5 8 14.5 11.5t17.5 3.5q20 0 29 -11.5t5 -28.5t-18 -29t-33 -12q-9 0 -18 3t-15.5 9.5t-9 17.5t0.5 27q7 32 34 48t59 13l22.5 -2.5t27 -1t25 6.5t16.5 20zM64 593q2 9 -3 15t-13 6t-15.5 -6t-9.5 -14
q-2 -9 3 -15t13 -6q9 0 16 6t9 14z" />
    <glyph glyph-name="nikhahitthai" unicode="&#xe4d;" 
d="M84 462q-5 -22 -23.5 -40t-47.5 -18t-40 18t-6 40t23 39.5t47 17.5t40.5 -17.5t6.5 -39.5zM60 461q2 14 -4.5 24.5t-23.5 10.5t-28 -10.5t-13 -23.5q-3 -14 3.5 -24.5t23.5 -10.5t28 10.5t14 24.5v-1z" />
    <glyph glyph-name="yamakkanthai" unicode="&#xe4e;" 
d="M61 572q-12 1 -22.5 -4.5t-14.5 -19.5q-4 -12 -1 -20t6 -13q-5 -4 -12.5 -11.5t-10.5 -20.5q-5 -16 3.5 -21t20.5 -7l-7 -26q-24 3 -34.5 18.5t-5.5 36.5q2 5 4.5 9.5t5.5 9.5q3 4 6 7t6 7q-2 5 -4.5 13.5t0.5 19.5q6 22 24 36t43 14z" />
    <glyph glyph-name="fongmanthai" unicode="&#xe4f;" horiz-adv-x="425" 
d="M418 169q-8 -35 -27.5 -65.5t-47.5 -53.5t-61.5 -36.5t-68.5 -13.5t-63 13.5t-46 36.5t-25 53.5t1 65.5q7 35 27 65.5t48 53.5t61.5 36.5t68.5 13.5t63 -13.5t46 -36.5t24.5 -53.5t-0.5 -65.5zM390 169q6 29 0.5 55t-20.5 45.5t-38.5 30.5t-52.5 11t-57.5 -11
t-51.5 -30.5t-40 -45.5t-23 -55t-0.5 -55t21 -45t39 -30t52.5 -11t57 11t51.5 30t40 45t22.5 55zM338 169q-4 -18 -14.5 -34.5t-25 -28.5t-32.5 -19t-36 -7q-37 0 -57.5 26t-12.5 63q4 18 14.5 34.5t25 28.5t32.5 19t36 7q37 0 57.5 -26t12.5 -63zM316 169q6 28 -9.5 48
t-43.5 20t-52 -20t-30 -48t10 -47.5t44 -19.5t51.5 19.5t29.5 47.5z" />
    <glyph glyph-name="zerothai" unicode="&#xe50;" horiz-adv-x="370" 
d="M360 125q-5 -24 -19 -46.5t-36 -40.5t-51.5 -29t-66.5 -11q-38 0 -63 11t-39.5 29t-19 40.5t0.5 45.5q5 24 19 46.5t36 40.5t52 29t67 11t62.5 -11t40 -29t18.5 -40.5t-1 -45.5zM330 124q4 19 0.5 38t-15 33t-32 23t-49.5 9t-52.5 -9t-41.5 -23t-29.5 -32.5t-15.5 -37.5
q-4 -20 -0.5 -38.5t15 -32.5t32 -23t49.5 -9t52.5 9t41.5 23t29.5 32.5t15.5 38.5v-1z" />
    <glyph glyph-name="onethai" unicode="&#xe51;" horiz-adv-x="370" 
d="M351 98q-10 -45 -37.5 -79t-62.5 -57l-13 14q25 18 50.5 49t34.5 73q5 25 1.5 47t-16.5 38t-34 25.5t-51 9.5q-27 0 -50.5 -9.5t-41 -24.5t-28.5 -33.5t-15 -37.5q-4 -17 -1.5 -33t10 -29t20.5 -21t30 -8t34.5 6.5t34.5 23.5q-4 -3 -8 -5t-9 -3t-13 -1q-26 0 -39 16
t-8 40q5 21 24 39.5t47 18.5q34 0 45 -20.5t5 -46.5q-4 -19 -15 -36.5t-26.5 -30.5t-35 -20.5t-41.5 -7.5q-23 0 -40.5 9t-28.5 24.5t-14.5 37t1.5 47.5q6 29 22.5 53.5t39.5 42t50 27.5t56 10q69 0 103 -40t20 -108zM230 99q3 12 -2.5 22.5t-22.5 10.5q-16 0 -26 -9.5
t-13 -21.5q-2 -12 3.5 -22.5t21.5 -10.5q17 0 27 9.5t12 21.5z" />
    <glyph glyph-name="twothai" unicode="&#xe52;" horiz-adv-x="415" 
d="M393 72q-7 -34 -27.5 -53t-67.5 -19h-139q-62 0 -78.5 24.5t-5.5 74.5l37 175q4 16 4.5 32.5t-10.5 27.5l25 18q22 -16 14 -57l-42 -198q-8 -34 4.5 -53.5t54.5 -19.5h141q32 0 45 12.5t18 35.5l20 94q2 8 2.5 17t-2 16.5t-9 12.5t-18.5 5q-8 0 -17 -5t-18.5 -12.5
t-18 -17t-14.5 -17.5q-5 17 -16.5 34.5t-31.5 17.5q-16 0 -28 -6.5t-20 -16t-13 -20t-7 -18.5q18 26 44 26q27 0 37 -16.5t5 -37.5q-5 -20 -22 -36t-43 -16t-40.5 18t-8.5 47q9 48 35.5 73.5t63.5 25.5q21 0 33.5 -10.5t19.5 -28.5q12 17 31 28t39 11q16 0 26.5 -6.5
t15.5 -16t6 -20t-1 -18.5zM237 128q3 11 -2.5 20.5t-20.5 9.5t-24.5 -9.5t-11.5 -20.5t3.5 -19.5t19.5 -8.5t24 8.5t12 19.5z" />
    <glyph glyph-name="threethai" unicode="&#xe53;" horiz-adv-x="415" 
d="M396 120q-7 -33 -20 -66.5t-27 -53.5h-29q14 19 27.5 53.5t20.5 66.5q4 18 5.5 36.5t-2.5 33t-13 24t-26 9.5q-15 0 -26.5 -8.5t-20 -21t-14 -27t-8.5 -26.5l-30 -140h-29l30 140q3 13 2.5 27.5t-6 27t-16 20.5t-28.5 8q-23 0 -39.5 -13t-28 -31.5t-18 -40t-7.5 -37.5
l-1 -16q13 9 22 14t24 5q27 0 37.5 -16.5t5.5 -36.5q-4 -20 -21 -37t-49 -17t-42.5 33.5t3.5 102.5q5 22 15.5 42.5t26 36t35.5 25t43 9.5q36 0 50.5 -17.5t14.5 -39.5q10 22 32 39.5t48 17.5q24 0 38 -10.5t20.5 -28.5t6 -40.5t-5.5 -46.5zM157 50q2 13 -4.5 22t-19.5 9
t-24 -9t-13 -21q-3 -13 4 -22t20 -9t23.5 9t13.5 21z" />
    <glyph glyph-name="fourthai" unicode="&#xe54;" horiz-adv-x="415" 
d="M481 374q-8 -30 -21 -59.5t-32.5 -52.5t-47 -37.5t-63.5 -14.5q-20 0 -49 2t-51 2q-18 0 -39.5 -4.5t-41 -15.5t-35 -29.5t-21.5 -45.5q-10 -48 14 -71.5t62 -23.5q20 0 47.5 3t50.5 5q-20 7 -37 17.5t-29 20.5q-11 9 -19 21t-3 32t22 35.5t44 15.5t36.5 -16.5t5.5 -34.5
q-1 -6 -5.5 -14t-11 -15.5t-14 -12t-15.5 -4.5q15 -12 31.5 -19t34 -12t34.5 -11t32 -16l-15 -21q-15 11 -38.5 12.5t-50 -1.5t-54 -7t-51.5 -4q-26 0 -47.5 7.5t-35 22.5t-18 38t2.5 54q6 28 21 50.5t37 38.5t50.5 24.5t61.5 8.5q20 0 34.5 -0.5t26.5 -1.5t22.5 -1.5
t22.5 -0.5q25 0 45 12t35.5 32t26.5 45t17 51zM250 123q3 13 -4 21.5t-19 8.5t-23 -8t-14 -21q-2 -14 5 -22t19 -8q13 0 23.5 8.5t12.5 20.5z" />
    <glyph glyph-name="fivethai" unicode="&#xe55;" horiz-adv-x="415" 
d="M481 374q-8 -30 -21 -59.5t-32.5 -52.5t-47 -37.5t-63.5 -14.5q-20 0 -49 2t-51 2q-18 0 -39.5 -4.5t-41 -15.5t-35 -29.5t-21.5 -45.5q-10 -48 14 -71.5t62 -23.5q20 0 47.5 3t50.5 5q-20 7 -37 17.5t-29 20.5q-11 9 -19 21t-3 32t22 35.5t44 15.5t36.5 -16.5t5.5 -34.5
q-1 -6 -5.5 -14t-11 -15.5t-14 -12t-15.5 -4.5q15 -12 31.5 -19t34 -12t34.5 -11t32 -16l-15 -21q-15 11 -38.5 12.5t-50 -1.5t-54 -7t-51.5 -4q-26 0 -47.5 7.5t-35 22.5t-18 38t2.5 54q11 52 51.5 84t98.5 37q-8 12 -3 30q5 26 25.5 39t40.5 13t33.5 -13t8.5 -39
q-2 -7 -6 -15.5t-12 -15.5q10 -1 19 -1.5t20 -0.5q25 0 45 12t35.5 32t26.5 45t17 51zM283 270q3 13 -3.5 21.5t-19.5 8.5q-12 0 -23 -8t-14 -21q-2 -14 5 -22t20 -8q12 0 22.5 8.5t12.5 20.5zM250 123q3 13 -4 21.5t-19 8.5t-23 -8t-14 -21q-2 -14 5 -22t19 -8
q13 0 23.5 8.5t12.5 20.5z" />
    <glyph glyph-name="sixthai" unicode="&#xe56;" horiz-adv-x="353" 
d="M338 125q-12 -57 -57 -92.5t-114 -35.5q-18 0 -35 5.5t-29 16t-17.5 25.5t-1.5 33q5 24 27 40t44 16q29 0 40.5 -18.5t6.5 -39.5q-3 -15 -14.5 -29.5t-31.5 -19.5q24 -6 48.5 -2t46 17t37.5 34t22 50q5 25 0.5 44t-16 32t-29 19.5t-36.5 6.5q-12 0 -27 -2.5t-30 -7
t-28.5 -10.5t-22.5 -12q1 16 0.5 38t-2.5 45t-6.5 45t-10.5 37l24 11q5 -13 9.5 -30.5t7 -36.5t4 -37t0.5 -32q23 8 45 13t43 5q59 0 87 -34t16 -94zM178 75q2 13 -4 23.5t-23 10.5t-28 -10.5t-13 -23.5q-3 -13 3.5 -23.5t23.5 -10.5t27.5 10.5t13.5 23.5z" />
    <glyph glyph-name="seventhai" unicode="&#xe57;" horiz-adv-x="415" 
d="M482 345q-6 -6 -12 -14t-12 -22t-12.5 -35t-13.5 -53q-5 -23 -9 -41.5t-8 -33.5t-9.5 -27.5t-13.5 -24.5q-20 -30 -47 -55.5t-68 -46.5l-19 17q8 7 16.5 22t16.5 32t14.5 34.5t9.5 30.5q3 14 3 28.5t-4 26t-13.5 19t-24.5 7.5q-12 0 -22 -6t-18 -15t-13.5 -19.5
t-8.5 -18.5h-20q1 9 -0.5 19t-6 19t-12 15t-19.5 6q-19 0 -32.5 -8.5t-23.5 -22.5t-16.5 -31.5t-10.5 -35.5q-2 -10 -3.5 -22.5t-1.5 -20.5q11 16 23 24t33 8q26 0 36 -15.5t6 -35.5q-5 -20 -21.5 -37t-46.5 -17q-34 0 -47 33.5t-1 88.5q11 52 40 82.5t71 30.5
q17 0 27.5 -6.5t15.5 -14.5q6 -9 8 -20q8 13 24.5 27t44.5 14q41 0 55 -26.5t3 -74.5q-5 -22 -12.5 -41t-15.5 -33q-9 -17 -18 -32q32 24 50 43t31 42q12 22 20 56t16.5 71t20.5 70.5t32 53.5zM143 47q3 14 -4.5 23t-20.5 9q-14 0 -25 -9t-14 -23t4.5 -23t20.5 -9q14 0 25 9
t14 23z" />
    <glyph glyph-name="eightthai" unicode="&#xe58;" horiz-adv-x="415" 
d="M458 361q-5 -40 -11 -70.5t-18 -51.5t-34.5 -31.5t-60.5 -10.5q-10 0 -24.5 1.5t-30 4t-30.5 4t-26 1.5q-21 0 -41.5 -5.5t-38 -17t-30 -28.5t-17.5 -39q-5 -25 1 -47.5t17 -42.5q-1 10 1.5 22.5t8 24t14 20.5t20.5 12q21 6 36 -6.5t29 -30t29 -33.5t35 -16q26 0 43 14
t20 35q-21 -21 -47 -21q-24 0 -36.5 16.5t-7.5 40.5q5 26 26 41.5t45 15.5q18 0 29.5 -7t16.5 -19t5.5 -27.5t-3.5 -32.5q-8 -41 -34.5 -60.5t-61.5 -19.5q-25 0 -43 14.5t-32 31t-25 29.5t-22 10q-13 -4 -19.5 -30t-2.5 -52h-36q-20 27 -29.5 56t-2.5 60q12 57 55 88
t104 31q40 0 64.5 -6t46.5 -6q26 0 42 7.5t25.5 24t14 42.5t8.5 64h28zM352 106q2 13 -4 23.5t-23 10.5t-28 -10.5t-13 -23.5q-3 -13 3 -23.5t23 -10.5t28 10.5t14 23.5z" />
    <glyph glyph-name="ninethai" unicode="&#xe59;" horiz-adv-x="375" 
d="M409 361q1 -13 0.5 -41.5t-6 -58t-17.5 -51.5t-34 -22q-9 0 -17.5 3t-16 6.5t-14.5 6t-14 0.5q-13 -4 -14.5 -16.5t5.5 -31.5l55 -150l-29 -11l-60 164q-11 29 -34.5 39.5t-49 4.5t-47.5 -27t-29 -54q-6 -29 2 -56.5t24 -36.5q-3 5 -5.5 12t-0.5 17q5 24 25.5 40t45.5 16
q28 0 40 -17.5t7 -40.5q-5 -22 -25 -41t-53 -19q-29 0 -48.5 11t-30 28.5t-12.5 40t3 45.5q8 37 33.5 64.5t56 39t60.5 5.5t48 -35q-1 17 9.5 25t16.5 10q8 3 18 1.5t20 -5t18 -7t13 -3.5q12 0 18.5 20t9.5 45t3 48.5t-1 31.5h27zM200 56q2 13 -4 23.5t-23 10.5t-28 -10.5
t-13 -23.5q-3 -13 3.5 -23.5t23.5 -10.5t27.5 10.5t13.5 23.5z" />
    <glyph glyph-name="angkhankhuthai" unicode="&#xe5a;" horiz-adv-x="439" 
d="M389 83q-8 -33 -23 -55t-43 -37l-8 24q20 11 30 28t16 44l52 245h29zM296 103q-10 -47 -37.5 -72.5t-81.5 -39.5l-2 27q24 6 39.5 13t26 17.5t16.5 24.5t11 34l27 126q-24 -38 -59.5 -56t-64.5 -18q-32 0 -55.5 17t-27.5 48q-2 14 2 33.5t14.5 37.5t27.5 31t42 13
q29 0 39.5 -18t5.5 -38t-22.5 -36.5t-41.5 -16.5q-7 0 -19.5 3t-18.5 13q-3 -15 1 -26t13 -18.5t21 -11.5t25 -4q23 0 45 12.5t41 33t33 46.5t20 54h29zM199 283q3 14 -4 24.5t-24 10.5t-28.5 -11t-13.5 -24q-3 -14 4.5 -24t24.5 -10t27.5 10t13.5 24z" />
    <glyph glyph-name="khomutthai" unicode="&#xe5b;" horiz-adv-x="828" 
d="M625 156q-11 -11 -22.5 -20t-23.5 -16q0 9 -2 21.5t-6.5 25t-11 23t-15.5 15.5q-3 -17 -14.5 -36.5t-28 -37.5t-35.5 -32t-37 -18q4 19 3.5 38.5t-5.5 37.5t-16 33t-28 24v-10t-1 -4t-1 -3.5t-1 -3.5q-6 -29 -25 -58.5t-45 -52.5t-56.5 -37.5t-61.5 -14.5q-30 0 -54 10.5
t-39 29.5t-20.5 44.5t0.5 54.5q6 26 19 47.5t30.5 37.5t38 26.5t40.5 15.5q19 4 36.5 2.5t29 -9.5t16 -23t-0.5 -37q-2 -6 -5.5 -14t-11 -15.5t-19 -13t-27.5 -6.5q-22 -1 -32.5 13.5t-8.5 32.5t18 33.5t47 16.5q-21 6 -43.5 0t-42.5 -21t-35 -37t-21 -49
q-11 -53 16.5 -82.5t75.5 -29.5q25 0 50.5 12.5t46.5 32t36 43.5t20 48q7 32 -2 60q51 -3 80.5 -38t31.5 -88q12 6 24 20t21.5 30t15.5 33t8 29q17 -3 29 -11.5t20 -19.5t12.5 -23.5t6.5 -24.5q8 4 15.5 10.5t11.5 13.5h191l-6 -28h-186zM229 197q15 0 24.5 9.5t12 21t-3 21
t-20.5 9.5t-24.5 -9.5t-12 -21t3 -21t20.5 -9.5z" />
    <glyph glyph-name="ZWSP" unicode="&#x200b;" 
 />
    <glyph glyph-name="endash" unicode="&#x2013;" horiz-adv-x="500" 
d="M516 143h-473l6 25h473z" />
    <glyph glyph-name="emdash" unicode="&#x2014;" horiz-adv-x="1000" 
d="M1014 143h-971l6 25h971z" />
    <glyph glyph-name="quoteleft" unicode="&#x2018;" horiz-adv-x="130" 
d="M173 390q-21 -8 -29.5 -26.5t-10.5 -36.5h27l-13 -57h-50l13 60q5 26 14.5 41t19.5 23q8 6 16 9.5t17 6.5z" />
    <glyph glyph-name="quoteright" unicode="&#x2019;" horiz-adv-x="130" 
d="M165 352q-5 -26 -14.5 -41t-19.5 -23q-8 -6 -16 -9.5t-17 -6.5l4 20q21 8 29.5 26.5t10.5 36.5h-27l13 57h50z" />
    <glyph glyph-name="quotedblleft" unicode="&#x201c;" horiz-adv-x="194" 
d="M256 391q-21 -8 -30 -25t-11 -37v-2h27l-13 -57h-50l13 60q5 26 14.5 41t20.5 23q8 6 16 9.5t17 6.5zM163 390q-21 -8 -29.5 -26.5t-10.5 -36.5h27l-13 -57h-50l13 60q5 26 14.5 41t19.5 23q8 6 16 9.5t17 6.5z" />
    <glyph glyph-name="quotedblright" unicode="&#x201d;" horiz-adv-x="194" 
d="M249 352q-5 -26 -14.5 -41t-19.5 -23q-8 -6 -16 -9.5t-17 -6.5l4 20q21 8 29.5 26.5t10.5 36.5h-27l13 57h50zM157 352q-5 -26 -14.5 -41t-20.5 -23q-8 -6 -16 -9.5t-17 -6.5l4 19q22 9 30.5 26.5t10.5 37.5h-27l13 57h50z" />
    <glyph glyph-name="bullet" unicode="&#x2022;" horiz-adv-x="170" 
d="M139 254q28 0 44.5 -12.5t21.5 -31.5t0.5 -41t-18 -41t-35 -31.5t-49.5 -12.5t-44.5 12.5t-21.5 31.5t-0.5 41t18 41t35 31.5t49.5 12.5z" />
    <glyph glyph-name="Euro" unicode="&#x20ac;" horiz-adv-x="476" 
d="M478 155q-15 -35 -36.5 -64.5t-48.5 -51t-58 -33t-65 -11.5q-39 1 -65.5 14.5t-43 35t-24 49.5t-8.5 58h-69l7 32h64q2 11 2.5 17.5t2.5 12.5q3 14 10 36h-65l7 32h71q13 28 31.5 55t43.5 48t57 33.5t72 12.5q63 0 97.5 -34t40.5 -94h-42q-5 42 -29.5 68t-71.5 26
q-50 0 -90.5 -30.5t-68.5 -83.5h138l-7 -32h-144q-4 -12 -6 -20.5t-4 -16.5q-2 -6 -2.5 -13t-2.5 -16h145l-7 -32h-140q3 -58 31.5 -90.5t79.5 -32.5t89 31.5t68 93.5h41v0z" />
    <glyph glyph-name="trademark" unicode="&#x2122;" horiz-adv-x="489" 
d="M473 195l44 206l-115 -206h-25l-28 206l-44 -206h-24l49 230h38l27 -206l114 206h37l-49 -230h-24zM211 405l-45 -210h-24l45 210h-78l5 20h178l-4 -20h-77z" />
    <glyph glyph-name="uni25CC" unicode="&#x25cc;" horiz-adv-x="670" 
d="M259 179l-48 -15l17 47q13 -19 31 -32zM312 413l23 45l22 -44q-11 1 -21 1q-12 0 -24 -2zM355 156l-20 -42l-21 42q11 -2 22 -2q10 0 19 2zM465 307l42 -22l-42 -19q2 9 2 19q0 11 -2 22zM208 264l-45 23l45 22q-2 -12 -2 -24q0 -11 2 -21zM231 363l-13 46l45 -16
q-19 -12 -32 -30zM440 205l12 -41l-41 13q17 12 29 28zM410 393l49 16l-17 -47q-13 18 -32 31z" />
    <glyph glyph-name="thothannobasethai" unicode="&#xf700;" horiz-adv-x="322" 
d="M374 295q-27 -10 -46 -8t-34.5 8t-31.5 13t-38 7q-16 0 -34 -8t-29 -22q16 -4 33 -8q14 -4 29.5 -7.5t26.5 -6.5q24 -6 36 -18t15.5 -26.5t1.5 -30.5t-5 -30q-5 -22 -7.5 -34.5t-4.5 -21t-3.5 -15t-3.5 -17t-5.5 -27t-9.5 -43.5h-38q-2 23 -6 45.5t-8 39.5q-4 20 -10 37
q-19 -30 -58 -30q-22 0 -37.5 15t-9.5 42q5 25 24 42t47 17q19 0 33 -10.5t19 -28.5q5 -13 10 -30q4 -14 8.5 -35.5t8.5 -47.5l23 108q4 21 3 34.5t-7.5 22t-18 13.5t-27.5 9q-31 8 -63.5 16t-47.5 10q21 27 52.5 49.5t66.5 22.5q23 0 40 -6.5t33 -13t33 -9t39 5.5v-12
t1 -11zM192 149q2 13 -4.5 24t-23.5 11t-28.5 -10.5t-14.5 -24.5t4 -24.5t24 -10.5t28.5 10.5t14.5 24.5z" />
    <glyph glyph-name="saraileftthai" unicode="&#xf701;" 
d="M-46 395q-27 10 -56.5 18t-60.5 11q-35 4 -73 3t-76 -6q10 23 29.5 44t42.5 36t48.5 22t49.5 4q28 -4 46.5 -15.5t29.5 -28.5t15.5 -39.5t4.5 -48.5zM-75 424q-5 35 -23 54.5t-57 24.5q-14 1 -29.5 -2.5t-31 -11t-28.5 -19t-21 -24.5q21 3 45.5 4t49.5 -1t49.5 -8
t45.5 -17z" />
    <glyph glyph-name="saraiileftthai" unicode="&#xf702;" 
d="M-50 441q2 -11 3 -22.5t1 -23.5q-27 10 -56.5 18t-60.5 11q-35 4 -73 3t-76 -6q10 23 29.5 44t42.5 36t48.5 22t49.5 4q27 -4 45 -14t29 -26l17 80h28zM-75 424q-5 35 -23 54.5t-57 24.5q-14 1 -29.5 -2.5t-31 -11t-28.5 -19t-21 -24.5q21 3 45.5 4t49.5 -1t49.5 -8
t45.5 -17z" />
    <glyph glyph-name="saraueleftthai" unicode="&#xf703;" 
d="M-15 521q-3 -16 -14.5 -30t-30.5 -19q8 -16 11 -35.5t3 -41.5q-27 10 -56.5 18t-60.5 11q-35 4 -73 3t-76 -6q10 23 29.5 44t42.5 36t48.5 22t49.5 4q11 -1 24 -5q5 19 21 34.5t42 15.5t35.5 -15.5t4.5 -35.5zM-39 521q2 10 -3 18.5t-19 8.5t-22.5 -8.5t-10.5 -18.5
q-2 -11 3 -19.5t19 -8.5t22.5 8.5t10.5 19.5zM-75 424q-5 35 -23 54.5t-57 24.5q-14 1 -29.5 -2.5t-31 -11t-28.5 -19t-21 -24.5q21 3 45.5 4t49.5 -1t49.5 -8t45.5 -17z" />
    <glyph glyph-name="saraueeleftthai" unicode="&#xf704;" 
d="M-50 441q2 -11 3 -22.5t1 -23.5q-27 10 -56.5 18t-60.5 11q-35 4 -73 3t-76 -6q10 23 29.5 44t42.5 36t48.5 22t49.5 4q2 0 4 -0.5t4 -0.5l9 41h27l-11 -49q26 -10 41 -31l17 80h28zM-75 424q-5 35 -23 54.5t-57 24.5q-14 1 -29.5 -2.5t-31 -11t-28.5 -19t-21 -24.5
q21 3 45.5 4t49.5 -1t49.5 -8t45.5 -17z" />
    <glyph glyph-name="maieklowleftthai" unicode="&#xf705;" 
d="M-62 407h-26l29 137h26z" />
    <glyph glyph-name="maitholowleftthai" unicode="&#xf706;" 
d="M47 550q-8 -31 -26.5 -58t-44 -47.5t-55.5 -32t-61 -11.5q-14 0 -32.5 1t-32.5 5q22 10 39 28t27 33q-4 -3 -9 -4l-10 -2q-20 -2 -32 10.5t-7 34.5q4 19 20.5 32.5t37.5 13.5q25 0 34 -15.5t5 -32.5q-5 -22 -17.5 -44.5t-33.5 -38.5q9 0 20 0.5t22 3.5q45 11 79.5 42
t48.5 82h28zM-125 506q2 9 -2 17t-16 8t-19.5 -7.5t-9.5 -16.5t2.5 -16.5t16.5 -7.5q11 0 18.5 7t9.5 16z" />
    <glyph glyph-name="maitrilowleftthai" unicode="&#xf707;" 
d="M30 542q-3 -23 -11.5 -48t-25.5 -45t-43.5 -33t-65.5 -12q16 9 31 31t19 39q3 16 0 32t-22 16q-17 0 -28.5 -8.5t-19.5 -19.5q-3 11 -10.5 19.5t-26.5 8.5q-15 0 -25 -6.5t-16 -15.5t-8.5 -18t-3.5 -15q5 6 15 9t17 3q16 0 26 -10t6 -27q-3 -14 -15.5 -26.5t-32.5 -12.5
q-24 0 -34 20t-5 43q3 12 8 26t14.5 25t23.5 18.5t34 7.5q14 0 25 -5.5t14 -16.5q8 10 19.5 16t28.5 6q28 0 35.5 -18.5t3.5 -42.5q-3 -17 -10.5 -32.5t-21.5 -26.5q21 7 36 20t24.5 29t14.5 34t7 36h23zM-180 441q2 8 -3 14.5t-15 6.5q-11 0 -17.5 -7t-8.5 -15t3 -14t15 -6
t17 6.5t9 14.5z" />
    <glyph glyph-name="maichattawalowleftthai" unicode="&#xf708;" 
d="M-10 467h-65l-12 -60h-26l12 60h-65l5 23h65l13 60h26l-13 -60h65z" />
    <glyph glyph-name="thanthakhatlowleftthai" unicode="&#xf709;" 
d="M100 581q-5 -20 -18.5 -32t-30.5 -19t-35.5 -10t-33.5 -4q-24 -2 -43.5 -5t-28.5 -14q9 4 19 2.5t18 -7.5t12.5 -16t1.5 -23q-5 -22 -21.5 -35.5t-39.5 -13.5q-25 0 -36 15.5t-6 36.5q5 23 19.5 40.5t42.5 28.5q22 9 46.5 11t46.5 5t38.5 11t23.5 29h25zM-63 452
q2 11 -4 19t-17 8t-21 -8t-12 -19t4 -19t17 -8t21 8t12 19z" />
    <glyph glyph-name="maieklowrightthai" unicode="&#xf70a;" 
d="M27 407h-26l29 137h26z" />
    <glyph glyph-name="maitholowrightthai" unicode="&#xf70b;" 
d="M92 550q-8 -31 -26.5 -58t-44 -47.5t-55.5 -32t-61 -11.5q-14 0 -32 1t-32 5q21 10 38 28t27 33q-4 -3 -8.5 -4t-9.5 -2q-20 -2 -32.5 10.5t-7.5 34.5q4 19 20.5 32.5t38.5 13.5q25 0 33.5 -15.5t4.5 -32.5q-5 -22 -17.5 -44.5t-33.5 -38.5q9 0 20 0.5t22 3.5
q45 11 80 42t48 82h28zM-79 506q2 9 -2.5 17t-16.5 8t-19.5 -7.5t-9.5 -16.5t2.5 -16.5t16.5 -7.5q11 0 19 7t10 16z" />
    <glyph glyph-name="maitrilowrightthai" unicode="&#xf70c;" 
d="M90 542q-3 -23 -12 -48t-26 -45t-44 -33t-66 -12q16 9 31 31t19 39q3 16 0 32t-22 16q-17 0 -28.5 -8.5t-19.5 -19.5q-3 11 -10.5 19.5t-26.5 8.5q-15 0 -25 -6.5t-16 -15.5t-8.5 -18t-2.5 -15q5 6 14.5 9t16.5 3q16 0 26 -10t6 -27q-2 -14 -15 -26.5t-33 -12.5
q-24 0 -34 20t-5 43q3 12 8.5 26t15 25t23 18.5t33.5 7.5q14 0 25 -5.5t14 -16.5q8 10 19.5 16t28.5 6q29 0 36.5 -18.5t2.5 -42.5q-3 -17 -10.5 -32.5t-21.5 -26.5q22 7 37.5 20t25.5 29t15 34t7 36h22zM-122 441q2 8 -2.5 14.5t-14.5 6.5q-11 0 -18 -7t-9 -15t3 -14t15 -6
t17 6.5t9 14.5z" />
    <glyph glyph-name="maichattawalowrightthai" unicode="&#xf70d;" 
d="M33 467h-65l-12 -60h-26l12 60h-65l5 23h65l13 60h26l-13 -60h65z" />
    <glyph glyph-name="thanthakhatlowrightthai" unicode="&#xf70e;" 
d="M120 581q-5 -20 -18.5 -32t-30.5 -19t-35.5 -10t-33.5 -4q-24 -2 -43.5 -5t-28.5 -14q9 4 19 2.5t18 -7.5t12.5 -16t1.5 -23q-5 -22 -21.5 -35.5t-39.5 -13.5q-25 0 -36 15.5t-6 36.5q5 23 19.5 40.5t42.5 28.5q22 9 46.5 11t46.5 5t38.5 11t23.5 29h25zM-43 452
q2 11 -4 19t-17 8t-21 -8t-12 -19t4 -19t17 -8t21 8t12 19z" />
    <glyph glyph-name="yoyingnobasethai" unicode="&#xf70f;" horiz-adv-x="493" 
d="M447 51q-5 -23 -20.5 -37t-47.5 -14h-169l6 27h42l47 220q4 19 -1 32t-15.5 21.5t-25.5 12t-31 3.5q-48 0 -92 -26q18 -4 35 -17t26 -22q-26 -7 -45.5 -25t-27.5 -50l-15 -74q6 5 13 7t21 2q27 0 38 -17.5t6 -40.5q-5 -25 -25.5 -41.5t-46.5 -16.5t-39 16t-8 41l27 127
q5 20 17.5 41t35.5 31q-8 7 -26 15.5t-40 12.5q30 29 69 46.5t83 17.5q50 0 78 -23.5t18 -72.5l-47 -221h94q19 0 26.5 7.5t9.5 18.5l61 286h30zM167 54q2 14 -4.5 24.5t-23.5 10.5t-28.5 -11t-14.5 -24q-2 -13 4.5 -24.5t23.5 -11.5t28.5 11t14.5 25z" />
    <glyph glyph-name="maihanakatleftthai" unicode="&#xf710;" 
d="M170 524q-23 -44 -68.5 -79.5t-108.5 -40.5q-20 -2 -43 2.5t-42 14t-30.5 25.5t-6.5 38q5 20 22 38t45 18q26 0 36.5 -17.5t6.5 -35.5q-4 -17 -14 -30t-28 -19q27 -9 56.5 -7t57 14t52 34t40.5 54zM-40 485q2 14 -5 23.5t-21 9.5t-26 -9.5t-14 -23.5q-3 -14 4.5 -23.5
t21.5 -9.5t25.5 9.5t14.5 23.5z" />
    <glyph glyph-name="nikhahitleftthai" unicode="&#xf711;" 
d="M-32 462q-5 -22 -23 -40t-47 -18t-40.5 18t-6.5 40t23.5 39.5t47.5 17.5t40 -17.5t6 -39.5zM-56 461q3 14 -3.5 24.5t-23.5 10.5t-28 -10.5t-14 -23.5q-2 -14 4.5 -24.5t23.5 -10.5t28 10.5t13 24.5v-1z" />
    <glyph glyph-name="maitaikhuleftthai" unicode="&#xf712;" 
d="M13 588q-5 -31 -23 -48t-62 -20q-14 -1 -37 0.5t-43 2.5q-60 3 -69 -44q-2 -9 -2.5 -19t3.5 -24q12 16 26 25.5t31 9.5t28 -8.5t19 -19.5q5 17 19 29.5t34 12.5q21 0 30 -14t5 -31q-3 -17 -18 -30t-35 -13q-17 0 -28 7.5t-20 17t-18 17t-20 7.5q-8 0 -16 -5.5t-16 -13
t-15 -16t-11 -14.5q-7 3 -12.5 11t-9 19t-4 24.5t2.5 25.5q9 38 35.5 54t61.5 15q23 0 46.5 -2.5t43.5 0t33.5 12t17.5 32.5h23zM-49 442q2 9 -2.5 16t-15.5 7q-12 0 -19.5 -7.5t-9.5 -16.5t3 -16t16 -7q12 0 19 7.5t9 16.5z" />
    <glyph glyph-name="maiekupperleftthai" unicode="&#xf713;" 
d="M-16 607h-26l27 126h26z" />
    <glyph glyph-name="maithoupperleftthai" unicode="&#xf714;" 
d="M133 754q-8 -31 -26.5 -58t-43.5 -47.5t-55 -32t-61 -11.5q-14 0 -32.5 1t-32.5 5q22 10 39 28t27 33q-5 -3 -9.5 -4t-9.5 -2q-20 -2 -32.5 10.5t-7.5 34.5q5 19 21.5 32.5t37.5 13.5q25 0 34 -15.5t5 -32.5q-5 -22 -17.5 -44.5t-33.5 -38.5q8 0 19.5 0.5t22.5 3.5
q45 11 79.5 42t47.5 82h28zM-38 710q2 9 -2 17t-17 8q-12 0 -19.5 -7.5t-9.5 -16.5t2.5 -16.5t16.5 -7.5t19.5 7t9.5 16z" />
    <glyph glyph-name="maitriupperleftthai" unicode="&#xf715;" 
d="M112 726q-3 -23 -12.5 -45t-26.5 -39t-43.5 -27t-62.5 -10q11 8 26 24t20 36q4 16 2.5 32t-19.5 16q-8 0 -20.5 -7.5t-20.5 -17.5q-4 10 -12 17.5t-22 7.5q-11 0 -18 -5t-12 -12t-7.5 -14.5t-2.5 -13.5q5 6 14.5 9t16.5 3q16 0 26 -10t6 -27q-3 -14 -15.5 -26.5
t-32.5 -12.5q-25 0 -34.5 20t-4.5 43q5 25 20.5 46t46.5 21q12 0 23 -5.5t14 -16.5q7 11 19 16.5t23 5.5q25 0 32.5 -20t-0.5 -47q-9 -28 -26 -43q45 15 61.5 41t19.5 61h22zM-75 642q2 8 -2.5 14.5t-14.5 6.5q-11 0 -17.5 -7t-8.5 -15t2.5 -14t14.5 -6t17 6.5t9 14.5z" />
    <glyph glyph-name="maichattawaupperleftthai" unicode="&#xf716;" 
d="M60 660h-65l-11 -55h-26l11 55h-65l5 23h65l12 55h26l-12 -55h65z" />
    <glyph glyph-name="thanthakhatupperleftthai" unicode="&#xf717;" 
d="M153 731q-5 -20 -18 -32t-30 -19t-35.5 -10t-33.5 -4q-24 -2 -43.5 -5t-28.5 -14q9 4 19 2.5t18 -7.5t12.5 -16t1.5 -23q-5 -22 -21.5 -35.5t-39.5 -13.5q-25 0 -36 15.5t-6 36.5q9 49 61 69q23 9 47.5 11t46.5 5t38.5 11t23.5 29h24zM-9 602q2 11 -4 19t-17 8t-21 -8
t-12 -19t4 -19t17 -8t21 8t12 19z" />
    <glyph glyph-name="saraulowthai" unicode="&#xf718;" 
d="M-141 -389h-29l18 85q-5 -2 -12 -3t-13 -1q-26 0 -36 16.5t-5 36.5t21 36.5t43 16.5q23 0 35 -13t7 -39zM-134 -256q2 12 -3.5 22t-21.5 10q-15 0 -25 -10t-12 -22q-2 -11 3.5 -21t20.5 -10q16 0 25.5 10t12.5 21z" />
    <glyph glyph-name="sarauulowthai" unicode="&#xf719;" 
d="M-131 -346q-5 -26 -25 -38.5t-43 -12.5t-39 13.5t-11 37.5l10 43q-14 -5 -26 -5q-26 0 -36.5 16.5t-5.5 36.5t21.5 36.5t43.5 16.5q23 0 35 -13t7 -39q0 -1 -2.5 -12.5t-5.5 -26.5t-6 -29t-4 -20q-4 -17 4.5 -23.5t19.5 -6.5t21.5 7t13.5 22l29 137h29zM-222 -256
q2 12 -3.5 22t-21.5 10q-15 0 -25 -10t-12 -22q-2 -11 3.5 -21t20.5 -10q16 0 25.5 10t12.5 21z" />
    <glyph glyph-name="phinthulowthai" unicode="&#xf71a;" 
d="M-129 -192q14 0 19 -9t3 -19.5t-11 -19t-23 -8.5t-20 8.5t-4 19t11 19.5t25 9z" />
    <glyph glyph-name="lochula.short" unicode="&#xf71d;" horiz-adv-x="432" 
d="M373 0h-36q2 11 2.5 19t-1.5 19l-42 209l-139 -208q-6 -9 -9.5 -19t-6.5 -20h-33l49 232q-6 -5 -13.5 -7t-21.5 -2q-27 0 -38 17.5t-6 40.5q5 25 25.5 41.5t46.5 16.5t39 -16t8 -41l-42 -196l155 230l52 -233l43 203q-29 -6 -45 8.5t-10 43.5q4 20 20.5 35t42.5 15
q25 0 35.5 -15t6.5 -35q-1 -6 -5 -12q-2 -3 -4 -5q18 11 31.5 22t25.5 30l19 -13q-14 -23 -36 -41.5t-51 -26.5zM433 337q2 12 -3 21.5t-22 9.5q-16 0 -25.5 -9.5t-11.5 -21.5t3 -21.5t21 -9.5t26 9.5t12 21.5zM173 280q2 13 -4.5 24.5t-23.5 11.5t-28.5 -11t-14.5 -25
q-2 -14 4.5 -24.5t23.5 -10.5t28.5 11t14.5 24z" />
    <glyph glyph-name="rulakkhangyao" unicode="&#xf881;" horiz-adv-x="555" 
d="M430 -177l91 425q7 35 -12.5 52.5t-52.5 17.5q-31 0 -56 -15t-42 -38q0 -5 -0.5 -9t-1.5 -9l-91 -424h-29l91 424q4 19 -2.5 32t-19 21.5t-29.5 12t-33 3.5q-24 0 -52.5 -6.5t-50.5 -19.5q17 -5 34.5 -17.5t26.5 -21.5q-26 -7 -45.5 -25t-27.5 -50l-15 -74q6 5 13 7t21 2
q27 0 38 -17.5t6 -40.5q-5 -25 -25.5 -41.5t-46.5 -16.5t-39 16t-8 41l27 127q5 20 17.5 41t35.5 31q-8 7 -26 15.5t-40 12.5q30 29 74.5 46.5t88.5 17.5q35 0 63.5 -12t39.5 -37q20 21 46 35t63 14q48 0 73 -26t15 -71l-90 -423h-29zM167 54q2 14 -4.5 24.5t-23.5 10.5
t-28.5 -11t-14.5 -24q-2 -13 4.5 -24.5t23.5 -11.5t28.5 11t14.5 25z" />
    <glyph glyph-name="lulakkhangyao" unicode="&#xf882;" horiz-adv-x="597" 
d="M472 -177l91 425q7 35 -12.5 52.5t-52.5 17.5q-31 0 -56 -15t-42 -38q0 -5 -0.5 -9t-1.5 -9l-91 -424h-29l91 424q4 19 -2.5 32t-19 21.5t-29.5 12t-33 3.5q-24 0 -52.5 -6.5t-50.5 -19.5q18 -4 35 -17t26 -22q-26 -7 -45.5 -25t-27.5 -50l-26 -124q-5 -25 -25 -41
t-46 -16t-39.5 16.5t-8.5 40.5t24 41.5t46 17.5q14 0 19.5 -2t10.5 -7l16 77q5 20 17.5 41t35.5 31q-8 7 -26 15.5t-40 12.5q30 29 74.5 46.5t88.5 17.5q35 0 63.5 -12t39.5 -37q20 21 46 35t63 14q48 0 73 -26t15 -71l-90 -423h-29zM121 54q2 13 -4.5 24t-23.5 11
t-28.5 -10.5t-14.5 -24.5t4 -25t24 -11t28.5 11.5t14.5 24.5z" />
    <glyph glyph-name="yamakkanleftthai" 
d="M-19 572q-12 1 -22.5 -4.5t-14.5 -19.5q-4 -12 -1 -20t6 -13q-5 -4 -12.5 -11.5t-10.5 -20.5q-5 -16 3.5 -21t20.5 -7l-7 -26q-24 3 -34.5 18.5t-5.5 36.5q2 5 4.5 9.5t5.5 9.5q3 4 6 7t6 7q-2 5 -4.5 13.5t0.5 19.5q6 22 24 36t43 14z" />
    <glyph glyph-name="saraamleft" horiz-adv-x="295" 
d="M-27 462q-5 -22 -23 -40t-47 -18t-40.5 18t-6.5 40t23.5 39.5t47.5 17.5t40 -17.5t6 -39.5zM237 0h-29l52 247q8 35 -12 52.5t-53 17.5q-31 0 -56 -16t-42 -41l-21 12q20 29 49.5 49.5t74.5 20.5q48 0 73.5 -26t15.5 -71zM-51 461q3 14 -3.5 24.5t-23.5 10.5t-28 -10.5
t-14 -23.5q-2 -14 4.5 -24.5t23.5 -10.5t28 10.5t13 24.5v-1z" />
    <glyph glyph-name="uni0E33.alt1" horiz-adv-x="295" 
d="M-17 462q-5 -22 -23 -40t-47 -18t-40.5 18t-6.5 40t23.5 39.5t47.5 17.5t40 -17.5t6 -39.5zM237 0h-29l52 247q8 35 -12 52.5t-53 17.5q-31 0 -56 -16t-42 -41l-21 12q20 29 49.5 49.5t74.5 20.5q48 0 73.5 -26t15.5 -71zM-41 461q3 14 -3.5 24.5t-23.5 10.5t-28 -10.5
t-14 -23.5q-2 -14 4.5 -24.5t23.5 -10.5t28 10.5t13 24.5v-1z" />
    <glyph glyph-name="saraiithai.alt1" 
d="M15 441q2 -11 3 -22.5t1 -23.5q-27 10 -56.5 18t-60.5 11q-35 4 -73 3t-76 -6q10 23 29.5 44t42.5 36t48.5 22t49.5 4q27 -4 45 -14t29 -26l17 80h28zM-10 424q-5 35 -23 54.5t-57 24.5q-14 1 -29.5 -2.5t-30.5 -11t-28 -19t-21 -24.5q21 3 45 4t49.5 -1t49.5 -8t45 -17z
" />
    <glyph glyph-name="saraueethai.alt1" 
d="M15 441q2 -11 3 -22.5t1 -23.5q-27 10 -56.5 18t-60.5 11q-35 4 -73 3t-76 -6q10 23 29.5 44t42.5 36t48.5 22t49.5 4q2 0 4 -0.5t4 -0.5l9 41h27l-11 -49q26 -10 41 -31l17 80h28zM-10 424q-5 35 -23 54.5t-57 24.5q-14 1 -29.5 -2.5t-30.5 -11t-28 -19t-21 -24.5
q21 3 45 4t49.5 -1t49.5 -8t45 -17z" />
    <glyph glyph-name="maiekthai.alt1" 
d="M53 612h-26l25 116h26z" />
    <glyph glyph-name="maichattawathai.alt1" 
d="M129 658h-67l-12 -55h-26l12 55h-67l5 23h67l11 55h26l-11 -55h67z" />
    </font>
</defs>
</svg>
