<?xml version="1.0" standalone="no"?>
<!DOCTYPE svg PUBLIC "-//W3C//DTD SVG 1.1//EN" "http://www.w3.org/Graphics/SVG/1.1/DTD/svg11.dtd" >
<svg xmlns="http://www.w3.org/2000/svg" xmlns:xlink="http://www.w3.org/1999/xlink" version="1.1">
<metadata>
Created by FontForge 20150824 at Thu Feb 11 20:18:54 2016
 By Everything Fonts
Copyright (c) 2007 by Prinya R. nont. All rights reserved.
</metadata>
<defs>
<font id="DBThaiTextXItalic" horiz-adv-x="0" >
  <font-face 
    font-family="DBThaiTextXItalic"
    font-weight="400"
    font-style="italic"
    font-stretch="normal"
    units-per-em="1000"
    panose-1="2 0 5 6 6 0 0 2 0 4"
    ascent="800"
    descent="-200"
    x-height="306"
    cap-height="425"
    bbox="-324.562 -413 1020 740"
    underline-thickness="35"
    underline-position="-164"
    unicode-range="U+0020-F882"
  />
<missing-glyph horiz-adv-x="414" 
d="M422 400v-14h6q7 0 7 9q0 1 -1.5 3t-5.5 2h-6zM425 385h-3v-14h-5v34h11q12 0 12 -10q0 -7 -3 -8.5t-7 -1.5l10 -14h-5zM428 366q13 0 17.5 7t4.5 13q0 11 -5.5 17.5t-16.5 6.5t-17 -6.5t-6 -17.5q0 -8 5.5 -14t17.5 -6zM428 413q13 0 19 -8t6 -19q0 -8 -6 -15.5
t-19 -7.5q-12 0 -19 7.5t-7 15.5q0 11 7 19t19 8zM201 316q16 -1 37.5 -4t43 -7t39.5 -9.5t27 -12.5q-20 40 -62 61.5t-86 21.5q-34 0 -65 -13t-51 -40q18 2 36 3t36 1h22.5t22.5 -1zM375 395v-142q-48 15 -110 25.5t-130 10.5q-48 0 -94 -6q6 22 19 42.5t33 36t46.5 24.5
t58.5 9q31 0 56 -7t44 -17t31.5 -22t18.5 -21q0 -1 -0.5 6.5t-0.5 18.5v23v19h28zM153 127q0 8 -5.5 12t-11.5 4q-7 0 -12 -4t-5 -12t5 -11.5t12 -3.5q6 0 11.5 3.5t5.5 11.5zM32 139q0 23 9 41t24 30t34 18t39 6t38.5 -5.5t33 -16.5t23 -28t8.5 -41v-116h106v202h28v-228
h-189v26h29v119q0 30 -22 45t-54 15q-30 0 -54 -16.5t-24 -46.5v-107l58 58q-5 2 -13 10t-8 23q0 18 11 28.5t29 10.5q17 0 27.5 -11.5t10.5 -27.5q0 -14 -5.5 -21.5t-9.5 -11.5q-2 -2 -17 -16.5t-33 -31.5q-21 -20 -47 -45h-32v138z" />
    <glyph glyph-name="plusminus" unicode="&#x2b;&#x2d;" horiz-adv-x="341" 
d="M343 210h-119l-25 -119h-41l25 119h-119l9 41h119l25 119h41l-25 -119h119zM316 2h-286l6 40h286z" />
    <glyph glyph-name="ellipsis" unicode="&#x2e;&#x2e;&#x2e;" horiz-adv-x="583" 
d="M516 0h-60l13 61h60zM322 0h-61l13 61h61zM128 0h-61l13 61h61z" />
    <glyph glyph-name="lessequal" unicode="&#x3c;&#x3d;" horiz-adv-x="341" 
d="M314 11l-10 -47l-261 121l14 51zM373 278l-251 -94l211 -95l-10 -47l-261 121l9 41l312 121z" />
    <glyph glyph-name="greaterequal" unicode="&#x3e;&#x3d;" horiz-adv-x="341" 
d="M326 81l-310 -121l10 47l311 123zM345 160l-310 -121l10 47l248 95l-208 94l10 47l259 -121z" />
    <glyph glyph-name="fongmanfunnuthai" unicode="&#xe4f;&#x22;" horiz-adv-x="425" 
d="M347 384h-19l1 64l11 53h45l-12 -53zM262 384h-19l1 64l12 53h43l-11 -53zM212 -6q-36 0 -64.5 13.5t-47 37t-25.5 54.5t1 67q7 36 27.5 67t49 54.5t62.5 37t70 13.5t64 -13.5t46.5 -37t25 -54.5t-0.5 -67q-8 -36 -28 -67t-48.5 -54.5t-62.5 -37t-69 -13.5zM278 305
q-29 0 -56.5 -11t-50.5 -30t-39.5 -44.5t-22.5 -53.5q-6 -29 -0.5 -54t20.5 -43.5t38 -29.5t52 -11q28 0 55.5 11t50.5 29.5t39 43.5t22 54q6 28 1 53.5t-20 44.5t-38 30t-51 11zM229 74q-19 0 -34.5 7t-25 19.5t-13.5 29.5t0 36t15 36t26 29.5t33.5 19.5t37.5 7
q38 0 59 -27t13 -65q-4 -19 -14.5 -36t-26 -29.5t-33.5 -19.5t-37 -7zM262 231q-26 0 -49.5 -19.5t-29.5 -45.5q-5 -26 10 -45t42 -19q26 0 49 19t28 45q6 26 -9 45.5t-41 19.5z" />
    <glyph glyph-name="dochadaphinthuthai" unicode="&#xe0e;&#xe3a;" horiz-adv-x="403" 
d="M285 -130q-9 17 -21.5 31t-24.5 24q-14 11 -29 21q-6 -12 -17 -25.5t-25.5 -24.5t-32.5 -18.5t-38 -6.5q-29 2 -44 20t-7 47q6 24 21 39.5t36 22.5t45.5 5t49.5 -12q4 6 8 14q3 7 7 15t7 19l32 -10q-3 -9 -7 -18.5t-8 -17.5q-4 -9 -8 -17q21 -12 40 -27.5t24 -26.5
q18 86 33 155q6 29 12 57t11 50q5 26 10 49q8 38 -15.5 57.5t-61.5 19.5q-23 0 -50 -9t-51 -26l6 -2t15 -6.5t20.5 -11.5t21.5 -18q-16 -4 -30 -13q-12 -8 -23 -21t-16 -35l-8 -38l-8 -38q-5 -23 -24 -41.5t-50 -18.5t-42 19t-6.5 42t24 42t50.5 19q7 0 11 -0.5t8 -3.5l4 16
q7 35 22.5 49t30.5 20q-7 7 -17 13q-8 5 -21 9.5t-30 6.5q23 21 49 39q23 15 53.5 27.5t67.5 12.5q28 0 51.5 -7t39 -20.5t21.5 -34t0 -48.5l-78 -365h-38zM278 -235q-17 0 -23 10.5t-3.5 22.5t13 22.5t27.5 10.5q16 0 22.5 -10.5t3.5 -22.5t-13.5 -22.5t-26.5 -10.5zM92 65
q15 0 25 9.5t12.5 21t-3.5 21t-21 9.5t-25 -9.5t-12.5 -21t3.5 -21t21 -9.5zM181 -39q-29 10 -49 9.5t-32 -7t-17 -18t-3 -21.5q2 -15 20.5 -18t32.5 3q10 5 18.5 13t15.5 17q8 10 14 22z" />
    <glyph glyph-name="topatakphintuthai" unicode="&#xe0f;&#xe3a;" horiz-adv-x="403" 
d="M283 -130l-35 56l-62 -56q-3 8 -7 16t-8 15q-4 8 -10 15q-11 -13 -23 -24q-11 -9 -26 -16.5t-32 -6.5q-24 0 -37 17t-4 48q6 21 20.5 33t32 16.5t35.5 1t31 -15.5l12 22q5 10 11 22.5t11 25.5l31 -9q-8 -22 -20.5 -46.5t-20.5 -37.5q3 -4 7 -8q3 -4 6 -8.5t6 -9.5l54 45
l36 -48l68 318q8 38 -15.5 57.5t-61.5 19.5q-23 0 -50 -9t-51 -26l6 -2t15 -6.5t20.5 -11.5t21.5 -18q-16 -4 -30 -13q-12 -8 -23 -21t-16 -35l-8 -38l-8 -38q-5 -23 -24 -41.5t-50 -18.5t-42 19t-6.5 42t24 42t50.5 19q13 0 19 -4l4 16q7 35 22.5 49t30.5 20q-7 7 -17 13
q-8 5 -21 9.5t-30 6.5q23 21 49 39q23 15 53.5 27.5t67.5 12.5q28 0 51.5 -7t39 -20.5t21.5 -34t0 -48.5l-78 -365h-40zM278 -235q-17 0 -23 10.5t-3.5 22.5t13 22.5t27.5 10.5q16 0 22.5 -10.5t3.5 -22.5t-13.5 -22.5t-26.5 -10.5zM92 65q15 0 25 9.5t12.5 21t-3.5 21
t-21 9.5t-25 -9.5t-12.5 -21t3.5 -21t21 -9.5zM140 -59q-22 17 -41 12.5t-26 -18.5q-5 -12 -3 -19.5t8 -11.5t14.5 -4t15.5 5t12.5 11.5t10.5 11.5q5 6 9 13z" />
    <glyph glyph-name="dochadasarauthai" unicode="&#xe0e;&#xe38;" horiz-adv-x="403" 
d="M285 -130q-9 17 -21.5 31t-24.5 24q-14 11 -29 21q-6 -12 -17 -25.5t-25.5 -24.5t-32.5 -18.5t-38 -6.5q-29 2 -44 20t-7 47q6 24 21 39.5t36 22.5t45.5 5t49.5 -12q4 6 8 14q3 7 7 15t7 19l32 -10q-3 -9 -7 -18.5t-8 -17.5q-4 -9 -8 -17q21 -12 40 -27.5t24 -26.5
q18 86 33 155q6 29 12 57t11 50q5 26 10 49q8 38 -15.5 57.5t-61.5 19.5q-23 0 -50 -9t-51 -26l6 -2t15 -6.5t20.5 -11.5t21.5 -18q-16 -4 -30 -13q-12 -8 -23 -21t-16 -35l-8 -38l-8 -38q-5 -23 -24 -41.5t-50 -18.5t-42 19t-6.5 42t24 42t50.5 19q7 0 11 -0.5t8 -3.5l4 16
q7 35 22.5 49t30.5 20q-7 7 -17 13q-8 5 -21 9.5t-30 6.5q23 21 49 39q23 15 53.5 27.5t67.5 12.5q28 0 51.5 -7t39 -20.5t21.5 -34t0 -48.5l-78 -365h-38zM229 -377l19 88q-11 -3 -21 -3q-30 0 -41 19t-6 42.5t24 42.5t50 19q26 0 40 -16t8 -45l-31 -147h-42zM92 65
q15 0 25 9.5t12.5 21t-3.5 21t-21 9.5t-25 -9.5t-12.5 -21t3.5 -21t21 -9.5zM181 -39q-29 10 -49 9.5t-32 -7t-17 -18t-3 -21.5q2 -15 20.5 -18t32.5 3q10 5 18.5 13t15.5 17q8 10 14 22zM234 -262q15 0 25 9.5t12.5 21.5t-3.5 21.5t-21 9.5t-25 -9.5t-12.5 -21.5t3.5 -21.5
t21 -9.5z" />
    <glyph glyph-name="topataksarauthai" unicode="&#xe0f;&#xe38;" horiz-adv-x="403" 
d="M283 -130l-35 56l-62 -56q-3 8 -7 16t-8 15q-4 8 -10 15q-11 -13 -23 -24q-11 -9 -26 -16.5t-32 -6.5q-24 0 -37 17t-4 48q6 21 20.5 33t32 16.5t35.5 1t31 -15.5l12 22q5 10 11 22.5t11 25.5l31 -9q-8 -22 -20.5 -46.5t-20.5 -37.5q3 -4 7 -8q3 -4 6 -8.5t6 -9.5l54 45
l36 -48l68 318q8 38 -15.5 57.5t-61.5 19.5q-23 0 -50 -9t-51 -26l6 -2t15 -6.5t20.5 -11.5t21.5 -18q-16 -4 -30 -13q-12 -8 -23 -21t-16 -35l-8 -38l-8 -38q-5 -23 -24 -41.5t-50 -18.5t-42 19t-6.5 42t24 42t50.5 19q13 0 19 -4l4 16q7 35 22.5 49t30.5 20q-7 7 -17 13
q-8 5 -21 9.5t-30 6.5q23 21 49 39q23 15 53.5 27.5t67.5 12.5q28 0 51.5 -7t39 -20.5t21.5 -34t0 -48.5l-78 -365h-40zM229 -377l19 88q-11 -3 -21 -3q-30 0 -41 19t-6 42.5t24 42.5t50 19q26 0 40 -16t8 -45l-31 -147h-42zM92 65q15 0 25 9.5t12.5 21t-3.5 21t-21 9.5
t-25 -9.5t-12.5 -21t3.5 -21t21 -9.5zM234 -262q15 0 25 9.5t12.5 21.5t-3.5 21.5t-21 9.5t-25 -9.5t-12.5 -21.5t3.5 -21.5t21 -9.5zM140 -59q-22 17 -41 12.5t-26 -18.5q-5 -12 -3 -19.5t8 -11.5t14.5 -4t15.5 5t12.5 11.5t10.5 11.5q5 6 9 13z" />
    <glyph glyph-name="dochadasarauuthai" unicode="&#xe0e;&#xe39;" horiz-adv-x="403" 
d="M285 -130q-9 17 -21.5 31t-24.5 24q-14 11 -29 21q-6 -12 -17 -25.5t-25.5 -24.5t-32.5 -18.5t-38 -6.5q-29 2 -44 20t-7 47q6 24 21 39.5t36 22.5t45.5 5t49.5 -12q4 6 8 14q3 7 7 15t7 19l32 -10q-3 -9 -7 -18.5t-8 -17.5q-4 -9 -8 -17q21 -12 40 -27.5t24 -26.5
q18 86 33 155q6 29 12 57t11 50q5 26 10 49q8 38 -15.5 57.5t-61.5 19.5q-23 0 -50 -9t-51 -26l6 -2t15 -6.5t20.5 -11.5t21.5 -18q-16 -4 -30 -13q-12 -8 -23 -21t-16 -35l-8 -38l-8 -38q-5 -23 -24 -41.5t-50 -18.5t-42 19t-6.5 42t24 42t50.5 19q7 0 11 -0.5t8 -3.5l4 16
q7 35 22.5 49t30.5 20q-7 7 -17 13q-8 5 -21 9.5t-30 6.5q23 21 49 39q23 15 53.5 27.5t67.5 12.5q28 0 51.5 -7t39 -20.5t21.5 -34t0 -48.5l-78 -365h-38zM92 65q15 0 25 9.5t12.5 21t-3.5 21t-21 9.5t-25 -9.5t-12.5 -21t3.5 -21t21 -9.5zM181 -39q-29 10 -49 9.5t-32 -7
t-17 -18t-3 -21.5q2 -15 20.5 -18t32.5 3q10 5 18.5 13t15.5 17q8 10 14 22zM283 -316q-5 -27 -28 -41.5t-48 -14.5q-24 0 -40.5 14.5t-11.5 41.5l8 35l-7.5 -1.5t-13.5 -0.5q-28 0 -38.5 18t-6 40t23 40t47.5 18q25 0 39 -14.5t8 -42.5l-10 -46q-4 -17 -7.5 -31.5
t-2.5 -14.5q-2 -11 3.5 -17.5t16.5 -6.5q9 0 17.5 6.5t10.5 17.5l31 145h40zM162 -196q-15 0 -24 -9t-11.5 -20.5t2.5 -20.5t20 -9t24.5 9t12 20.5t-3 20.5t-20.5 9z" />
    <glyph glyph-name="topataksarauuthai" unicode="&#xe0f;&#xe39;" horiz-adv-x="403" 
d="M283 -130l-35 56l-62 -56q-3 8 -7 16t-8 15q-4 8 -10 15q-11 -13 -23 -24q-11 -9 -26 -16.5t-32 -6.5q-24 0 -37 17t-4 48q6 21 20.5 33t32 16.5t35.5 1t31 -15.5l12 22q5 10 11 22.5t11 25.5l31 -9q-8 -22 -20.5 -46.5t-20.5 -37.5q3 -4 7 -8q3 -4 6 -8.5t6 -9.5l54 45
l36 -48l68 318q8 38 -15.5 57.5t-61.5 19.5q-23 0 -50 -9t-51 -26l6 -2t15 -6.5t20.5 -11.5t21.5 -18q-16 -4 -30 -13q-12 -8 -23 -21t-16 -35l-8 -38l-8 -38q-5 -23 -24 -41.5t-50 -18.5t-42 19t-6.5 42t24 42t50.5 19q13 0 19 -4l4 16q7 35 22.5 49t30.5 20q-7 7 -17 13
q-8 5 -21 9.5t-30 6.5q23 21 49 39q23 15 53.5 27.5t67.5 12.5q28 0 51.5 -7t39 -20.5t21.5 -34t0 -48.5l-78 -365h-40zM92 65q15 0 25 9.5t12.5 21t-3.5 21t-21 9.5t-25 -9.5t-12.5 -21t3.5 -21t21 -9.5zM140 -59q-22 17 -41 12.5t-26 -18.5q-5 -12 -3 -19.5t8 -11.5
t14.5 -4t15.5 5t12.5 11.5t10.5 11.5q5 6 9 13zM283 -316q-5 -27 -28 -41.5t-48 -14.5q-24 0 -40.5 14.5t-11.5 41.5l8 35l-7.5 -1.5t-13.5 -0.5q-28 0 -38.5 18t-6 40t23 40t47.5 18q25 0 39 -14.5t8 -42.5l-10 -46q-4 -17 -7.5 -31.5t-2.5 -14.5q-2 -11 3.5 -17.5
t16.5 -6.5q9 0 17.5 6.5t10.5 17.5l31 145h40zM162 -196q-15 0 -24 -9t-11.5 -20.5t2.5 -20.5t20 -9t24.5 9t12 20.5t-3 20.5t-20.5 9z" />
    <glyph glyph-name=".notdef" horiz-adv-x="414" 
d="M422 400v-14h6q7 0 7 9q0 1 -1.5 3t-5.5 2h-6zM425 385h-3v-14h-5v34h11q12 0 12 -10q0 -7 -3 -8.5t-7 -1.5l10 -14h-5zM428 366q13 0 17.5 7t4.5 13q0 11 -5.5 17.5t-16.5 6.5t-17 -6.5t-6 -17.5q0 -8 5.5 -14t17.5 -6zM428 413q13 0 19 -8t6 -19q0 -8 -6 -15.5
t-19 -7.5q-12 0 -19 7.5t-7 15.5q0 11 7 19t19 8zM201 316q16 -1 37.5 -4t43 -7t39.5 -9.5t27 -12.5q-20 40 -62 61.5t-86 21.5q-34 0 -65 -13t-51 -40q18 2 36 3t36 1h22.5t22.5 -1zM375 395v-142q-48 15 -110 25.5t-130 10.5q-48 0 -94 -6q6 22 19 42.5t33 36t46.5 24.5
t58.5 9q31 0 56 -7t44 -17t31.5 -22t18.5 -21q0 -1 -0.5 6.5t-0.5 18.5v23v19h28zM153 127q0 8 -5.5 12t-11.5 4q-7 0 -12 -4t-5 -12t5 -11.5t12 -3.5q6 0 11.5 3.5t5.5 11.5zM32 139q0 23 9 41t24 30t34 18t39 6t38.5 -5.5t33 -16.5t23 -28t8.5 -41v-116h106v202h28v-228
h-189v26h29v119q0 30 -22 45t-54 15q-30 0 -54 -16.5t-24 -46.5v-107l58 58q-5 2 -13 10t-8 23q0 18 11 28.5t29 10.5q17 0 27.5 -11.5t10.5 -27.5q0 -14 -5.5 -21.5t-9.5 -11.5q-2 -2 -17 -16.5t-33 -31.5q-21 -20 -47 -45h-32v138z" />
    <glyph glyph-name=".null" 
 />
    <glyph glyph-name="nonmarkingreturn" horiz-adv-x="283" 
 />
    <glyph glyph-name="space" unicode=" " horiz-adv-x="250" 
 />
    <glyph glyph-name="exclam" unicode="!" horiz-adv-x="189" 
d="M168 216l-38 -118h-24l13 118l44 209h49zM122 0h-49l13 61h49z" />
    <glyph glyph-name="quotedbl" unicode="&#x22;" horiz-adv-x="207" 
d="M252 349l-33 -79h-23l1 79l14 66h55zM159 349l-32 -79h-24l2 79l14 66h54z" />
    <glyph glyph-name="numbersign" unicode="#" horiz-adv-x="324" 
d="M370 247h-62l-35 -89h59l-10 -47h-68l-49 -123h-45l49 123h-74l-50 -123h-44l49 123h-59l10 47h67l35 89h-61l9 47h69l46 113h45l-46 -113l75 -1l45 114h46l-45 -113h53zM189 247l-35 -89h74l34 89h-73z" />
    <glyph glyph-name="dollar" unicode="$" horiz-adv-x="324" 
d="M307 303q6 34 -6 50q-6 13 -18.5 19t-25.5 4l-30 -143q25 -8 50 -17.5t40 -29.5q9 -12 12 -30.5t-4 -45.5q-6 -24 -18.5 -44.5t-29 -36t-34.5 -25t-34 -11.5l-35 -5l-13 -61h-35l13 59q-12 3 -32 7t-37 17.5t-26 39.5t1 72h45q-2 -15 -2.5 -29.5t4 -27t17.5 -22.5t39 -15
l34 158q-9 3 -20.5 7t-23.5 9t-22 12t-16 16q-10 15 -11 39t7 44q9 27 23 46t32 31.5t38.5 19t41.5 8.5l6 31h35l-6 -31q28 -2 45 -10t32 -25q7 -7 10 -18.5t3.5 -23.5t-0.5 -22.5t-2 -15.5h-47zM222 376q-26 0 -50.5 -18.5t-31.5 -43.5q-11 -27 4 -48.5t49 -27.5zM276 109
q4 19 -0.5 31t-14 19.5t-22 12t-24.5 8.5l-32 -152q6 1 19.5 4.5t28 11.5t27.5 23.5t18 41.5z" />
    <glyph glyph-name="percent" unicode="%" horiz-adv-x="519" 
d="M520 88q-5 -21 -16.5 -39t-28 -31.5t-36.5 -21.5t-41 -8q-41 0 -63.5 29t-13.5 71q4 21 15.5 39t28 31.5t36.5 21.5t40 8q42 0 64.5 -29t14.5 -71zM163 -12h-43l321 425h43zM281 300q-5 -21 -16.5 -39t-28 -31.5t-36 -21.5t-40.5 -8q-42 0 -65 29t-14 71q4 21 15.5 39
t28 31.5t36.5 21.5t41 8q42 0 64.5 -29t14.5 -71zM479 88q5 25 -8.5 42t-38.5 17q-24 0 -45 -17t-26 -42q-5 -24 8.5 -41.5t37.5 -17.5q25 0 46 17.5t26 41.5zM240 300q5 25 -9 42t-38 17q-25 0 -45.5 -17t-25.5 -42t8 -42t38 -17q24 0 45.5 17t26.5 42z" />
    <glyph glyph-name="ampersand" unicode="&#x26;" horiz-adv-x="389" 
d="M375 194q-3 -23 -20 -53t-36 -52l53 -89h-65l-27 43q-9 -6 -27 -20t-40 -24q-3 -2 -17 -6t-33 -6t-39.5 0.5t-37.5 14.5q-24 17 -32 39t-3 54q8 42 29.5 68t55.5 46l36 20l-14 28q-20 41 -6.5 79t52.5 61q13 7 29.5 12t33.5 5t32.5 -6t27.5 -19q14 -17 16.5 -35.5
t-2.5 -36.5q-6 -24 -24.5 -44t-41.5 -33l-35 -20l56 -94q10 14 19.5 31.5t13.5 36.5h46zM293 348q-3 13 -15.5 19.5t-27.5 5.5t-29.5 -10.5t-21.5 -27.5q-5 -15 -5 -25.5t4 -19.5t10 -17t12 -17q7 3 21.5 10t27 18t20.5 27t4 37zM193 196q-9 -5 -24 -13.5t-30 -20.5
t-26.5 -28.5t-12.5 -37.5q0 -8 2.5 -18.5t9.5 -20.5t19 -17t32 -7q9 0 18.5 1.5t20.5 6t25.5 14t34.5 24.5z" />
    <glyph glyph-name="quotesingle" unicode="'" horiz-adv-x="112" 
d="M157 349l-33 -79h-23l1 79l14 65h55z" />
    <glyph glyph-name="parenleft" unicode="(" horiz-adv-x="194" 
d="M261 425q-62 -77 -94 -150t-43 -124q-6 -26 -9 -58t-1.5 -67.5t9 -73.5t22.5 -76h-35q-14 26 -24.5 58.5t-15.5 68.5t-4.5 74t8.5 74t23 73.5t35.5 73.5t44 68.5t49.5 58.5h35v0z" />
    <glyph glyph-name="parenright" unicode=")" horiz-adv-x="194" 
d="M182 151q-8 -36 -23 -74t-35.5 -74t-44.5 -68.5t-49 -58.5h-35q31 38 54 76t39.5 73.5t27 67.5t16.5 58q6 25 9 57t1.5 67.5t-9 73.5t-22.5 76h35q14 -26 24.5 -58.5t15.5 -68.5t4.5 -73.5t-8.5 -73.5z" />
    <glyph glyph-name="asterisk" unicode="*" horiz-adv-x="227" 
d="M209 337l28 -52l-33 -21l-24 55l-50 -54l-23 21l51 51l-59 18l19 35l56 -23l12 67h36l-17 -67l66 22l4 -37z" />
    <glyph glyph-name="plus" unicode="+" horiz-adv-x="341" 
d="M216 119l-25 -119h-41l25 119h-119l9 41h119l25 119h41l-25 -119h119l-9 -41h-119z" />
    <glyph glyph-name="comma" unicode="," horiz-adv-x="162" 
d="M112 0q-12 -40 -37 -62.5t-43 -25.5l6 27q19 9 31.5 26.5t17.5 34.5h-35l13 61h60z" />
    <glyph glyph-name="hyphen" unicode="-" horiz-adv-x="244" 
d="M51 118l9 43h191l-9 -43h-191z" />
    <glyph glyph-name="period" unicode="." horiz-adv-x="162" 
d="M112 0h-61l13 61h61z" />
    <glyph glyph-name="slash" unicode="/" horiz-adv-x="162" 
d="M26 -12h-34l230 426h33z" />
    <glyph glyph-name="zero" unicode="0" horiz-adv-x="324" 
d="M341 353q5 -15 7 -34t1 -39.5t-3.5 -41t-6.5 -38.5q-4 -17 -10 -37.5t-14 -41.5t-17.5 -40t-21.5 -34q-25 -31 -56.5 -46.5t-62 -15t-55.5 16t-36 45.5q-6 15 -7.5 34t-1 40t3.5 41.5t7 37.5q4 18 10 38.5t14 41t17.5 39.5t21.5 34q24 30 55.5 45.5t62 16t55.5 -15
t37 -46.5zM295 323q-7 22 -23 32t-35.5 10t-39 -11t-33.5 -31q-5 -7 -11 -19.5t-12.5 -29t-12.5 -36t-10 -38.5t-6.5 -38t-3 -35.5t0.5 -29.5t3 -19q6 -21 21.5 -31.5t34.5 -10.5t39 10.5t36 31.5q4 6 10.5 19t13 29.5t12.5 35.5t10 38q8 39 9.5 74t-3.5 49z" />
    <glyph glyph-name="one" unicode="1" horiz-adv-x="324" 
d="M208 0h-49l62 292h-94l8 39q35 5 54 10t32 15q11 8 20 21.5t20 36.5h35z" />
    <glyph glyph-name="two" unicode="2" horiz-adv-x="324" 
d="M360 291q-7 -32 -27 -56.5t-46 -43t-55.5 -32.5t-55.5 -25q-3 -2 -16.5 -9.5t-29 -19t-29 -26t-16.5 -30.5h220l-10 -49h-275q8 29 17.5 52.5t25.5 44t40.5 39.5t61.5 39q19 10 41.5 19.5t43 22.5t36.5 30.5t22 43.5t-1.5 41.5t-20 23t-26 9.5t-19.5 2q-48 -2 -71 -28.5
t-34 -68.5h-50q6 22 16.5 47.5t30 47t50.5 35.5t78 14q30 0 51 -11t33.5 -28t16 -39.5t-1.5 -44.5z" />
    <glyph glyph-name="three" unicode="3" horiz-adv-x="324" 
d="M346 296q-4 -18 -11.5 -31t-17.5 -22.5t-20 -16.5t-19 -12q35 -17 41.5 -43t-0.5 -59q-6 -29 -22 -52t-38.5 -39.5t-50 -25.5t-56.5 -9q-41 0 -64 13t-34 32.5t-12 43t3 45.5h49q-3 -15 -3 -30.5t6.5 -28.5t21 -21t40.5 -7q46 2 73.5 24t33.5 53q6 26 2.5 41.5t-15.5 24
t-33 11t-51 2.5l10 44q24 0 43 2t33 9t23.5 21t14.5 38q4 19 -0.5 31.5t-13.5 20t-21 10t-22 2.5q-42 0 -66 -21.5t-33 -65.5h-49q14 63 52.5 98.5t101.5 35.5q26 0 48 -7t37 -21t20.5 -36.5t-1.5 -53.5z" />
    <glyph glyph-name="four" unicode="4" horiz-adv-x="324" 
d="M326 97h-62l-21 -97h-49l21 97h-177l11 55l244 262h38l-57 -268h62zM263 331l-169 -185h131l39 185h-1z" />
    <glyph glyph-name="five" unicode="5" horiz-adv-x="324" 
d="M357 365h-173l-41 -116l1 -1q22 17 41 21t36 4q18 0 40.5 -5.5t40 -21t26 -43.5t-0.5 -73q-6 -26 -21.5 -51.5t-38 -46t-51 -33.5t-59.5 -13q-41 0 -65 13.5t-36 32t-14 38t1 32.5h52q0 -6 1 -17t7.5 -22t20.5 -19t40 -8q41 1 68.5 22.5t38.5 72.5q10 45 -9 69t-51 25
q-29 1 -50 -9t-41 -28h-47l81 226h213z" />
    <glyph glyph-name="six" unicode="6" horiz-adv-x="324" 
d="M305 306q6 23 -9.5 42t-45.5 19q-31 0 -54 -17.5t-39.5 -42.5t-26 -52t-13.5 -46q14 10 26 19t24 16t26 10.5t34 3.5q25 0 46 -9t35 -26t19 -41.5t-1 -55.5q-4 -20 -16 -44.5t-32 -45.5t-49.5 -35.5t-68.5 -14.5q-45 0 -68 20t-31.5 50t-5.5 65t10 65q7 33 20 72.5
t35.5 73t56.5 57t83 25.5q9 0 26.5 -3t34 -14.5t27.5 -33t8 -57.5h-51zM275 126q6 27 2 43.5t-13 25.5t-22 12t-26 4q-14 1 -31 -3t-32.5 -14t-28 -27.5t-18.5 -42.5q-5 -23 -0.5 -40t14 -28t23 -17t28.5 -6q38 0 65.5 22.5t38.5 70.5z" />
    <glyph glyph-name="seven" unicode="7" horiz-adv-x="324" 
d="M382 370q-48 -48 -82 -92.5t-57 -73.5q-27 -35 -56 -89.5t-52 -114.5h-55q18 38 31.5 66t27.5 52t30 47t37 51q29 38 60 74.5t61 74.5h-221l10 49h275z" />
    <glyph glyph-name="eight" unicode="8" horiz-adv-x="324" 
d="M329 389q14 -13 19 -32t3.5 -38.5t-9 -37.5t-19.5 -29q-8 -7 -20 -16.5t-24 -17.5q11 -3 20 -13.5t15 -21.5q9 -13 12 -34t-3.5 -44.5t-24 -47.5t-47.5 -43q-23 -14 -49 -21.5t-51.5 -6.5t-48 9.5t-37.5 26.5t-19.5 39.5t-1.5 43t13 40.5t23 32q8 12 21.5 21t33.5 19
q-14 11 -22.5 20.5t-11.5 22.5t-1.5 30t9 35t20.5 34.5t34 29.5q18 11 39 17.5t42.5 7t43.5 -5.5t41 -19zM285 354q-6 6 -17.5 9.5t-26 3.5t-30 -3.5t-27.5 -12.5q-23 -17 -28.5 -38.5t-3.5 -35.5q3 -20 18.5 -29t35 -10t39 6t31.5 19q22 23 22 50t-13 41zM270 112
q6 28 -1 44t-19 24.5t-26 11t-22 2.5q-45 0 -71 -24.5t-33 -59.5q-2 -14 0 -28t10.5 -25t23 -17.5t36.5 -6.5q18 0 35 6.5t30.5 17.5t23.5 25.5t13 29.5z" />
    <glyph glyph-name="nine" unicode="9" horiz-adv-x="324" 
d="M342 215q-8 -34 -21.5 -74t-37 -74.5t-59 -57.5t-86.5 -23q-8 0 -24 4.5t-31 16.5t-25.5 33.5t-6.5 54.5h50q-5 -23 10 -42.5t45 -19.5q31 0 54.5 17.5t39.5 42.5t26 52t14 46q-14 -10 -25.5 -19t-23.5 -15.5t-25 -10t-31 -3.5q-27 0 -49.5 8.5t-37 25t-20 41t1.5 56.5
q4 20 16 44.5t32.5 45.5t50 35.5t68.5 14.5q45 0 67.5 -20t31 -49.5t5.5 -64.5t-9 -65zM301 277q4 22 0 39t-13.5 28t-23 17t-28.5 6q-38 0 -65.5 -22.5t-38.5 -69.5q-6 -29 -1.5 -46t14.5 -26t24 -11.5t28 -2.5q13 0 29 4.5t31 15t27 27.5t17 41z" />
    <glyph glyph-name="colon" unicode=":" horiz-adv-x="162" 
d="M177 246h-61l13 60h61zM125 0h-61l13 61h61z" />
    <glyph glyph-name="semicolon" unicode=";" horiz-adv-x="162" 
d="M177 246h-61l13 60h61zM125 0q-13 -40 -37.5 -62.5t-43.5 -25.5l6 27q20 9 32 26.5t17 34.5h-35l13 61h61z" />
    <glyph glyph-name="less" unicode="&#x3c;" horiz-adv-x="341" 
d="M361 230l-251 -94l211 -95l-10 -47l-261 121l9 41l312 121z" />
    <glyph glyph-name="equal" unicode="=" horiz-adv-x="341" 
d="M346 165h-281l9 40h281zM325 66h-281l9 40h281z" />
    <glyph glyph-name="greater" unicode="&#x3e;" horiz-adv-x="341" 
d="M338 115l-310 -121l10 47l248 95l-208 94l10 47l259 -121z" />
    <glyph glyph-name="question" unicode="?" horiz-adv-x="324" 
d="M351 280q-10 -17 -32.5 -37.5t-49.5 -41.5q-8 -6 -24 -20t-21 -40l-6 -27h-54l8 35q3 15 12 28.5t19.5 24.5t21 19t16.5 13q13 11 28.5 23t23.5 24q15 22 19 41t-2 33t-20 22.5t-35 8.5q-31 0 -49.5 -12t-28.5 -27.5t-14 -30.5t-6 -22h-50q6 28 18.5 54.5t34 46t53 29.5
t75.5 5q40 -5 57.5 -24t21 -43t-2.5 -47t-13 -35zM194 0h-54l13 61h54z" />
    <glyph glyph-name="at" unicode="@" horiz-adv-x="592" 
d="M577 347q19 -28 25 -57t1.5 -58.5t-18 -58.5t-33.5 -56q-4 -6 -13 -16.5t-22.5 -22.5t-30.5 -23t-38 -17t-42 -6.5t-31 3.5q-17 5 -23 17.5t-5 22.5q-8 -8 -22 -17.5t-31 -16t-35.5 -8t-35.5 6.5q-14 6 -22 14.5t-12 17t-5.5 16t-2.5 11.5q-4 30 5.5 57t25.5 50.5
t35 41.5t36 29q8 6 21 12t27.5 10t29.5 5t28 -3q17 -6 27.5 -21t12.5 -28l21 39h48l-93 -175q-5 -10 -7 -17.5t2 -15.5q5 -14 28 -10q27 6 50 22.5t34 30.5q25 33 35 61.5t9.5 53.5t-9 44.5t-18.5 34.5q-11 16 -41 36t-72 27q-38 6 -72.5 -0.5t-64.5 -20.5t-55.5 -34
t-45.5 -40.5t-33.5 -39.5t-20.5 -32q-15 -28 -22.5 -62t-1 -67.5t30 -64t70.5 -51.5q25 -11 51 -13.5t51.5 0.5t49 9t43.5 12l8 -39q-57 -20 -115 -24.5t-112 13.5q-25 9 -56 31t-52 57t-24 84t28 111q16 33 45 71.5t71 71t97.5 54t125.5 20.5q19 0 42 -5.5t45.5 -15.5
t43 -25.5t34.5 -35.5zM401 220q1 13 -5 23.5t-17.5 16t-28.5 4t-36 -13.5q-20 -12 -34 -27t-27 -40q-9 -18 -16.5 -41t5.5 -48q9 -17 22.5 -21t28.5 0.5t29 14.5t24 22q8 10 17 24t17 29t13.5 30t7.5 27z" />
    <glyph glyph-name="A" unicode="A" horiz-adv-x="387" 
d="M322 0l-17 131h-167l-76 -131h-54l244 425h69l58 -425h-57zM277 374l-115 -201h135z" />
    <glyph glyph-name="B" unicode="B" horiz-adv-x="385" 
d="M408 316q-6 -30 -25 -54.5t-48 -36.5q4 -2 14.5 -7.5t20.5 -16.5t15.5 -30t-0.5 -49q-7 -33 -24.5 -56.5t-38 -38t-40 -21t-30.5 -6.5h-210l90 425h186q13 0 31.5 -5.5t33.5 -18t23.5 -33.5t1.5 -52zM355 306q2 9 1.5 21.5t-7.5 24t-23 20t-46 9.5h-106l-30 -142h122
q23 1 39 7.5t26.5 16t16 21t7.5 22.5zM337 125q4 22 -0.5 36t-16 22t-28 11.5t-34.5 3.5h-123l-32 -153h145q20 1 35 8.5t26 19.5t18 25.5t10 26.5z" />
    <glyph glyph-name="C" unicode="C" horiz-adv-x="418" 
d="M393 294q-5 42 -28.5 67.5t-68.5 25.5q-32 0 -60.5 -13.5t-51 -37t-38.5 -56t-24 -70.5q-17 -79 9 -128.5t90 -49.5q94 0 152 124h52q-14 -36 -36.5 -67.5t-50.5 -54.5t-61 -36t-69 -12q-52 1 -83 22.5t-46 54.5t-16 72t7 75q6 29 22 67t44 72.5t69.5 58.5t97.5 24
q67 0 102.5 -36.5t40.5 -101.5h-53z" />
    <glyph glyph-name="D" unicode="D" horiz-adv-x="417" 
d="M437 252q-8 -57 -28 -105t-55 -83q-36 -35 -66 -49.5t-46 -14.5h-194l90 425h164q34 0 61 -11.5t45 -33.5t26 -54.5t3 -73.5zM379 211q8 33 8 63.5t-10 54.5t-31.5 38t-57.5 14h-108l-71 -336h123q12 0 22.5 1.5t24.5 7.5q28 12 56.5 52.5t43.5 104.5z" />
    <glyph glyph-name="E" unicode="E" horiz-adv-x="385" 
d="M425 381h-245l-30 -140h233l-9 -45h-233l-32 -151h255l-10 -45h-305l90 425h295z" />
    <glyph glyph-name="F" unicode="F" horiz-adv-x="352" 
d="M415 381h-235l-30 -140h204l-9 -45h-204l-42 -196h-50l90 425h285z" />
    <glyph glyph-name="G" unicode="G" horiz-adv-x="450" 
d="M418 297q2 14 -3.5 30t-19 29.5t-35 22t-51.5 8.5q-35 0 -66.5 -13t-56.5 -37t-43 -57t-26 -72q-8 -42 -3 -77t24 -58q14 -23 39.5 -33t55.5 -10q44 0 75 17t51.5 41t30 49.5t11.5 42.5h-132l10 46h179l-49 -229h-35l-1 53q-15 -11 -31 -22t-35.5 -20.5t-43 -15.5
t-54.5 -6q-15 0 -31.5 4t-30.5 10t-26 13.5t-18 14.5q-17 18 -26.5 39.5t-13.5 45.5t-3 48t6 47q7 31 24 69.5t47.5 72.5t75 57t106.5 25q48 1 78.5 -14.5t46.5 -37.5t21 -45.5t2 -37.5h-49z" />
    <glyph glyph-name="H" unicode="H" horiz-adv-x="417" 
d="M372 0h-51l42 196h-226l-42 -196h-50l90 425h50l-39 -184h226l39 184h51z" />
    <glyph glyph-name="I" unicode="I" horiz-adv-x="158" 
d="M108 0h-51l90 425h51z" />
    <glyph glyph-name="J" unicode="J" horiz-adv-x="292" 
d="M266 89q-11 -29 -27.5 -49t-36 -32.5t-40.5 -17.5t-40 -5q-37 1 -57.5 13.5t-29.5 29t-9.5 34.5t1.5 29l10 45h51l-9 -44q-7 -29 9.5 -45.5t40.5 -16.5q23 0 39.5 9t27.5 23t17.5 31t9.5 32l63 300h51z" />
    <glyph glyph-name="K" unicode="K" horiz-adv-x="385" 
d="M258 252l120 -252h-59l-105 219l-90 -73l-31 -146h-51l90 425h51l-46 -217l264 217h66z" />
    <glyph glyph-name="L" unicode="L" horiz-adv-x="320" 
d="M306 0h-263l90 425h51l-80 -379h212z" />
    <glyph glyph-name="M" unicode="M" horiz-adv-x="482" 
d="M440 0h-51l76 357l-199 -357h-52l-47 357l-76 -357h-51l90 425h74l49 -366l203 366h74z" />
    <glyph glyph-name="N" unicode="N" horiz-adv-x="417" 
d="M373 0h-59l-149 353l-75 -353h-49l90 425h60l147 -356l75 356h50z" />
    <glyph glyph-name="O" unicode="O" horiz-adv-x="450" 
d="M474 210q-11 -53 -37 -95t-60.5 -71.5t-75 -44.5t-80.5 -13q-62 3 -97 26.5t-50.5 57t-16.5 71t6 69.5q7 34 25.5 73t49.5 72t75 55t103 22q41 0 69.5 -11t47.5 -28.5t29.5 -41t14.5 -48t2.5 -49t-5.5 -44.5zM423 210q8 37 4.5 69.5t-18 56.5t-40.5 38t-63 14
q-36 0 -67.5 -13t-56.5 -36.5t-42.5 -56.5t-25.5 -72q-9 -39 -5.5 -72t18.5 -57t41.5 -37t62.5 -13t67 13t56 36.5t42.5 56.5t26.5 73z" />
    <glyph glyph-name="P" unicode="P" horiz-adv-x="385" 
d="M421 307q-6 -35 -22 -59t-36.5 -39t-42 -22t-37.5 -7h-144l-38 -180h-52l90 425h178q16 0 37 -3.5t38 -15.5t26.5 -35.5t2.5 -63.5zM370 307q3 23 -2.5 37.5t-15.5 22.5t-22.5 11t-21.5 3h-126l-33 -156h142q4 0 15.5 4t24.5 13.5t24.5 25t14.5 39.5z" />
    <glyph glyph-name="Q" unicode="Q" horiz-adv-x="450" 
d="M474 210q-9 -42 -32 -86t-63 -79l45 -45l-35 -35l-51 51q-23 -11 -54 -21t-63 -9q-62 2 -97 25.5t-51 57t-16.5 71.5t6.5 70q7 34 25.5 73t49.5 72t75 55t103 22q41 0 69.5 -11t47.5 -28.5t29.5 -41t14.5 -48t2.5 -49t-5.5 -44.5zM422 210q8 36 5 68.5t-17.5 56.5t-40 38
t-62.5 14q-36 0 -67 -13t-56 -36.5t-42.5 -56t-25.5 -71.5t-4.5 -71.5t18 -56.5t40 -37t61.5 -13q16 0 33.5 3t40.5 14l-38 38l35 33l44 -44q26 22 46.5 58.5t29.5 75.5z" />
    <glyph glyph-name="R" unicode="R" horiz-adv-x="417" 
d="M441 305q-4 -18 -10 -30.5t-15 -23t-21.5 -20.5t-29.5 -21q14 -10 21.5 -18t10.5 -18.5t1.5 -26t-6.5 -40.5q-8 -38 -9 -60t12 -33l-3 -14h-62q-2 17 -2 35.5t4 35.5q4 19 9 39.5t3 37.5t-15 28t-44 11h-144l-40 -187h-51l90 425h191q25 0 48.5 -4t40 -16.5t23 -36
t-1.5 -63.5zM390 304q6 26 1.5 41t-15.5 23t-25.5 10.5t-27.5 2.5h-141l-33 -154h141q15 0 30 2.5t28.5 11t24.5 23.5t17 40z" />
    <glyph glyph-name="S" unicode="S" horiz-adv-x="385" 
d="M359 301q9 37 -12 63t-81 26q-39 0 -65 -15.5t-38.5 -36t-11 -41.5t18.5 -32q12 -8 30 -13.5t39.5 -11.5t44.5 -12t45 -14q26 -9 41 -34.5t10 -55.5q-5 -31 -23.5 -56.5t-44.5 -43t-58 -26.5t-65 -8q-41 1 -71.5 10.5t-49.5 41.5q-16 26 -16 47t5 46h47
q-3 -11 -3.5 -29.5t10 -35t36 -27.5t74.5 -7q27 2 52 15.5t40 32t15 40t-22 39.5q-21 10 -38 15.5t-35 10.5t-40 11t-52 17q-6 2 -13.5 7t-14 14t-10 23t-1.5 34q3 25 15.5 50t34 44t52.5 31t70 12q42 0 71 -10t45.5 -27.5t20.5 -41.5t-3 -52h-49z" />
    <glyph glyph-name="T" unicode="T" horiz-adv-x="353" 
d="M423 381h-140l-81 -381h-51l81 381h-141l9 44h332z" />
    <glyph glyph-name="U" unicode="U" horiz-adv-x="417" 
d="M398 123q-4 -19 -16.5 -43t-36 -45t-57.5 -35t-82 -14t-76.5 14t-42.5 35t-16.5 44.5t1.5 42.5l64 303h51l-64 -303q-3 -14 -1 -30t11.5 -30t29 -23.5t52.5 -9.5t56.5 9.5t39 23.5t24.5 30t12 30l64 303h51z" />
    <glyph glyph-name="V" unicode="V" horiz-adv-x="385" 
d="M223 0h-59l-60 425h55l48 -371l200 371h55z" />
    <glyph glyph-name="W" unicode="W" horiz-adv-x="549" 
d="M431 0h-60l-23 347l-170 -347h-60l-17 425h57l7 -342l4 -1l170 342h51l23 -342l6 1l154 342h57z" />
    <glyph glyph-name="X" unicode="X" horiz-adv-x="385" 
d="M271 218l102 -218h-64l-77 177l-158 -177h-63l195 218l-94 207h62l76 -166l145 166h62z" />
    <glyph glyph-name="Y" unicode="Y" horiz-adv-x="387" 
d="M256 168l-36 -168h-49l36 168l-106 257h62l80 -206l164 206h62z" />
    <glyph glyph-name="Z" unicode="Z" horiz-adv-x="353" 
d="M418 379l-330 -333h259l-10 -46h-323l9 44l330 336h-242l9 45h307z" />
    <glyph glyph-name="bracketleft" unicode="[" horiz-adv-x="162" 
d="M227 381h-59l-98 -461h59l-9 -44h-108l116 548h108z" />
    <glyph glyph-name="backslash" unicode="\" horiz-adv-x="162" 
d="M130 -12l-46 437h35l45 -437h-34z" />
    <glyph glyph-name="bracketright" unicode="]" horiz-adv-x="162" 
d="M95 -125h-108l10 44h59l98 462h-59l9 43h108z" />
    <glyph glyph-name="asciicircum" unicode="^" horiz-adv-x="274" 
d="M248 194l-33 173l-108 -173h-40l137 222h42l43 -222h-41z" />
    <glyph glyph-name="underscore" unicode="_" horiz-adv-x="324" 
d="M301 -110h-324l7 36h324z" />
    <glyph glyph-name="grave" unicode="`" horiz-adv-x="194" 
d="M173 346l-68 86h67l38 -86h-37z" />
    <glyph glyph-name="a" unicode="a" horiz-adv-x="320" 
d="M287 56q-4 -16 1.5 -19.5t31.5 4.5l-10 -39q-7 -2 -16 -4.5t-17 -2.5q-5 0 -8.5 1t-6.5 2q-16 2 -20.5 12t-2.5 24q-54 -42 -116 -42q-42 0 -67.5 22.5t-16.5 67.5q8 39 39.5 63t87.5 31l49 6q10 2 23.5 4t22.5 6q8 3 10.5 11t4.5 15q5 24 -7 39t-50 15q-33 0 -57.5 -13
t-38.5 -53h-43q16 59 57 83.5t91 24.5q24 0 43.5 -5t32.5 -16.5t18 -30t-1 -45.5zM262 152q-22 -6 -43 -8.5t-43 -4.5q-36 -3 -60 -16.5t-30 -41.5q-5 -25 10.5 -36.5t37.5 -11.5q19 0 38.5 4.5t36 14.5t28.5 25.5t17 36.5z" />
    <glyph glyph-name="b" unicode="b" horiz-adv-x="320" 
d="M335 153q-8 -34 -21.5 -64t-34 -52t-49 -34.5t-65.5 -12.5q-26 0 -50.5 13.5t-33.5 35.5l-8 -39h-45l90 425h45l-33 -155q23 21 50 33t56 12q35 0 57.5 -13.5t34 -36t13 -51.5t-5.5 -61zM286 144q6 27 6 50.5t-7 41t-22.5 28t-40.5 10.5q-23 0 -42 -10t-34 -26.5t-25 -38
t-15 -45.5q-6 -26 -5 -48t8.5 -39t23 -26.5t38.5 -9.5q41 0 71.5 30t43.5 83z" />
    <glyph glyph-name="c" unicode="c" horiz-adv-x="299" 
d="M281 205q-2 33 -19 51t-50 18q-26 0 -45.5 -10.5t-34.5 -28t-24.5 -39t-13.5 -43.5q-5 -23 -4.5 -44.5t8 -38.5t22.5 -27.5t41 -10.5q36 0 61.5 21t40.5 58h46q-22 -55 -60.5 -87t-96.5 -32q-37 0 -60.5 12.5t-35.5 34t-14 51t6 63.5q7 32 22 61t37 51.5t51 35.5t63 13
q53 0 80 -26t24 -83h-44z" />
    <glyph glyph-name="d" unicode="d" horiz-adv-x="320" 
d="M285 0h-45l8 39q-19 -23 -48.5 -36t-55.5 -13q-37 0 -60 12.5t-34.5 34.5t-12.5 52t7 64q7 32 20.5 61t34.5 51.5t49 36t63 13.5q29 0 50.5 -12t35.5 -33l33 155h45zM274 154q5 24 4 46t-9.5 38.5t-23.5 26.5t-38 10q-26 0 -45.5 -10.5t-34.5 -28t-24.5 -41.5t-14.5 -51
q-11 -54 7 -84t60 -30q47 0 77.5 36t41.5 88z" />
    <glyph glyph-name="e" unicode="e" horiz-adv-x="320" 
d="M336 152q-1 -3 -2 -6.5t-1 -6.5h-237q-8 -48 10 -77t63 -29q36 0 61.5 18.5t40.5 47.5h48q-24 -50 -66 -79t-93 -29q-29 0 -53 10.5t-39 30.5t-19.5 50t3.5 70q7 33 22.5 63t38 52.5t52 35.5t64.5 13q36 0 60 -13t36.5 -35.5t15 -52.5t-4.5 -63zM294 179q2 40 -14 67
t-60 27q-43 0 -71 -28t-42 -66h187z" />
    <glyph glyph-name="f" unicode="f" horiz-adv-x="160" 
d="M231 382q-9 4 -14.5 4.5t-10.5 0.5q-23 0 -29 -15.5t-10 -33.5l-7 -32h55l-8 -40h-55l-57 -266h-45l57 266h-41l8 40h41l9 43q8 36 27.5 57t55.5 21q7 0 14.5 -0.5t18.5 -1.5z" />
    <glyph glyph-name="g" unicode="g" horiz-adv-x="320" 
d="M290 38q-6 -30 -18 -59.5t-32 -53.5t-49 -39t-71 -15q-33 0 -54.5 8.5t-33.5 22t-16 29.5t-1 31h43q2 -32 22.5 -41.5t47.5 -9.5q29 0 49.5 12.5t34 31t21.5 41.5t13 44q-23 -20 -51 -31.5t-55 -11.5q-33 0 -55 13t-33.5 34.5t-13.5 50t5 58.5q7 33 20 61t33 49t47.5 33
t63.5 12q25 0 49.5 -12.5t36.5 -33.5l9 44h45zM268 152q11 48 -5 81.5t-60 33.5q-38 0 -70.5 -27.5t-43.5 -77.5q-6 -26 -5.5 -48.5t8 -39t23 -26.5t39.5 -10q21 0 39.5 9.5t33.5 25t25.5 36t15.5 43.5z" />
    <glyph glyph-name="h" unicode="h" horiz-adv-x="312" 
d="M272 0h-45l42 199q8 35 -3.5 52t-47.5 17q-28 0 -49.5 -15t-33.5 -35q-7 -12 -10 -24.5t-7 -26.5l-35 -167h-45l90 425h45l-32 -153q22 18 43 28.5t48 10.5q28 0 49 -9.5t32 -33.5q8 -16 7 -32t-5 -35z" />
    <glyph glyph-name="i" unicode="i" horiz-adv-x="127" 
d="M161 366h-45l12 59h45zM83 0h-45l65 306h45z" />
    <glyph glyph-name="j" unicode="j" horiz-adv-x="127" 
d="M163 366l12 59zM164 366h-45l12 59h45zM72 -67q-3 -13 -15.5 -31t-40.5 -26q-14 -4 -28.5 -4.5t-26.5 0.5l9 43l32 3q12 2 18.5 10.5t8.5 15.5l77 362h45z" />
    <glyph glyph-name="k" unicode="k" horiz-adv-x="290" 
d="M199 194l87 -195l-51 2l-73 163l-62 -49l-24 -115h-45l90 425h45l-54 -254l167 135h60z" />
    <glyph glyph-name="l" unicode="l" horiz-adv-x="127" 
d="M83 0h-45l90 425h45z" />
    <glyph glyph-name="m" unicode="m" horiz-adv-x="492" 
d="M452 0h-45l45 210q6 29 -2.5 46.5t-42.5 17.5q-18 0 -36 -7.5t-34 -24.5q-13 -14 -22 -37t-13 -40l-35 -165h-45l45 210q6 29 -2.5 46.5t-42.5 17.5q-37 0 -71 -32q-14 -14 -22 -37t-12 -40l-35 -165h-45l65 306h45l-7 -35q18 20 44 31.5t53 11.5q39 0 55 -14.5t21 -36.5
q22 26 49.5 38.5t59.5 12.5q31 0 48 -10.5t24 -27.5t5.5 -39t-6.5 -45z" />
    <glyph glyph-name="n" unicode="n" horiz-adv-x="320" 
d="M280 0h-45l42 198q8 36 -4 55t-50 19q-30 0 -52.5 -16.5t-35.5 -37.5q-8 -14 -12 -26.5t-7 -27.5l-35 -164h-45l65 306h42l-8 -37q25 20 49 32.5t53 12.5t51 -11t33 -34q8 -17 7 -34t-6 -36z" />
    <glyph glyph-name="o" unicode="o" horiz-adv-x="327" 
d="M333 152q-8 -36 -24 -66t-39.5 -51t-52 -32.5t-60.5 -11.5q-29 0 -53 10t-39 30.5t-19.5 50.5t3.5 70q7 33 22.5 62.5t38 51.5t52 34.5t64.5 12.5q36 0 60 -12.5t36.5 -34.5t15 -51.5t-4.5 -62.5zM287 152q6 25 5.5 47t-9 38.5t-24.5 26t-42 9.5t-46 -10.5t-35.5 -27.5
t-25.5 -38.5t-15 -44.5q-11 -53 6 -87t65 -34q25 0 45.5 10.5t35.5 27.5t25 38.5t15 44.5z" />
    <glyph glyph-name="p" unicode="p" horiz-adv-x="320" 
d="M335 153q-7 -32 -21 -61t-35 -51.5t-49 -36t-63 -13.5q-29 0 -50.5 12t-35.5 33l-35 -164h-45l92 434h45l-8 -39q21 22 49.5 35.5t54.5 13.5q37 0 60 -12.5t34.5 -34.5t12.5 -52t-6 -64zM289 162q11 53 -7.5 83t-59.5 30q-47 0 -76.5 -36t-40.5 -87q-5 -24 -3.5 -46
t9.5 -38.5t22.5 -26t37.5 -9.5q25 0 45 10.5t34.5 28t24 41t14.5 50.5z" />
    <glyph glyph-name="q" unicode="q" horiz-adv-x="320" 
d="M258 -128h-45l35 164q-23 -21 -50 -33t-56 -12q-35 0 -57.5 13.5t-33.5 36t-12.5 51.5t5.5 61q7 34 20.5 64t34 52t49 34.5t65.5 12.5q26 0 49 -13.5t35 -35.5l8 39h45zM272 152q6 25 5 47.5t-8.5 39.5t-23 26.5t-38.5 9.5q-41 0 -71.5 -30t-43.5 -83q-6 -27 -6 -50.5
t7 -41t22.5 -28t40.5 -10.5q22 0 41.5 9.5t34.5 26t25 38.5t15 46z" />
    <glyph glyph-name="r" unicode="r" horiz-adv-x="190" 
d="M240 267q-14 0 -25.5 -2t-22.5 -5q-27 -11 -46.5 -34t-29.5 -60q0 -1 -5.5 -27t-12.5 -57q-8 -36 -17 -82h-45l65 306h45l-10 -47h6q19 26 41.5 40t39.5 16h27z" />
    <glyph glyph-name="s" unicode="s" horiz-adv-x="290" 
d="M255 213q3 35 -14 48t-48 13q-62 0 -73 -46q-3 -14 2.5 -23t16 -15t25 -9.5t30.5 -7.5q18 -5 35.5 -10.5t30.5 -15.5t19.5 -25.5t1.5 -38.5q-10 -45 -50.5 -68t-95.5 -23t-78.5 31t-15.5 78h43q0 -39 16.5 -54t54.5 -15q35 0 55.5 15.5t25.5 35.5q4 19 -6.5 29t-27.5 16
t-36.5 9.5t-34.5 9.5q-13 5 -25 11t-20.5 14.5t-11.5 21.5t1 31q8 39 41.5 64t85.5 25q51 0 77 -22.5t20 -78.5h-44z" />
    <glyph glyph-name="t" unicode="t" horiz-adv-x="171" 
d="M214 267h-52l-47 -218q-3 -15 11.5 -18t35.5 0l-9 -41q-27 -6 -44.5 -5t-28 7.5t-13.5 16.5t-1 21l51 237h-45l8 39h45l18 83h45l-18 -83h52z" />
    <glyph glyph-name="u" unicode="u" horiz-adv-x="320" 
d="M278 0h-45l7 35q-17 -14 -39.5 -28.5t-58.5 -14.5q-31 0 -50 8.5t-28.5 24t-10.5 36.5t4 45l42 200h45l-42 -199q-8 -35 4 -54t50 -19q41 0 69 30t38 76l35 166h45z" />
    <glyph glyph-name="v" unicode="v" horiz-adv-x="290" 
d="M165 0h-45l-51 306h49l39 -247l142 247h50z" />
    <glyph glyph-name="w" unicode="w" horiz-adv-x="420" 
d="M313 0h-43l-11 248h3l-118 -248h-48l-28 306h48l18 -240l117 240h45l11 -238l123 238h48z" />
    <glyph glyph-name="x" unicode="x" horiz-adv-x="290" 
d="M204 158l80 -158h-53l-61 124l-117 -124h-53l151 158l-77 148h54l56 -115l106 115h55z" />
    <glyph glyph-name="y" unicode="y" horiz-adv-x="302" 
d="M176 7q-35 -59 -61.5 -91.5t-63.5 -32.5q-9 0 -18 1t-17 4l9 40q10 -2 16.5 -3.5t14.5 -1.5q14 0 24 9t18.5 21.5t15 26t12.5 23.5l-52 303h50l38 -246l141 246h50z" />
    <glyph glyph-name="z" unicode="z" horiz-adv-x="290" 
d="M319 271l-237 -232h196l-8 -39h-258l8 36l237 231h-175l8 39h237z" />
    <glyph glyph-name="braceleft" unicode="{" horiz-adv-x="195" 
d="M248 410q-2 -7 -3 -13t-2 -9q-14 -2 -23 -3t-14.5 -4t-9 -9.5t-6.5 -18.5q0 -1 -3.5 -18t-8.5 -37q-5 -24 -11 -53q-5 -24 -14.5 -41t-19 -28t-18 -17.5t-10.5 -7.5q1 -2 7 -8t11 -17t7 -28t-3 -41l-22 -103q-3 -15 -2 -23t5.5 -11.5t13.5 -4.5t21 -2l-9 -38l-41 2
q-6 0 -13 5t-12.5 14t-8 22t0.5 29q6 30 11 54q5 20 8.5 37t3.5 19q6 32 1 50.5t-31 23.5l8 40q30 6 42 24.5t20 50.5q0 1 3.5 18t8.5 37q5 24 11 53q3 16 11 29t17.5 22.5t19 14.5t15.5 5l43 1z" />
    <glyph glyph-name="bar" unicode="|" horiz-adv-x="152" 
d="M67 -126h-35l117 551h35z" />
    <glyph glyph-name="braceright" unicode="}" horiz-adv-x="195" 
d="M181 131q-29 -5 -41.5 -23.5t-20.5 -50.5q-1 -2 -4 -19t-8 -37q-5 -24 -11 -54q-3 -16 -11 -29t-17.5 -22t-19 -14t-15.5 -5l-43 -2l9 38q12 1 21 2t15.5 4.5t10.5 11.5t7 23l22 103q5 24 14.5 41t19.5 28t18 17t10 8q-2 1 -7 7.5t-10 17.5t-7.5 28t2.5 41q6 29 11 53
q5 20 8.5 37t3.5 18q2 12 1.5 18.5t-5 9.5t-13 4t-22.5 3q1 3 2 9t3 13l4 16l41 -1q6 0 13 -5t12.5 -14.5t8 -22.5t-0.5 -29q-6 -29 -11 -53q-5 -20 -8.5 -37t-3.5 -18q-6 -32 -1.5 -50.5t31.5 -24.5z" />
    <glyph glyph-name="asciitilde" unicode="~" horiz-adv-x="341" 
d="M347 240q-3 -20 -11.5 -35t-19.5 -26q-19 -20 -42 -24t-49 15l-53 40q-9 9 -19 8.5t-19 -7.5t-15.5 -18t-7.5 -23h-31q8 33 22.5 52t30.5 27t31.5 7t25.5 -8l66 -46q11 -8 22 -7.5t19 6.5t13.5 16.5t6.5 22.5h30v0z" />
    <glyph glyph-name="uni00A0" unicode="&#xa0;" horiz-adv-x="250" 
 />
    <glyph glyph-name="cent" unicode="&#xa2;" horiz-adv-x="324" 
d="M305 184q-15 -38 -43.5 -65t-63.5 -32l-11 -51h-29l11 51q-24 4 -39 17t-21.5 30.5t-7 38t3.5 39.5q3 15 11.5 34.5t22.5 38t34 33t48 17.5l11 52h29l-11 -52q61 -9 67 -79h-34q-2 20 -11.5 33t-27.5 17l-40 -189q42 8 69 67h32zM215 305q-29 -6 -49 -31.5t-28 -61.5
q-8 -38 1.5 -63t35.5 -32z" />
    <glyph glyph-name="sterling" unicode="&#xa3;" horiz-adv-x="322" 
d="M323 297q10 43 -8 68t-51 25q-29 0 -55.5 -21t-33.5 -54q-3 -12 -6.5 -28t-6.5 -32t-6 -29.5t-4 -19.5h108l-8 -40h-109l-26 -124h191l-9 -42h-285l9 42h49l26 124h-49l9 40h48l23 105q6 27 19.5 49.5t32.5 39t42.5 25.5t48.5 9q24 0 44 -9t34 -25t20 -38.5t0 -48.5
l-3 -16h-44z" />
    <glyph glyph-name="yen" unicode="&#xa5;" horiz-adv-x="387" 
d="M335 263h87l-9 -42h-113l-44 -53h146l-9 -42h-146l-27 -126h-49l27 126h-152l9 42h152l-22 53h-119l9 42h93l-67 162h62l80 -205l164 205h62z" />
    <glyph glyph-name="copyright" unicode="&#xa9;" horiz-adv-x="471" 
d="M503 214q-10 -46 -36 -87t-62.5 -71.5t-80.5 -48t-90 -17.5q-47 0 -84 17.5t-61 48t-33 71.5t1 87t36.5 86.5t63 70.5t81 47.5t91.5 17.5q46 0 83 -17.5t60.5 -47.5t32 -70.5t-1.5 -86.5zM466 214q8 38 1 72t-27 59t-50.5 39.5t-68.5 14.5q-39 0 -76 -14.5t-67.5 -39.5
t-52.5 -59t-30 -72q-8 -39 -0.5 -72.5t27.5 -59t50.5 -40t69.5 -14.5q38 0 75 14.5t67 39.5t52 59t30 73zM381 179q-17 -43 -47.5 -68t-75.5 -25q-29 0 -48 10t-29 27t-11.5 40.5t4.5 50.5q6 25 18 48.5t29.5 41t40.5 28t50 10.5q42 0 63 -20t19 -65h-33q-3 55 -56 55
q-21 0 -37 -8.5t-28 -22.5t-19.5 -31.5t-11.5 -35.5t-3.5 -35.5t6.5 -31.5t18.5 -22.5t33.5 -8.5q29 0 49.5 17t32.5 46h35z" />
    <glyph glyph-name="guillemotleft" unicode="&#xab;" horiz-adv-x="324" 
d="M310 207l-71 -48l51 -48l-11 -50l-76 72l11 52l107 72zM193 207l-73 -48l53 -48l-11 -50l-77 72l11 52l108 72z" />
    <glyph glyph-name="registered" unicode="&#xae;" horiz-adv-x="430" 
d="M483 210q-10 -46 -36 -87t-63 -71.5t-81 -48t-90 -17.5q-47 0 -84 17.5t-61 48t-32.5 71.5t1.5 87t36 86.5t62.5 70.5t81 47.5t91.5 17.5q46 0 83 -17.5t60.5 -47.5t32.5 -70.5t-1 -86.5zM456 210q9 40 1 76t-29 62t-53.5 41.5t-72.5 15.5q-41 0 -79.5 -15.5t-71 -41.5
t-55 -62t-31.5 -76q-9 -41 -1.5 -76.5t28.5 -62t53.5 -42t73.5 -15.5q40 0 79 15.5t71 42t55 62t32 76.5zM387 268q-8 -37 -33.5 -52t-58.5 -16l50 -115h-36l-47 115h-56l-25 -115h-30l53 249h116q31 0 50 -12q13 -8 16.5 -23t0.5 -31zM356 269q3 14 -1 22.5t-12 13t-19 6
t-23 1.5h-72l-18 -88h75q22 0 43 8t27 37z" />
    <glyph glyph-name="guillemotright" unicode="&#xbb;" horiz-adv-x="324" 
d="M291 133l-105 -72l11 50l73 48l-51 48l11 50l72 -72zM173 133l-103 -72l11 50l74 48l-51 48l11 50l69 -72z" />
    <glyph glyph-name="onequarter" unicode="&#xbc;" horiz-adv-x="410" 
d="M366 48l-10 -48h-32l10 48h-89l7 32l123 131h25l-27 -131h31l-7 -32h-31zM67 0h-43l394 425h43zM108 215l30 142h-47l6 26q20 3 29 5.5t14 6.5t9 10t12 19h24l-45 -209h-32zM358 161q-3 -4 -14.5 -17t-24.5 -27q-15 -17 -32 -37h54z" />
    <glyph glyph-name="onehalf" unicode="&#xbd;" horiz-adv-x="410" 
d="M421 147q-4 -17 -14.5 -29.5t-24 -22.5t-28.5 -17t-27 -12q-2 0 -7.5 -3t-12.5 -7.5t-13 -10.5t-9 -13h110l-6 -32h-146q6 22 14 37.5t19 26.5t26.5 20t36.5 19q15 7 29.5 16.5t18.5 27.5q2 11 -1 17.5t-8.5 10t-11.5 4.5t-9 1q-22 -1 -33 -12.5t-16 -34.5h-33
q3 13 9 26.5t16 25t26.5 19t40.5 7.5q32 0 45.5 -20.5t8.5 -43.5zM57 0h-43l394 425h43zM108 215l31 143h-47l5 26q20 3 29.5 5.5t14.5 6.5t8.5 10t11.5 19h24l-45 -210h-32z" />
    <glyph glyph-name="threequarters" unicode="&#xbe;" horiz-adv-x="410" 
d="M92 0h-43l394 425h43zM369 48l-10 -48h-32l10 48h-89l7 32l123 131h25l-27 -131h31l-7 -32h-31zM218 277q-6 -30 -31 -47.5t-56 -17.5q-22 0 -34 7t-18 17.5t-6.5 23.5t1.5 25h32q-3 -17 1.5 -30t27.5 -13q22 1 34.5 11t14.5 23q5 23 -5.5 29t-43.5 6l6 29q27 0 39 5
t17 26q4 17 -5.5 22t-19.5 5q-20 0 -30.5 -9.5t-15.5 -32.5h-33q17 73 83 73q28 0 45.5 -14.5t10.5 -47.5q-4 -15 -12.5 -24.5t-17.5 -14.5q15 -9 17.5 -22t-1.5 -29zM359 154l-69 -74h54z" />
    <glyph glyph-name="multiply" unicode="&#xd7;" horiz-adv-x="313" 
d="M217 141l66 -85l-39 -32l-66 84l-105 -86l-24 30l105 87l-70 88l39 32l69 -88l107 88l24 -31z" />
    <glyph glyph-name="divide" unicode="&#xf7;" horiz-adv-x="341" 
d="M247 221h-61l13 61h61zM336 120h-283l9 41h283zM200 -1h-61l13 61h61z" />
    <glyph glyph-name="kokaithai" unicode="&#xe01;" horiz-adv-x="361" 
d="M309 0h-41l50 235q4 18 -0.5 32.5t-15.5 24t-26.5 15t-34.5 5.5q-23 0 -50.5 -9t-51.5 -26q11 -3 22 -8q22 -10 42 -30q-16 -4 -30 -13q-12 -8 -23 -21t-16 -35l-36 -170h-42l36 168q7 35 23 49t31 20q-7 7 -17 13q-8 5 -21 9.5t-30 6.5q22 21 48 39q23 15 54 27.5
t68 12.5q28 0 51 -7t38.5 -20.5t21.5 -34t0 -48.5z" />
    <glyph glyph-name="khokhaithai" unicode="&#xe02;" horiz-adv-x="368" 
d="M330 65q-5 -20 -11 -33t-15.5 -20t-24 -9.5t-36.5 -2.5h-137l8 36h42l25 120q4 20 11.5 31t16 19.5t16 19t13.5 29.5q4 14 1 26t-11.5 20t-21 10.5t-27.5 -1.5q10 -3 16 -10q5 -6 8.5 -16.5t-1.5 -28.5q-8 -31 -32.5 -45.5t-50.5 -10.5q-17 2 -27 10t-14.5 18.5t-4 22.5
t5.5 24q14 33 48.5 52t66.5 19q24 0 41 -7.5t27.5 -20t14 -28t0.5 -31.5q-5 -20 -12 -31t-15.5 -20t-16 -21.5t-12.5 -35.5l-24 -114h54q20 0 26.5 6t10.5 23l58 273h42zM147 293q-15 0 -25 -9.5t-12.5 -21.5t3.5 -21.5t21 -9.5t25 9.5t12.5 21.5t-3.5 21.5t-21 9.5z" />
    <glyph glyph-name="khokhuatthai" unicode="&#xe03;" horiz-adv-x="390" 
d="M352 65q-5 -20 -10.5 -33t-15 -20t-24 -9.5t-36.5 -2.5h-137l8 36h41l38 182q6 28 19 38t25 17q8 5 8.5 12t-3.5 13t-9.5 10.5t-9.5 5.5l-48 -28l-42 28q-23 -7 -38 -24t-16 -28q-1 -1 8 5t25 6q23 -1 39.5 -14.5t9.5 -46.5q-3 -15 -11.5 -26.5t-19 -19t-22.5 -11
t-22 -3.5q-20 0 -33 9.5t-18.5 26.5t-2.5 40t17 50q9 17 22.5 30.5t28 22t26.5 12.5t18 2l38 -27l45 27q9 -3 19.5 -9t19 -14t13 -18.5t1.5 -23.5q-3 -12 -9 -18.5t-13 -11.5t-13.5 -12t-9.5 -22l-38 -180h54q20 0 26.5 6t10.5 23l58 273h41zM129 244q-15 0 -25 -9.5
t-12.5 -21t3.5 -21t21 -9.5t25 9.5t12.5 21t-3.5 21t-21 9.5z" />
    <glyph glyph-name="khokhwaithai" unicode="&#xe04;" horiz-adv-x="365" 
d="M314 0h-42l48 226q6 30 -5 49.5t-32.5 29.5t-48.5 10t-52 -10t-45 -30.5t-26 -50.5q-11 -46 11 -71l5 27q8 35 31.5 59.5t61.5 24.5q30 0 41.5 -19t6.5 -42.5t-24 -42.5t-50 -19q-11 0 -20 3.5t-14 9.5l-33 -154h-42l24 112q-24 19 -34 48.5t-2 65.5q9 40 36 67t62 40.5
t72.5 14t66.5 -12.5t45 -39t8 -65zM214 233q-15 0 -25 -9.5t-12.5 -21t3.5 -21t21 -9.5t25 9.5t12.5 21t-3.5 21t-21 9.5z" />
    <glyph glyph-name="khokhonthai" unicode="&#xe05;" horiz-adv-x="365" 
d="M314 0h-42l48 226q5 24 4 38.5t-5 23t-10 12.5t-10 9l-62 -35q-3 3 -7 6l-7.5 5t-8.5 7q-11 8 -23 17q-37 -15 -55.5 -36.5t-23.5 -48.5q-5 -22 -3 -40.5t13 -30.5l5 27q8 35 31.5 59.5t61.5 24.5q30 0 41.5 -19t6.5 -42.5t-24 -42.5t-50 -19q-11 0 -20 3.5t-14 9.5
l-33 -154h-42l24 112q-24 19 -34 48.5t-2 65.5q4 19 15.5 36.5t28 33t36.5 28t41 21.5l50 -40l64 40q23 -13 35.5 -27.5t18 -29.5t5 -29.5t-3.5 -27.5zM214 233q-15 0 -25 -9.5t-12.5 -21t3.5 -21t21 -9.5t25 9.5t12.5 21t-3.5 21t-21 9.5z" />
    <glyph glyph-name="khorakhangthai" unicode="&#xe06;" horiz-adv-x="457" 
d="M405 0h-42q4 14 -3 32.5t-23 35.5t-39.5 30t-53.5 16l-13 -62q-5 -26 -22 -42t-46 -16q-21 0 -33 11t-15.5 28t1 37t17 37t31.5 28.5t45 12.5l2.5 11t5.5 24t5.5 24l2.5 11q6 28 19 38t24 17q8 5 8.5 12t-3.5 13t-9.5 10.5t-9.5 5.5l-48 -28l-41 28q-23 -7 -38.5 -24
t-16.5 -28q-1 -1 8.5 5t25.5 6q11 0 21.5 -3.5t17.5 -11t10 -19t0 -27.5q-3 -15 -11.5 -26.5t-19.5 -19t-23 -11t-22 -3.5q-20 0 -33 9.5t-18.5 26.5t-2.5 40t17 50q9 17 23 30.5t28 22t26.5 12.5t17.5 2l38 -27l45 27q9 -3 19.5 -9t19 -14t13 -18.5t1.5 -23.5
q-3 -12 -9 -18.5t-13 -11.5t-13.5 -12t-9.5 -22q0 -1 -2.5 -11t-5.5 -23q-4 -15 -7 -34q26 -2 47.5 -10.5t37.5 -20t26.5 -24t15.5 -22.5l57 267h42zM137 244q-15 0 -25 -9.5t-12.5 -21t3.5 -21t21 -9.5t25 9.5t12.5 21t-3.5 21t-21 9.5zM204 116q-17 0 -29 -9t-18.5 -21.5
t-7.5 -26t4 -21.5q7 -11 19.5 -9.5t16.5 17.5z" />
    <glyph glyph-name="ngonguthai" unicode="&#xe07;" horiz-adv-x="287" 
d="M244 44q-5 -23 -20.5 -35.5t-33.5 -15.5t-34.5 4.5t-23.5 25.5l-72 189l37 19l72 -189q5 -12 18 -11t16 16l38 177q-5 -3 -9.5 -3.5t-10.5 -0.5q-30 0 -41 19t-6.5 42.5t23.5 42.5t50 19q29 0 41 -18t7 -45zM240 312q-15 0 -25 -9.5t-12.5 -21.5t3.5 -21.5t21 -9.5
t25 9.5t12.5 21.5t-3.5 21.5t-21 9.5z" />
    <glyph glyph-name="chochanthai" unicode="&#xe08;" horiz-adv-x="331" 
d="M280 0h-40q3 17 0 41.5t-8 46.5q-6 26 -15 52q-8 -14 -25 -22.5t-34 -8.5q-31 0 -42 19t-6 42t24.5 42.5t49.5 19.5q19 0 34 -10t20 -30l24 -88l28 130q4 22 -0.5 37.5t-15.5 24.5t-26 13t-31 4q-38 0 -68.5 -17t-52.5 -40l-21 20q9 10 22 22t32 22.5t42.5 17.5t53.5 7
q54 0 85 -27.5t20 -81.5zM178 201q-15 0 -25 -9.5t-12.5 -21t3.5 -21t21 -9.5t25 9.5t12.5 21t-3.5 21t-21 9.5z" />
    <glyph glyph-name="chochingthai" unicode="&#xe09;" horiz-adv-x="390" 
d="M396 67q-7 -33 -30 -53t-51 -20q-17 0 -26.5 10.5t-5.5 29.5q-1 0 2 12t6 27q4 17 9 39q-31 -5 -58 -17t-48 -28.5t-34.5 -34t-16.5 -32.5h-41l25 119q-5 -4 -10 -4.5t-11 -0.5q-30 0 -41 19t-6.5 42.5t23.5 42.5t50 19q29 0 41.5 -18t6.5 -44l-21 -102q32 32 72.5 49.5
t75.5 22.5l10 44q2 8 3 16t3 14q2 7 3 14q8 39 -11.5 59.5t-60.5 20.5q-38 0 -69 -19t-49 -39l-21 21q21 25 59.5 47t85.5 22q58 0 88.5 -29.5t19.5 -82.5l-19 -88q31 -6 42.5 -26.5t4.5 -51.5zM365 67q4 17 -1 30t-22 15l-16 -76q-2 -9 4 -9q11 -1 21.5 11.5t13.5 28.5z
M126 206q-15 0 -25 -9.5t-12.5 -21t3.5 -21t21 -9.5q16 0 26 9.5t12 21t-3.5 21t-21.5 9.5z" />
    <glyph glyph-name="chochangthai" unicode="&#xe0a;" horiz-adv-x="368" 
d="M426 345q-14 -21 -31.5 -35.5t-32.5 -22.5q-18 -10 -36 -15q13 -1 22 -9q8 -7 12 -20.5t-1 -38.5l-29 -139q-5 -20 -11 -33t-15.5 -20t-24 -9.5t-36.5 -2.5h-137l8 36h42l26 125q4 20 11.5 30t15.5 18t15.5 17.5t13.5 28.5q4 14 1 26t-11.5 20t-21 10.5t-27.5 -1.5
q10 -3 16 -10q5 -6 8.5 -16.5t-1.5 -28.5q-8 -31 -32.5 -45.5t-50.5 -10.5q-17 2 -27 10t-14.5 18.5t-4 22.5t5.5 24q16 38 49 54.5t65 16.5q37 0 59 -18.5t25 -41.5q18 1 38 9q17 7 39 22.5t47 46.5zM316 195q5 26 -0.5 38.5t-14.5 17.5q-11 5 -26 4q-3 -20 -10 -29.5
t-15 -17.5t-15.5 -19t-12.5 -34l-25 -119h55q20 0 26.5 6t10.5 23zM147 293q-15 0 -25 -9.5t-12.5 -21.5t3.5 -21.5t21 -9.5t25 9.5t12.5 21.5t-3.5 21.5t-21 9.5z" />
    <glyph glyph-name="sosothai" unicode="&#xe0b;" horiz-adv-x="390" 
d="M453 353q-14 -20 -32.5 -34t-35.5 -23q-19 -11 -39 -18l7.5 -2t15.5 -9.5t13 -22.5t-1 -40l-29 -139q-5 -20 -10.5 -33t-15 -20t-24 -9.5t-36.5 -2.5h-137l8 36h41l38 182q6 28 18.5 37.5t25.5 17.5q8 5 8.5 11.5t-3 12.5t-9.5 11t-10 6l-48 -28l-42 28q-23 -7 -38 -24
t-16 -28q-1 -1 8 5t25 6q23 -1 39.5 -14.5t9.5 -46.5q-3 -15 -11.5 -26.5t-19 -19t-22.5 -11t-22 -3.5q-20 0 -33 9.5t-18.5 26.5t-2.5 40t17 50q9 17 22.5 30.5t28 22t26.5 12.5t18 2l38 -27l45 27q17 -5 28 -13.5t17 -17.5q7 -11 10 -23q20 5 41 16q18 9 39 25t41 42z
M340 204q5 26 -1 38t-16 17q-11 5 -28 3q-5 -6 -10.5 -9t-10.5 -6.5t-9 -10.5t-7 -20l-38 -180h54q20 0 26.5 6t10.5 23zM129 244q-15 0 -25 -9.5t-12.5 -21t3.5 -21t21 -9.5t25 9.5t12.5 21t-3.5 21t-21 9.5z" />
    <glyph glyph-name="chochoethai" unicode="&#xe0c;" horiz-adv-x="493" 
d="M441 0h-41q-2 6 -8.5 18t-18.5 26t-28.5 26.5t-38.5 20.5l-11 -53q-5 -20 -17 -32t-32 -12q-26 0 -36 20t-4 48q5 26 22.5 43.5t43.5 19.5l26 124q6 27 -6.5 42.5t-35.5 20t-53.5 -1.5t-60.5 -21q11 -4 22 -10q10 -5 21 -13t22 -19q-16 -2 -30 -9q-12 -7 -23.5 -20
t-17.5 -39l-15 -67q7 4 23 4q29 0 39.5 -19t6 -42t-23.5 -42t-48 -19q-27 0 -41.5 16.5t-8.5 45.5l26 121q7 34 24 50.5t33 21.5q-8 7 -19 13q-9 5 -21.5 10.5t-29.5 9.5q17 17 41 31q20 12 48.5 22t64.5 10q27 0 49 -4.5t36.5 -15.5t20 -29.5t-0.5 -46.5l-27 -125
q10 -2 23 -9t26.5 -17t26.5 -22.5t22 -25.5l61 288h41zM265 96q-14 -2 -20.5 -12.5t-10.5 -25.5q-3 -17 6 -24t14 6zM135 86q-15 0 -25 -9.5t-12.5 -21t3.5 -21t21 -9.5t25 9.5t12.5 21t-3.5 21t-21 9.5z" />
    <glyph glyph-name="yoyingthai" unicode="&#xe0d;" horiz-adv-x="493" 
d="M455 65q-5 -20 -10.5 -33t-15 -20t-24 -9.5t-36.5 -2.5h-165l8 36h41l45 213q6 27 -6.5 42.5t-35.5 20t-53.5 -1.5t-60.5 -21q11 -4 22 -10q10 -5 21 -13t22 -19q-16 -2 -30 -9q-12 -7 -23.5 -20t-17.5 -39l-15 -67q7 4 23 4q29 0 39.5 -19t6 -42t-23.5 -42t-48 -19
q-27 0 -41.5 16.5t-8.5 45.5l26 121q7 34 24 50.5t33 21.5q-8 7 -19 13q-9 5 -21.5 10.5t-29.5 9.5q17 17 41 31q20 12 48.5 22t64.5 10q27 0 49 -4.5t36.5 -15.5t20 -29.5t-0.5 -46.5l-45 -213h82q20 0 26.5 6t10.5 23l58 273h41zM430 -36q-9 -44 -32.5 -72t-53 -43
t-60.5 -17t-56 6t-39.5 25.5t-9.5 42.5q2 10 7.5 21.5t14.5 20.5t22 14.5t30 4.5q25 -1 35.5 -14.5t10.5 -31t-10.5 -34.5t-27.5 -26q31 -1 57 10q23 9 43.5 30t27.5 63h21h20zM135 86q-15 0 -25 -9.5t-12.5 -21t3.5 -21t21 -9.5t25 9.5t12.5 21t-3.5 21t-21 9.5zM244 -65
q-14 0 -22.5 -8.5t-10.5 -18.5t3 -18.5t19 -8.5q13 0 21.5 8.5t11 18.5t-3 18.5t-18.5 8.5z" />
    <glyph glyph-name="dochadathai" unicode="&#xe0e;" horiz-adv-x="403" 
d="M315 -170h-38q-9 17 -22 31t-25 24q-14 11 -29 21q-6 -12 -17 -25.5t-25.5 -24.5t-32.5 -18.5t-38 -6.5q-29 2 -44 20t-7 47q6 24 21.5 39.5t36 22.5t45 5t49.5 -12q4 6 8 14q3 7 7 15t7 19l32 -10q-3 -9 -6.5 -18.5t-7.5 -17.5q-4 -9 -8 -17q20 -12 39 -27.5t24 -26.5
q21 98 38 175q7 33 14 64.5t12 56.5q6 29 11 55q8 38 -15.5 57.5t-61.5 19.5q-23 0 -50 -9t-51 -26l6 -2t15 -6.5t20.5 -11.5t21.5 -18q-16 -4 -30 -13q-12 -8 -23 -21t-16 -35l-12 -58q-2 -11 -4.5 -21.5t-4.5 -18.5q-3 -10 -4 -18q-5 -23 -23.5 -41.5t-49.5 -18.5t-42 19
t-6.5 42t24 42t50.5 19q7 0 11 -0.5t8 -3.5l12 56q7 35 22.5 49t30.5 20q-7 7 -17 13q-8 5 -21 9.5t-30 6.5q23 21 49 39q23 15 53.5 27.5t67.5 12.5q28 0 51.5 -7t39 -20.5t21.5 -34t0 -48.5zM96 86q-15 0 -25 -9.5t-12.5 -21t3.5 -21t21 -9.5t25 9.5t12.5 21t-3.5 21
t-21 9.5zM172 -79q-29 10 -49 9.5t-32 -7t-17 -18t-3 -21.5q2 -15 20.5 -18t32.5 3q11 5 19 13t15 17q7 10 14 22z" />
    <glyph glyph-name="topatakthai" unicode="&#xe0f;" horiz-adv-x="403" 
d="M315 -170h-40l-35 56l-62 -56q-3 8 -7.5 16t-8.5 15q-4 8 -9 15q-11 -13 -23 -24q-11 -9 -26 -16.5t-32 -6.5q-24 0 -37 17t-5 48q6 21 20.5 33t32.5 16.5t36 1t31 -15.5l12 22q5 10 11 22.5t11 25.5l31 -9q-8 -22 -20.5 -46.5t-21.5 -37.5q3 -4 7 -8q3 -4 6 -8.5t6 -9.5
l54 45l37 -48l76 358q8 38 -15.5 57.5t-61.5 19.5q-23 0 -50 -9t-51 -26l6 -2t15 -6.5t20.5 -11.5t21.5 -18q-16 -4 -30 -13q-12 -8 -23 -21t-16 -35l-12 -58q-2 -11 -4.5 -21.5t-4.5 -18.5q-3 -10 -4 -18q-5 -23 -23.5 -41.5t-49.5 -18.5t-42 19t-6.5 42t24 42t50.5 19
q11 0 19 -4l12 56q7 35 22.5 49t30.5 20q-7 7 -17 13q-8 5 -21 9.5t-30 6.5q23 21 49 39q23 15 53.5 27.5t67.5 12.5q28 0 51.5 -7t39 -20.5t21.5 -34t0 -48.5zM96 86q-15 0 -25 -9.5t-12.5 -21t3.5 -21t21 -9.5t25 9.5t12.5 21t-3.5 21t-21 9.5zM132 -99q-22 17 -41 12.5
t-26 -18.5q-6 -12 -3.5 -19.5t8.5 -11.5t14 -4t15 5t13 11.5t11 11.5q5 6 9 13z" />
    <glyph glyph-name="thothanthai" unicode="&#xe10;" horiz-adv-x="322" 
d="M380 291q-30 -12 -50.5 -10t-38 8.5t-33.5 14t-36 7.5q-17 0 -33.5 -8.5t-19.5 -13.5q16 -5 31 -9q13 -4 27.5 -7.5t26.5 -6.5q25 -7 37.5 -16t17 -21.5t2.5 -28t-6 -34.5q-10 -47 -18 -83q-3 -16 -6.5 -31t-6 -26.5t-3.5 -18.5l-1 -7h-50q1 18 -1.5 38.5t-6.5 37.5
q-4 20 -10 40q-8 -14 -25 -22.5t-34 -8.5q-31 0 -42 19t-6 42t24.5 42.5t49.5 19.5q19 0 34 -10t20 -30l23 -85l17 81q4 20 3.5 32.5t-6 20.5t-15.5 12.5t-24 9.5q-20 5 -41.5 10t-39.5 8l-42 7q10 14 24.5 28.5t31.5 26t36 19t39 7.5q26 0 43.5 -6.5t33.5 -12.5t32.5 -8
t39.5 8v-6q0 -2 0.5 -5.5t0.5 -6.5q0 -8 1 -17zM240 -139q-3 -17 -13 -24t-24 -14l-32 -16l-32 25l-45 -23l-13 35q-9 -12 -24 -22.5t-37 -8.5q-20 2 -30.5 14t-4.5 37q4 15 15 26t25 16.5t29.5 3.5t27.5 -12q6 9 10 20q4 9 7 21t5 25h16h15q-7 -46 -34 -90q2 -7 5 -12
q2 -5 3.5 -8.5t2.5 -3.5l35 17l33 -25l18 10q5 4 7 12q1 4 1 10q0 -1 -2 -1q-2 -1 -9 -1q-25 0 -34 15.5t-4.5 33.5t20 33t38.5 15q21 0 32 -13.5t6 -36.5zM163 177q-15 0 -25 -9.5t-12.5 -21t3.5 -21t21 -9.5t25 9.5t12.5 21t-3.5 21t-21 9.5zM210 -56q-12 0 -19.5 -7.5
t-9.5 -16.5t2.5 -16.5t16.5 -7.5t19.5 7.5t9.5 16.5t-2.5 16.5t-16.5 7.5zM68 -133q-3 4 -7 8q-4 3 -9 6t-12 3q-11 0 -18.5 -7t-9.5 -15t2 -15t17 -7q8 0 14.5 4t11.5 9.5t8 9.5z" />
    <glyph glyph-name="thonangmonthothai" unicode="&#xe11;" horiz-adv-x="469" 
d="M417 0h-41l56 262q2 11 1 25t-18 14q-11 0 -29.5 -14.5t-39 -39t-42.5 -56t-40.5 -65t-32.5 -66.5t-19 -60h-42l46 218q6 28 19 38t25 17q8 5 8.5 12t-3.5 13t-9.5 10.5t-9.5 5.5l-48 -28l-42 28q-23 -7 -38 -24t-16 -28q-1 -1 8 5t25 6q23 -1 39.5 -14.5t9.5 -46.5
q-3 -15 -11.5 -26.5t-19 -19t-22.5 -11t-22 -3.5q-20 0 -33 9.5t-18.5 26.5t-2.5 40t17 50q9 17 22.5 30.5t28 22t26.5 12.5t18 2l38 -27l45 27q9 -3 19.5 -9t19 -14t13 -18.5t1.5 -23.5q-3 -12 -9 -18.5t-13 -11.5t-13.5 -12t-9.5 -22l-12 -54q28 49 59 88q13 16 27.5 32
t30 28.5t31.5 20t31 7.5q34 0 44 -24t4 -52zM129 244q-15 0 -25 -9.5t-12.5 -21t3.5 -21t21 -9.5t25 9.5t12.5 21t-3.5 21t-21 9.5z" />
    <glyph glyph-name="thophuthaothai" unicode="&#xe12;" horiz-adv-x="520" 
d="M468 0h-41q-1 6 -7.5 18t-18.5 26t-29 26.5t-39 20.5l-11 -53q-5 -20 -17 -32t-32 -12q-26 0 -36 20t-4 48q5 26 22.5 43.5t43.5 19.5l21 99q7 31 4 49.5t-25 35.5l-62 -35q-3 3 -7 6l-7.5 5t-8.5 7q-11 8 -23 17q-35 -16 -54 -37.5t-26.5 -45.5t-5 -50.5t12.5 -52.5
q6 -17 8 -25.5t3 -13.5q0 -5 -1 -7q9 13 19 24t18 19q10 10 18 17q-24 7 -30.5 26.5t0 40.5t25.5 37.5t47 16.5q30 0 41.5 -20t5.5 -43q-5 -25 -19.5 -36.5t-28.5 -25.5q-29 -28 -57 -60t-44 -73h-42q14 18 14 37t-2 36q-2 14 -7.5 30t-11 35t-7.5 40t4 44q11 43 46.5 74.5
t76.5 48.5l50 -40l64 40q23 -13 36 -25.5t18.5 -27t4.5 -31t-5 -37.5l-22 -100q10 -2 24.5 -10.5t29 -19.5t26.5 -23t17 -22l62 289h41zM218 227q-15 0 -25 -9.5t-12.5 -21.5t3.5 -21.5t21 -9.5t25 9.5t12.5 21.5t-3.5 21.5t-21 9.5zM292 96q-14 -2 -20.5 -12.5t-10.5 -25.5
q-3 -17 6 -24t14 6z" />
    <glyph glyph-name="nonenthai" unicode="&#xe13;" horiz-adv-x="507" 
d="M515 69q-7 -34 -27.5 -52t-41.5 -22.5t-35.5 5t-9.5 31.5q0 6 2 13q1 6 2.5 13t3.5 15q4 18 9 40q-23 -6 -45 -19.5t-39.5 -29t-30.5 -32.5t-18 -31h-40l53 249q6 27 -6.5 42.5t-35.5 20t-53.5 -1.5t-60.5 -21q11 -4 22 -10q10 -5 21 -13t22 -19q-16 -2 -30 -9
q-12 -7 -23.5 -20t-17.5 -39l-15 -67q7 4 23 4q29 0 39.5 -19t6 -42t-23.5 -42t-48 -19q-27 0 -41.5 16.5t-8.5 45.5l26 121q7 34 24 50.5t33 21.5q-8 7 -19 13q-9 5 -21.5 10.5t-29.5 9.5q17 17 41 31q20 12 48.5 22t64.5 10q27 0 49 -4.5t36.5 -15.5t20 -29.5t-0.5 -46.5
l-37 -176q20 25 54.5 45t67.5 28l41 192h41l-41 -192q28 -4 42.5 -21.5t6.5 -55.5zM483 69q4 19 -1 31t-23 14l-16 -76q-2 -9 3 -10.5t12 2.5t14.5 14t10.5 25zM135 86q-15 0 -25 -9.5t-12.5 -21t3.5 -21t21 -9.5t25 9.5t12.5 21t-3.5 21t-21 9.5z" />
    <glyph glyph-name="dodekthai" unicode="&#xe14;" horiz-adv-x="365" 
d="M314 0h-42l48 226q3 13 2.5 29t-8.5 29.5t-26 22.5t-50 9q-47 0 -83 -24t-47 -72q-5 -23 -3 -46t9 -49q3 -14 5 -29t2 -26q9 13 20 24.5t20 21.5q11 11 22 21q-24 7 -30.5 26.5t0 40.5t25.5 37.5t47 16.5q30 0 41.5 -20t5.5 -43q-5 -25 -19.5 -36.5t-28.5 -25.5
q-15 -14 -30.5 -29t-30.5 -31.5t-27.5 -34.5t-20.5 -38h-41q12 26 13 48q2 21 -2.5 41.5t-9.5 41.5t-7.5 43t4.5 48q17 60 60.5 93t112.5 33q40 0 65 -11t38 -28.5t15.5 -40t-1.5 -44.5zM218 227q-15 0 -25 -9.5t-12.5 -21.5t3.5 -21.5t21 -9.5t25 9.5t12.5 21.5t-3.5 21.5
t-21 9.5z" />
    <glyph glyph-name="totaothai" unicode="&#xe15;" horiz-adv-x="365" 
d="M314 0h-42l48 224q7 32 0.5 50t-29.5 35l-62 -35q-3 3 -7 6l-7.5 5t-8.5 7q-11 8 -23 17q-36 -17 -52.5 -40t-22.5 -49q-5 -23 -3 -46t9 -49q3 -14 5.5 -29.5t1.5 -25.5q9 13 20 24.5t20 21.5q11 11 22 21q-24 7 -30.5 26.5t0 40.5t25.5 37.5t47 16.5q30 0 41.5 -20
t5.5 -43q-5 -25 -19.5 -36.5t-28.5 -25.5q-15 -14 -30.5 -29t-30.5 -31.5t-27.5 -34.5t-20.5 -38h-41q12 26 13 48q2 21 -2.5 41t-9.5 41t-7.5 43.5t4.5 48.5q11 44 41.5 76.5t72.5 46.5l50 -40l64 40q45 -24 58 -51.5t4 -69.5zM218 227q-15 0 -25 -9.5t-12.5 -21.5
t3.5 -21.5t21 -9.5t25 9.5t12.5 21.5t-3.5 21.5t-21 9.5z" />
    <glyph glyph-name="thothungthai" unicode="&#xe16;" horiz-adv-x="361" 
d="M309 0h-41l50 235q4 18 -0.5 32.5t-15.5 24t-26.5 15t-34.5 5.5q-23 0 -50.5 -9t-51.5 -26q11 -3 22 -8q22 -10 42 -30q-16 -4 -30 -13q-12 -8 -23 -21t-16 -35l-13 -58q7 4 23 4q29 0 39.5 -19t6 -42t-23.5 -42t-48 -19q-27 0 -41.5 16.5t-8.5 45.5l24 112q7 35 23 49
t31 20q-7 7 -17 13q-8 5 -21 9.5t-30 6.5q22 21 48 39q23 15 54 27.5t68 12.5q28 0 51 -7t38.5 -20.5t21.5 -34t0 -48.5zM135 86q-15 0 -25 -9.5t-12.5 -21t3.5 -21t21 -9.5t25 9.5t12.5 21t-3.5 21t-21 9.5z" />
    <glyph glyph-name="thothahanthai" unicode="&#xe17;" horiz-adv-x="401" 
d="M349 0h-42l56 262q2 11 1 25t-18 14q-11 0 -29 -14.5t-39 -39t-42.5 -56t-40.5 -65t-33 -66.5t-19 -60h-41l48 224q-8 -4 -21 -4q-30 0 -41.5 19t-6.5 42.5t24.5 42.5t49.5 19q29 0 41 -18t7 -44q0 -1 -4 -19t-9 -41q-6 -26 -13 -59q12 19 32 48.5t44 58t50.5 49
t53.5 20.5q17 0 27.5 -6.5t16 -17.5t6.5 -24.5t-2 -27.5zM148 312q-15 0 -25 -9.5t-12.5 -21.5t3.5 -21.5t21 -9.5q16 0 26 9.5t12 21.5t-3.5 21.5t-21.5 9.5z" />
    <glyph glyph-name="thothongthai" unicode="&#xe18;" horiz-adv-x="320" 
d="M352 299q-24 -9 -43 -8t-36 5.5t-33.5 9.5t-35.5 5q-14 0 -25 -5t-18.5 -11.5t-12 -12t-4.5 -6.5q32 -2 61 -7q25 -5 50.5 -12.5t39.5 -18.5q13 -11 13 -23t-5 -38l-24 -112q-5 -20 -10.5 -33t-15 -20t-23 -9.5t-34.5 -2.5h-149l8 36h39l36 169h39l-36 -169h71q20 0 26 6
t10 23l23 108q2 10 3.5 17t1 12t-5 9.5t-14.5 9.5q-6 3 -24 8t-41.5 9.5t-48.5 7.5t-45 2q-2 0 0.5 7t8.5 16q7 12 18.5 25t27 24t33.5 18t39 7q25 0 42 -5.5t31.5 -10.5t29 -6.5t32.5 6.5l1 -30v0z" />
    <glyph glyph-name="nonuthai" unicode="&#xe19;" horiz-adv-x="392" 
d="M399 69q-7 -34 -27.5 -52t-41.5 -22.5t-35.5 5t-9.5 31.5l8 42q4 18 9 41q-31 -5 -58 -21t-48 -35t-35 -35.5t-18 -22.5h-41l48 224q-8 -4 -21 -4q-30 0 -41.5 19t-6.5 42.5t24.5 42.5t49.5 19q29 0 41 -18t7 -44l-2 -9.5t-5.5 -24.5t-7.5 -34.5t-8 -39.5
q-11 -48 -23 -108q22 23 44 38t41.5 24t36.5 13.5t30 7.5l41 190h42l-41 -192q28 -4 42 -21.5t6 -55.5zM148 312q-15 0 -25 -9.5t-12.5 -21.5t3.5 -21.5t21 -9.5q16 0 26 9.5t12 21.5t-3.5 21.5t-21.5 9.5zM368 69q4 19 -1.5 31t-22.5 14q-1 0 -3 -12t-5 -26l-8 -38
q-2 -9 3 -10.5t12 2.5t14.5 14t10.5 25z" />
    <glyph glyph-name="bobaimaithai" unicode="&#xe1a;" horiz-adv-x="390" 
d="M352 65q-5 -20 -10.5 -33t-15 -20t-24 -9.5t-36.5 -2.5h-206l8 36h42l40 188q-8 -4 -21 -4q-30 0 -41.5 19t-6.5 42.5t24.5 42.5t49.5 19q29 0 41 -18t7 -44l-2 -11t-6 -28t-8.5 -39t-9.5 -45l-26 -122h123q20 0 26.5 6t10.5 23l58 273h41zM148 312q-15 0 -25 -9.5
t-12.5 -21.5t3.5 -21.5t21 -9.5q16 0 26 9.5t12 21.5t-3.5 21.5t-21.5 9.5z" />
    <glyph glyph-name="poplathai" unicode="&#xe1b;" horiz-adv-x="390" 
d="M352 65q-5 -20 -10.5 -33t-15 -20t-24 -9.5t-36.5 -2.5h-206l8 36h42l40 188q-8 -4 -21 -4q-30 0 -41.5 19t-6.5 42.5t24.5 42.5t49.5 19q29 0 41 -18t7 -44l-2 -11t-6 -28t-8.5 -39t-9.5 -45l-26 -122h123q20 0 26.5 6t10.5 23l91 431h41zM148 312q-15 0 -25 -9.5
t-12.5 -21.5t3.5 -21.5t21 -9.5q16 0 26 9.5t12 21.5t-3.5 21.5t-21.5 9.5z" />
    <glyph glyph-name="phophungthai" unicode="&#xe1c;" horiz-adv-x="374" 
d="M321 0h-21q-8 0 -14 -0.5t-6 0.5q4 19 3 33.5t-10 28.5l-56 81l-90 -81q-15 -14 -22 -28.5t-11 -33.5h-42l60 280q5 27 25 45t48 18q31 0 42.5 -19t6.5 -42.5t-24.5 -42.5t-50.5 -19q-10 0 -17 4q-8 -39 -15 -69q-6 -26 -11 -47t-4 -21l115 102l71 -102l54 251h41z
M179 312q-15 0 -25 -9.5t-12.5 -21.5t3.5 -21.5t21 -9.5t25 9.5t12.5 21.5t-3.5 21.5t-21 9.5z" />
    <glyph glyph-name="fofathai" unicode="&#xe1d;" horiz-adv-x="373" 
d="M321 0h-21q-8 0 -14 -0.5t-6 0.5q4 19 3 33.5t-10 28.5l-56 81l-90 -81q-15 -14 -22 -28.5t-11 -33.5h-42l60 280q5 27 25 45t48 18q31 0 42.5 -19t6.5 -42.5t-24.5 -42.5t-50.5 -19q-10 0 -17 4q-8 -39 -15 -69q-6 -26 -11 -47t-4 -21l115 102l71 -102l87 409h41z
M179 312q-15 0 -25 -9.5t-12.5 -21.5t3.5 -21.5t21 -9.5t25 9.5t12.5 21.5t-3.5 21.5t-21 9.5z" />
    <glyph glyph-name="phophanthai" unicode="&#xe1e;" horiz-adv-x="432" 
d="M386 0h-41l0.5 4t1 10.5t0 14t-1.5 13.5l-46 216l-138 -216q-5 -7 -8 -14t-5 -13q-3 -7 -5 -15h-41l48 224q-8 -4 -21 -4q-30 0 -41.5 19t-6.5 42.5t24.5 42.5t49.5 19q29 0 41 -18t7 -44l-1.5 -7.5t-4.5 -19.5t-6.5 -27.5t-6.5 -31.5q-8 -38 -18 -85l150 228l52 -230
l49 230h41zM148 312q-15 0 -25 -9.5t-12.5 -21.5t3.5 -21.5t21 -9.5q16 0 26 9.5t12 21.5t-3.5 21.5t-21.5 9.5z" />
    <glyph glyph-name="fofanthai" unicode="&#xe1f;" horiz-adv-x="438" 
d="M386 0h-41l0.5 4t1 10.5t0 14t-1.5 13.5l-46 216l-138 -216q-5 -7 -8 -14t-5 -13q-3 -7 -5 -15h-41l48 224q-8 -4 -21 -4q-30 0 -41.5 19t-6.5 42.5t24.5 42.5t49.5 19q29 0 41 -18t7 -44l-1.5 -7.5t-4.5 -19.5t-6.5 -27.5t-6.5 -31.5q-8 -38 -18 -85l150 228l52 -230
l82 388h41zM148 312q-15 0 -25 -9.5t-12.5 -21.5t3.5 -21.5t21 -9.5q16 0 26 9.5t12 21.5t-3.5 21.5t-21.5 9.5z" />
    <glyph glyph-name="phosamphaothai" unicode="&#xe20;" horiz-adv-x="403" 
d="M351 0h-42l50 235q8 38 -15.5 57.5t-61.5 19.5q-23 0 -50 -9t-51 -26l6 -2t15 -6.5t20.5 -11.5t21.5 -18q-16 -4 -30 -13q-12 -8 -23 -21t-16 -35l-12 -58q-2 -11 -4.5 -21.5t-4.5 -18.5q-3 -10 -4 -18q-5 -23 -23.5 -41.5t-49.5 -18.5t-42 19t-6.5 42t24 42t50.5 19
q11 0 19 -4l12 56q7 35 22.5 49t30.5 20q-7 7 -17 13q-8 5 -21 9.5t-30 6.5q23 21 49 39q23 15 53.5 27.5t67.5 12.5q28 0 51.5 -7t39 -20.5t21.5 -34t0 -48.5zM96 86q-15 0 -25 -9.5t-12.5 -21t3.5 -21t21 -9.5t25 9.5t12.5 21t-3.5 21t-21 9.5z" />
    <glyph glyph-name="momathai" unicode="&#xe21;" horiz-adv-x="399" 
d="M346 0h-41q4 14 -3 32.5t-23 35.5t-39.5 30t-53.5 16l-13 -62q-5 -26 -22.5 -42t-45.5 -16q-21 0 -33 11t-15.5 28t1 37t17 37t31.5 28.5t45 12.5q1 6 3 12q3 9 6 26l8 38q-8 -4 -20 -4q-31 0 -42 19t-6.5 42.5t24 42.5t50.5 19q29 0 41 -18t7 -44q0 -1 -5 -21.5
t-10 -45.5l-14 -66q26 -2 47.5 -10.5t37.5 -20t26.5 -24t15.5 -22.5l57 267h41zM167 312q-15 0 -25 -9.5t-12.5 -21.5t3.5 -21.5t21 -9.5t25 9.5t12.5 21.5t-3.5 21.5t-21 9.5zM145 116q-17 0 -29 -9t-18.5 -21.5t-7 -26t4.5 -21.5q7 -11 19 -9.5t16 17.5q4 19 8 35
q2 6 3 12.5t2 11.5q1 6 2 11z" />
    <glyph glyph-name="yoyakthai" unicode="&#xe22;" horiz-adv-x="347" 
d="M309 65q-5 -20 -11 -33t-15.5 -20t-24 -9.5t-36.5 -2.5h-144q-14 0 -22 10t-5 24l11 50q4 21 13 35t19 22.5t19 12.5t15 6q-36 13 -43.5 43.5t4.5 62t39.5 55.5t61.5 24q28 0 39 -18.5t6.5 -40t-22.5 -40t-48 -18.5q-12 0 -19.5 3t-12 7t-6 6.5l-1.5 2.5q-5 -19 -0.5 -32
t14.5 -21t22.5 -11.5t23.5 -3.5h6l-8 -38q-35 2 -55.5 -15.5t-26.5 -43.5l-7 -33q-2 -13 11 -13h124q20 0 26.5 6t10.5 23l58 273h42zM184 316q-15 0 -24 -9t-11.5 -20t3 -20t20.5 -9q14 0 23 9t11.5 20t-3 20t-19.5 9z" />
    <glyph glyph-name="roruathai" unicode="&#xe23;" horiz-adv-x="290" 
d="M327 299q-24 -9 -43 -8t-36 5.5t-33.5 9.5t-35.5 5q-14 0 -25 -5t-18.5 -11.5t-12 -12t-4.5 -6.5q28 -2 54 -7q22 -5 45.5 -12.5t37.5 -18.5q13 -11 13 -23t-5 -38l-27 -127q-5 -23 -23.5 -39.5t-49.5 -16.5t-42 19t-6.5 42t24 42t50.5 19q14 0 22 -4l13 61
q5 20 3.5 28.5t-18.5 19.5q-6 4 -22.5 8.5t-37 9t-43.5 7t-43 2.5q-2 0 0.5 7t8.5 16q7 12 18.5 25t27 24t33.5 18t39 7q25 0 42 -5.5t31.5 -10.5t29 -6.5t32.5 6.5zM183 86q-15 0 -25 -9.5t-12.5 -21t3.5 -21t21 -9.5t25 9.5t12.5 21t-3.5 21t-21 9.5z" />
    <glyph glyph-name="ruthai" unicode="&#xe24;" horiz-adv-x="361" 
d="M271 -177h-41l88 412q4 18 -0.5 32.5t-15.5 24t-26.5 15t-34.5 5.5q-23 0 -50.5 -9t-51.5 -26q11 -3 22 -8q22 -10 42 -30q-16 -4 -30 -13q-12 -8 -23 -21t-16 -35l-13 -58q7 4 23 4q29 0 39.5 -19t6 -42t-23.5 -42t-48 -19q-27 0 -41.5 16.5t-8.5 45.5l24 112
q7 35 23 49t31 20q-7 7 -17 13q-8 5 -21 9.5t-30 6.5q22 21 48 39q23 15 54 27.5t68 12.5q28 0 51 -7t38.5 -20.5t21.5 -34t0 -48.5zM135 86q-15 0 -25 -9.5t-12.5 -21t3.5 -21t21 -9.5t25 9.5t12.5 21t-3.5 21t-21 9.5z" />
    <glyph glyph-name="lolingthai" unicode="&#xe25;" horiz-adv-x="349" 
d="M297 0h-42q3 8 3 27.5t-4 44t-10.5 50.5t-16.5 47t-23.5 34t-29.5 11q-18 -2 -30 -14.5t-19 -28.5t-10.5 -33t-4.5 -29q4 1 8 3q10 4 23 4q30 0 41.5 -19t6.5 -41q-6 -26 -25.5 -44t-48.5 -18q-31 0 -42 20t-9 43q3 26 7 49.5t7 34.5q11 42 34.5 72.5t63.5 35.5
q33 4 53 -14t31 -42t14.5 -47.5t5.5 -29.5q8 32 13 58q5 22 8 40q2 10 4 19q8 39 -15 59t-62 20q-38 0 -67.5 -16t-49.5 -38l-23 21q8 10 22.5 21.5t34 21.5t43 16.5t49.5 6.5q57 0 89 -29t21 -83zM134 86q-15 0 -25 -9.5t-12.5 -21.5t3.5 -21.5t21 -9.5q16 0 26 9.5
t12 21.5t-3.5 21.5t-21.5 9.5z" />
    <glyph glyph-name="luthai" unicode="&#xe26;" horiz-adv-x="403" 
d="M313 -177h-42l88 412q8 38 -15.5 57.5t-61.5 19.5q-23 0 -50 -9t-51 -26l6 -2t15 -6.5t20.5 -11.5t21.5 -18q-16 -4 -30 -13q-12 -8 -23 -21t-16 -35l-12 -58q-2 -11 -4.5 -21.5t-4.5 -18.5q-3 -10 -4 -18q-5 -23 -23.5 -41.5t-49.5 -18.5t-42 19t-6.5 42t24 42t50.5 19
q11 0 19 -4l12 56q7 35 22.5 49t30.5 20q-7 7 -17 13q-8 5 -21 9.5t-30 6.5q23 21 49 39q23 15 53.5 27.5t67.5 12.5q28 0 51.5 -7t39 -20.5t21.5 -34t0 -48.5zM96 86q-15 0 -25 -9.5t-12.5 -21t3.5 -21t21 -9.5t25 9.5t12.5 21t-3.5 21t-21 9.5z" />
    <glyph glyph-name="wowaenthai" unicode="&#xe27;" horiz-adv-x="313" 
d="M279 61q-2 -11 -9 -23t-17.5 -22t-25 -16t-31.5 -6q-31 0 -42.5 19t-7 42t24 42t50.5 19q6 0 12 -1l10 -2t7 -3l27 123q8 39 -11 59t-57 20q-36 0 -65.5 -18.5t-46.5 -38.5l-20 21q20 25 57 47t82 22q54 0 82.5 -29.5t17.5 -82.5zM214 86q-15 0 -25 -9.5t-12.5 -21
t3.5 -21t21 -9.5t25 9.5t12.5 21t-3.5 21t-21 9.5z" />
    <glyph glyph-name="sosalathai" unicode="&#xe28;" horiz-adv-x="365" 
d="M417 341q-7 -13 -16.5 -24.5t-17.5 -20.5q-10 -11 -20 -19q2 -10 3 -19.5t-3 -26.5l-49 -231h-42l48 226q2 8 2.5 11.5t0.5 10.5q-11 -7 -21 -12q-9 -5 -18 -8.5t-15 -5.5v-8v-8t-1 -7q-5 -25 -26.5 -41.5t-47.5 -16.5q-11 0 -20 3.5t-14 9.5l-33 -154h-42l24 111
q-24 19 -34 48.5t-2 66.5q6 30 23.5 53t41.5 38t51.5 22.5t54.5 7.5q41 0 65.5 -12t37.5 -28q1 0 13.5 16t22.5 36zM314 276q-7 10 -18 19q-9 8 -23.5 14t-35.5 6q-14 0 -33 -4t-38 -14.5t-34 -28t-21 -44.5q-5 -22 -2.5 -40.5t13.5 -27.5l5 24q8 35 31.5 59.5t61.5 24.5
q11 0 19 -3t13 -6q5 -4 8 -9q11 4 27 13t27 17zM214 233q-15 0 -25 -9.5t-12.5 -21t3.5 -21t21 -9.5t25 9.5t12.5 21t-3.5 21t-21 9.5z" />
    <glyph glyph-name="sorusithai" unicode="&#xe29;" horiz-adv-x="401" 
d="M454 239q-6 -26 -17 -43.5t-24 -28.5t-25.5 -18t-20.5 -12l-15 -72q-5 -20 -10.5 -33t-15 -20t-24 -9.5t-36.5 -2.5h-206l8 36h42l40 188q-8 -4 -21 -4q-30 0 -41.5 19t-6.5 42.5t24.5 42.5t49.5 19q29 0 41 -18t7 -44l-2 -11t-6 -28t-8.5 -39t-9.5 -45l-26 -122h123
q20 0 26.5 6t10.5 23l13 60q-12 -3 -33.5 -3t-41.5 7t-33 21t-8 39q1 8 6 17.5t13 17.5t19.5 13.5t27.5 5.5q24 0 34.5 -11.5t11.5 -26.5t-6 -29.5t-19 -21.5q5 -1 11 -1h11t13 2l39 183h41l-36 -168q2 2 8 6t13 12t14 20.5t12 30.5h33zM268 217q-14 0 -22 -8.5t-10.5 -18.5
t2.5 -18.5t19 -8.5q13 0 21.5 8.5t11 18.5t-3 18.5t-18.5 8.5zM148 312q-15 0 -25 -9.5t-12.5 -21.5t3.5 -21.5t21 -9.5q16 0 26 9.5t12 21.5t-3.5 21.5t-21.5 9.5z" />
    <glyph glyph-name="sosuathai" unicode="&#xe2a;" horiz-adv-x="349" 
d="M394 349q-9 -17 -17.5 -29t-15.5 -20q-8 -9 -15 -15q2 -5 3 -12q1 -6 0.5 -16t-2.5 -24l-50 -233h-42q3 8 3 27.5t-4 44t-10.5 50.5t-16.5 47t-23.5 34t-29.5 11q-18 -2 -30 -14.5t-19 -28.5t-10.5 -33t-4.5 -29q4 1 8 3q10 4 23 4q30 0 41.5 -19t6.5 -41
q-6 -26 -25.5 -44t-48.5 -18q-31 0 -42 20t-9 43q3 26 7 49.5t7 34.5q11 42 34.5 72.5t63.5 35.5q14 2 23.5 -0.5t15.5 -4.5q7 -4 12 -7q26 10 44.5 22.5t29.5 20.5q-6 9 -16 16q-8 6 -22 11t-35 5q-38 0 -67.5 -16t-49.5 -38l-23 21q8 10 22.5 21.5t34 21.5t43 16.5
t49.5 6.5t44 -5.5t29 -11.5q12 -8 20 -17q5 6 10 13q8 11 19 37zM307 253q-9 -6 -20 -12q-9 -5 -20.5 -11t-22.5 -10q7 -8 13 -22q5 -12 11.5 -32.5t11.5 -49.5l12 58q5 22 8.5 40t4.5 19q2 8 2 11.5v8.5zM134 86q-15 0 -25 -9.5t-12.5 -21.5t3.5 -21.5t21 -9.5q16 0 26 9.5
t12 21.5t-3.5 21.5t-21.5 9.5z" />
    <glyph glyph-name="hohipthai" unicode="&#xe2b;" horiz-adv-x="401" 
d="M349 0h-42l34 160q3 17 1 27t-6 16q-4 7 -11 11q-38 -17 -68.5 -42t-53.5 -52.5t-37.5 -55.5t-19.5 -51l-3 -13h-41l48 224q-8 -4 -21 -4q-30 0 -41.5 19t-6.5 42.5t24.5 42.5t49.5 19q29 0 41 -18t7 -44q0 -1 -5.5 -24.5t-11.5 -52.5q-7 -33 -16 -77q16 26 38 45t42 33
q23 16 47 28q-12 12 -13.5 30.5t7.5 36t26.5 30.5t43.5 13t38 -14t12 -33t-11.5 -38.5t-33.5 -29.5q8 -5 13 -14q5 -8 6.5 -21t-2.5 -33zM354 312q-15 0 -25 -9.5t-12.5 -21t3.5 -21t21 -9.5t25 9.5t12.5 21t-3.5 21t-21 9.5zM148 312q-15 0 -25 -9.5t-12.5 -21.5t3.5 -21.5
t21 -9.5q16 0 26 9.5t12 21.5t-3.5 21.5t-21.5 9.5z" />
    <glyph glyph-name="lochulathai" unicode="&#xe2c;" horiz-adv-x="432" 
d="M528 363q-9 -16 -21 -28.5t-24.5 -21.5t-23.5 -14.5t-17 -7.5q-18 -81 -31 -145q-6 -28 -11.5 -54t-10.5 -46q-5 -24 -9 -46h-42l1 4t2 10.5t1 14t-1 13.5l-47 197l-133 -197q-5 -6 -8 -13.5t-5 -13.5l-5 -15h-41l48 224q-8 -4 -21 -4q-30 0 -41.5 19t-6.5 42.5
t24.5 42.5t49.5 19q29 0 41 -18t7 -44l-2.5 -13t-6.5 -32t-9 -41.5t-9 -41.5t-7 -32l-3 -13l146 216l49 -216l37 174q-33 -3 -44 15t-6 41t23.5 37.5t43.5 14.5t36.5 -18t3.5 -40q8 5 17 12q8 6 15.5 14.5t14.5 21.5zM407 363q-13 0 -21 -8t-10 -18t2.5 -18t17.5 -8t21.5 8
t10.5 18t-3 18t-18 8zM148 312q-15 0 -25 -9.5t-12.5 -21.5t3.5 -21.5t21 -9.5q16 0 26 9.5t12 21.5t-3.5 21.5t-21.5 9.5z" />
    <glyph glyph-name="oangthai" unicode="&#xe2d;" horiz-adv-x="357" 
d="M319 65q-5 -20 -10.5 -33t-15 -20t-24 -9.5t-36.5 -2.5h-104q-22 0 -35.5 2.5t-20.5 9.5t-7.5 20t4.5 33l12 58q5 22 8.5 39.5t3.5 18.5q1 7 6 17.5t14.5 20.5t23 17t33.5 7q30 0 41 -19t6 -42t-24 -42t-49 -19q-11 0 -20 4l-13 -60q-4 -17 0.5 -23t24.5 -6h104
q20 0 26.5 6t10.5 23l36 171q8 39 -15 58.5t-61 20.5t-68 -15.5t-51 -38.5l-21 21q8 10 22 21.5t33.5 21.5t43 16.5t49.5 6.5q57 0 88.5 -29t20.5 -83zM162 212q-15 0 -25 -9.5t-12.5 -21t3.5 -21t21 -9.5t25 9.5t12.5 21t-3.5 21t-21 9.5z" />
    <glyph glyph-name="honokhukthai" unicode="&#xe2e;" horiz-adv-x="357" 
d="M417 327q-11 -12 -21 -21t-18 -15q-10 -7 -18 -12q4 -3 2 -12l-43 -202q-5 -20 -10.5 -33t-15 -20t-24 -9.5t-36.5 -2.5h-104q-22 0 -35.5 2.5t-20.5 9.5t-7.5 20t4.5 33q5 25 9 43q3 16 6 29t3 14q1 7 6 17.5t14 20.5t22.5 17t33.5 7q30 0 41 -19t6 -42.5t-24 -42.5
t-49 -19q-7 0 -10.5 1.5t-9.5 3.5l-6 -30q-4 -17 0.5 -23t24.5 -6h104q20 0 26.5 6t10.5 23q11 54 20 95l20 94q-6 -5 -18 -9t-26.5 -8t-31 -6t-31.5 -2q-20 0 -40 3.5t-36 10t-24.5 17t-5.5 25.5q3 17 17.5 29t33.5 19.5t40.5 11t39.5 3.5q31 0 52 -6t35 -13q16 -9 25 -19
q11 8 22 18.5t22 21.5zM316 285q-8 9 -19 16q-11 6 -27 11t-41 5q-11 0 -24.5 -1.5t-26 -5t-21.5 -9t-11 -13.5t5 -13t18 -7.5t24 -3.5t25 -1q22 0 40 3t31 8q15 4 27 11zM156 182q-15 0 -25 -9.5t-12.5 -21t3.5 -21t21 -9.5t25 9.5t12.5 21t-3.5 21t-21 9.5z" />
    <glyph glyph-name="paiyannoithai" unicode="&#xe2f;" horiz-adv-x="342" 
d="M303 106q-11 -51 -41.5 -78t-89.5 -41l-3 38q25 6 41 12.5t26 16t16 23t10 33.5l24 112q-23 -38 -56 -54.5t-64 -14.5t-54 20t-27 49q-2 14 2 35t14.5 40.5t28.5 33.5t45 14q31 0 42 -19t6 -41.5t-23.5 -41.5t-45.5 -19q-9 0 -14.5 1t-9.5 3t-7 5q2 -16 15 -30t39 -14
q22 0 44 13t40.5 34.5t32 48t17.5 53.5h41zM171 314q-15 0 -24.5 -9.5t-12 -21t3 -21t20.5 -9.5t24.5 9.5t12 21t-3 21t-20.5 9.5z" />
    <glyph glyph-name="saraathai" unicode="&#xe30;" horiz-adv-x="276" 
d="M311 338q-11 -57 -51.5 -86.5t-100.5 -29.5q-32 0 -49.5 9.5t-24.5 23.5t-4 30t13 29.5t25.5 22t33.5 8.5q23 -1 35 -11t14.5 -23.5t-3 -29t-16.5 -26.5q20 1 38 10q15 8 29 24.5t19 48.5l6.5 0.5t14.5 0.5t14.5 -0.5zM264 116q-11 -57 -51.5 -86.5t-100.5 -29.5
q-32 0 -49.5 9.5t-24.5 23.5t-4 30t13 29.5t25.5 22t33.5 8.5q23 -1 34.5 -11t14 -23.5t-3 -29t-15.5 -26.5q20 1 38 10q15 8 29 24.5t19 48.5l6.5 0.5t14.5 0.5t14.5 -0.5zM148 318q-14 0 -23.5 -9t-11.5 -20t3 -20t19 -9q15 0 24 9t11.5 20t-2.5 20t-20 9zM100 96
q-14 0 -23 -9t-11.5 -20t3 -20t19.5 -9q15 0 24 9t11 20t-3 20t-20 9z" />
    <glyph glyph-name="maihanakatthai" unicode="&#xe31;" 
d="M176 527q-9 -22 -27.5 -43.5t-43 -39t-53 -29.5t-58.5 -14q-33 -3 -62 6t-51 26q-7 7 -11.5 16t-4.5 22q0 23 17.5 46t49.5 26q25 2 38.5 -9.5t15.5 -28.5t-7 -35.5t-29 -30.5q25 -7 48 -4q46 5 86.5 33.5t57.5 71.5zM-72 514q-14 -1 -22.5 -11t-10 -21t5 -19.5
t21.5 -6.5q14 1 22.5 10.5t9.5 20.5t-5 19.5t-21 7.5z" />
    <glyph glyph-name="saraaathai" unicode="&#xe32;" horiz-adv-x="295" 
d="M243 0h-41l53 247q7 33 -10.5 50t-49.5 17q-31 0 -56 -16.5t-41 -42.5l-28 15q11 15 23.5 28.5t28 24t35 16.5t44.5 6t44.5 -6.5t32.5 -19.5t17.5 -31.5t-0.5 -42.5z" />
    <glyph glyph-name="saraamthai" unicode="&#xe33;" horiz-adv-x="295" 
d="M38 523q31 0 42 -19t6.5 -42t-24 -42t-50.5 -19t-42 19t-6.5 42t24 42t50.5 19zM243 0h-41l53 247q7 33 -10.5 50t-49.5 17q-31 0 -56 -16.5t-41 -42.5l-28 15q11 15 23.5 28.5t28 24t35 16.5t44.5 6t44.5 -6.5t32.5 -19.5t17.5 -31.5t-0.5 -42.5zM32 493q-16 0 -26 -10
t-12.5 -21.5t3 -21.5t21.5 -10t26 10t12.5 21.5t-3 21.5t-21.5 10z" />
    <glyph glyph-name="saraithai" unicode="&#xe34;" 
d="M37 390q-18 7 -38 13q-17 5 -38.5 10.5t-43.5 7.5q-27 3 -54 3t-49 -2q-26 -2 -49 -5q10 25 29.5 47t43.5 38t50.5 24t51.5 5q38 -5 57.5 -23t28.5 -39.5t10 -43.5t1 -35zM2 427q-2 9 -5.5 20.5t-11.5 22t-22 19t-38 11.5q-14 2 -29.5 -2t-30 -11.5t-25.5 -17.5t-16 -19
q14 2 30 3q14 1 30 1t33 -2q23 -2 39 -6.5t27 -8.5q11 -5 19 -10z" />
    <glyph glyph-name="saraiithai" unicode="&#xe35;" 
d="M39 436q2 -14 1.5 -26t0.5 -20q-18 7 -38 13q-17 5 -38.5 10.5t-43.5 7.5q-27 3 -54 3t-49 -2q-26 -2 -49 -5q10 25 29.5 47t43.5 38t50.5 24t51.5 5q25 -4 41.5 -13t27.5 -22l16 75h38zM6 427q-2 9 -5.5 20.5t-11.5 22t-22 19t-38 11.5q-14 2 -29.5 -2t-30 -11.5
t-25.5 -17.5t-16 -19q14 2 30 3q14 1 30 1t33 -2q23 -2 39 -6.5t27 -8.5q11 -5 19 -10z" />
    <glyph glyph-name="sarauethai" unicode="&#xe36;" 
d="M73 521q-5 -19 -17.5 -33t-26.5 -18q10 -22 11 -44t1 -36q-18 7 -38 13q-17 5 -38.5 10.5t-43.5 7.5q-27 3 -54 3t-49 -2q-26 -2 -49 -5q10 25 29.5 47t43.5 38t50.5 24t51.5 5q7 -1 12 -2t11 -3q3 17 20.5 33t42.5 16q27 0 37.5 -16t5.5 -38zM25 548q-12 0 -20 -8
t-10 -17t3 -17t17 -8t20 8t10 17t-3 17t-17 8zM6 427q-2 9 -5.5 20.5t-11.5 22t-22 19t-38 11.5q-14 2 -29.5 -2t-30 -11.5t-25.5 -17.5t-16 -19q14 2 30 3q14 1 30 1t33 -2q23 -2 39 -6.5t27 -8.5q11 -5 19 -10z" />
    <glyph glyph-name="saraueethai" unicode="&#xe37;" 
d="M39 436q2 -14 1.5 -26t0.5 -20q-18 7 -38 13q-17 5 -38.5 10.5t-43.5 7.5q-27 3 -54 3t-49 -2q-26 -2 -49 -5q10 25 29.5 47t43.5 38t50.5 24t51.5 5h3l8 40h37q0 -1 -1.5 -8.5l-3.5 -17.5q-3 -11 -5 -25q10 -5 17.5 -11t13.5 -13l16 75h38zM6 427q-2 9 -5.5 20.5
t-11.5 22t-22 19t-38 11.5q-14 2 -29.5 -2t-30 -11.5t-25.5 -17.5t-16 -19q14 2 30 3q14 1 30 1t33 -2q23 -2 39 -6.5t27 -8.5q11 -5 19 -10z" />
    <glyph glyph-name="sarauthai" unicode="&#xe38;" 
d="M-104 -244h-40l18 83q-5 -1 -9.5 -1.5t-10.5 -0.5q-28 0 -38.5 18t-6 40t23 40t47.5 18q24 0 38 -14.5t8 -42.5zM-126 -76q-15 0 -24 -9t-11.5 -20.5t2.5 -20.5t20 -9t24 9t11.5 20.5t-2.5 20.5t-20 9z" />
    <glyph glyph-name="sarauuthai" unicode="&#xe39;" 
d="M-94 -196q-5 -27 -28 -41.5t-48 -14.5q-24 0 -40.5 14.5t-11.5 41.5l8 35l-7.5 -1.5t-13.5 -0.5q-28 0 -38.5 18t-6 40t23 40t47.5 18q25 0 39 -14.5t8 -42.5l-10 -46q-4 -17 -7.5 -31.5t-2.5 -14.5q-2 -11 3.5 -17.5t16.5 -6.5q9 0 17.5 6.5t10.5 17.5l31 145h40z
M-215 -76q-15 0 -24 -9t-11.5 -20.5t2.5 -20.5t20 -9t24.5 9t12 20.5t-3 20.5t-20.5 9z" />
    <glyph glyph-name="phinthuthai" unicode="&#xe3a;" 
d="M-86 -62q16 0 21.5 -10t3 -21.5t-12.5 -21.5t-26 -10q-15 0 -20.5 10t-3 21.5t12.5 21.5t25 10z" />
    <glyph glyph-name="PUCR2005" unicode="&#xe3e;" 
 />
    <glyph glyph-name="bahtthai" unicode="&#xe3f;" horiz-adv-x="389" 
d="M412 316q-6 -30 -25 -54.5t-48 -36.5q4 -2 14.5 -7.5t20.5 -16.5t15.5 -30t-0.5 -49q-7 -33 -24.5 -56.5t-38 -38t-40 -21t-30.5 -6.5h-61l-16 -73h-35l16 73h-114l90 425h114l12 53h35l-12 -53h37q13 0 31.5 -5.5t33.5 -18t23.5 -33.5t1.5 -52zM355 306q2 9 1.5 21
t-8.5 23.5t-25 19t-48 7.5l-28 -134h23q22 1 37.5 7t25 15t15 20t7.5 21zM181 377l-28 -134h59l28 134h-59zM337 125q4 22 -0.5 35t-16 20.5t-27 10.5t-33.5 3h-24l-31 -145h43q20 0 35.5 7t26.5 18.5t17.5 25t9.5 25.5zM142 194l-31 -145h59l31 145h-59z" />
    <glyph glyph-name="saraethai" unicode="&#xe40;" horiz-adv-x="199" 
d="M122 114q5 1 10 1.5t12 0.5q29 0 40 -19t6 -42t-24 -42t-50 -19q-26 0 -40.5 15.5t-8.5 44.5l61 284h42zM135 86q-15 0 -25 -9.5t-12.5 -21t3.5 -21t21 -9.5t25 9.5t12.5 21t-3.5 21t-21 9.5z" />
    <glyph glyph-name="saraaethai" unicode="&#xe41;" horiz-adv-x="359" 
d="M282 114q5 1 10 1.5t11 0.5q30 0 41 -19t6 -42t-24 -42t-50 -19q-26 0 -40.5 15.5t-8.5 44.5l61 284h42zM122 114q5 1 10 1.5t12 0.5q29 0 40 -19t6 -42t-24 -42t-50 -19q-26 0 -40.5 15.5t-8.5 44.5l61 284h42zM295 86q-15 0 -25 -9.5t-12.5 -21t3.5 -21t21 -9.5t25 9.5
t12.5 21t-3.5 21t-21 9.5zM135 86q-15 0 -25 -9.5t-12.5 -21t3.5 -21t21 -9.5t25 9.5t12.5 21t-3.5 21t-21 9.5z" />
    <glyph glyph-name="saraothai" unicode="&#xe42;" horiz-adv-x="214" 
d="M332 535q-26 -17 -45 -18.5t-34.5 4t-30 13t-30.5 7.5q-10 0 -17.5 -2t-13.5 -4q-7 -3 -12 -6q20 -11 34.5 -19.5t23.5 -20t11 -27.5t-4 -41l-3 -13.5t-7.5 -35t-10.5 -49t-12 -56.5q-14 -68 -32 -153q5 1 8 1.5t13 0.5q30 0 41 -19t6 -42t-24 -42t-50 -19
q-26 0 -40.5 15.5t-8.5 44.5q21 102 39 182q8 34 15 67t12 59q6 30 12 57q4 18 4.5 29.5t-8 22t-29 22.5t-57.5 30q17 15 36 27q17 10 38 18.5t44 8.5q20 0 34 -6.5t26.5 -12t26.5 -6t35 11.5zM162 86q-15 0 -25 -9.5t-12.5 -21t3.5 -21t21 -9.5t25 9.5t12.5 21t-3.5 21
t-21 9.5z" />
    <glyph glyph-name="saraaimaimuanthai" unicode="&#xe43;" horiz-adv-x="214" 
d="M149 114q5 1 8 1.5t13 0.5q30 0 41 -19t6 -42t-24 -42t-50 -19q-26 0 -40.5 15.5t-8.5 44.5l95 447q4 17 0.5 33t-26.5 16q-12 0 -19.5 -4t-12.5 -8.5t-6.5 -8.5l-1.5 -4q26 2 37 -12.5t6 -35.5q-5 -23 -20 -34.5t-32 -13t-30.5 6.5t-14.5 26q-1 22 5.5 43t19 37.5
t31.5 26.5t43 10q35 0 53 -20t10 -59zM123 501q-12 0 -20 -7.5t-10 -16.5t3 -16.5t17 -7.5t19.5 7.5t9.5 16.5t-2.5 16.5t-16.5 7.5zM162 86q-15 0 -25 -9.5t-12.5 -21t3.5 -21t21 -9.5t25 9.5t12.5 21t-3.5 21t-21 9.5z" />
    <glyph glyph-name="saraaimaimalaithai" unicode="&#xe44;" horiz-adv-x="249" 
d="M184 114q5 1 8 1.5t14 0.5q30 0 41 -19t6 -42t-24 -42t-50 -19q-26 0 -40.5 15.5t-8.5 44.5l102 477q2 8 -2.5 7.5t-6.5 -5.5l-64 -127q-5 -11 -12 -18t-18 -7t-14.5 7.5t-4.5 19.5l-8 123q-1 9 -3 15.5t-10 9.5l25 23q13 -5 16 -15.5t4 -22.5l6 -114l54 116
q8 17 22 25.5t28 8.5q17 0 25.5 -11t3.5 -33zM198 86q-16 0 -26 -9.5t-12 -21t3.5 -21t21.5 -9.5q15 0 25 9.5t12.5 21t-3.5 21t-21 9.5z" />
    <glyph glyph-name="lakkhangyaothai" unicode="&#xe45;" horiz-adv-x="295" 
d="M205 -177h-41l91 424q7 33 -10.5 50t-49.5 17q-31 0 -56 -16.5t-41 -42.5l-28 15q11 15 23.5 28.5t28 24t35 16.5t44.5 6t44.5 -6.5t32.5 -19.5t17.5 -31.5t-0.5 -42.5z" />
    <glyph glyph-name="maiyamokthai" unicode="&#xe46;" horiz-adv-x="355" 
d="M289 -19q-11 -51 -42.5 -78.5t-88.5 -39.5l-3 37q24 6 40 12.5t26.5 16t16.5 23t10 33.5l54 254q2 12 4 22t0.5 18.5t-7 16t-17.5 13.5l-45 -24l-42 24q-26 -9 -39.5 -28.5t-18.5 -45.5l3.5 2.5t10 6t15.5 6.5t19 3q28 0 37.5 -17t4.5 -38t-22.5 -38t-43.5 -17
q-39 0 -52.5 29.5t-4.5 70.5q8 38 36 66t64 36l20 -12q4 -2 7.5 -4.5t6.5 -4.5q4 -3 6 -4q0 -1 7 3t15 9q10 5 23 13q42 -10 53 -35.5t3 -64.5zM179 226q-14 0 -22 -8.5t-10.5 -18.5t2.5 -18.5t19 -8.5q13 0 21.5 8.5t11 18.5t-3 18.5t-18.5 8.5z" />
    <glyph glyph-name="maitaikhuthai" unicode="&#xe47;" 
d="M85 588q-7 -48 -45 -64t-114 -8q-14 1 -30 0t-28 -7.5t-18 -21t0 -38.5q6 8 14 15q7 5 17 10t24 5q11 0 19.5 -3.5t14.5 -8.5q7 -5 13 -12q8 15 21.5 25t31.5 10q24 0 32.5 -15t4.5 -32.5t-19 -32t-38 -13.5q-16 1 -27 9t-21 17.5t-19 17t-20 6.5q-14 -2 -24 -10t-16 -18
q-7 -11 -12 -25q-11 6 -19 18.5t-11.5 28t-1.5 32.5t11 32q17 28 47 36.5t71 3.5q22 -2 41.5 -2.5t34 3.5t23 14t10.5 28h33zM0 468q-12 0 -19 -7.5t-9 -16t2 -16t16 -7.5t19 7.5t9 16t-2 16t-16 7.5z" />
    <glyph glyph-name="maiekthai" unicode="&#xe48;" 
d="M77 617h-38l25 116h38z" />
    <glyph glyph-name="maithothai" unicode="&#xe49;" 
d="M179 736q-7 -31 -24.5 -58.5t-42 -47.5t-54 -32t-59.5 -12q-36 0 -60 7q9 5 19 13q8 7 17 16t15 21q-4 -2 -8 -2q-6 -1 -18 2q-14 4 -21 15.5t-3 31.5q5 21 22 35.5t40 14.5q27 0 37 -16t6 -36q-4 -17 -10.5 -30t-14.5 -23q-9 -11 -19 -20q24 1 47.5 11t42.5 26.5
t32.5 38t18.5 45.5h37zM-13 666q12 0 19 7.5t9 16.5t-2 16.5t-16 7.5t-19.5 -7.5t-9.5 -16.5t2.5 -16.5t16.5 -7.5z" />
    <glyph glyph-name="maitrithai" unicode="&#xe4a;" 
d="M193 719q-1 -16 -9.5 -40t-27.5 -44q-15 -17 -33.5 -24.5t-35.5 -10.5q-19 -4 -38 -2q6 8 20 22t22 40q1 6 2.5 13t0 13t-6 10t-13.5 4q-7 0 -12 -3t-10 -7t-9 -9q-2 5 -6 9t-10 7t-15 3q-12 0 -20.5 -8.5t-11.5 -22.5q3 1 7 3q3 1 7 2t9 1q18 0 26 -11.5t4 -30.5
q-3 -14 -16.5 -26t-29.5 -11q-26 1 -36.5 22.5t-2.5 47.5q7 24 23.5 42t42.5 18q9 0 15 -2.5t10 -5.5l8 -8q5 4 11 8q5 3 12 5.5t16 2.5q25 0 31.5 -17t1.5 -43q-4 -19 -10 -27.5t-12 -15.5q7 4 15 8q7 4 14 9t13 12q23 28 22 66zM-9 613q10 0 17 7t8.5 15t-2.5 15t-14 7
q-11 0 -18 -7t-8.5 -15t2.5 -15t15 -7z" />
    <glyph glyph-name="maichattawathai" unicode="&#xe4b;" 
d="M83 648l-10 -50h-38l10 50h-61l7 33h61l11 50h38l-11 -50h63l-7 -33h-63z" />
    <glyph glyph-name="thanthakhatthai" unicode="&#xe4c;" 
d="M208 730q-8 -23 -24.5 -32.5t-28.5 -11.5q-20 -3 -38 0t-33.5 3.5t-29 -4.5t-24.5 -23q4 4 10 8q5 3 12 5.5t17 0.5q21 -3 26 -18t-1 -31.5t-22 -28.5t-37 -9q-26 3 -34 24t-1 43q7 21 23 35.5t37 19.5q19 4 38 2t35.5 -3.5t29 3t18.5 22.5zM60 654q-9 1 -16.5 -4.5
t-10.5 -13t-0.5 -14.5t12.5 -8q9 -2 16.5 3.5t10.5 13t0.5 14.5t-12.5 9z" />
    <glyph glyph-name="nikhahitthai" unicode="&#xe4d;" 
d="M38 523q31 0 42 -19t6.5 -42t-24 -42t-50.5 -19t-42 19t-6.5 42t24 42t50.5 19zM32 495q-17 0 -27.5 -10.5t-13 -23t3.5 -23t23 -10.5t27.5 10.5t13 23t-3.5 23t-23 10.5z" />
    <glyph glyph-name="yamakkanthai" unicode="&#xe4e;" 
d="M64 568q-13 2 -23 -2.5t-14 -17.5q-2 -8 -1 -14.5t3 -10.5q3 -5 6 -8q-6 -4 -11 -8q-11 -9 -14 -24q-4 -14 4 -18.5t21 -5.5l-10 -34q-26 2 -39 18.5t-7 40.5q3 12 10.5 20.5t10.5 12.5q-2 3 -4 12t1 21q7 25 27.5 40.5t48.5 13.5z" />
    <glyph glyph-name="fongmanthai" unicode="&#xe4f;" horiz-adv-x="425" 
d="M418 169q-8 -35 -27.5 -65.5t-47.5 -53.5t-61.5 -36.5t-68.5 -13.5t-63 13.5t-46 36.5t-25 53.5t1 65.5q7 35 27 65.5t48 53.5t61.5 36.5t68.5 13.5t63 -13.5t46 -36.5t24.5 -53.5t-0.5 -65.5zM390 169q6 29 0.5 55t-20.5 45.5t-38.5 30.5t-52.5 11t-57.5 -11
t-51.5 -30.5t-40 -45.5t-23 -55t-0.5 -55t21 -45t39 -30t52.5 -11t57 11t51.5 30t40 45t22.5 55zM338 169q-4 -18 -14.5 -34.5t-25 -28.5t-32.5 -19t-36 -7q-37 0 -57.5 26t-12.5 63q4 18 14.5 34.5t25 28.5t32.5 19t36 7q37 0 57.5 -26t12.5 -63zM316 169q6 28 -9.5 48
t-43.5 20t-52 -20t-30 -48t10 -47.5t44 -19.5t51.5 19.5t29.5 47.5z" />
    <glyph glyph-name="zerothai" unicode="&#xe50;" horiz-adv-x="370" 
d="M242 258q51 0 81 -20t41 -49.5t3.5 -64t-31 -64t-62 -49.5t-89.5 -20t-81.5 20t-41 49.5t-3.5 64t30.5 64t62 49.5t90.5 20zM233 220q-37 0 -64.5 -14t-44 -35.5t-22 -46t2 -46t29 -35.5t58.5 -14t64.5 14t44.5 35.5t22.5 46t-2.5 46t-29.5 35.5t-58.5 14z" />
    <glyph glyph-name="onethai" unicode="&#xe51;" horiz-adv-x="370" 
d="M356 106q-10 -48 -39.5 -80.5t-65.5 -58.5l-20 21q24 18 50.5 47t35.5 71q10 48 -13.5 79.5t-80.5 31.5q-46 0 -80 -26.5t-45 -69.5q-7 -28 5.5 -51t38.5 -27q7 0 19.5 1.5t26.5 8.5q-18 1 -31 6q-11 5 -19 15.5t-4 31.5q5 31 28 48t51 17q37 0 49 -20t6 -49
q-5 -21 -16.5 -38.5t-28 -30t-36.5 -20t-41 -7.5q-49 0 -72.5 30.5t-14.5 84.5q4 28 20.5 52.5t40.5 42.5t53 28.5t58 9.5q71 -2 104.5 -41t20.5 -107zM208 144q-16 0 -26.5 -10t-13 -22t3.5 -22t22 -10t26.5 10t13 22t-3.5 22t-22 10z" />
    <glyph glyph-name="twothai" unicode="&#xe52;" horiz-adv-x="415" 
d="M402 79q-8 -39 -30 -59t-74 -20h-139q-33 0 -53 6.5t-30 20t-11 33.5t5 46l35 168q5 19 4.5 35.5t-16.5 23.5l41 28q28 -19 18 -66l-41 -191q-7 -32 4 -49t50 -17h141q29 0 39.5 10.5t15.5 30.5l18 87q4 16 1 30t-22 14q-12 0 -23.5 -7t-19.5 -15t-12.5 -15l-4.5 -7
q-4 12 -11 22q-6 8 -15 15t-22 7q-19 0 -32.5 -9.5t-20.5 -21.5q3 2 7 4t8.5 3t11.5 1q29 0 39.5 -18t6 -40t-23 -40t-47.5 -18t-44.5 19t-8.5 51q11 49 42 76.5t67 27.5q15 0 25.5 -5t16.5 -10q7 -6 12 -14l3 5t10.5 10.5t20 10.5t29.5 5q19 0 30 -7.5t16 -18t6 -22
t-1 -20.5zM218 158q-15 0 -24 -9t-11.5 -20t2.5 -20t20 -9t24 9t11.5 20t-2.5 20t-20 9z" />
    <glyph glyph-name="threethai" unicode="&#xe53;" horiz-adv-x="415" 
d="M402 114q-11 -47 -24.5 -73.5t-24.5 -40.5h-46q9 8 19.5 27.5t19 43.5t14.5 49.5t5.5 47t-8.5 35t-26 13.5q-24 0 -37.5 -20.5t-18.5 -45.5l-32 -150h-44l32 150q5 25 -4.5 45.5t-41.5 20.5q-20 0 -33.5 -9.5t-22.5 -24.5t-14.5 -33.5t-9.5 -36.5l10 5q5 2 12 4t15 2
q30 0 41 -20t5.5 -43.5t-26 -43.5t-53.5 -20q-38 0 -47.5 34t4.5 103q5 23 16.5 44.5t28 38.5t37 27t43.5 10q22 0 36 -8t21.5 -18t10 -17.5l2.5 -7.5q9 14 20 25q10 10 24.5 18t33.5 8q28 0 43.5 -12.5t22 -32t5 -44.5t-7.5 -50zM134 92q-14 0 -23.5 -9t-11.5 -20.5
t3 -20.5t19 -9q15 0 24 9t11.5 20.5t-2.5 20.5t-20 9z" />
    <glyph glyph-name="fourthai" unicode="&#xe54;" horiz-adv-x="415" 
d="M490 380q-1 -6 -7 -25t-17.5 -42.5t-29 -47.5t-39.5 -39q-22 -14 -42 -19t-40 -5t-40 2.5t-42 3.5q-23 1 -46 -3.5t-42.5 -14.5t-33.5 -27t-19 -42q-11 -52 25 -70t105 -7q-6 2 -12 6q-5 3 -12 6.5t-14 8.5q-13 8 -23 21.5t-5 36.5q5 22 26 40t51 18q31 0 42 -19t6 -39
q-3 -14 -9.5 -23t-13.5 -14q-8 -6 -16 -9q17 -15 31.5 -18t29.5 -4.5t31.5 -5t37.5 -18.5l-25 -35q-7 10 -26 13.5t-42 3.5q-19 0 -33 -2.5t-27.5 -4.5t-29.5 -4t-38 -2q-24 0 -45.5 7.5t-36 23.5t-20.5 39.5t1 56.5q6 29 24.5 52.5t46.5 39t63 22t73 2.5q42 -5 71.5 -2.5
t51 18t37.5 46t30 81.5q2 -1 6 -1q3 -1 6.5 -1t8.5 -1q10 -2 22 -3zM227 150q-14 0 -22.5 -8.5t-10.5 -18.5t2.5 -18.5t18.5 -8.5q13 0 22 8.5t11 18.5t-3 18.5t-18 8.5z" />
    <glyph glyph-name="fivethai" unicode="&#xe55;" horiz-adv-x="415" 
d="M490 380q-1 -6 -7 -25t-17.5 -42.5t-29 -47.5t-39.5 -39q-22 -14 -42 -19t-40 -5t-40 2.5t-42 3.5q-23 1 -46 -3.5t-42.5 -14.5t-33.5 -27t-19 -42q-11 -52 25 -70t105 -7q-6 2 -12 6q-5 3 -12 6.5t-14 8.5q-13 8 -23 21.5t-5 36.5q5 22 26 40t51 18q31 0 42 -19t6 -39
q-3 -14 -9.5 -23t-13.5 -14q-8 -6 -16 -9q17 -15 31.5 -18t29.5 -4.5t31.5 -5t37.5 -18.5l-25 -35q-7 10 -26 13.5t-42 3.5q-19 0 -33 -2.5t-27.5 -4.5t-29.5 -4t-38 -2q-24 0 -45.5 7.5t-36 23.5t-20.5 39.5t1 56.5q6 30 23 51t38 34.5t44 21t42 9.5l-2 10q-2 11 1 25
q5 25 26.5 41.5t45.5 16.5q26 -1 39.5 -17t8.5 -41q-4 -18 -11 -28q-4 -5 -7 -10q24 -1 45 2.5t40 18.5t35 44.5t29 80.5q2 -1 6 -1q3 -1 6.5 -1t8.5 -1q10 -2 22 -3zM260 302q-13 0 -21.5 -8.5t-10.5 -18.5t3 -18.5t18 -8.5t21.5 8.5t11 18.5t-3 18.5t-18.5 8.5zM227 150
q-14 0 -22.5 -8.5t-10.5 -18.5t2.5 -18.5t18.5 -8.5q13 0 22 8.5t11 18.5t-3 18.5t-18 8.5z" />
    <glyph glyph-name="sixthai" unicode="&#xe56;" horiz-adv-x="353" 
d="M335 131q-8 -38 -27 -64t-43 -42t-50 -22.5t-48 -6.5q-17 0 -33 6t-28.5 17t-18.5 27.5t-1 36.5q5 25 26 41.5t46 16.5q32 0 43.5 -18.5t6.5 -41.5q-2 -11 -6.5 -19t-9.5 -13q-5 -6 -12 -11q22 -1 40.5 6t32.5 20t24 30t14 37q8 41 -14.5 66t-66.5 19q-16 -2 -31.5 -7.5
t-28 -11.5t-20.5 -10l-8 -4q3 19 3 44t-2.5 50t-7.5 48t-11 38l37 17q5 -10 9 -32.5t7 -46.5q4 -28 6 -60q51 19 86.5 16.5t57 -19.5t28.5 -45.5t0 -61.5zM151 108q-14 0 -22.5 -8.5t-10.5 -18.5t2.5 -18.5t18.5 -8.5q13 0 22 8.5t11 18.5t-3 18.5t-18 8.5z" />
    <glyph glyph-name="seventhai" unicode="&#xe57;" horiz-adv-x="415" 
d="M484 347q-18 -15 -28 -38t-16.5 -50.5t-12 -57.5t-14 -59t-23 -55.5t-38.5 -46.5q-12 -10 -26.5 -18t-28 -13t-25 -8.5t-17.5 -4.5l-21 29q16 15 34 44.5t28.5 59t8 51.5t-26.5 22q-11 0 -20 -6.5t-16 -15.5t-11.5 -19t-6.5 -18h-33q2 8 1.5 18t-4 19t-10.5 15.5t-18 6.5
q-20 0 -34 -13t-23 -31.5t-13 -38t-2 -32.5q5 7 13 12q7 5 16 9t22 4q29 0 39 -18t4.5 -40t-25 -40t-49.5 -18q-20 0 -33 11.5t-20 30t-8 42t4 47.5q4 22 15.5 42t27 35t34.5 24t39 9q17 0 27.5 -5.5t16.5 -11.5q6 -7 9 -16l4.5 5t12.5 11.5t20 11.5t28 5q22 0 35 -8.5
t19 -22.5t5.5 -31.5t-4.5 -35.5q-5 -20 -14 -38t-18 -31q-11 -16 -22 -28q34 6 53.5 27.5t31 51.5t18 65.5t14 69.5t18.5 63.5t33 48.5zM131 82q-14 0 -22 -8.5t-10.5 -18.5t2.5 -18.5t19 -8.5q13 0 21.5 8.5t11 18.5t-3 18.5t-18.5 8.5z" />
    <glyph glyph-name="eightthai" unicode="&#xe58;" horiz-adv-x="415" 
d="M462 368q1 -4 0 -16.5t-4 -28t-6.5 -30.5t-5.5 -25q-8 -32 -25 -49t-40.5 -23t-52 -4.5t-58.5 7.5q-23 4 -46.5 3.5t-44.5 -7t-38.5 -19.5t-29.5 -33q-7 -12 -9 -26.5t-0.5 -27.5t5.5 -24t10 -15q2 16 7 30q5 12 12.5 23t21.5 15q12 3 22 -0.5t18 -10t14 -14.5t11 -14
q12 -16 20.5 -26t15.5 -16t13.5 -8t14.5 -2q19 0 34.5 10t21.5 32q-4 -6 -9 -10q-11 -9 -30 -9q-22 0 -37 14t-9 42q5 25 25 41.5t45 16.5q32 0 46.5 -25.5t6.5 -61.5q-8 -39 -34.5 -61t-64.5 -22q-27 0 -49 13.5t-48 54.5q-11 17 -20 14t-13.5 -15.5t-4.5 -30.5t7 -30h-50
q-5 6 -15 17.5t-18 28.5t-11 38t5 45q23 65 77 91t120 17q25 -4 48.5 -7t42.5 -1.5t33 9.5t20 28q4 14 7.5 29.5t5.5 29.5t2.5 25.5t-0.5 17.5h41zM323 133q-14 0 -22 -8.5t-10.5 -18.5t2.5 -18.5t19 -8.5q13 0 21.5 8.5t11 18.5t-3 18.5t-18.5 8.5z" />
    <glyph glyph-name="ninethai" unicode="&#xe59;" horiz-adv-x="375" 
d="M415 368q1 -12 2 -25q1 -11 0 -27t-4 -34q-8 -41 -21.5 -70t-43.5 -30q-9 0 -16 4t-12.5 8t-10.5 7t-10 2q-6 -2 -8.5 -8t-3.5 -13.5t0 -14.5t2 -11l49 -143l-44 -17l-51 160q-6 18 -19 28.5t-29.5 13.5t-35 -2t-33.5 -19q-18 -16 -27 -35t-10.5 -37t4 -32.5t16.5 -20.5
q-1 1 -1 4q0 2 0.5 6t3.5 11q6 17 23 32.5t45 15.5q25 0 38 -14.5t11 -37.5q-4 -34 -27.5 -54.5t-54.5 -20.5q-16 0 -33 5.5t-31 17t-23.5 28t-9.5 38.5q-1 23 5 46t18.5 42.5t32 35t45.5 24.5q28 9 48.5 6t33.5 -10.5t19.5 -15l6.5 -7.5q4 22 14 30t21 8.5t20.5 -4
t12.5 -7.5q6 -6 12.5 -9t12 -0.5t10.5 11t9 26.5q5 22 6 42t0 35t-2.5 23.5l-1.5 8.5h42zM173 88q-14 0 -22.5 -8.5t-10.5 -18.5t2.5 -18.5t18.5 -8.5q13 0 22 8.5t11 18.5t-3 18.5t-18 8.5z" />
    <glyph glyph-name="angkhankhuthai" unicode="&#xe5a;" horiz-adv-x="440" 
d="M398 92q-8 -36 -26 -62t-48 -41l-12 34q20 11 29.5 27t15.5 42l52 246h41zM303 106q-11 -51 -41.5 -78t-89.5 -41l-3 38q25 6 41 12.5t26 16t16 23t10 33.5l24 112q-23 -38 -56 -54.5t-64 -14.5t-54 20t-27 49q-2 14 2 35t14.5 40.5t28.5 33.5t45 14q31 0 42 -19t6 -41.5
t-23.5 -41.5t-45.5 -19q-9 0 -14.5 1t-9.5 3t-7 5q2 -16 15 -30t39 -14q22 0 44 13t40.5 34.5t32 48t17.5 53.5h41zM158 253q15 0 24.5 9.5t12 21t-3 21t-20.5 9.5t-24.5 -9.5t-12 -21t3 -21t20.5 -9.5z" />
    <glyph glyph-name="khomutthai" unicode="&#xe5b;" horiz-adv-x="828" 
d="M626 152q-11 -11 -24 -21t-27 -18q0 8 -1.5 21t-5.5 26t-9 23.5t-12 14.5q-3 -15 -15.5 -35t-30 -38t-38 -32t-39.5 -17q9 39 0.5 77t-37.5 54q0 -4 -1 -7t-2 -7q-6 -30 -25 -60t-45.5 -53.5t-58.5 -38.5t-63 -15t-55.5 11t-40 30.5t-21.5 45.5t0 56q8 36 29 63t48 44
t55 23.5t49.5 1.5t32.5 -23t3 -49q-2 -6 -6 -15t-12 -17t-20.5 -14t-29.5 -7q-23 -1 -34 12t-11 30.5t12 34.5t36 23q-28 -5 -51 -18q-20 -11 -38.5 -32t-26.5 -57q-5 -25 -0.5 -45t16.5 -34t31 -21.5t42 -7.5q24 0 48.5 12t45 31t35 42.5t19.5 46.5q8 37 -4 64q56 0 88 -36
t34 -88q10 5 20.5 19t19.5 30.5t15 33t6 28.5q19 -3 32.5 -11.5t22.5 -19.5t13.5 -24t6.5 -23q5 2 12 9t10 13h198l-8 -36h-188zM230 201q13 0 21.5 8.5t10.5 18t-3 18t-18 8.5t-21.5 -8.5t-10.5 -18t3 -18t18 -8.5z" />
    <glyph glyph-name="ZWSP" unicode="&#x200b;" 
 />
    <glyph glyph-name="endash" unicode="&#x2013;" horiz-adv-x="500" 
d="M516 143h-473l6 25h473z" />
    <glyph glyph-name="emdash" unicode="&#x2014;" horiz-adv-x="1000" 
d="M1014 143h-971l6 25h971z" />
    <glyph glyph-name="quoteleft" unicode="&#x2018;" horiz-adv-x="130" 
d="M175 389q-20 -8 -29 -24.5t-11 -35.5h27l-13 -61h-54l13 62q6 26 15.5 41.5t20 24t20.5 12t16 5.5z" />
    <glyph glyph-name="quoteright" unicode="&#x2019;" horiz-adv-x="130" 
d="M167 354q-6 -31 -24 -52.5t-46 -23.5l5 22q11 1 18 7.5t11 14.5t6 16.5t4 15.5h-28l13 60h54z" />
    <glyph glyph-name="quotedblleft" unicode="&#x201c;" horiz-adv-x="194" 
d="M258 390q-20 -8 -29.5 -24.5t-11.5 -36.5h27l-13 -61h-54l13 62q6 26 15.5 41.5t20 24t21 12l16.5 5.5zM165 389q-20 -8 -29 -24.5t-11 -35.5h27l-13 -61h-54l13 62q6 26 15.5 41.5t20 24t20.5 12t16 5.5z" />
    <glyph glyph-name="quotedblright" unicode="&#x201d;" horiz-adv-x="194" 
d="M251 354q-6 -30 -24 -51.5t-46 -24.5l5 23q11 1 18 7.5t11 14.5t6 16.5t3 14.5h-27l13 60h54zM159 354q-6 -30 -24.5 -51.5t-46.5 -24.5l5 23q11 1 18 7.5t11.5 14.5t6.5 16.5t3 14.5h-28l13 60h55z" />
    <glyph glyph-name="bullet" unicode="&#x2022;" horiz-adv-x="170" 
d="M139 254q28 0 44.5 -12.5t21.5 -31.5t0.5 -41t-18 -41t-35 -31.5t-49.5 -12.5t-44.5 12.5t-21.5 31.5t-0.5 41t18 41t35 31.5t49.5 12.5z" />
    <glyph glyph-name="Euro" unicode="&#x20ac;" horiz-adv-x="476" 
d="M486 160q-15 -36 -37 -67.5t-50.5 -54.5t-61 -36t-68.5 -12q-41 1 -68.5 14.5t-44.5 35t-24.5 49.5t-7.5 58h-71l9 43h64l2 12l2 12q4 16 9 31h-65l9 43h73q13 27 31.5 53.5t44 47.5t58.5 34t74 13q67 0 102.5 -36.5t40.5 -101.5h-53q-5 42 -28.5 67.5t-68.5 25.5
q-48 0 -86.5 -28t-62.5 -75h135l-9 -43h-144q-2 -8 -4.5 -15.5t-4.5 -15.5l-2 -12l-2 -12h145l-9 -43h-138q3 -51 30 -81t77 -30q48 0 85 30.5t67 93.5h52v0z" />
    <glyph glyph-name="trademark" unicode="&#x2122;" horiz-adv-x="489" 
d="M468 187l39 186l-104 -186h-31l-25 186l-39 -186h-32l50 238h44l26 -197l110 197h44l-50 -238h-32zM213 397l-44 -210h-32l44 210h-77l6 28h186l-6 -28h-77z" />
    <glyph glyph-name="uni25CC" unicode="&#x25cc;" horiz-adv-x="670" 
d="M259 179l-48 -15l17 47q13 -19 31 -32zM312 413l23 45l22 -44q-11 1 -21 1q-12 0 -24 -2zM355 156l-20 -42l-21 42q11 -2 22 -2q10 0 19 2zM465 307l42 -22l-42 -19q2 9 2 19q0 11 -2 22zM208 264l-45 23l45 22q-2 -12 -2 -24q0 -11 2 -21zM231 363l-13 46l45 -16
q-19 -12 -32 -30zM440 205l12 -41l-41 13q17 12 29 28zM410 393l49 16l-17 -47q-13 18 -32 31z" />
    <glyph glyph-name="thothannobasethai" unicode="&#xf700;" horiz-adv-x="322" 
d="M380 291q-30 -12 -50.5 -10t-38 8.5t-33.5 14t-36 7.5q-17 0 -33.5 -8.5t-19.5 -13.5q16 -5 31 -9q13 -4 27.5 -7.5t26.5 -6.5q25 -7 37.5 -16t17 -21.5t2.5 -28t-6 -34.5q-10 -47 -18 -83q-3 -16 -6.5 -31t-6 -26.5t-3.5 -18.5l-1 -7h-50q1 18 -1.5 38.5t-6.5 37.5
q-4 20 -10 40q-8 -14 -25 -22.5t-34 -8.5q-31 0 -42 19t-6 42t24.5 42.5t49.5 19.5q19 0 34 -10t20 -30l23 -85l17 81q4 20 3.5 32.5t-6 20.5t-15.5 12.5t-24 9.5q-20 5 -41.5 10t-39.5 8l-42 7q10 14 24.5 28.5t31.5 26t36 19t39 7.5q26 0 43.5 -6.5t33.5 -12.5t32.5 -8
t39.5 8v-6q0 -2 0.5 -5.5t0.5 -6.5q0 -8 1 -17zM163 177q-15 0 -25 -9.5t-12.5 -21t3.5 -21t21 -9.5t25 9.5t12.5 21t-3.5 21t-21 9.5z" />
    <glyph glyph-name="saraileftthai" unicode="&#xf701;" 
d="M-43 390q-18 7 -38 13q-17 5 -38.5 10.5t-43.5 7.5q-27 3 -54 3t-49 -2q-26 -2 -49 -5q10 25 29.5 47t43.5 38t50.5 24t51.5 5q38 -5 57.5 -23t28.5 -39.5t10 -43.5t1 -35zM-78 427q-2 9 -5.5 20.5t-11.5 22t-22 19t-38 11.5q-14 2 -29.5 -2t-30 -11.5t-25.5 -17.5
t-16 -19q14 2 30 3q14 1 30 1t33 -2q23 -2 39 -6.5t27 -8.5q11 -5 19 -10z" />
    <glyph glyph-name="saraiileftthai" unicode="&#xf702;" 
d="M-44 436q2 -14 1.5 -26t0.5 -20q-18 7 -38 13q-17 5 -38.5 10.5t-43.5 7.5q-27 3 -54 3t-49 -2q-26 -2 -49 -5q10 25 29.5 47t43.5 38t50.5 24t51.5 5q25 -4 41.5 -13t27.5 -22l16 75h38zM-77 427q-2 9 -5.5 20.5t-11.5 22t-22 19t-38 11.5q-14 2 -29.5 -2t-30 -11.5
t-25.5 -17.5t-16 -19q14 2 30 3q14 1 30 1t33 -2q23 -2 39 -6.5t27 -8.5q11 -5 19 -10z" />
    <glyph glyph-name="saraueleftthai" unicode="&#xf703;" 
d="M-13 521q-5 -19 -17.5 -33t-26.5 -18q10 -22 11 -44t1 -36q-18 7 -38 13q-17 5 -38.5 10.5t-43.5 7.5q-27 3 -54 3t-49 -2q-26 -2 -49 -5q10 25 29.5 47t43.5 38t50.5 24t51.5 5q7 -1 12 -2t11 -3q3 17 20.5 33t42.5 16q27 0 37.5 -16t5.5 -38zM-61 548q-12 0 -20 -8
t-10 -17t3 -17t17 -8t20 8t10 17t-3 17t-17 8zM-80 427q-2 9 -5.5 20.5t-11.5 22t-22 19t-38 11.5q-14 2 -29.5 -2t-30 -11.5t-25.5 -17.5t-16 -19q14 2 30 3q14 1 30 1t33 -2q23 -2 39 -6.5t27 -8.5q11 -5 19 -10z" />
    <glyph glyph-name="saraueeleftthai" unicode="&#xf704;" 
d="M-44 436q2 -14 1.5 -26t0.5 -20q-18 7 -38 13q-17 5 -38.5 10.5t-43.5 7.5q-27 3 -54 3t-49 -2q-26 -2 -49 -5q10 25 29.5 47t43.5 38t50.5 24t51.5 5h3l8 40h37q0 -1 -1.5 -8.5l-3.5 -17.5q-3 -11 -5 -25q10 -5 17.5 -11t13.5 -13l16 75h38zM-77 427q-2 9 -5.5 20.5
t-11.5 22t-22 19t-38 11.5q-14 2 -29.5 -2t-30 -11.5t-25.5 -17.5t-16 -19q14 2 30 3q14 1 30 1t33 -2q23 -2 39 -6.5t27 -8.5q11 -5 19 -10z" />
    <glyph glyph-name="maieklowleftthai" unicode="&#xf705;" 
d="M-58 401h-37l32 149h37z" />
    <glyph glyph-name="maitholowleftthai" unicode="&#xf706;" 
d="M28 549q-7 -33 -26 -62.5t-46 -51.5t-59 -34.5t-65 -12.5q-38 0 -65 7q10 6 21 14q9 7 18.5 17t16.5 23l-8 -2q-10 -2 -20 2q-14 5 -22.5 17t-3.5 33q5 23 23.5 39t44.5 16q29 0 40 -17.5t6 -39.5q-4 -17 -11.5 -31t-15.5 -25q-10 -12 -20 -22q26 1 51 11.5t45.5 28
t35 41t20.5 49.5h40zM-169 526q-13 0 -21.5 -8.5t-10.5 -18t3 -18t18 -8.5t21.5 8.5t10.5 18t-3 18t-18 8.5z" />
    <glyph glyph-name="maitrilowleftthai" unicode="&#xf707;" 
d="M11 526q-2 -17 -10.5 -42.5t-28.5 -48.5q-17 -18 -37 -26t-38 -11q-21 -4 -43 -2q6 7 22 22.5t24 44.5q1 5 2 12t0 13t-5.5 10.5t-14.5 4.5q-6 0 -12 -3t-11 -6q-5 -4 -10 -9q-3 5 -7 9q-4 3 -10 6t-16 3q-25 0 -33 -30q2 2 8.5 3.5t15.5 1.5q41 0 32 -44
q-3 -17 -16.5 -29.5t-33.5 -11.5q-29 1 -40 25t-3 51q8 26 26 45.5t47 19.5q18 0 25.5 -6.5t9.5 -9.5q4 3 15.5 9.5t26.5 6.5q28 0 35.5 -19t1.5 -46q-4 -18 -9.5 -27t-11.5 -16q6 3 18.5 10.5t21.5 18.5q24 27 24 70zM-199 457q-11 0 -18 -6.5t-9 -15t2.5 -15t15.5 -6.5
t18 6.5t8.5 15t-2.5 15t-15 6.5z" />
    <glyph glyph-name="maichattawalowleftthai" unicode="&#xf708;" 
d="M-11 467h-66l-14 -66h-37l14 66h-67l7 33h67l15 67h37l-15 -67h66z" />
    <glyph glyph-name="thanthakhatlowleftthai" unicode="&#xf709;" 
d="M107 587q-5 -28 -24 -43t-35 -20q-16 -6 -33 -8.5t-33 -4t-29 -3.5t-22 -8q17 -1 28 -14t6 -33q-5 -23 -24 -38.5t-42 -15.5t-35.5 15.5t-8.5 38.5q5 26 23 46t45 31q21 9 45 10.5t46 4.5t38 11t20 31h35zM-84 479q-13 0 -21 -8t-10 -17t2.5 -17t17.5 -8q12 0 20 8t10 17
t-2.5 17t-16.5 8z" />
    <glyph glyph-name="maieklowrightthai" unicode="&#xf70a;" 
d="M31 401h-38l32 149h38z" />
    <glyph glyph-name="maitholowrightthai" unicode="&#xf70b;" 
d="M92 549q-7 -33 -25.5 -62t-44.5 -50.5t-57 -34.5t-63 -14q-18 -1 -34.5 1t-30.5 6q10 6 21 14q9 7 18.5 17t16.5 23l-8 -2q-10 -2 -20 2q-14 5 -22.5 17t-3.5 33q5 23 23.5 39t44.5 16q29 0 40 -17.5t6 -39.5q-4 -17 -11.5 -31t-15.5 -25q-10 -12 -20 -22q25 2 49 13
t43.5 28.5t33.5 40t20 48.5h40zM-99 526q-13 0 -21.5 -8.5t-10.5 -18t3 -18t18 -8.5t21.5 8.5t10.5 18t-3 18t-18 8.5z" />
    <glyph glyph-name="maitrilowrightthai" unicode="&#xf70c;" 
d="M89 526q-2 -17 -10.5 -42.5t-29.5 -48.5q-17 -18 -37 -26t-38 -11q-21 -4 -42 -2q6 7 21.5 22.5t23.5 44.5q1 5 2.5 12t0.5 13t-5.5 10.5t-14.5 4.5q-6 0 -12 -3t-11 -6q-5 -4 -10 -9q-3 5 -7 9q-4 3 -10 6t-16 3q-25 0 -33 -30q2 2 8.5 3.5t15.5 1.5q41 0 32 -44
q-3 -17 -17 -29.5t-33 -11.5q-29 1 -40 25t-3 51q8 26 26 45.5t47 19.5q18 0 25.5 -6.5t9.5 -9.5q4 3 15.5 9.5t26.5 6.5q28 0 35 -19t2 -46q-4 -18 -10 -27t-11 -16l17.5 10.5t22.5 18.5q24 27 24 70zM-121 457q-11 0 -18 -6.5t-9 -15t2.5 -15t15.5 -6.5t18 6.5t8.5 15
t-2.5 15t-15 6.5z" />
    <glyph glyph-name="maichattawalowrightthai" unicode="&#xf70d;" 
d="M59 467h-66l-14 -66h-37l14 66h-67l7 33h67l15 67h37l-15 -67h66z" />
    <glyph glyph-name="thanthakhatlowrightthai" unicode="&#xf70e;" 
d="M127 587q-5 -28 -24 -43t-35 -20q-16 -6 -33.5 -8.5t-33.5 -4t-29 -3.5t-21 -8q17 -1 28 -14t6 -33q-5 -23 -24 -38.5t-42 -15.5t-35.5 15.5t-8.5 38.5q5 26 23 46t45 31q21 9 45 10.5t46 4.5t38 11t20 31h35zM-64 479q-13 0 -21 -8t-10 -17t2.5 -17t17.5 -8q12 0 20 8
t10 17t-2.5 17t-16.5 8z" />
    <glyph glyph-name="yoyingnobasethai" unicode="&#xf70f;" horiz-adv-x="493" 
d="M455 65q-5 -20 -10.5 -33t-15 -20t-24 -9.5t-36.5 -2.5h-165l8 36h41l45 213q6 27 -6.5 42.5t-35.5 20t-53.5 -1.5t-60.5 -21q11 -4 22 -10q10 -5 21 -13t22 -19q-16 -2 -30 -9q-12 -7 -23.5 -20t-17.5 -39l-15 -67q7 4 23 4q29 0 39.5 -19t6 -42t-23.5 -42t-48 -19
q-27 0 -41.5 16.5t-8.5 45.5l26 121q7 34 24 50.5t33 21.5q-8 7 -19 13q-9 5 -21.5 10.5t-29.5 9.5q17 17 41 31q20 12 48.5 22t64.5 10q27 0 49 -4.5t36.5 -15.5t20 -29.5t-0.5 -46.5l-45 -213h82q20 0 26.5 6t10.5 23l58 273h41zM135 86q-15 0 -25 -9.5t-12.5 -21t3.5 -21
t21 -9.5t25 9.5t12.5 21t-3.5 21t-21 9.5z" />
    <glyph glyph-name="maihanakatleftthai" unicode="&#xf710;" 
d="M169 529q-9 -22 -27.5 -43.5t-43 -39t-53 -29.5t-57.5 -14q-34 -3 -62.5 6t-51.5 26q-7 7 -11.5 16t-3.5 22q0 23 17 46t50 26q24 2 37.5 -9t15.5 -28t-6.5 -36t-28.5 -31q25 -7 48 -4q22 2 44.5 11t41.5 22.5t34 32t23 39.5zM-78 516q-15 -1 -23 -11t-9.5 -21t4.5 -19.5
t21 -6.5q14 1 22.5 10.5t9.5 20.5t-5 19.5t-20 7.5z" />
    <glyph glyph-name="nikhahitleftthai" unicode="&#xf711;" 
d="M-81 503q31 0 42 -19t6.5 -42.5t-24 -42.5t-50.5 -19q-30 0 -41.5 19t-6.5 42.5t24.5 42.5t49.5 19zM-87 475q-17 0 -27.5 -10.5t-13 -23t3.5 -23t23 -10.5t27.5 10.5t13 23t-3.5 23t-23 10.5z" />
    <glyph glyph-name="maitaikhuleftthai" unicode="&#xf712;" 
d="M14 583q-7 -45 -43 -60.5t-109 -7.5q-14 1 -29 0t-26 -7.5t-16.5 -20t0.5 -36.5q5 8 13 14q7 5 16 10t22 5q10 0 18.5 -3.5t14.5 -8.5q7 -5 12 -11q8 14 21 23.5t30 9.5q22 0 30.5 -14t4.5 -31t-18 -31t-36 -13q-15 0 -26 8t-20 17t-18 16t-20 6q-14 -2 -23 -9.5
t-15 -16.5q-7 -11 -11 -23q-10 5 -17.5 17t-11 26.5t-2 31t10.5 30.5q17 27 45.5 35t66.5 3q21 -2 39.5 -2.5t32.5 3.5t22.5 13.5t10.5 26.5h31zM-67 468q-11 0 -18 -7t-9 -15t2.5 -15t15.5 -7t18 7t9 15t-2.5 15t-15.5 7z" />
    <glyph glyph-name="maiekupperleftthai" unicode="&#xf713;" 
d="M-6 617h-37l25 116h37z" />
    <glyph glyph-name="maithoupperleftthai" unicode="&#xf714;" 
d="M121 736q-6 -31 -23.5 -58.5t-42 -47.5t-54 -32t-60.5 -12q-36 0 -61 7q10 5 20 13q8 7 16.5 16t15.5 21q-4 -2 -8 -2q-6 -1 -18 2q-14 4 -21.5 15.5t-2.5 31.5q5 21 22 35.5t40 14.5q27 0 37.5 -16t5.5 -36q-4 -17 -10.5 -30t-14.5 -23q-9 -11 -18 -20q24 1 47 11
t42 26.5t32.5 38t18.5 45.5h37zM-61 714q-12 0 -19.5 -7.5t-9.5 -16.5t2.5 -16.5t16.5 -7.5t19.5 7.5t9.5 16.5t-2.5 16.5t-16.5 7.5z" />
    <glyph glyph-name="maitriupperleftthai" unicode="&#xf715;" 
d="M108 719q-2 -16 -10 -40t-27 -44q-15 -17 -33.5 -24.5t-35.5 -10.5q-19 -4 -38 -2q6 8 20.5 22t21.5 40q1 6 2.5 13t0.5 13t-5.5 10t-13.5 4q-7 0 -12 -3t-10 -7t-9 -9q-1 0 -7 9.5t-25 9.5q-12 0 -21.5 -8.5t-11.5 -22.5q3 1 7 3q3 1 7 2t9 1q19 0 27.5 -11.5t4.5 -30.5
q-3 -14 -17 -26t-31 -11q-26 1 -36.5 22.5t-2.5 47.5q6 24 23 42t43 18q19 0 26.5 -8t8.5 -8q4 4 10 8q5 3 12 5.5t16 2.5q25 0 32 -17t2 -43q-5 -19 -11 -27.5t-12 -15.5l16 8q7 4 14 9t12 12q23 28 23 66zM-86 657q-11 0 -18 -7t-9 -15t2 -15t15 -7t18 7t9 15t-2 15t-15 7
z" />
    <glyph glyph-name="maichattawaupperleftthai" unicode="&#xf716;" 
d="M64 648h-63l-11 -50h-37l11 50h-62l7 33h62l10 50h37l-10 -50h63z" />
    <glyph glyph-name="thanthakhatupperleftthai" unicode="&#xf717;" 
d="M132 730q-8 -23 -24.5 -32.5t-28.5 -11.5q-20 -3 -37.5 0t-33.5 3.5t-29 -4.5t-24 -23q4 4 10 8q5 3 12 5.5t17 0.5q21 -3 26 -18t-1 -31.5t-22 -28.5t-37 -9q-26 3 -34 24t-1 43q7 21 22.5 35.5t36.5 19.5q19 4 38 2t35.5 -3.5t29 3t18.5 22.5zM-15 654q-9 1 -16.5 -4.5
t-10.5 -13t-0.5 -14.5t12.5 -8q9 -2 16.5 3.5t10.5 13t0.5 14.5t-12.5 9z" />
    <glyph glyph-name="saraulowthai" unicode="&#xf718;" 
d="M-138 -405h-42l19 88q-11 -3 -21 -3q-30 0 -41 19t-6 42.5t24 42.5t50 19q26 0 40 -16t8 -45zM-161 -228q-15 0 -25 -9.5t-12.5 -21.5t3 -21.5t20.5 -9.5t25 9.5t12.5 21.5t-3 21.5t-20.5 9.5z" />
    <glyph glyph-name="sarauulowthai" unicode="&#xf719;" 
d="M-127 -355q-6 -28 -30.5 -43t-50.5 -15t-43 15t-11 43l8 38q-5 -2 -8 -2.5t-14 -0.5q-30 0 -41 19t-6 42.5t24 42.5t50 19q26 0 40.5 -16t8.5 -45q-6 -28 -10 -49q-4 -18 -7.5 -33t-2.5 -15q-3 -11 3 -18t17 -7q10 0 19 7t12 18l32 153h42zM-255 -228q-15 0 -25 -9.5
t-12.5 -21.5t3 -21.5t20.5 -9.5q16 0 26 9.5t12.5 21.5t-3 21.5t-21.5 9.5z" />
    <glyph glyph-name="phinthulowthai" unicode="&#xf71a;" 
d="M-128 -187q16 0 22.5 -10.5t3.5 -22.5t-13.5 -22.5t-26.5 -10.5q-17 0 -23 10.5t-3.5 22.5t13 22.5t27.5 10.5z" />
    <glyph glyph-name="lochula.short" unicode="&#xf71d;" horiz-adv-x="432" 
d="M528 363q-9 -16 -21 -28.5t-24.5 -21.5t-23.5 -14.5t-17 -7.5q-18 -81 -31 -145q-6 -28 -11.5 -54t-10.5 -46q-5 -24 -9 -46h-42l1 4t2 10.5t1 14t-1 13.5l-47 197l-133 -197q-5 -6 -8 -13.5t-5 -13.5l-5 -15h-41l48 224q-8 -4 -21 -4q-30 0 -41.5 19t-6.5 42.5
t24.5 42.5t49.5 19q29 0 41 -18t7 -44l-2.5 -13t-6.5 -32t-9 -41.5t-9 -41.5t-7 -32l-3 -13l146 216l49 -216l37 174q-33 -3 -44 15t-6 41t23.5 37.5t43.5 14.5t36.5 -18t3.5 -40q8 5 17 12q8 6 15.5 14.5t14.5 21.5zM407 363q-13 0 -21 -8t-10 -18t2.5 -18t17.5 -8t21.5 8
t10.5 18t-3 18t-18 8zM148 312q-15 0 -25 -9.5t-12.5 -21.5t3.5 -21.5t21 -9.5q16 0 26 9.5t12 21.5t-3.5 21.5t-21.5 9.5z" />
    <glyph glyph-name="rulakkhangyao" unicode="&#xf881;" horiz-adv-x="558" 
d="M427 -177l91 424q7 33 -10.5 50t-49.5 17q-31 0 -55.5 -16.5t-40.5 -41.5l-3 -21l-88 -412h-41l88 412q4 18 -0.5 32.5t-15.5 24t-26.5 15t-34.5 5.5q-23 0 -50.5 -9t-51.5 -26q11 -3 22 -8q22 -10 42 -30q-16 -4 -30 -13q-12 -8 -23 -21t-16 -35l-13 -58q7 4 23 4
q29 0 39.5 -19t6 -42t-23.5 -42t-48 -19q-27 0 -41.5 16.5t-8.5 45.5l24 112q7 35 23 49t31 20q-7 7 -17 13q-8 5 -21 9.5t-30 6.5q22 21 48 39q23 15 54 27.5t68 12.5q38 0 66 -12t40 -37q20 20 46 34.5t64 14.5q25 0 44.5 -6.5t32.5 -19.5t17.5 -31.5t-0.5 -42.5l-90 -422
h-41zM122 25q15 0 25 9.5t12.5 21t-3.5 21t-21 9.5t-25 -9.5t-12.5 -21t3.5 -21t21 -9.5z" />
    <glyph glyph-name="lulakkhangyao" unicode="&#xf882;" horiz-adv-x="599" 
d="M468 -177l91 424q7 33 -10.5 50t-49.5 17q-30 0 -54.5 -16t-40.5 -41q0 -10 -3 -22l-88 -412h-42l88 412q8 38 -15.5 57.5t-61.5 19.5q-23 0 -50 -9t-51 -26l6 -2t15 -6.5t20.5 -11.5t21.5 -18q-16 -4 -30 -13q-12 -8 -23 -21t-16 -35l-25 -116q-5 -23 -23.5 -41.5
t-49.5 -18.5t-42 19t-6.5 42t24 42t50.5 19q11 0 19 -4l12 56q7 35 22.5 49t30.5 20q-7 7 -17 13q-8 5 -21 9.5t-30 6.5q23 21 49 39q23 15 53.5 27.5t67.5 12.5q38 0 66 -12t41 -37q19 21 45 35t64 14q25 0 44.5 -6.5t32.5 -19.5t17.5 -31.5t-0.5 -42.5l-90 -422h-41z
M83 25q15 0 25 9.5t12.5 21t-3.5 21t-21 9.5t-25 -9.5t-12.5 -21t3.5 -21t21 -9.5z" />
    <glyph glyph-name="yamakkanleftthai" 
d="M-16 568q-13 2 -23 -2.5t-14 -17.5q-2 -8 -1 -14.5t3 -10.5q3 -5 6 -8q-6 -4 -11 -8q-11 -9 -14 -24q-4 -14 4 -18.5t21 -5.5l-10 -34q-26 2 -39 18.5t-7 40.5q3 12 10.5 20.5t10.5 12.5q-2 3 -4 12t1 21q7 25 27.5 40.5t48.5 13.5z" />
    <glyph glyph-name="saraamleft" horiz-adv-x="295" 
d="M-76 523q31 0 42 -19t6.5 -42t-24 -42t-50.5 -19t-42 19t-6.5 42t24 42t50.5 19zM243 0h-41l53 247q7 33 -10.5 50t-49.5 17q-31 0 -56 -16.5t-41 -42.5l-28 15q11 15 23.5 28.5t28 24t35 16.5t44.5 6t44.5 -6.5t32.5 -19.5t17.5 -31.5t-0.5 -42.5zM-82 493
q-16 0 -26 -10t-12.5 -21.5t3 -21.5t21.5 -10t26 10t12.5 21.5t-3 21.5t-21.5 10z" />
    <glyph glyph-name="uni0E33.alt1" horiz-adv-x="295" 
d="M-76 523q31 0 42 -19t6.5 -42t-24 -42t-50.5 -19t-42 19t-6.5 42t24 42t50.5 19zM243 0h-41l53 247q7 33 -10.5 50t-49.5 17q-31 0 -56 -16.5t-41 -42.5l-28 15q11 15 23.5 28.5t28 24t35 16.5t44.5 6t44.5 -6.5t32.5 -19.5t17.5 -31.5t-0.5 -42.5zM-82 493
q-16 0 -26 -10t-12.5 -21.5t3 -21.5t21.5 -10t26 10t12.5 21.5t-3 21.5t-21.5 10z" />
    <glyph glyph-name="saraiithai.alt1" 
d="M19 436q2 -14 1.5 -26t0.5 -20q-18 7 -38 13q-17 5 -38.5 10.5t-43.5 7.5q-27 3 -54 3t-49 -2q-26 -2 -49 -5q10 25 29.5 47t43.5 38t50.5 24t51.5 5q25 -4 41.5 -13t27.5 -22l16 75h38zM-14 427q-2 9 -5.5 20.5t-11.5 22t-22 19t-38 11.5q-14 2 -29.5 -2t-30 -11.5
t-25.5 -17.5t-16 -19q14 2 30 3q14 1 30 1t33 -2q23 -2 39 -6.5t27 -8.5q11 -5 19 -10z" />
    <glyph glyph-name="saraueethai.alt1" 
d="M19 436q2 -14 1.5 -26t0.5 -20q-18 7 -38 13q-17 5 -38.5 10.5t-43.5 7.5q-27 3 -54 3t-49 -2q-26 -2 -49 -5q10 25 29.5 47t43.5 38t50.5 24t51.5 5h3l8 40h37q0 -1 -1.5 -8.5l-3.5 -17.5q-3 -11 -5 -25q10 -5 17.5 -11t13.5 -13l16 75h38zM-14 427q-2 9 -5.5 20.5
t-11.5 22t-22 19t-38 11.5q-14 2 -29.5 -2t-30 -11.5t-25.5 -17.5t-16 -19q14 2 30 3q14 1 30 1t33 -2q23 -2 39 -6.5t27 -8.5q11 -5 19 -10z" />
    <glyph glyph-name="maiekthai.alt1" 
d="M57 617h-38l25 116h38z" />
    <glyph glyph-name="maichattawathai.alt1" 
d="M62 648l-10 -50h-38l10 50h-61l7 33h61l11 50h38l-11 -50h63l-7 -33h-63z" />
    </font>
</defs>
</svg>
